G04 #@! TF.GenerationSoftware,KiCad,Pcbnew,(5.1.2)-2*
G04 #@! TF.CreationDate,2020-04-25T17:38:05-07:00*
G04 #@! TF.ProjectId,370Z_AC_Interface,3337305a-5f41-4435-9f49-6e7465726661,rev?*
G04 #@! TF.SameCoordinates,Original*
G04 #@! TF.FileFunction,Copper,L2,Bot*
G04 #@! TF.FilePolarity,Positive*
%FSLAX46Y46*%
G04 Gerber Fmt 4.6, Leading zero omitted, Abs format (unit mm)*
G04 Created by KiCad (PCBNEW (5.1.2)-2) date 2020-04-25 17:38:05*
%MOMM*%
%LPD*%
G04 APERTURE LIST*
%ADD10O,1.700000X1.700000*%
%ADD11R,1.700000X1.700000*%
%ADD12O,4.000000X3.500000*%
%ADD13O,2.200000X1.500000*%
%ADD14C,1.500000*%
%ADD15O,2.200000X1.300000*%
%ADD16O,1.300000X2.200000*%
%ADD17O,1.500000X2.200000*%
%ADD18O,3.500000X4.000000*%
%ADD19C,0.635000*%
%ADD20C,0.508000*%
%ADD21C,0.762000*%
%ADD22C,0.254000*%
%ADD23C,1.270000*%
%ADD24C,1.905000*%
%ADD25C,1.016000*%
%ADD26C,0.635000*%
G04 APERTURE END LIST*
D10*
X129540000Y-90043000D03*
D11*
X132080000Y-90043000D03*
X134620000Y-85979000D03*
D12*
X115719000Y-91798000D03*
X115719000Y-84478000D03*
D13*
X120039000Y-89638000D03*
X120039000Y-86638000D03*
X123039000Y-86638000D03*
X123039000Y-89638000D03*
D14*
X171069000Y-91059000D03*
X171069000Y-86179000D03*
X150580181Y-101578319D03*
X147129500Y-105029000D03*
D10*
X139700000Y-83439000D03*
X137160000Y-83439000D03*
X134620000Y-83439000D03*
D11*
X132080000Y-83439000D03*
D10*
X131572000Y-103886000D03*
X134112000Y-103886000D03*
D11*
X136652000Y-103886000D03*
D15*
X170470000Y-108516000D03*
X170470000Y-101916000D03*
X173470000Y-117316000D03*
X170470000Y-117316000D03*
X173470000Y-115116000D03*
X170470000Y-115116000D03*
X173470000Y-112916000D03*
X170470000Y-112916000D03*
X173470000Y-110716000D03*
X170470000Y-110716000D03*
X173470000Y-108516000D03*
X173470000Y-106316000D03*
X170470000Y-106316000D03*
X173470000Y-104116000D03*
X170470000Y-104116000D03*
X173470000Y-101916000D03*
D16*
X142797000Y-64262000D03*
X122997000Y-64262000D03*
X122997000Y-61262000D03*
X125197000Y-64262000D03*
X125197000Y-61262000D03*
X127397000Y-64262000D03*
X127397000Y-61262000D03*
X129597000Y-64262000D03*
X129597000Y-61262000D03*
X131797000Y-64262000D03*
X131797000Y-61262000D03*
X133997000Y-64262000D03*
X133997000Y-61262000D03*
X136197000Y-64262000D03*
X136197000Y-61262000D03*
X138397000Y-64262000D03*
X138397000Y-61262000D03*
X140597000Y-64262000D03*
X140597000Y-61262000D03*
X142797000Y-61262000D03*
X144997000Y-64262000D03*
X144997000Y-61262000D03*
X147197000Y-64262000D03*
X147197000Y-61262000D03*
X149397000Y-64262000D03*
X149397000Y-61262000D03*
X151597000Y-64262000D03*
X151597000Y-61262000D03*
X153797000Y-64262000D03*
X153797000Y-61262000D03*
X155997000Y-64262000D03*
X155997000Y-61262000D03*
X158197000Y-64262000D03*
X158197000Y-61262000D03*
X160397000Y-64262000D03*
X160397000Y-61262000D03*
X162597000Y-64262000D03*
X162597000Y-61262000D03*
X164797000Y-64262000D03*
X164797000Y-61262000D03*
D17*
X138914000Y-110006000D03*
X135914000Y-110006000D03*
X135914000Y-113006000D03*
X138914000Y-113006000D03*
D18*
X133754000Y-117326000D03*
X141074000Y-117326000D03*
D17*
X120444000Y-109982000D03*
X123444000Y-109982000D03*
X117444000Y-109982000D03*
X117444000Y-112982000D03*
X120444000Y-112982000D03*
X123444000Y-112982000D03*
D18*
X115284000Y-117302000D03*
X125604000Y-117302000D03*
D13*
X179245000Y-62628000D03*
X179245000Y-68628000D03*
X179245000Y-62628000D03*
X179245000Y-83628000D03*
X182245000Y-83628000D03*
X182245000Y-68628000D03*
X182245000Y-62628000D03*
D12*
X186565000Y-85788000D03*
X186565000Y-60468000D03*
D13*
X179245000Y-65628000D03*
X182245000Y-65628000D03*
X179245000Y-71628000D03*
X182245000Y-71628000D03*
X179245000Y-74628000D03*
X182245000Y-74628000D03*
X179245000Y-77628000D03*
X182245000Y-77628000D03*
X179245000Y-80628000D03*
X182245000Y-80628000D03*
D19*
X150852000Y-76199000D03*
X149177000Y-77724000D03*
X149177000Y-74724000D03*
X152527000Y-77724000D03*
X130556000Y-77978000D03*
X131572000Y-77978000D03*
X132588000Y-77978000D03*
X133604000Y-77978000D03*
X134620000Y-77978000D03*
X135636000Y-77978000D03*
X136652000Y-77978000D03*
X135128000Y-68580000D03*
X136144000Y-68580000D03*
X137160000Y-68580000D03*
X138176000Y-68580000D03*
X143764000Y-71882000D03*
X144780000Y-71882000D03*
X145796000Y-71882000D03*
X146812000Y-71882000D03*
X147828000Y-71882000D03*
X140208000Y-68580000D03*
X141224000Y-68580000D03*
X143256000Y-68580000D03*
X142240000Y-68580000D03*
X139192000Y-68580000D03*
X146304000Y-68580000D03*
X145288000Y-68580000D03*
X144272000Y-68580000D03*
X141986000Y-75946000D03*
X141986000Y-76962000D03*
X141986000Y-77978000D03*
X141986000Y-78994000D03*
X146431000Y-94361000D03*
X143319500Y-96583500D03*
X171691250Y-74155250D03*
X171691250Y-75704750D03*
X167005000Y-115570000D03*
X167005000Y-116840000D03*
X167005000Y-118110000D03*
X129286000Y-110998000D03*
X129286000Y-112014000D03*
X129286000Y-113030000D03*
X163703000Y-82804000D03*
X165104000Y-93857000D03*
X167513000Y-82804000D03*
X163322000Y-86106000D03*
X141351000Y-70231000D03*
X142557500Y-70231000D03*
X155890000Y-78102500D03*
X155892500Y-76200000D03*
X157162500Y-76200000D03*
D20*
X147320000Y-97091500D03*
X146685000Y-97599500D03*
D21*
X127381000Y-99060000D03*
X173736000Y-78994000D03*
X120015000Y-100076000D03*
D19*
X147955000Y-86614000D03*
X146685000Y-86614000D03*
X145415000Y-86614000D03*
X144145000Y-86614000D03*
D21*
X158115000Y-94615000D03*
D19*
X145415000Y-84582000D03*
X144145000Y-84582000D03*
X146685000Y-84582000D03*
D21*
X118364000Y-70358000D03*
X150495000Y-94742000D03*
X117221000Y-70358000D03*
X167513000Y-77216000D03*
X144462500Y-95377000D03*
X136144000Y-93789500D03*
X121031000Y-95758000D03*
X116395500Y-95250000D03*
X141373860Y-98714560D03*
X141371320Y-100063300D03*
X124206000Y-80391000D03*
X125476000Y-91440000D03*
X177419000Y-89154000D03*
X142367000Y-88900000D03*
D19*
X142947920Y-91830420D03*
X140335000Y-87693500D03*
X148463000Y-92075000D03*
X156591000Y-90043000D03*
X174244000Y-80518000D03*
X154686000Y-86487000D03*
X173228000Y-80518000D03*
X154432000Y-85598000D03*
X137795000Y-90043000D03*
X136271000Y-88900000D03*
X123698000Y-77724000D03*
X119888000Y-98171000D03*
X144145000Y-93408500D03*
X120142000Y-104076500D03*
X143510000Y-94107000D03*
X126111000Y-104775000D03*
X128714500Y-97345500D03*
X168656000Y-78359000D03*
X161544000Y-79375000D03*
X166243000Y-79883000D03*
X160020000Y-79629000D03*
X158750000Y-79629000D03*
X159512000Y-75882500D03*
X159512000Y-76644500D03*
X166243000Y-79248000D03*
X123698000Y-76581000D03*
X138811000Y-94234000D03*
X132588000Y-91567000D03*
X138303000Y-93472000D03*
D22*
X143319500Y-96583500D02*
X143319500Y-95250000D01*
X143319500Y-95250000D02*
X144208500Y-94361000D01*
X144208500Y-94361000D02*
X146431000Y-94361000D01*
D23*
X182245000Y-61468000D02*
X182245000Y-62580000D01*
X149397000Y-61262000D02*
X149397000Y-58883000D01*
X149542500Y-58737500D02*
X159131000Y-58737500D01*
X149397000Y-58883000D02*
X149542500Y-58737500D01*
X159131000Y-58737500D02*
X160909000Y-56959500D01*
X160909000Y-56959500D02*
X177736500Y-56959500D01*
X177736500Y-56959500D02*
X182245000Y-61468000D01*
D24*
X147828000Y-57785000D02*
X149397000Y-59354000D01*
X121666000Y-57785000D02*
X147828000Y-57785000D01*
X120142000Y-59309000D02*
X121666000Y-57785000D01*
X120142000Y-65913000D02*
X120142000Y-59309000D01*
X116220500Y-112982000D02*
X112395000Y-109156500D01*
X112395000Y-109156500D02*
X112395000Y-71247000D01*
X112395000Y-71247000D02*
X115062000Y-68580000D01*
X115062000Y-68580000D02*
X117475000Y-68580000D01*
X149397000Y-59354000D02*
X149397000Y-61262000D01*
X117444000Y-112982000D02*
X116220500Y-112982000D01*
X117475000Y-68580000D02*
X120142000Y-65913000D01*
D22*
X179245000Y-75517000D02*
X179245000Y-74580000D01*
X178943000Y-75819000D02*
X179245000Y-75517000D01*
X171704000Y-74168000D02*
X173355000Y-75819000D01*
X171704000Y-74142500D02*
X171704000Y-74168000D01*
X131797000Y-65630000D02*
X132588000Y-66421000D01*
X131797000Y-64262000D02*
X131797000Y-65630000D01*
X147066000Y-66421000D02*
X155321000Y-74676000D01*
X173355000Y-75819000D02*
X178943000Y-75819000D01*
X155321000Y-74676000D02*
X171170500Y-74676000D01*
X132588000Y-66421000D02*
X147066000Y-66421000D01*
X171170500Y-74676000D02*
X171704000Y-74142500D01*
X129597000Y-62160000D02*
X129597000Y-61262000D01*
X132334000Y-66929000D02*
X130683000Y-65278000D01*
X146685000Y-66929000D02*
X132334000Y-66929000D01*
X154940000Y-75184000D02*
X146685000Y-66929000D01*
X179245000Y-76629000D02*
X178943000Y-76327000D01*
X130683000Y-65278000D02*
X130683000Y-63246000D01*
X171196000Y-75184000D02*
X154940000Y-75184000D01*
X179245000Y-77580000D02*
X179245000Y-76629000D01*
X178943000Y-76327000D02*
X173101000Y-76327000D01*
X130683000Y-63246000D02*
X129597000Y-62160000D01*
X173101000Y-76327000D02*
X172491500Y-75717500D01*
X172491500Y-75717500D02*
X171729500Y-75717500D01*
X171729500Y-75717500D02*
X171196000Y-75184000D01*
D23*
X167005000Y-118110000D02*
X167005000Y-100965000D01*
X167005000Y-100965000D02*
X168402000Y-99568000D01*
X168402000Y-99568000D02*
X175006000Y-99568000D01*
X175006000Y-99568000D02*
X179245000Y-95329000D01*
X179245000Y-95329000D02*
X179245000Y-83628000D01*
X167459000Y-115116000D02*
X170470000Y-115116000D01*
X129286000Y-110998000D02*
X129286000Y-112014000D01*
X129286000Y-112014000D02*
X129286000Y-113030000D01*
X127254000Y-109982000D02*
X128270000Y-109982000D01*
X128270000Y-109982000D02*
X129286000Y-110998000D01*
X127254000Y-109982000D02*
X123444000Y-109982000D01*
X183642000Y-111633000D02*
X183642000Y-96520000D01*
X183642000Y-96520000D02*
X182245000Y-95123000D01*
X182245000Y-95123000D02*
X182245000Y-83628000D01*
X173470000Y-112916000D02*
X173457000Y-112903000D01*
X173457000Y-112903000D02*
X175514000Y-112903000D01*
X175514000Y-112903000D02*
X176784000Y-111633000D01*
X176784000Y-111633000D02*
X183642000Y-111633000D01*
X183642000Y-111633000D02*
X183642000Y-119126000D01*
X123444000Y-112982000D02*
X126190000Y-112982000D01*
X126190000Y-112982000D02*
X129286000Y-116078000D01*
X129286000Y-116078000D02*
X129286000Y-119380000D01*
X129286000Y-119380000D02*
X130810000Y-120904000D01*
X130810000Y-120904000D02*
X181864000Y-120904000D01*
X181864000Y-120904000D02*
X183642000Y-119126000D01*
X173483000Y-112903000D02*
X173470000Y-112916000D01*
X162597000Y-64262000D02*
X164797000Y-64262000D01*
X179245000Y-65580000D02*
X178864000Y-65580000D01*
X177038000Y-64643000D02*
X177975000Y-65580000D01*
X177975000Y-65580000D02*
X179245000Y-65580000D01*
X177038000Y-61468000D02*
X177038000Y-64643000D01*
X165989000Y-64262000D02*
X167259000Y-62992000D01*
X164797000Y-64262000D02*
X165989000Y-64262000D01*
X167259000Y-62992000D02*
X167259000Y-61468000D01*
X167259000Y-61468000D02*
X168211500Y-60515500D01*
X168211500Y-60515500D02*
X176085500Y-60515500D01*
X176085500Y-60515500D02*
X177038000Y-61468000D01*
X160397000Y-61262000D02*
X160397000Y-60202000D01*
X160397000Y-60202000D02*
X161861500Y-58737500D01*
X161861500Y-58737500D02*
X176974500Y-58737500D01*
X176974500Y-58737500D02*
X179245000Y-61008000D01*
X179245000Y-61008000D02*
X179245000Y-62580000D01*
D22*
X160397000Y-64262000D02*
X160401000Y-64262000D01*
X182245000Y-66548000D02*
X182245000Y-65580000D01*
X160397000Y-65782000D02*
X164592000Y-69977000D01*
X160397000Y-64262000D02*
X160397000Y-65782000D01*
X164592000Y-69977000D02*
X174752000Y-69977000D01*
X174752000Y-69977000D02*
X177927000Y-66802000D01*
X177927000Y-66802000D02*
X181991000Y-66802000D01*
X181991000Y-66802000D02*
X182245000Y-66548000D01*
X159131000Y-66040000D02*
X164084000Y-70993000D01*
X157861000Y-66040000D02*
X159131000Y-66040000D01*
X157099000Y-65278000D02*
X157861000Y-66040000D01*
X157099000Y-62738000D02*
X157099000Y-65278000D01*
X158197000Y-61262000D02*
X158197000Y-61640000D01*
X158197000Y-61640000D02*
X157099000Y-62738000D01*
X164084000Y-70993000D02*
X175260000Y-70993000D01*
X175260000Y-70993000D02*
X177673000Y-68580000D01*
X177673000Y-68580000D02*
X179245000Y-68580000D01*
X178943000Y-68580000D02*
X179245000Y-68580000D01*
X158197000Y-64344000D02*
X164338000Y-70485000D01*
X158197000Y-64262000D02*
X158197000Y-64344000D01*
X164338000Y-70485000D02*
X175006000Y-70485000D01*
X182245000Y-67564000D02*
X182245000Y-68580000D01*
X175006000Y-70485000D02*
X178181000Y-67310000D01*
X178181000Y-67310000D02*
X181991000Y-67310000D01*
X181991000Y-67310000D02*
X182245000Y-67564000D01*
X149397000Y-66212000D02*
X156337000Y-73152000D01*
X149397000Y-64262000D02*
X149397000Y-66212000D01*
X156337000Y-73152000D02*
X160909000Y-73152000D01*
X160909000Y-73152000D02*
X161671000Y-72390000D01*
X161671000Y-72390000D02*
X178435000Y-72390000D01*
X178435000Y-72390000D02*
X179245000Y-71580000D01*
X147197000Y-61262000D02*
X147197000Y-61718000D01*
X161544000Y-74168000D02*
X162306000Y-73406000D01*
X155829000Y-74168000D02*
X161544000Y-74168000D01*
X147197000Y-61464000D02*
X146113500Y-62547500D01*
X162306000Y-73406000D02*
X181927500Y-73406000D01*
X147197000Y-61262000D02*
X147197000Y-61464000D01*
X181927500Y-73406000D02*
X182245000Y-73723500D01*
X146113500Y-65214500D02*
X146685000Y-65786000D01*
X146685000Y-65786000D02*
X147447000Y-65786000D01*
X182245000Y-73723500D02*
X182245000Y-74580000D01*
X146113500Y-62547500D02*
X146113500Y-65214500D01*
X147447000Y-65786000D02*
X155829000Y-74168000D01*
X147197000Y-64262000D02*
X147197000Y-64520000D01*
X182245000Y-72580500D02*
X182245000Y-71580000D01*
X147197000Y-64774000D02*
X156083000Y-73660000D01*
X147197000Y-64262000D02*
X147197000Y-64774000D01*
X156083000Y-73660000D02*
X161163000Y-73660000D01*
X161163000Y-73660000D02*
X161925000Y-72898000D01*
X161925000Y-72898000D02*
X181927500Y-72898000D01*
X181927500Y-72898000D02*
X182245000Y-72580500D01*
X163703000Y-83312000D02*
X163703000Y-82804000D01*
X162560000Y-84455000D02*
X163703000Y-83312000D01*
X165104000Y-93857000D02*
X162560000Y-91313000D01*
X162560000Y-91313000D02*
X162560000Y-84455000D01*
X166878000Y-82804000D02*
X167513000Y-82804000D01*
X164909500Y-82804000D02*
X166878000Y-82804000D01*
X163322000Y-86106000D02*
X163322000Y-84391500D01*
X163322000Y-84391500D02*
X164909500Y-82804000D01*
D25*
X141351000Y-70231000D02*
X142557500Y-70231000D01*
D22*
X155890000Y-76202500D02*
X155890000Y-78102500D01*
X155892500Y-76200000D02*
X155890000Y-76202500D01*
D25*
X148742400Y-70231000D02*
X142557500Y-70231000D01*
X154711400Y-76200000D02*
X148742400Y-70231000D01*
X155892500Y-76200000D02*
X154711400Y-76200000D01*
X157162500Y-76200000D02*
X155892500Y-76200000D01*
D22*
X138914000Y-108736000D02*
X138914000Y-110006000D01*
X147320000Y-97091500D02*
X147320000Y-98234500D01*
X147320000Y-98234500D02*
X138914000Y-106640500D01*
X138914000Y-106640500D02*
X138914000Y-108736000D01*
X135914000Y-108688000D02*
X135914000Y-110006000D01*
X146685000Y-97917000D02*
X135914000Y-108688000D01*
X146685000Y-97599500D02*
X146685000Y-97917000D01*
D26*
X118364000Y-70358000D02*
X117221000Y-70358000D01*
D23*
X124968000Y-77089000D02*
X129667000Y-81788000D01*
X124968000Y-75946000D02*
X124968000Y-77089000D01*
X124079000Y-75057000D02*
X124968000Y-75946000D01*
X124079000Y-72009000D02*
X124079000Y-75057000D01*
X122428000Y-70358000D02*
X124079000Y-72009000D01*
X118364000Y-70358000D02*
X122428000Y-70358000D01*
X129667000Y-81788000D02*
X130556000Y-81788000D01*
D22*
X142947920Y-91766920D02*
X142947920Y-91830420D01*
X140335000Y-89154000D02*
X142947920Y-91766920D01*
X140335000Y-87693500D02*
X140335000Y-89154000D01*
X154813000Y-91821000D02*
X156591000Y-90043000D01*
X148463000Y-92075000D02*
X148717000Y-91821000D01*
X148717000Y-91821000D02*
X154813000Y-91821000D01*
X173482000Y-81280000D02*
X174244000Y-80518000D01*
X154686000Y-86487000D02*
X159893000Y-81280000D01*
X159893000Y-81280000D02*
X173482000Y-81280000D01*
X172974000Y-80772000D02*
X173228000Y-80518000D01*
X159639000Y-80772000D02*
X172974000Y-80772000D01*
X154432000Y-85598000D02*
X154813000Y-85598000D01*
X154813000Y-85598000D02*
X159639000Y-80772000D01*
X129921000Y-83439000D02*
X132080000Y-83439000D01*
X123698000Y-77724000D02*
X124206000Y-77724000D01*
X124206000Y-77724000D02*
X129921000Y-83439000D01*
X137414000Y-90043000D02*
X137795000Y-90043000D01*
X136271000Y-88900000D02*
X137414000Y-90043000D01*
X119893000Y-98176000D02*
X119888000Y-98171000D01*
X126487000Y-98176000D02*
X119893000Y-98176000D01*
X128778000Y-95885000D02*
X126487000Y-98176000D01*
X139509500Y-95885000D02*
X128778000Y-95885000D01*
X144145000Y-93408500D02*
X141986000Y-93408500D01*
X141986000Y-93408500D02*
X139509500Y-95885000D01*
X119062500Y-98996500D02*
X119888000Y-98171000D01*
X119062500Y-100520500D02*
X119062500Y-98996500D01*
X120142000Y-104076500D02*
X120142000Y-101600000D01*
X120142000Y-101600000D02*
X119062500Y-100520500D01*
X126111000Y-99314000D02*
X126111000Y-104775000D01*
X128079500Y-97345500D02*
X126111000Y-99314000D01*
X128714500Y-97345500D02*
X128079500Y-97345500D01*
X142049500Y-94107000D02*
X143510000Y-94107000D01*
X139763500Y-96393000D02*
X142049500Y-94107000D01*
X129095500Y-96393000D02*
X139763500Y-96393000D01*
X128714500Y-97345500D02*
X128714500Y-96774000D01*
X128714500Y-96774000D02*
X129095500Y-96393000D01*
X131699000Y-85979000D02*
X134620000Y-85979000D01*
X124142500Y-78422500D02*
X131699000Y-85979000D01*
X123444000Y-78422500D02*
X124142500Y-78422500D01*
X122999500Y-77978000D02*
X123444000Y-78422500D01*
X123698000Y-76581000D02*
X122999500Y-77279500D01*
X122999500Y-77279500D02*
X122999500Y-77978000D01*
X133604000Y-92583000D02*
X136398000Y-92583000D01*
X136398000Y-92583000D02*
X138049000Y-94234000D01*
X138049000Y-94234000D02*
X138811000Y-94234000D01*
X132588000Y-91567000D02*
X133604000Y-92583000D01*
X134112000Y-92075000D02*
X132080000Y-90043000D01*
X136652000Y-92075000D02*
X134112000Y-92075000D01*
X138303000Y-93472000D02*
X138049000Y-93472000D01*
X138049000Y-93472000D02*
X136652000Y-92075000D01*
G36*
X148072976Y-69215000D02*
G01*
X141301098Y-69215000D01*
X141151829Y-69229702D01*
X140960313Y-69287798D01*
X140783810Y-69382140D01*
X140629104Y-69509104D01*
X140502140Y-69663810D01*
X140407798Y-69840313D01*
X140349702Y-70031829D01*
X140330085Y-70231000D01*
X140349702Y-70430171D01*
X140407798Y-70621687D01*
X140502140Y-70798190D01*
X140629104Y-70952896D01*
X140783810Y-71079860D01*
X140960313Y-71174202D01*
X141151829Y-71232298D01*
X141301098Y-71247000D01*
X148321560Y-71247000D01*
X153957692Y-76883133D01*
X153989504Y-76921896D01*
X154144210Y-77048860D01*
X154304429Y-77134498D01*
X154320713Y-77143202D01*
X154512229Y-77201298D01*
X154711400Y-77220915D01*
X154761302Y-77216000D01*
X155255001Y-77216000D01*
X155255001Y-77570066D01*
X155248792Y-77576275D01*
X155158452Y-77711479D01*
X155096224Y-77861711D01*
X155064500Y-78021195D01*
X155064500Y-78183805D01*
X155096224Y-78343289D01*
X155158452Y-78493521D01*
X155248792Y-78628725D01*
X155363775Y-78743708D01*
X155498979Y-78834048D01*
X155649211Y-78896276D01*
X155808695Y-78928000D01*
X155971305Y-78928000D01*
X156130789Y-78896276D01*
X156281021Y-78834048D01*
X156416225Y-78743708D01*
X156531208Y-78628725D01*
X156621548Y-78493521D01*
X156683776Y-78343289D01*
X156715500Y-78183805D01*
X156715500Y-78021195D01*
X156683776Y-77861711D01*
X156621548Y-77711479D01*
X156531208Y-77576275D01*
X156525000Y-77570067D01*
X156525000Y-77216000D01*
X157212402Y-77216000D01*
X157361671Y-77201298D01*
X157553187Y-77143202D01*
X157607000Y-77114439D01*
X157607000Y-79830394D01*
X157427394Y-80010000D01*
X130179500Y-80010000D01*
X129683065Y-79974719D01*
X129434682Y-79939236D01*
X129159000Y-79663554D01*
X129159000Y-74601606D01*
X129338606Y-74422000D01*
X133477000Y-74422000D01*
X133501776Y-74419560D01*
X133525601Y-74412333D01*
X133547557Y-74400597D01*
X133566803Y-74384803D01*
X133582597Y-74365557D01*
X133594333Y-74343601D01*
X133601560Y-74319776D01*
X133604000Y-74295000D01*
X133604000Y-67870606D01*
X133783606Y-67691000D01*
X146548976Y-67691000D01*
X148072976Y-69215000D01*
X148072976Y-69215000D01*
G37*
X148072976Y-69215000D02*
X141301098Y-69215000D01*
X141151829Y-69229702D01*
X140960313Y-69287798D01*
X140783810Y-69382140D01*
X140629104Y-69509104D01*
X140502140Y-69663810D01*
X140407798Y-69840313D01*
X140349702Y-70031829D01*
X140330085Y-70231000D01*
X140349702Y-70430171D01*
X140407798Y-70621687D01*
X140502140Y-70798190D01*
X140629104Y-70952896D01*
X140783810Y-71079860D01*
X140960313Y-71174202D01*
X141151829Y-71232298D01*
X141301098Y-71247000D01*
X148321560Y-71247000D01*
X153957692Y-76883133D01*
X153989504Y-76921896D01*
X154144210Y-77048860D01*
X154304429Y-77134498D01*
X154320713Y-77143202D01*
X154512229Y-77201298D01*
X154711400Y-77220915D01*
X154761302Y-77216000D01*
X155255001Y-77216000D01*
X155255001Y-77570066D01*
X155248792Y-77576275D01*
X155158452Y-77711479D01*
X155096224Y-77861711D01*
X155064500Y-78021195D01*
X155064500Y-78183805D01*
X155096224Y-78343289D01*
X155158452Y-78493521D01*
X155248792Y-78628725D01*
X155363775Y-78743708D01*
X155498979Y-78834048D01*
X155649211Y-78896276D01*
X155808695Y-78928000D01*
X155971305Y-78928000D01*
X156130789Y-78896276D01*
X156281021Y-78834048D01*
X156416225Y-78743708D01*
X156531208Y-78628725D01*
X156621548Y-78493521D01*
X156683776Y-78343289D01*
X156715500Y-78183805D01*
X156715500Y-78021195D01*
X156683776Y-77861711D01*
X156621548Y-77711479D01*
X156531208Y-77576275D01*
X156525000Y-77570067D01*
X156525000Y-77216000D01*
X157212402Y-77216000D01*
X157361671Y-77201298D01*
X157553187Y-77143202D01*
X157607000Y-77114439D01*
X157607000Y-79830394D01*
X157427394Y-80010000D01*
X130179500Y-80010000D01*
X129683065Y-79974719D01*
X129434682Y-79939236D01*
X129159000Y-79663554D01*
X129159000Y-74601606D01*
X129338606Y-74422000D01*
X133477000Y-74422000D01*
X133501776Y-74419560D01*
X133525601Y-74412333D01*
X133547557Y-74400597D01*
X133566803Y-74384803D01*
X133582597Y-74365557D01*
X133594333Y-74343601D01*
X133601560Y-74319776D01*
X133604000Y-74295000D01*
X133604000Y-67870606D01*
X133783606Y-67691000D01*
X146548976Y-67691000D01*
X148072976Y-69215000D01*
G36*
X171043550Y-75678127D02*
G01*
X171043550Y-75768543D01*
X171068441Y-75893677D01*
X171117266Y-76011551D01*
X171188149Y-76117635D01*
X171278365Y-76207851D01*
X171384449Y-76278734D01*
X171502323Y-76327559D01*
X171627457Y-76352450D01*
X171755043Y-76352450D01*
X171880177Y-76327559D01*
X171998051Y-76278734D01*
X172104135Y-76207851D01*
X172137286Y-76174700D01*
X172302123Y-76174700D01*
X172761829Y-76634407D01*
X172776147Y-76651853D01*
X172793592Y-76666170D01*
X172838592Y-76703101D01*
X172845764Y-76708987D01*
X172925191Y-76751441D01*
X173011373Y-76777585D01*
X173078540Y-76784200D01*
X173078549Y-76784200D01*
X173100999Y-76786411D01*
X173123449Y-76784200D01*
X177546000Y-76784200D01*
X177546000Y-84201000D01*
X177546907Y-84216150D01*
X177552285Y-84240459D01*
X177562303Y-84263251D01*
X177576574Y-84283651D01*
X178279801Y-85104082D01*
X178279800Y-94929201D01*
X174606203Y-98602800D01*
X168449411Y-98602800D01*
X168401999Y-98598130D01*
X168354587Y-98602800D01*
X168354585Y-98602800D01*
X168212788Y-98616766D01*
X168030847Y-98671957D01*
X167863169Y-98761583D01*
X167716198Y-98882198D01*
X167685972Y-98919029D01*
X166356036Y-100248967D01*
X166319199Y-100279198D01*
X166210558Y-100411579D01*
X166198583Y-100426170D01*
X166108958Y-100593847D01*
X166053767Y-100775789D01*
X166035130Y-100965000D01*
X166039801Y-101012422D01*
X166039801Y-108204000D01*
X139371200Y-108204000D01*
X139371200Y-106829877D01*
X141278467Y-104922610D01*
X146049300Y-104922610D01*
X146049300Y-105135390D01*
X146090811Y-105344083D01*
X146172239Y-105540667D01*
X146290454Y-105717588D01*
X146440912Y-105868046D01*
X146617833Y-105986261D01*
X146814417Y-106067689D01*
X147023110Y-106109200D01*
X147235890Y-106109200D01*
X147444583Y-106067689D01*
X147641167Y-105986261D01*
X147818088Y-105868046D01*
X147968546Y-105717588D01*
X148086761Y-105540667D01*
X148168189Y-105344083D01*
X148209700Y-105135390D01*
X148209700Y-104922610D01*
X148168189Y-104713917D01*
X148086761Y-104517333D01*
X147968546Y-104340412D01*
X147818088Y-104189954D01*
X147641167Y-104071739D01*
X147444583Y-103990311D01*
X147235890Y-103948800D01*
X147023110Y-103948800D01*
X146814417Y-103990311D01*
X146617833Y-104071739D01*
X146440912Y-104189954D01*
X146290454Y-104340412D01*
X146172239Y-104517333D01*
X146090811Y-104713917D01*
X146049300Y-104922610D01*
X141278467Y-104922610D01*
X144729148Y-101471929D01*
X149499981Y-101471929D01*
X149499981Y-101684709D01*
X149541492Y-101893402D01*
X149622920Y-102089986D01*
X149741135Y-102266907D01*
X149891593Y-102417365D01*
X150068514Y-102535580D01*
X150265098Y-102617008D01*
X150473791Y-102658519D01*
X150686571Y-102658519D01*
X150895264Y-102617008D01*
X151091848Y-102535580D01*
X151268769Y-102417365D01*
X151419227Y-102266907D01*
X151537442Y-102089986D01*
X151618870Y-101893402D01*
X151660381Y-101684709D01*
X151660381Y-101471929D01*
X151618870Y-101263236D01*
X151537442Y-101066652D01*
X151419227Y-100889731D01*
X151268769Y-100739273D01*
X151091848Y-100621058D01*
X150895264Y-100539630D01*
X150686571Y-100498119D01*
X150473791Y-100498119D01*
X150265098Y-100539630D01*
X150068514Y-100621058D01*
X149891593Y-100739273D01*
X149741135Y-100889731D01*
X149622920Y-101066652D01*
X149541492Y-101263236D01*
X149499981Y-101471929D01*
X144729148Y-101471929D01*
X147627408Y-98573670D01*
X147644853Y-98559353D01*
X147701987Y-98489736D01*
X147744441Y-98410309D01*
X147770585Y-98324127D01*
X147777200Y-98256960D01*
X147777200Y-98256951D01*
X147779411Y-98234501D01*
X147777200Y-98212051D01*
X147777200Y-97458785D01*
X147837712Y-97368223D01*
X147881750Y-97261905D01*
X147904200Y-97149039D01*
X147904200Y-97033961D01*
X147881750Y-96921095D01*
X147837712Y-96814777D01*
X147773778Y-96719094D01*
X147692406Y-96637722D01*
X147596723Y-96573788D01*
X147490405Y-96529750D01*
X147377539Y-96507300D01*
X147262461Y-96507300D01*
X147149595Y-96529750D01*
X147043277Y-96573788D01*
X146947594Y-96637722D01*
X146866222Y-96719094D01*
X146802288Y-96814777D01*
X146758250Y-96921095D01*
X146739512Y-97015300D01*
X146627461Y-97015300D01*
X146514595Y-97037750D01*
X146408277Y-97081788D01*
X146312594Y-97145722D01*
X146231222Y-97227094D01*
X146167288Y-97322777D01*
X146123250Y-97429095D01*
X146100800Y-97541961D01*
X146100800Y-97657039D01*
X146123250Y-97769905D01*
X146141487Y-97813935D01*
X135751423Y-108204000D01*
X113677700Y-108204000D01*
X113677700Y-98996500D01*
X118603089Y-98996500D01*
X118605301Y-99018960D01*
X118605300Y-100498050D01*
X118603089Y-100520500D01*
X118605300Y-100542950D01*
X118605300Y-100542959D01*
X118611915Y-100610126D01*
X118638059Y-100696308D01*
X118680513Y-100775735D01*
X118737647Y-100845353D01*
X118755097Y-100859674D01*
X119684801Y-101789380D01*
X119684800Y-103617714D01*
X119638899Y-103663615D01*
X119568016Y-103769699D01*
X119519191Y-103887573D01*
X119494300Y-104012707D01*
X119494300Y-104140293D01*
X119519191Y-104265427D01*
X119568016Y-104383301D01*
X119638899Y-104489385D01*
X119729115Y-104579601D01*
X119835199Y-104650484D01*
X119953073Y-104699309D01*
X120078207Y-104724200D01*
X120205793Y-104724200D01*
X120330927Y-104699309D01*
X120448801Y-104650484D01*
X120554885Y-104579601D01*
X120645101Y-104489385D01*
X120715984Y-104383301D01*
X120764809Y-104265427D01*
X120789700Y-104140293D01*
X120789700Y-104012707D01*
X120764809Y-103887573D01*
X120715984Y-103769699D01*
X120645101Y-103663615D01*
X120599200Y-103617714D01*
X120599200Y-101622452D01*
X120601411Y-101600000D01*
X120599200Y-101577548D01*
X120599200Y-101577540D01*
X120592585Y-101510373D01*
X120566441Y-101424191D01*
X120566441Y-101424190D01*
X120523987Y-101344764D01*
X120481171Y-101292592D01*
X120481165Y-101292586D01*
X120466853Y-101275147D01*
X120449414Y-101260835D01*
X119519700Y-100331123D01*
X119519700Y-99185877D01*
X119886878Y-98818700D01*
X119951793Y-98818700D01*
X120076927Y-98793809D01*
X120194801Y-98744984D01*
X120300885Y-98674101D01*
X120341786Y-98633200D01*
X126145223Y-98633200D01*
X125803597Y-98974826D01*
X125786147Y-98989147D01*
X125729013Y-99058765D01*
X125686559Y-99138192D01*
X125660415Y-99224374D01*
X125653800Y-99291541D01*
X125653800Y-99291550D01*
X125651589Y-99314000D01*
X125653800Y-99336450D01*
X125653801Y-104316213D01*
X125607899Y-104362115D01*
X125537016Y-104468199D01*
X125488191Y-104586073D01*
X125463300Y-104711207D01*
X125463300Y-104838793D01*
X125488191Y-104963927D01*
X125537016Y-105081801D01*
X125607899Y-105187885D01*
X125698115Y-105278101D01*
X125804199Y-105348984D01*
X125922073Y-105397809D01*
X126047207Y-105422700D01*
X126174793Y-105422700D01*
X126299927Y-105397809D01*
X126417801Y-105348984D01*
X126523885Y-105278101D01*
X126614101Y-105187885D01*
X126684984Y-105081801D01*
X126733809Y-104963927D01*
X126758700Y-104838793D01*
X126758700Y-104711207D01*
X126733809Y-104586073D01*
X126684984Y-104468199D01*
X126614101Y-104362115D01*
X126568200Y-104316214D01*
X126568200Y-104141033D01*
X130367705Y-104141033D01*
X130440600Y-104371079D01*
X130556974Y-104582484D01*
X130712355Y-104767123D01*
X130900771Y-104917901D01*
X131114982Y-105029024D01*
X131316967Y-105090292D01*
X131508500Y-105019973D01*
X131508500Y-103949500D01*
X131635500Y-103949500D01*
X131635500Y-105019973D01*
X131827033Y-105090292D01*
X132029018Y-105029024D01*
X132243229Y-104917901D01*
X132431645Y-104767123D01*
X132587026Y-104582484D01*
X132703400Y-104371079D01*
X132776295Y-104141033D01*
X132706114Y-103949500D01*
X131635500Y-103949500D01*
X131508500Y-103949500D01*
X130437886Y-103949500D01*
X130367705Y-104141033D01*
X126568200Y-104141033D01*
X126568200Y-103886000D01*
X132926090Y-103886000D01*
X132948877Y-104117360D01*
X133016362Y-104339828D01*
X133125952Y-104544856D01*
X133273435Y-104724565D01*
X133453144Y-104872048D01*
X133658172Y-104981638D01*
X133880640Y-105049123D01*
X134054025Y-105066200D01*
X134169975Y-105066200D01*
X134343360Y-105049123D01*
X134565828Y-104981638D01*
X134770856Y-104872048D01*
X134950565Y-104724565D01*
X135098048Y-104544856D01*
X135207638Y-104339828D01*
X135275123Y-104117360D01*
X135297910Y-103886000D01*
X135275123Y-103654640D01*
X135207638Y-103432172D01*
X135098048Y-103227144D01*
X134950565Y-103047435D01*
X134936632Y-103036000D01*
X135470203Y-103036000D01*
X135470203Y-104736000D01*
X135476578Y-104800730D01*
X135495460Y-104862973D01*
X135526121Y-104920337D01*
X135567384Y-104970616D01*
X135617663Y-105011879D01*
X135675027Y-105042540D01*
X135737270Y-105061422D01*
X135802000Y-105067797D01*
X137502000Y-105067797D01*
X137566730Y-105061422D01*
X137628973Y-105042540D01*
X137686337Y-105011879D01*
X137736616Y-104970616D01*
X137777879Y-104920337D01*
X137808540Y-104862973D01*
X137827422Y-104800730D01*
X137833797Y-104736000D01*
X137833797Y-103036000D01*
X137827422Y-102971270D01*
X137808540Y-102909027D01*
X137777879Y-102851663D01*
X137736616Y-102801384D01*
X137686337Y-102760121D01*
X137628973Y-102729460D01*
X137566730Y-102710578D01*
X137502000Y-102704203D01*
X135802000Y-102704203D01*
X135737270Y-102710578D01*
X135675027Y-102729460D01*
X135617663Y-102760121D01*
X135567384Y-102801384D01*
X135526121Y-102851663D01*
X135495460Y-102909027D01*
X135476578Y-102971270D01*
X135470203Y-103036000D01*
X134936632Y-103036000D01*
X134770856Y-102899952D01*
X134565828Y-102790362D01*
X134343360Y-102722877D01*
X134169975Y-102705800D01*
X134054025Y-102705800D01*
X133880640Y-102722877D01*
X133658172Y-102790362D01*
X133453144Y-102899952D01*
X133273435Y-103047435D01*
X133125952Y-103227144D01*
X133016362Y-103432172D01*
X132948877Y-103654640D01*
X132926090Y-103886000D01*
X126568200Y-103886000D01*
X126568200Y-103630967D01*
X130367705Y-103630967D01*
X130437886Y-103822500D01*
X131508500Y-103822500D01*
X131508500Y-102752027D01*
X131635500Y-102752027D01*
X131635500Y-103822500D01*
X132706114Y-103822500D01*
X132776295Y-103630967D01*
X132703400Y-103400921D01*
X132587026Y-103189516D01*
X132431645Y-103004877D01*
X132243229Y-102854099D01*
X132029018Y-102742976D01*
X131827033Y-102681708D01*
X131635500Y-102752027D01*
X131508500Y-102752027D01*
X131316967Y-102681708D01*
X131114982Y-102742976D01*
X130900771Y-102854099D01*
X130712355Y-103004877D01*
X130556974Y-103189516D01*
X130440600Y-103400921D01*
X130367705Y-103630967D01*
X126568200Y-103630967D01*
X126568200Y-99503377D01*
X128262296Y-97809282D01*
X128301615Y-97848601D01*
X128407699Y-97919484D01*
X128525573Y-97968309D01*
X128650707Y-97993200D01*
X128778293Y-97993200D01*
X128903427Y-97968309D01*
X129021301Y-97919484D01*
X129127385Y-97848601D01*
X129217601Y-97758385D01*
X129288484Y-97652301D01*
X129337309Y-97534427D01*
X129362200Y-97409293D01*
X129362200Y-97281707D01*
X129337309Y-97156573D01*
X129288484Y-97038699D01*
X129217601Y-96932615D01*
X129210032Y-96925046D01*
X129284878Y-96850200D01*
X139741050Y-96850200D01*
X139763500Y-96852411D01*
X139785950Y-96850200D01*
X139785960Y-96850200D01*
X139853127Y-96843585D01*
X139939309Y-96817441D01*
X140018736Y-96774987D01*
X140088353Y-96717853D01*
X140102674Y-96700403D01*
X142238878Y-94564200D01*
X143051214Y-94564200D01*
X143097115Y-94610101D01*
X143203199Y-94680984D01*
X143230592Y-94692331D01*
X143012092Y-94910830D01*
X142994648Y-94925147D01*
X142980331Y-94942592D01*
X142980330Y-94942593D01*
X142937514Y-94994764D01*
X142895060Y-95074191D01*
X142875161Y-95139789D01*
X142868916Y-95160374D01*
X142860089Y-95250000D01*
X142862301Y-95272459D01*
X142862300Y-96124714D01*
X142816399Y-96170615D01*
X142745516Y-96276699D01*
X142696691Y-96394573D01*
X142671800Y-96519707D01*
X142671800Y-96647293D01*
X142696691Y-96772427D01*
X142745516Y-96890301D01*
X142816399Y-96996385D01*
X142906615Y-97086601D01*
X143012699Y-97157484D01*
X143130573Y-97206309D01*
X143255707Y-97231200D01*
X143383293Y-97231200D01*
X143508427Y-97206309D01*
X143626301Y-97157484D01*
X143732385Y-97086601D01*
X143822601Y-96996385D01*
X143893484Y-96890301D01*
X143942309Y-96772427D01*
X143967200Y-96647293D01*
X143967200Y-96519707D01*
X143942309Y-96394573D01*
X143893484Y-96276699D01*
X143822601Y-96170615D01*
X143776700Y-96124714D01*
X143776700Y-95439377D01*
X144397878Y-94818200D01*
X145972214Y-94818200D01*
X146018115Y-94864101D01*
X146124199Y-94934984D01*
X146242073Y-94983809D01*
X146367207Y-95008700D01*
X146494793Y-95008700D01*
X146619927Y-94983809D01*
X146737801Y-94934984D01*
X146843885Y-94864101D01*
X146934101Y-94773885D01*
X147004984Y-94667801D01*
X147053809Y-94549927D01*
X147078700Y-94424793D01*
X147078700Y-94297207D01*
X147053809Y-94172073D01*
X147004984Y-94054199D01*
X146934101Y-93948115D01*
X146843885Y-93857899D01*
X146737801Y-93787016D01*
X146619927Y-93738191D01*
X146494793Y-93713300D01*
X146367207Y-93713300D01*
X146242073Y-93738191D01*
X146124199Y-93787016D01*
X146018115Y-93857899D01*
X145972214Y-93903800D01*
X144565686Y-93903800D01*
X144648101Y-93821385D01*
X144718984Y-93715301D01*
X144767809Y-93597427D01*
X144792700Y-93472293D01*
X144792700Y-93344707D01*
X144767809Y-93219573D01*
X144718984Y-93101699D01*
X144648101Y-92995615D01*
X144557885Y-92905399D01*
X144451801Y-92834516D01*
X144333927Y-92785691D01*
X144208793Y-92760800D01*
X144081207Y-92760800D01*
X143956073Y-92785691D01*
X143838199Y-92834516D01*
X143732115Y-92905399D01*
X143686214Y-92951300D01*
X142008450Y-92951300D01*
X141986000Y-92949089D01*
X141963550Y-92951300D01*
X141963540Y-92951300D01*
X141896373Y-92957915D01*
X141810191Y-92984059D01*
X141772981Y-93003948D01*
X141730764Y-93026513D01*
X141711393Y-93042411D01*
X141661147Y-93083647D01*
X141646830Y-93101092D01*
X139320123Y-95427800D01*
X128800449Y-95427800D01*
X128777999Y-95425589D01*
X128755549Y-95427800D01*
X128755540Y-95427800D01*
X128688373Y-95434415D01*
X128602191Y-95460559D01*
X128565217Y-95480322D01*
X128522763Y-95503013D01*
X128470592Y-95545830D01*
X128453147Y-95560147D01*
X128438830Y-95577592D01*
X126297623Y-97718800D01*
X120351786Y-97718800D01*
X120300885Y-97667899D01*
X120194801Y-97597016D01*
X120076927Y-97548191D01*
X119951793Y-97523300D01*
X119824207Y-97523300D01*
X119699073Y-97548191D01*
X119581199Y-97597016D01*
X119475115Y-97667899D01*
X119384899Y-97758115D01*
X119314016Y-97864199D01*
X119265191Y-97982073D01*
X119240300Y-98107207D01*
X119240300Y-98172122D01*
X118755092Y-98657330D01*
X118737648Y-98671647D01*
X118723331Y-98689092D01*
X118723330Y-98689093D01*
X118680513Y-98741265D01*
X118645912Y-98806000D01*
X118638060Y-98820691D01*
X118617169Y-98889559D01*
X118611916Y-98906874D01*
X118603089Y-98996500D01*
X113677700Y-98996500D01*
X113677700Y-92859557D01*
X113731008Y-92959289D01*
X113990959Y-93276041D01*
X114307711Y-93535992D01*
X114669090Y-93729153D01*
X115061210Y-93848101D01*
X115366809Y-93878200D01*
X116071191Y-93878200D01*
X116376790Y-93848101D01*
X116768910Y-93729153D01*
X117130289Y-93535992D01*
X117447041Y-93276041D01*
X117706992Y-92959289D01*
X117900153Y-92597910D01*
X118019101Y-92205790D01*
X118059265Y-91798000D01*
X118019101Y-91390210D01*
X117900153Y-90998090D01*
X117706992Y-90636711D01*
X117447041Y-90319959D01*
X117130289Y-90060008D01*
X116768910Y-89866847D01*
X116376790Y-89747899D01*
X116071191Y-89717800D01*
X115366809Y-89717800D01*
X115061210Y-89747899D01*
X114669090Y-89866847D01*
X114307711Y-90060008D01*
X113990959Y-90319959D01*
X113731008Y-90636711D01*
X113677700Y-90736443D01*
X113677700Y-89638000D01*
X118603574Y-89638000D01*
X118624430Y-89849756D01*
X118686197Y-90053375D01*
X118786501Y-90241030D01*
X118921488Y-90405512D01*
X119085970Y-90540499D01*
X119273625Y-90640803D01*
X119477244Y-90702570D01*
X119635939Y-90718200D01*
X120442061Y-90718200D01*
X120600756Y-90702570D01*
X120804375Y-90640803D01*
X120992030Y-90540499D01*
X121156512Y-90405512D01*
X121291499Y-90241030D01*
X121391803Y-90053375D01*
X121453570Y-89849756D01*
X121474426Y-89638000D01*
X121603574Y-89638000D01*
X121624430Y-89849756D01*
X121686197Y-90053375D01*
X121786501Y-90241030D01*
X121921488Y-90405512D01*
X122085970Y-90540499D01*
X122273625Y-90640803D01*
X122477244Y-90702570D01*
X122635939Y-90718200D01*
X123442061Y-90718200D01*
X123600756Y-90702570D01*
X123804375Y-90640803D01*
X123992030Y-90540499D01*
X124156512Y-90405512D01*
X124291499Y-90241030D01*
X124391803Y-90053375D01*
X124394950Y-90043000D01*
X128354090Y-90043000D01*
X128376877Y-90274360D01*
X128444362Y-90496828D01*
X128553952Y-90701856D01*
X128701435Y-90881565D01*
X128881144Y-91029048D01*
X129086172Y-91138638D01*
X129308640Y-91206123D01*
X129482025Y-91223200D01*
X129597975Y-91223200D01*
X129771360Y-91206123D01*
X129993828Y-91138638D01*
X130198856Y-91029048D01*
X130378565Y-90881565D01*
X130526048Y-90701856D01*
X130635638Y-90496828D01*
X130703123Y-90274360D01*
X130725910Y-90043000D01*
X130703123Y-89811640D01*
X130635638Y-89589172D01*
X130526048Y-89384144D01*
X130378565Y-89204435D01*
X130364632Y-89193000D01*
X130898203Y-89193000D01*
X130898203Y-90893000D01*
X130904578Y-90957730D01*
X130923460Y-91019973D01*
X130954121Y-91077337D01*
X130995384Y-91127616D01*
X131045663Y-91168879D01*
X131103027Y-91199540D01*
X131165270Y-91218422D01*
X131230000Y-91224797D01*
X132037671Y-91224797D01*
X132014016Y-91260199D01*
X131965191Y-91378073D01*
X131940300Y-91503207D01*
X131940300Y-91630793D01*
X131965191Y-91755927D01*
X132014016Y-91873801D01*
X132084899Y-91979885D01*
X132175115Y-92070101D01*
X132281199Y-92140984D01*
X132399073Y-92189809D01*
X132524207Y-92214700D01*
X132589123Y-92214700D01*
X133264829Y-92890407D01*
X133279147Y-92907853D01*
X133296592Y-92922170D01*
X133332087Y-92951300D01*
X133348764Y-92964987D01*
X133428191Y-93007441D01*
X133514373Y-93033585D01*
X133581540Y-93040200D01*
X133581550Y-93040200D01*
X133604000Y-93042411D01*
X133626450Y-93040200D01*
X136208623Y-93040200D01*
X137709835Y-94541414D01*
X137724147Y-94558853D01*
X137741586Y-94573165D01*
X137741592Y-94573171D01*
X137793764Y-94615987D01*
X137873190Y-94658441D01*
X137893249Y-94664526D01*
X137959373Y-94684585D01*
X138026540Y-94691200D01*
X138026550Y-94691200D01*
X138049000Y-94693411D01*
X138071450Y-94691200D01*
X138352214Y-94691200D01*
X138398115Y-94737101D01*
X138504199Y-94807984D01*
X138622073Y-94856809D01*
X138747207Y-94881700D01*
X138874793Y-94881700D01*
X138999927Y-94856809D01*
X139117801Y-94807984D01*
X139223885Y-94737101D01*
X139314101Y-94646885D01*
X139384984Y-94540801D01*
X139433809Y-94422927D01*
X139458700Y-94297793D01*
X139458700Y-94170207D01*
X139433809Y-94045073D01*
X139384984Y-93927199D01*
X139314101Y-93821115D01*
X139223885Y-93730899D01*
X139117801Y-93660016D01*
X138999927Y-93611191D01*
X138938147Y-93598902D01*
X138950700Y-93535793D01*
X138950700Y-93408207D01*
X138925809Y-93283073D01*
X138876984Y-93165199D01*
X138806101Y-93059115D01*
X138715885Y-92968899D01*
X138609801Y-92898016D01*
X138491927Y-92849191D01*
X138366793Y-92824300D01*
X138239207Y-92824300D01*
X138114073Y-92849191D01*
X138084867Y-92861289D01*
X136991174Y-91767597D01*
X136976853Y-91750147D01*
X136907236Y-91693013D01*
X136827809Y-91650559D01*
X136741627Y-91624415D01*
X136674460Y-91617800D01*
X136674450Y-91617800D01*
X136652000Y-91615589D01*
X136629550Y-91617800D01*
X134301378Y-91617800D01*
X133261797Y-90578220D01*
X133261797Y-89193000D01*
X133255422Y-89128270D01*
X133236540Y-89066027D01*
X133205879Y-89008663D01*
X133164616Y-88958384D01*
X133114337Y-88917121D01*
X133056973Y-88886460D01*
X132994730Y-88867578D01*
X132930000Y-88861203D01*
X131230000Y-88861203D01*
X131165270Y-88867578D01*
X131103027Y-88886460D01*
X131045663Y-88917121D01*
X130995384Y-88958384D01*
X130954121Y-89008663D01*
X130923460Y-89066027D01*
X130904578Y-89128270D01*
X130898203Y-89193000D01*
X130364632Y-89193000D01*
X130198856Y-89056952D01*
X129993828Y-88947362D01*
X129771360Y-88879877D01*
X129597975Y-88862800D01*
X129482025Y-88862800D01*
X129308640Y-88879877D01*
X129086172Y-88947362D01*
X128881144Y-89056952D01*
X128701435Y-89204435D01*
X128553952Y-89384144D01*
X128444362Y-89589172D01*
X128376877Y-89811640D01*
X128354090Y-90043000D01*
X124394950Y-90043000D01*
X124453570Y-89849756D01*
X124474426Y-89638000D01*
X124453570Y-89426244D01*
X124391803Y-89222625D01*
X124291499Y-89034970D01*
X124156512Y-88870488D01*
X124114741Y-88836207D01*
X135623300Y-88836207D01*
X135623300Y-88963793D01*
X135648191Y-89088927D01*
X135697016Y-89206801D01*
X135767899Y-89312885D01*
X135858115Y-89403101D01*
X135964199Y-89473984D01*
X136082073Y-89522809D01*
X136207207Y-89547700D01*
X136272123Y-89547700D01*
X137074829Y-90350407D01*
X137089147Y-90367853D01*
X137158764Y-90424987D01*
X137238191Y-90467441D01*
X137324373Y-90493585D01*
X137330170Y-90494156D01*
X137382115Y-90546101D01*
X137488199Y-90616984D01*
X137606073Y-90665809D01*
X137731207Y-90690700D01*
X137858793Y-90690700D01*
X137983927Y-90665809D01*
X138101801Y-90616984D01*
X138207885Y-90546101D01*
X138298101Y-90455885D01*
X138368984Y-90349801D01*
X138417809Y-90231927D01*
X138442700Y-90106793D01*
X138442700Y-89979207D01*
X138417809Y-89854073D01*
X138368984Y-89736199D01*
X138298101Y-89630115D01*
X138207885Y-89539899D01*
X138101801Y-89469016D01*
X137983927Y-89420191D01*
X137858793Y-89395300D01*
X137731207Y-89395300D01*
X137606073Y-89420191D01*
X137488199Y-89469016D01*
X137487237Y-89469659D01*
X136918700Y-88901123D01*
X136918700Y-88836207D01*
X136893809Y-88711073D01*
X136844984Y-88593199D01*
X136774101Y-88487115D01*
X136683885Y-88396899D01*
X136577801Y-88326016D01*
X136459927Y-88277191D01*
X136334793Y-88252300D01*
X136207207Y-88252300D01*
X136082073Y-88277191D01*
X135964199Y-88326016D01*
X135858115Y-88396899D01*
X135767899Y-88487115D01*
X135697016Y-88593199D01*
X135648191Y-88711073D01*
X135623300Y-88836207D01*
X124114741Y-88836207D01*
X123992030Y-88735501D01*
X123804375Y-88635197D01*
X123600756Y-88573430D01*
X123442061Y-88557800D01*
X122635939Y-88557800D01*
X122477244Y-88573430D01*
X122273625Y-88635197D01*
X122085970Y-88735501D01*
X121921488Y-88870488D01*
X121786501Y-89034970D01*
X121686197Y-89222625D01*
X121624430Y-89426244D01*
X121603574Y-89638000D01*
X121474426Y-89638000D01*
X121453570Y-89426244D01*
X121391803Y-89222625D01*
X121291499Y-89034970D01*
X121156512Y-88870488D01*
X120992030Y-88735501D01*
X120804375Y-88635197D01*
X120600756Y-88573430D01*
X120442061Y-88557800D01*
X119635939Y-88557800D01*
X119477244Y-88573430D01*
X119273625Y-88635197D01*
X119085970Y-88735501D01*
X118921488Y-88870488D01*
X118786501Y-89034970D01*
X118686197Y-89222625D01*
X118624430Y-89426244D01*
X118603574Y-89638000D01*
X113677700Y-89638000D01*
X113677700Y-86638000D01*
X118603574Y-86638000D01*
X118624430Y-86849756D01*
X118686197Y-87053375D01*
X118786501Y-87241030D01*
X118921488Y-87405512D01*
X119085970Y-87540499D01*
X119273625Y-87640803D01*
X119477244Y-87702570D01*
X119635939Y-87718200D01*
X120442061Y-87718200D01*
X120600756Y-87702570D01*
X120804375Y-87640803D01*
X120992030Y-87540499D01*
X121156512Y-87405512D01*
X121291499Y-87241030D01*
X121391803Y-87053375D01*
X121453570Y-86849756D01*
X121474426Y-86638000D01*
X121603574Y-86638000D01*
X121624430Y-86849756D01*
X121686197Y-87053375D01*
X121786501Y-87241030D01*
X121921488Y-87405512D01*
X122085970Y-87540499D01*
X122273625Y-87640803D01*
X122477244Y-87702570D01*
X122635939Y-87718200D01*
X123442061Y-87718200D01*
X123600756Y-87702570D01*
X123804375Y-87640803D01*
X123825134Y-87629707D01*
X139687300Y-87629707D01*
X139687300Y-87757293D01*
X139712191Y-87882427D01*
X139761016Y-88000301D01*
X139831899Y-88106385D01*
X139877800Y-88152286D01*
X139877801Y-89131540D01*
X139875589Y-89154000D01*
X139884416Y-89243626D01*
X139910560Y-89329809D01*
X139953013Y-89409235D01*
X139962005Y-89420191D01*
X140010148Y-89478853D01*
X140027593Y-89493170D01*
X142300358Y-91765935D01*
X142300220Y-91766627D01*
X142300220Y-91894213D01*
X142325111Y-92019347D01*
X142373936Y-92137221D01*
X142444819Y-92243305D01*
X142535035Y-92333521D01*
X142641119Y-92404404D01*
X142758993Y-92453229D01*
X142884127Y-92478120D01*
X143011713Y-92478120D01*
X143136847Y-92453229D01*
X143254721Y-92404404D01*
X143360805Y-92333521D01*
X143451021Y-92243305D01*
X143521904Y-92137221D01*
X143570729Y-92019347D01*
X143572348Y-92011207D01*
X147815300Y-92011207D01*
X147815300Y-92138793D01*
X147840191Y-92263927D01*
X147889016Y-92381801D01*
X147959899Y-92487885D01*
X148050115Y-92578101D01*
X148156199Y-92648984D01*
X148274073Y-92697809D01*
X148399207Y-92722700D01*
X148526793Y-92722700D01*
X148651927Y-92697809D01*
X148769801Y-92648984D01*
X148875885Y-92578101D01*
X148966101Y-92487885D01*
X149036984Y-92381801D01*
X149079897Y-92278200D01*
X154790550Y-92278200D01*
X154813000Y-92280411D01*
X154835450Y-92278200D01*
X154835460Y-92278200D01*
X154902627Y-92271585D01*
X154988809Y-92245441D01*
X155068236Y-92202987D01*
X155137853Y-92145853D01*
X155152174Y-92128403D01*
X156589879Y-90690700D01*
X156654793Y-90690700D01*
X156779927Y-90665809D01*
X156897801Y-90616984D01*
X157003885Y-90546101D01*
X157094101Y-90455885D01*
X157164984Y-90349801D01*
X157213809Y-90231927D01*
X157238700Y-90106793D01*
X157238700Y-89979207D01*
X157213809Y-89854073D01*
X157164984Y-89736199D01*
X157094101Y-89630115D01*
X157003885Y-89539899D01*
X156897801Y-89469016D01*
X156779927Y-89420191D01*
X156654793Y-89395300D01*
X156527207Y-89395300D01*
X156402073Y-89420191D01*
X156284199Y-89469016D01*
X156178115Y-89539899D01*
X156087899Y-89630115D01*
X156017016Y-89736199D01*
X155968191Y-89854073D01*
X155943300Y-89979207D01*
X155943300Y-90044121D01*
X154623623Y-91363800D01*
X148739449Y-91363800D01*
X148716999Y-91361589D01*
X148694549Y-91363800D01*
X148694540Y-91363800D01*
X148627373Y-91370415D01*
X148541191Y-91396559D01*
X148483678Y-91427300D01*
X148399207Y-91427300D01*
X148274073Y-91452191D01*
X148156199Y-91501016D01*
X148050115Y-91571899D01*
X147959899Y-91662115D01*
X147889016Y-91768199D01*
X147840191Y-91886073D01*
X147815300Y-92011207D01*
X143572348Y-92011207D01*
X143595620Y-91894213D01*
X143595620Y-91766627D01*
X143570729Y-91641493D01*
X143521904Y-91523619D01*
X143451021Y-91417535D01*
X143360805Y-91327319D01*
X143254721Y-91256436D01*
X143136847Y-91207611D01*
X143011713Y-91182720D01*
X143010298Y-91182720D01*
X140792200Y-88964623D01*
X140792200Y-88152286D01*
X140838101Y-88106385D01*
X140908984Y-88000301D01*
X140957809Y-87882427D01*
X140982700Y-87757293D01*
X140982700Y-87629707D01*
X140957809Y-87504573D01*
X140908984Y-87386699D01*
X140838101Y-87280615D01*
X140747885Y-87190399D01*
X140641801Y-87119516D01*
X140523927Y-87070691D01*
X140398793Y-87045800D01*
X140271207Y-87045800D01*
X140146073Y-87070691D01*
X140028199Y-87119516D01*
X139922115Y-87190399D01*
X139831899Y-87280615D01*
X139761016Y-87386699D01*
X139712191Y-87504573D01*
X139687300Y-87629707D01*
X123825134Y-87629707D01*
X123992030Y-87540499D01*
X124156512Y-87405512D01*
X124291499Y-87241030D01*
X124391803Y-87053375D01*
X124453570Y-86849756D01*
X124474426Y-86638000D01*
X124453570Y-86426244D01*
X124391803Y-86222625D01*
X124291499Y-86034970D01*
X124156512Y-85870488D01*
X123992030Y-85735501D01*
X123804375Y-85635197D01*
X123600756Y-85573430D01*
X123442061Y-85557800D01*
X122635939Y-85557800D01*
X122477244Y-85573430D01*
X122273625Y-85635197D01*
X122085970Y-85735501D01*
X121921488Y-85870488D01*
X121786501Y-86034970D01*
X121686197Y-86222625D01*
X121624430Y-86426244D01*
X121603574Y-86638000D01*
X121474426Y-86638000D01*
X121453570Y-86426244D01*
X121391803Y-86222625D01*
X121291499Y-86034970D01*
X121156512Y-85870488D01*
X120992030Y-85735501D01*
X120804375Y-85635197D01*
X120600756Y-85573430D01*
X120442061Y-85557800D01*
X119635939Y-85557800D01*
X119477244Y-85573430D01*
X119273625Y-85635197D01*
X119085970Y-85735501D01*
X118921488Y-85870488D01*
X118786501Y-86034970D01*
X118686197Y-86222625D01*
X118624430Y-86426244D01*
X118603574Y-86638000D01*
X113677700Y-86638000D01*
X113677700Y-85539557D01*
X113731008Y-85639289D01*
X113990959Y-85956041D01*
X114307711Y-86215992D01*
X114669090Y-86409153D01*
X115061210Y-86528101D01*
X115366809Y-86558200D01*
X116071191Y-86558200D01*
X116376790Y-86528101D01*
X116768910Y-86409153D01*
X117130289Y-86215992D01*
X117447041Y-85956041D01*
X117706992Y-85639289D01*
X117900153Y-85277910D01*
X118019101Y-84885790D01*
X118059265Y-84478000D01*
X118019101Y-84070210D01*
X117900153Y-83678090D01*
X117706992Y-83316711D01*
X117447041Y-82999959D01*
X117130289Y-82740008D01*
X116768910Y-82546847D01*
X116376790Y-82427899D01*
X116071191Y-82397800D01*
X115443000Y-82397800D01*
X115443000Y-82042000D01*
X123698000Y-82042000D01*
X123722776Y-82039560D01*
X123746601Y-82032333D01*
X123768557Y-82020597D01*
X123787803Y-82004803D01*
X123803597Y-81985557D01*
X123815333Y-81963601D01*
X123822560Y-81939776D01*
X123825000Y-81915000D01*
X123825000Y-80137000D01*
X125210423Y-80137000D01*
X131359830Y-86286408D01*
X131374147Y-86303853D01*
X131443764Y-86360987D01*
X131523191Y-86403441D01*
X131609373Y-86429585D01*
X131676540Y-86436200D01*
X131676550Y-86436200D01*
X131699000Y-86438411D01*
X131721450Y-86436200D01*
X133438203Y-86436200D01*
X133438203Y-86829000D01*
X133444578Y-86893730D01*
X133463460Y-86955973D01*
X133494121Y-87013337D01*
X133535384Y-87063616D01*
X133585663Y-87104879D01*
X133643027Y-87135540D01*
X133705270Y-87154422D01*
X133770000Y-87160797D01*
X135470000Y-87160797D01*
X135534730Y-87154422D01*
X135596973Y-87135540D01*
X135654337Y-87104879D01*
X135704616Y-87063616D01*
X135745879Y-87013337D01*
X135776540Y-86955973D01*
X135795422Y-86893730D01*
X135801797Y-86829000D01*
X135801797Y-85129000D01*
X135795422Y-85064270D01*
X135776540Y-85002027D01*
X135745879Y-84944663D01*
X135704616Y-84894384D01*
X135654337Y-84853121D01*
X135596973Y-84822460D01*
X135534730Y-84803578D01*
X135470000Y-84797203D01*
X133770000Y-84797203D01*
X133705270Y-84803578D01*
X133643027Y-84822460D01*
X133585663Y-84853121D01*
X133535384Y-84894384D01*
X133494121Y-84944663D01*
X133463460Y-85002027D01*
X133444578Y-85064270D01*
X133438203Y-85129000D01*
X133438203Y-85521800D01*
X131888378Y-85521800D01*
X130262778Y-83896200D01*
X130898203Y-83896200D01*
X130898203Y-84289000D01*
X130904578Y-84353730D01*
X130923460Y-84415973D01*
X130954121Y-84473337D01*
X130995384Y-84523616D01*
X131045663Y-84564879D01*
X131103027Y-84595540D01*
X131165270Y-84614422D01*
X131230000Y-84620797D01*
X132930000Y-84620797D01*
X132994730Y-84614422D01*
X133056973Y-84595540D01*
X133114337Y-84564879D01*
X133164616Y-84523616D01*
X133205879Y-84473337D01*
X133236540Y-84415973D01*
X133255422Y-84353730D01*
X133261797Y-84289000D01*
X133261797Y-83439000D01*
X133434090Y-83439000D01*
X133456877Y-83670360D01*
X133524362Y-83892828D01*
X133633952Y-84097856D01*
X133781435Y-84277565D01*
X133961144Y-84425048D01*
X134166172Y-84534638D01*
X134388640Y-84602123D01*
X134562025Y-84619200D01*
X134677975Y-84619200D01*
X134851360Y-84602123D01*
X135073828Y-84534638D01*
X135278856Y-84425048D01*
X135458565Y-84277565D01*
X135606048Y-84097856D01*
X135715638Y-83892828D01*
X135783123Y-83670360D01*
X135805910Y-83439000D01*
X135974090Y-83439000D01*
X135996877Y-83670360D01*
X136064362Y-83892828D01*
X136173952Y-84097856D01*
X136321435Y-84277565D01*
X136501144Y-84425048D01*
X136706172Y-84534638D01*
X136928640Y-84602123D01*
X137102025Y-84619200D01*
X137217975Y-84619200D01*
X137391360Y-84602123D01*
X137613828Y-84534638D01*
X137818856Y-84425048D01*
X137998565Y-84277565D01*
X138146048Y-84097856D01*
X138255638Y-83892828D01*
X138315941Y-83694033D01*
X138495705Y-83694033D01*
X138568600Y-83924079D01*
X138684974Y-84135484D01*
X138840355Y-84320123D01*
X139028771Y-84470901D01*
X139242982Y-84582024D01*
X139444967Y-84643292D01*
X139636500Y-84572973D01*
X139636500Y-83502500D01*
X139763500Y-83502500D01*
X139763500Y-84572973D01*
X139955033Y-84643292D01*
X140157018Y-84582024D01*
X140371229Y-84470901D01*
X140559645Y-84320123D01*
X140715026Y-84135484D01*
X140831400Y-83924079D01*
X140904295Y-83694033D01*
X140834114Y-83502500D01*
X139763500Y-83502500D01*
X139636500Y-83502500D01*
X138565886Y-83502500D01*
X138495705Y-83694033D01*
X138315941Y-83694033D01*
X138323123Y-83670360D01*
X138345910Y-83439000D01*
X138323123Y-83207640D01*
X138315942Y-83183967D01*
X138495705Y-83183967D01*
X138565886Y-83375500D01*
X139636500Y-83375500D01*
X139636500Y-82305027D01*
X139763500Y-82305027D01*
X139763500Y-83375500D01*
X140834114Y-83375500D01*
X140904295Y-83183967D01*
X140831400Y-82953921D01*
X140715026Y-82742516D01*
X140559645Y-82557877D01*
X140371229Y-82407099D01*
X140157018Y-82295976D01*
X139955033Y-82234708D01*
X139763500Y-82305027D01*
X139636500Y-82305027D01*
X139444967Y-82234708D01*
X139242982Y-82295976D01*
X139028771Y-82407099D01*
X138840355Y-82557877D01*
X138684974Y-82742516D01*
X138568600Y-82953921D01*
X138495705Y-83183967D01*
X138315942Y-83183967D01*
X138255638Y-82985172D01*
X138146048Y-82780144D01*
X137998565Y-82600435D01*
X137818856Y-82452952D01*
X137613828Y-82343362D01*
X137391360Y-82275877D01*
X137217975Y-82258800D01*
X137102025Y-82258800D01*
X136928640Y-82275877D01*
X136706172Y-82343362D01*
X136501144Y-82452952D01*
X136321435Y-82600435D01*
X136173952Y-82780144D01*
X136064362Y-82985172D01*
X135996877Y-83207640D01*
X135974090Y-83439000D01*
X135805910Y-83439000D01*
X135783123Y-83207640D01*
X135715638Y-82985172D01*
X135606048Y-82780144D01*
X135458565Y-82600435D01*
X135278856Y-82452952D01*
X135073828Y-82343362D01*
X134851360Y-82275877D01*
X134677975Y-82258800D01*
X134562025Y-82258800D01*
X134388640Y-82275877D01*
X134166172Y-82343362D01*
X133961144Y-82452952D01*
X133781435Y-82600435D01*
X133633952Y-82780144D01*
X133524362Y-82985172D01*
X133456877Y-83207640D01*
X133434090Y-83439000D01*
X133261797Y-83439000D01*
X133261797Y-82589000D01*
X133255422Y-82524270D01*
X133236540Y-82462027D01*
X133205879Y-82404663D01*
X133164616Y-82354384D01*
X133114337Y-82313121D01*
X133056973Y-82282460D01*
X132994730Y-82263578D01*
X132930000Y-82257203D01*
X131230000Y-82257203D01*
X131165270Y-82263578D01*
X131103027Y-82282460D01*
X131045663Y-82313121D01*
X130995384Y-82354384D01*
X130954121Y-82404663D01*
X130923460Y-82462027D01*
X130904578Y-82524270D01*
X130898203Y-82589000D01*
X130898203Y-82981800D01*
X130110379Y-82981800D01*
X127265578Y-80137000D01*
X128689996Y-80137000D01*
X128899676Y-80378763D01*
X128944319Y-80424149D01*
X129024624Y-80483042D01*
X129114876Y-80525137D01*
X129211605Y-80548815D01*
X129597711Y-80603973D01*
X129633541Y-80607801D01*
X130138988Y-80643722D01*
X130175000Y-80645000D01*
X157480000Y-80645000D01*
X157579106Y-80635239D01*
X157674403Y-80606331D01*
X157762230Y-80559387D01*
X157839210Y-80496210D01*
X157924500Y-80410920D01*
X158009790Y-80496210D01*
X158086770Y-80559387D01*
X158174597Y-80606331D01*
X158269894Y-80635239D01*
X158369000Y-80645000D01*
X159119421Y-80645000D01*
X154739764Y-85024659D01*
X154738801Y-85024016D01*
X154620927Y-84975191D01*
X154495793Y-84950300D01*
X154368207Y-84950300D01*
X154243073Y-84975191D01*
X154125199Y-85024016D01*
X154019115Y-85094899D01*
X153928899Y-85185115D01*
X153858016Y-85291199D01*
X153809191Y-85409073D01*
X153784300Y-85534207D01*
X153784300Y-85661793D01*
X153809191Y-85786927D01*
X153858016Y-85904801D01*
X153928899Y-86010885D01*
X154019115Y-86101101D01*
X154119880Y-86168430D01*
X154112016Y-86180199D01*
X154063191Y-86298073D01*
X154038300Y-86423207D01*
X154038300Y-86550793D01*
X154063191Y-86675927D01*
X154112016Y-86793801D01*
X154182899Y-86899885D01*
X154273115Y-86990101D01*
X154379199Y-87060984D01*
X154497073Y-87109809D01*
X154622207Y-87134700D01*
X154749793Y-87134700D01*
X154874927Y-87109809D01*
X154992801Y-87060984D01*
X155098885Y-86990101D01*
X155189101Y-86899885D01*
X155259984Y-86793801D01*
X155308809Y-86675927D01*
X155333700Y-86550793D01*
X155333700Y-86485877D01*
X157364577Y-84455000D01*
X162100589Y-84455000D01*
X162102801Y-84477460D01*
X162102800Y-91290550D01*
X162100589Y-91313000D01*
X162102800Y-91335450D01*
X162102800Y-91335459D01*
X162109415Y-91402626D01*
X162135559Y-91488808D01*
X162178013Y-91568235D01*
X162235147Y-91637853D01*
X162252597Y-91652174D01*
X164456300Y-93855878D01*
X164456300Y-93920793D01*
X164481191Y-94045927D01*
X164530016Y-94163801D01*
X164600899Y-94269885D01*
X164691115Y-94360101D01*
X164797199Y-94430984D01*
X164915073Y-94479809D01*
X165040207Y-94504700D01*
X165167793Y-94504700D01*
X165292927Y-94479809D01*
X165410801Y-94430984D01*
X165516885Y-94360101D01*
X165607101Y-94269885D01*
X165677984Y-94163801D01*
X165726809Y-94045927D01*
X165751700Y-93920793D01*
X165751700Y-93793207D01*
X165726809Y-93668073D01*
X165677984Y-93550199D01*
X165607101Y-93444115D01*
X165516885Y-93353899D01*
X165410801Y-93283016D01*
X165292927Y-93234191D01*
X165167793Y-93209300D01*
X165102878Y-93209300D01*
X163017200Y-91123623D01*
X163017200Y-90952610D01*
X169988800Y-90952610D01*
X169988800Y-91165390D01*
X170030311Y-91374083D01*
X170111739Y-91570667D01*
X170229954Y-91747588D01*
X170380412Y-91898046D01*
X170557333Y-92016261D01*
X170753917Y-92097689D01*
X170962610Y-92139200D01*
X171175390Y-92139200D01*
X171384083Y-92097689D01*
X171580667Y-92016261D01*
X171757588Y-91898046D01*
X171908046Y-91747588D01*
X172026261Y-91570667D01*
X172107689Y-91374083D01*
X172149200Y-91165390D01*
X172149200Y-90952610D01*
X172107689Y-90743917D01*
X172026261Y-90547333D01*
X171908046Y-90370412D01*
X171757588Y-90219954D01*
X171580667Y-90101739D01*
X171384083Y-90020311D01*
X171175390Y-89978800D01*
X170962610Y-89978800D01*
X170753917Y-90020311D01*
X170557333Y-90101739D01*
X170380412Y-90219954D01*
X170229954Y-90370412D01*
X170111739Y-90547333D01*
X170030311Y-90743917D01*
X169988800Y-90952610D01*
X163017200Y-90952610D01*
X163017200Y-86680813D01*
X163133073Y-86728809D01*
X163258207Y-86753700D01*
X163385793Y-86753700D01*
X163510927Y-86728809D01*
X163628801Y-86679984D01*
X163734885Y-86609101D01*
X163825101Y-86518885D01*
X163895984Y-86412801D01*
X163944809Y-86294927D01*
X163969700Y-86169793D01*
X163969700Y-86072610D01*
X169988800Y-86072610D01*
X169988800Y-86285390D01*
X170030311Y-86494083D01*
X170111739Y-86690667D01*
X170229954Y-86867588D01*
X170380412Y-87018046D01*
X170557333Y-87136261D01*
X170753917Y-87217689D01*
X170962610Y-87259200D01*
X171175390Y-87259200D01*
X171384083Y-87217689D01*
X171580667Y-87136261D01*
X171757588Y-87018046D01*
X171908046Y-86867588D01*
X172026261Y-86690667D01*
X172107689Y-86494083D01*
X172149200Y-86285390D01*
X172149200Y-86072610D01*
X172107689Y-85863917D01*
X172026261Y-85667333D01*
X171908046Y-85490412D01*
X171757588Y-85339954D01*
X171580667Y-85221739D01*
X171384083Y-85140311D01*
X171175390Y-85098800D01*
X170962610Y-85098800D01*
X170753917Y-85140311D01*
X170557333Y-85221739D01*
X170380412Y-85339954D01*
X170229954Y-85490412D01*
X170111739Y-85667333D01*
X170030311Y-85863917D01*
X169988800Y-86072610D01*
X163969700Y-86072610D01*
X163969700Y-86042207D01*
X163944809Y-85917073D01*
X163895984Y-85799199D01*
X163825101Y-85693115D01*
X163779200Y-85647214D01*
X163779200Y-84580877D01*
X165098878Y-83261200D01*
X167054214Y-83261200D01*
X167100115Y-83307101D01*
X167206199Y-83377984D01*
X167324073Y-83426809D01*
X167449207Y-83451700D01*
X167576793Y-83451700D01*
X167701927Y-83426809D01*
X167819801Y-83377984D01*
X167925885Y-83307101D01*
X168016101Y-83216885D01*
X168086984Y-83110801D01*
X168135809Y-82992927D01*
X168160700Y-82867793D01*
X168160700Y-82740207D01*
X168135809Y-82615073D01*
X168086984Y-82497199D01*
X168016101Y-82391115D01*
X167925885Y-82300899D01*
X167819801Y-82230016D01*
X167701927Y-82181191D01*
X167576793Y-82156300D01*
X167449207Y-82156300D01*
X167324073Y-82181191D01*
X167206199Y-82230016D01*
X167100115Y-82300899D01*
X167054214Y-82346800D01*
X164931949Y-82346800D01*
X164909499Y-82344589D01*
X164887049Y-82346800D01*
X164887040Y-82346800D01*
X164819873Y-82353415D01*
X164733691Y-82379559D01*
X164654264Y-82422013D01*
X164584647Y-82479147D01*
X164570330Y-82496592D01*
X164346721Y-82720202D01*
X164325809Y-82615073D01*
X164276984Y-82497199D01*
X164206101Y-82391115D01*
X164115885Y-82300899D01*
X164009801Y-82230016D01*
X163891927Y-82181191D01*
X163766793Y-82156300D01*
X163639207Y-82156300D01*
X163514073Y-82181191D01*
X163396199Y-82230016D01*
X163290115Y-82300899D01*
X163199899Y-82391115D01*
X163129016Y-82497199D01*
X163080191Y-82615073D01*
X163055300Y-82740207D01*
X163055300Y-82867793D01*
X163080191Y-82992927D01*
X163129016Y-83110801D01*
X163180528Y-83187894D01*
X162252593Y-84115830D01*
X162235148Y-84130147D01*
X162220831Y-84147592D01*
X162220830Y-84147593D01*
X162178013Y-84199765D01*
X162135560Y-84279191D01*
X162109416Y-84365374D01*
X162100589Y-84455000D01*
X157364577Y-84455000D01*
X160082378Y-81737200D01*
X173459550Y-81737200D01*
X173482000Y-81739411D01*
X173504450Y-81737200D01*
X173504460Y-81737200D01*
X173571627Y-81730585D01*
X173657809Y-81704441D01*
X173737236Y-81661987D01*
X173806853Y-81604853D01*
X173821174Y-81587403D01*
X174242878Y-81165700D01*
X174307793Y-81165700D01*
X174432927Y-81140809D01*
X174550801Y-81091984D01*
X174656885Y-81021101D01*
X174747101Y-80930885D01*
X174817984Y-80824801D01*
X174866809Y-80706927D01*
X174891700Y-80581793D01*
X174891700Y-80454207D01*
X174866809Y-80329073D01*
X174817984Y-80211199D01*
X174747101Y-80105115D01*
X174656885Y-80014899D01*
X174550801Y-79944016D01*
X174432927Y-79895191D01*
X174307793Y-79870300D01*
X174180207Y-79870300D01*
X174055073Y-79895191D01*
X173937199Y-79944016D01*
X173831115Y-80014899D01*
X173740899Y-80105115D01*
X173736000Y-80112447D01*
X173731101Y-80105115D01*
X173640885Y-80014899D01*
X173534801Y-79944016D01*
X173416927Y-79895191D01*
X173291793Y-79870300D01*
X173164207Y-79870300D01*
X173039073Y-79895191D01*
X172921199Y-79944016D01*
X172815115Y-80014899D01*
X172724899Y-80105115D01*
X172654016Y-80211199D01*
X172611103Y-80314800D01*
X167164620Y-80314800D01*
X167237210Y-80242210D01*
X167300387Y-80165230D01*
X167347331Y-80077403D01*
X167376239Y-79982106D01*
X167386000Y-79883000D01*
X167386000Y-79629000D01*
X168910000Y-79629000D01*
X169009106Y-79619239D01*
X169104403Y-79590331D01*
X169192230Y-79543387D01*
X169269210Y-79480210D01*
X169523210Y-79226210D01*
X169586387Y-79149230D01*
X169633331Y-79061403D01*
X169662239Y-78966106D01*
X169672000Y-78867000D01*
X169672000Y-78105000D01*
X169662239Y-78005894D01*
X169633331Y-77910597D01*
X169586387Y-77822770D01*
X169523210Y-77745790D01*
X169269210Y-77491790D01*
X169192230Y-77428613D01*
X169104403Y-77381669D01*
X169009106Y-77352761D01*
X168910000Y-77343000D01*
X160528000Y-77343000D01*
X160528000Y-75641200D01*
X171006623Y-75641200D01*
X171043550Y-75678127D01*
X171043550Y-75678127D01*
G37*
X171043550Y-75678127D02*
X171043550Y-75768543D01*
X171068441Y-75893677D01*
X171117266Y-76011551D01*
X171188149Y-76117635D01*
X171278365Y-76207851D01*
X171384449Y-76278734D01*
X171502323Y-76327559D01*
X171627457Y-76352450D01*
X171755043Y-76352450D01*
X171880177Y-76327559D01*
X171998051Y-76278734D01*
X172104135Y-76207851D01*
X172137286Y-76174700D01*
X172302123Y-76174700D01*
X172761829Y-76634407D01*
X172776147Y-76651853D01*
X172793592Y-76666170D01*
X172838592Y-76703101D01*
X172845764Y-76708987D01*
X172925191Y-76751441D01*
X173011373Y-76777585D01*
X173078540Y-76784200D01*
X173078549Y-76784200D01*
X173100999Y-76786411D01*
X173123449Y-76784200D01*
X177546000Y-76784200D01*
X177546000Y-84201000D01*
X177546907Y-84216150D01*
X177552285Y-84240459D01*
X177562303Y-84263251D01*
X177576574Y-84283651D01*
X178279801Y-85104082D01*
X178279800Y-94929201D01*
X174606203Y-98602800D01*
X168449411Y-98602800D01*
X168401999Y-98598130D01*
X168354587Y-98602800D01*
X168354585Y-98602800D01*
X168212788Y-98616766D01*
X168030847Y-98671957D01*
X167863169Y-98761583D01*
X167716198Y-98882198D01*
X167685972Y-98919029D01*
X166356036Y-100248967D01*
X166319199Y-100279198D01*
X166210558Y-100411579D01*
X166198583Y-100426170D01*
X166108958Y-100593847D01*
X166053767Y-100775789D01*
X166035130Y-100965000D01*
X166039801Y-101012422D01*
X166039801Y-108204000D01*
X139371200Y-108204000D01*
X139371200Y-106829877D01*
X141278467Y-104922610D01*
X146049300Y-104922610D01*
X146049300Y-105135390D01*
X146090811Y-105344083D01*
X146172239Y-105540667D01*
X146290454Y-105717588D01*
X146440912Y-105868046D01*
X146617833Y-105986261D01*
X146814417Y-106067689D01*
X147023110Y-106109200D01*
X147235890Y-106109200D01*
X147444583Y-106067689D01*
X147641167Y-105986261D01*
X147818088Y-105868046D01*
X147968546Y-105717588D01*
X148086761Y-105540667D01*
X148168189Y-105344083D01*
X148209700Y-105135390D01*
X148209700Y-104922610D01*
X148168189Y-104713917D01*
X148086761Y-104517333D01*
X147968546Y-104340412D01*
X147818088Y-104189954D01*
X147641167Y-104071739D01*
X147444583Y-103990311D01*
X147235890Y-103948800D01*
X147023110Y-103948800D01*
X146814417Y-103990311D01*
X146617833Y-104071739D01*
X146440912Y-104189954D01*
X146290454Y-104340412D01*
X146172239Y-104517333D01*
X146090811Y-104713917D01*
X146049300Y-104922610D01*
X141278467Y-104922610D01*
X144729148Y-101471929D01*
X149499981Y-101471929D01*
X149499981Y-101684709D01*
X149541492Y-101893402D01*
X149622920Y-102089986D01*
X149741135Y-102266907D01*
X149891593Y-102417365D01*
X150068514Y-102535580D01*
X150265098Y-102617008D01*
X150473791Y-102658519D01*
X150686571Y-102658519D01*
X150895264Y-102617008D01*
X151091848Y-102535580D01*
X151268769Y-102417365D01*
X151419227Y-102266907D01*
X151537442Y-102089986D01*
X151618870Y-101893402D01*
X151660381Y-101684709D01*
X151660381Y-101471929D01*
X151618870Y-101263236D01*
X151537442Y-101066652D01*
X151419227Y-100889731D01*
X151268769Y-100739273D01*
X151091848Y-100621058D01*
X150895264Y-100539630D01*
X150686571Y-100498119D01*
X150473791Y-100498119D01*
X150265098Y-100539630D01*
X150068514Y-100621058D01*
X149891593Y-100739273D01*
X149741135Y-100889731D01*
X149622920Y-101066652D01*
X149541492Y-101263236D01*
X149499981Y-101471929D01*
X144729148Y-101471929D01*
X147627408Y-98573670D01*
X147644853Y-98559353D01*
X147701987Y-98489736D01*
X147744441Y-98410309D01*
X147770585Y-98324127D01*
X147777200Y-98256960D01*
X147777200Y-98256951D01*
X147779411Y-98234501D01*
X147777200Y-98212051D01*
X147777200Y-97458785D01*
X147837712Y-97368223D01*
X147881750Y-97261905D01*
X147904200Y-97149039D01*
X147904200Y-97033961D01*
X147881750Y-96921095D01*
X147837712Y-96814777D01*
X147773778Y-96719094D01*
X147692406Y-96637722D01*
X147596723Y-96573788D01*
X147490405Y-96529750D01*
X147377539Y-96507300D01*
X147262461Y-96507300D01*
X147149595Y-96529750D01*
X147043277Y-96573788D01*
X146947594Y-96637722D01*
X146866222Y-96719094D01*
X146802288Y-96814777D01*
X146758250Y-96921095D01*
X146739512Y-97015300D01*
X146627461Y-97015300D01*
X146514595Y-97037750D01*
X146408277Y-97081788D01*
X146312594Y-97145722D01*
X146231222Y-97227094D01*
X146167288Y-97322777D01*
X146123250Y-97429095D01*
X146100800Y-97541961D01*
X146100800Y-97657039D01*
X146123250Y-97769905D01*
X146141487Y-97813935D01*
X135751423Y-108204000D01*
X113677700Y-108204000D01*
X113677700Y-98996500D01*
X118603089Y-98996500D01*
X118605301Y-99018960D01*
X118605300Y-100498050D01*
X118603089Y-100520500D01*
X118605300Y-100542950D01*
X118605300Y-100542959D01*
X118611915Y-100610126D01*
X118638059Y-100696308D01*
X118680513Y-100775735D01*
X118737647Y-100845353D01*
X118755097Y-100859674D01*
X119684801Y-101789380D01*
X119684800Y-103617714D01*
X119638899Y-103663615D01*
X119568016Y-103769699D01*
X119519191Y-103887573D01*
X119494300Y-104012707D01*
X119494300Y-104140293D01*
X119519191Y-104265427D01*
X119568016Y-104383301D01*
X119638899Y-104489385D01*
X119729115Y-104579601D01*
X119835199Y-104650484D01*
X119953073Y-104699309D01*
X120078207Y-104724200D01*
X120205793Y-104724200D01*
X120330927Y-104699309D01*
X120448801Y-104650484D01*
X120554885Y-104579601D01*
X120645101Y-104489385D01*
X120715984Y-104383301D01*
X120764809Y-104265427D01*
X120789700Y-104140293D01*
X120789700Y-104012707D01*
X120764809Y-103887573D01*
X120715984Y-103769699D01*
X120645101Y-103663615D01*
X120599200Y-103617714D01*
X120599200Y-101622452D01*
X120601411Y-101600000D01*
X120599200Y-101577548D01*
X120599200Y-101577540D01*
X120592585Y-101510373D01*
X120566441Y-101424191D01*
X120566441Y-101424190D01*
X120523987Y-101344764D01*
X120481171Y-101292592D01*
X120481165Y-101292586D01*
X120466853Y-101275147D01*
X120449414Y-101260835D01*
X119519700Y-100331123D01*
X119519700Y-99185877D01*
X119886878Y-98818700D01*
X119951793Y-98818700D01*
X120076927Y-98793809D01*
X120194801Y-98744984D01*
X120300885Y-98674101D01*
X120341786Y-98633200D01*
X126145223Y-98633200D01*
X125803597Y-98974826D01*
X125786147Y-98989147D01*
X125729013Y-99058765D01*
X125686559Y-99138192D01*
X125660415Y-99224374D01*
X125653800Y-99291541D01*
X125653800Y-99291550D01*
X125651589Y-99314000D01*
X125653800Y-99336450D01*
X125653801Y-104316213D01*
X125607899Y-104362115D01*
X125537016Y-104468199D01*
X125488191Y-104586073D01*
X125463300Y-104711207D01*
X125463300Y-104838793D01*
X125488191Y-104963927D01*
X125537016Y-105081801D01*
X125607899Y-105187885D01*
X125698115Y-105278101D01*
X125804199Y-105348984D01*
X125922073Y-105397809D01*
X126047207Y-105422700D01*
X126174793Y-105422700D01*
X126299927Y-105397809D01*
X126417801Y-105348984D01*
X126523885Y-105278101D01*
X126614101Y-105187885D01*
X126684984Y-105081801D01*
X126733809Y-104963927D01*
X126758700Y-104838793D01*
X126758700Y-104711207D01*
X126733809Y-104586073D01*
X126684984Y-104468199D01*
X126614101Y-104362115D01*
X126568200Y-104316214D01*
X126568200Y-104141033D01*
X130367705Y-104141033D01*
X130440600Y-104371079D01*
X130556974Y-104582484D01*
X130712355Y-104767123D01*
X130900771Y-104917901D01*
X131114982Y-105029024D01*
X131316967Y-105090292D01*
X131508500Y-105019973D01*
X131508500Y-103949500D01*
X131635500Y-103949500D01*
X131635500Y-105019973D01*
X131827033Y-105090292D01*
X132029018Y-105029024D01*
X132243229Y-104917901D01*
X132431645Y-104767123D01*
X132587026Y-104582484D01*
X132703400Y-104371079D01*
X132776295Y-104141033D01*
X132706114Y-103949500D01*
X131635500Y-103949500D01*
X131508500Y-103949500D01*
X130437886Y-103949500D01*
X130367705Y-104141033D01*
X126568200Y-104141033D01*
X126568200Y-103886000D01*
X132926090Y-103886000D01*
X132948877Y-104117360D01*
X133016362Y-104339828D01*
X133125952Y-104544856D01*
X133273435Y-104724565D01*
X133453144Y-104872048D01*
X133658172Y-104981638D01*
X133880640Y-105049123D01*
X134054025Y-105066200D01*
X134169975Y-105066200D01*
X134343360Y-105049123D01*
X134565828Y-104981638D01*
X134770856Y-104872048D01*
X134950565Y-104724565D01*
X135098048Y-104544856D01*
X135207638Y-104339828D01*
X135275123Y-104117360D01*
X135297910Y-103886000D01*
X135275123Y-103654640D01*
X135207638Y-103432172D01*
X135098048Y-103227144D01*
X134950565Y-103047435D01*
X134936632Y-103036000D01*
X135470203Y-103036000D01*
X135470203Y-104736000D01*
X135476578Y-104800730D01*
X135495460Y-104862973D01*
X135526121Y-104920337D01*
X135567384Y-104970616D01*
X135617663Y-105011879D01*
X135675027Y-105042540D01*
X135737270Y-105061422D01*
X135802000Y-105067797D01*
X137502000Y-105067797D01*
X137566730Y-105061422D01*
X137628973Y-105042540D01*
X137686337Y-105011879D01*
X137736616Y-104970616D01*
X137777879Y-104920337D01*
X137808540Y-104862973D01*
X137827422Y-104800730D01*
X137833797Y-104736000D01*
X137833797Y-103036000D01*
X137827422Y-102971270D01*
X137808540Y-102909027D01*
X137777879Y-102851663D01*
X137736616Y-102801384D01*
X137686337Y-102760121D01*
X137628973Y-102729460D01*
X137566730Y-102710578D01*
X137502000Y-102704203D01*
X135802000Y-102704203D01*
X135737270Y-102710578D01*
X135675027Y-102729460D01*
X135617663Y-102760121D01*
X135567384Y-102801384D01*
X135526121Y-102851663D01*
X135495460Y-102909027D01*
X135476578Y-102971270D01*
X135470203Y-103036000D01*
X134936632Y-103036000D01*
X134770856Y-102899952D01*
X134565828Y-102790362D01*
X134343360Y-102722877D01*
X134169975Y-102705800D01*
X134054025Y-102705800D01*
X133880640Y-102722877D01*
X133658172Y-102790362D01*
X133453144Y-102899952D01*
X133273435Y-103047435D01*
X133125952Y-103227144D01*
X133016362Y-103432172D01*
X132948877Y-103654640D01*
X132926090Y-103886000D01*
X126568200Y-103886000D01*
X126568200Y-103630967D01*
X130367705Y-103630967D01*
X130437886Y-103822500D01*
X131508500Y-103822500D01*
X131508500Y-102752027D01*
X131635500Y-102752027D01*
X131635500Y-103822500D01*
X132706114Y-103822500D01*
X132776295Y-103630967D01*
X132703400Y-103400921D01*
X132587026Y-103189516D01*
X132431645Y-103004877D01*
X132243229Y-102854099D01*
X132029018Y-102742976D01*
X131827033Y-102681708D01*
X131635500Y-102752027D01*
X131508500Y-102752027D01*
X131316967Y-102681708D01*
X131114982Y-102742976D01*
X130900771Y-102854099D01*
X130712355Y-103004877D01*
X130556974Y-103189516D01*
X130440600Y-103400921D01*
X130367705Y-103630967D01*
X126568200Y-103630967D01*
X126568200Y-99503377D01*
X128262296Y-97809282D01*
X128301615Y-97848601D01*
X128407699Y-97919484D01*
X128525573Y-97968309D01*
X128650707Y-97993200D01*
X128778293Y-97993200D01*
X128903427Y-97968309D01*
X129021301Y-97919484D01*
X129127385Y-97848601D01*
X129217601Y-97758385D01*
X129288484Y-97652301D01*
X129337309Y-97534427D01*
X129362200Y-97409293D01*
X129362200Y-97281707D01*
X129337309Y-97156573D01*
X129288484Y-97038699D01*
X129217601Y-96932615D01*
X129210032Y-96925046D01*
X129284878Y-96850200D01*
X139741050Y-96850200D01*
X139763500Y-96852411D01*
X139785950Y-96850200D01*
X139785960Y-96850200D01*
X139853127Y-96843585D01*
X139939309Y-96817441D01*
X140018736Y-96774987D01*
X140088353Y-96717853D01*
X140102674Y-96700403D01*
X142238878Y-94564200D01*
X143051214Y-94564200D01*
X143097115Y-94610101D01*
X143203199Y-94680984D01*
X143230592Y-94692331D01*
X143012092Y-94910830D01*
X142994648Y-94925147D01*
X142980331Y-94942592D01*
X142980330Y-94942593D01*
X142937514Y-94994764D01*
X142895060Y-95074191D01*
X142875161Y-95139789D01*
X142868916Y-95160374D01*
X142860089Y-95250000D01*
X142862301Y-95272459D01*
X142862300Y-96124714D01*
X142816399Y-96170615D01*
X142745516Y-96276699D01*
X142696691Y-96394573D01*
X142671800Y-96519707D01*
X142671800Y-96647293D01*
X142696691Y-96772427D01*
X142745516Y-96890301D01*
X142816399Y-96996385D01*
X142906615Y-97086601D01*
X143012699Y-97157484D01*
X143130573Y-97206309D01*
X143255707Y-97231200D01*
X143383293Y-97231200D01*
X143508427Y-97206309D01*
X143626301Y-97157484D01*
X143732385Y-97086601D01*
X143822601Y-96996385D01*
X143893484Y-96890301D01*
X143942309Y-96772427D01*
X143967200Y-96647293D01*
X143967200Y-96519707D01*
X143942309Y-96394573D01*
X143893484Y-96276699D01*
X143822601Y-96170615D01*
X143776700Y-96124714D01*
X143776700Y-95439377D01*
X144397878Y-94818200D01*
X145972214Y-94818200D01*
X146018115Y-94864101D01*
X146124199Y-94934984D01*
X146242073Y-94983809D01*
X146367207Y-95008700D01*
X146494793Y-95008700D01*
X146619927Y-94983809D01*
X146737801Y-94934984D01*
X146843885Y-94864101D01*
X146934101Y-94773885D01*
X147004984Y-94667801D01*
X147053809Y-94549927D01*
X147078700Y-94424793D01*
X147078700Y-94297207D01*
X147053809Y-94172073D01*
X147004984Y-94054199D01*
X146934101Y-93948115D01*
X146843885Y-93857899D01*
X146737801Y-93787016D01*
X146619927Y-93738191D01*
X146494793Y-93713300D01*
X146367207Y-93713300D01*
X146242073Y-93738191D01*
X146124199Y-93787016D01*
X146018115Y-93857899D01*
X145972214Y-93903800D01*
X144565686Y-93903800D01*
X144648101Y-93821385D01*
X144718984Y-93715301D01*
X144767809Y-93597427D01*
X144792700Y-93472293D01*
X144792700Y-93344707D01*
X144767809Y-93219573D01*
X144718984Y-93101699D01*
X144648101Y-92995615D01*
X144557885Y-92905399D01*
X144451801Y-92834516D01*
X144333927Y-92785691D01*
X144208793Y-92760800D01*
X144081207Y-92760800D01*
X143956073Y-92785691D01*
X143838199Y-92834516D01*
X143732115Y-92905399D01*
X143686214Y-92951300D01*
X142008450Y-92951300D01*
X141986000Y-92949089D01*
X141963550Y-92951300D01*
X141963540Y-92951300D01*
X141896373Y-92957915D01*
X141810191Y-92984059D01*
X141772981Y-93003948D01*
X141730764Y-93026513D01*
X141711393Y-93042411D01*
X141661147Y-93083647D01*
X141646830Y-93101092D01*
X139320123Y-95427800D01*
X128800449Y-95427800D01*
X128777999Y-95425589D01*
X128755549Y-95427800D01*
X128755540Y-95427800D01*
X128688373Y-95434415D01*
X128602191Y-95460559D01*
X128565217Y-95480322D01*
X128522763Y-95503013D01*
X128470592Y-95545830D01*
X128453147Y-95560147D01*
X128438830Y-95577592D01*
X126297623Y-97718800D01*
X120351786Y-97718800D01*
X120300885Y-97667899D01*
X120194801Y-97597016D01*
X120076927Y-97548191D01*
X119951793Y-97523300D01*
X119824207Y-97523300D01*
X119699073Y-97548191D01*
X119581199Y-97597016D01*
X119475115Y-97667899D01*
X119384899Y-97758115D01*
X119314016Y-97864199D01*
X119265191Y-97982073D01*
X119240300Y-98107207D01*
X119240300Y-98172122D01*
X118755092Y-98657330D01*
X118737648Y-98671647D01*
X118723331Y-98689092D01*
X118723330Y-98689093D01*
X118680513Y-98741265D01*
X118645912Y-98806000D01*
X118638060Y-98820691D01*
X118617169Y-98889559D01*
X118611916Y-98906874D01*
X118603089Y-98996500D01*
X113677700Y-98996500D01*
X113677700Y-92859557D01*
X113731008Y-92959289D01*
X113990959Y-93276041D01*
X114307711Y-93535992D01*
X114669090Y-93729153D01*
X115061210Y-93848101D01*
X115366809Y-93878200D01*
X116071191Y-93878200D01*
X116376790Y-93848101D01*
X116768910Y-93729153D01*
X117130289Y-93535992D01*
X117447041Y-93276041D01*
X117706992Y-92959289D01*
X117900153Y-92597910D01*
X118019101Y-92205790D01*
X118059265Y-91798000D01*
X118019101Y-91390210D01*
X117900153Y-90998090D01*
X117706992Y-90636711D01*
X117447041Y-90319959D01*
X117130289Y-90060008D01*
X116768910Y-89866847D01*
X116376790Y-89747899D01*
X116071191Y-89717800D01*
X115366809Y-89717800D01*
X115061210Y-89747899D01*
X114669090Y-89866847D01*
X114307711Y-90060008D01*
X113990959Y-90319959D01*
X113731008Y-90636711D01*
X113677700Y-90736443D01*
X113677700Y-89638000D01*
X118603574Y-89638000D01*
X118624430Y-89849756D01*
X118686197Y-90053375D01*
X118786501Y-90241030D01*
X118921488Y-90405512D01*
X119085970Y-90540499D01*
X119273625Y-90640803D01*
X119477244Y-90702570D01*
X119635939Y-90718200D01*
X120442061Y-90718200D01*
X120600756Y-90702570D01*
X120804375Y-90640803D01*
X120992030Y-90540499D01*
X121156512Y-90405512D01*
X121291499Y-90241030D01*
X121391803Y-90053375D01*
X121453570Y-89849756D01*
X121474426Y-89638000D01*
X121603574Y-89638000D01*
X121624430Y-89849756D01*
X121686197Y-90053375D01*
X121786501Y-90241030D01*
X121921488Y-90405512D01*
X122085970Y-90540499D01*
X122273625Y-90640803D01*
X122477244Y-90702570D01*
X122635939Y-90718200D01*
X123442061Y-90718200D01*
X123600756Y-90702570D01*
X123804375Y-90640803D01*
X123992030Y-90540499D01*
X124156512Y-90405512D01*
X124291499Y-90241030D01*
X124391803Y-90053375D01*
X124394950Y-90043000D01*
X128354090Y-90043000D01*
X128376877Y-90274360D01*
X128444362Y-90496828D01*
X128553952Y-90701856D01*
X128701435Y-90881565D01*
X128881144Y-91029048D01*
X129086172Y-91138638D01*
X129308640Y-91206123D01*
X129482025Y-91223200D01*
X129597975Y-91223200D01*
X129771360Y-91206123D01*
X129993828Y-91138638D01*
X130198856Y-91029048D01*
X130378565Y-90881565D01*
X130526048Y-90701856D01*
X130635638Y-90496828D01*
X130703123Y-90274360D01*
X130725910Y-90043000D01*
X130703123Y-89811640D01*
X130635638Y-89589172D01*
X130526048Y-89384144D01*
X130378565Y-89204435D01*
X130364632Y-89193000D01*
X130898203Y-89193000D01*
X130898203Y-90893000D01*
X130904578Y-90957730D01*
X130923460Y-91019973D01*
X130954121Y-91077337D01*
X130995384Y-91127616D01*
X131045663Y-91168879D01*
X131103027Y-91199540D01*
X131165270Y-91218422D01*
X131230000Y-91224797D01*
X132037671Y-91224797D01*
X132014016Y-91260199D01*
X131965191Y-91378073D01*
X131940300Y-91503207D01*
X131940300Y-91630793D01*
X131965191Y-91755927D01*
X132014016Y-91873801D01*
X132084899Y-91979885D01*
X132175115Y-92070101D01*
X132281199Y-92140984D01*
X132399073Y-92189809D01*
X132524207Y-92214700D01*
X132589123Y-92214700D01*
X133264829Y-92890407D01*
X133279147Y-92907853D01*
X133296592Y-92922170D01*
X133332087Y-92951300D01*
X133348764Y-92964987D01*
X133428191Y-93007441D01*
X133514373Y-93033585D01*
X133581540Y-93040200D01*
X133581550Y-93040200D01*
X133604000Y-93042411D01*
X133626450Y-93040200D01*
X136208623Y-93040200D01*
X137709835Y-94541414D01*
X137724147Y-94558853D01*
X137741586Y-94573165D01*
X137741592Y-94573171D01*
X137793764Y-94615987D01*
X137873190Y-94658441D01*
X137893249Y-94664526D01*
X137959373Y-94684585D01*
X138026540Y-94691200D01*
X138026550Y-94691200D01*
X138049000Y-94693411D01*
X138071450Y-94691200D01*
X138352214Y-94691200D01*
X138398115Y-94737101D01*
X138504199Y-94807984D01*
X138622073Y-94856809D01*
X138747207Y-94881700D01*
X138874793Y-94881700D01*
X138999927Y-94856809D01*
X139117801Y-94807984D01*
X139223885Y-94737101D01*
X139314101Y-94646885D01*
X139384984Y-94540801D01*
X139433809Y-94422927D01*
X139458700Y-94297793D01*
X139458700Y-94170207D01*
X139433809Y-94045073D01*
X139384984Y-93927199D01*
X139314101Y-93821115D01*
X139223885Y-93730899D01*
X139117801Y-93660016D01*
X138999927Y-93611191D01*
X138938147Y-93598902D01*
X138950700Y-93535793D01*
X138950700Y-93408207D01*
X138925809Y-93283073D01*
X138876984Y-93165199D01*
X138806101Y-93059115D01*
X138715885Y-92968899D01*
X138609801Y-92898016D01*
X138491927Y-92849191D01*
X138366793Y-92824300D01*
X138239207Y-92824300D01*
X138114073Y-92849191D01*
X138084867Y-92861289D01*
X136991174Y-91767597D01*
X136976853Y-91750147D01*
X136907236Y-91693013D01*
X136827809Y-91650559D01*
X136741627Y-91624415D01*
X136674460Y-91617800D01*
X136674450Y-91617800D01*
X136652000Y-91615589D01*
X136629550Y-91617800D01*
X134301378Y-91617800D01*
X133261797Y-90578220D01*
X133261797Y-89193000D01*
X133255422Y-89128270D01*
X133236540Y-89066027D01*
X133205879Y-89008663D01*
X133164616Y-88958384D01*
X133114337Y-88917121D01*
X133056973Y-88886460D01*
X132994730Y-88867578D01*
X132930000Y-88861203D01*
X131230000Y-88861203D01*
X131165270Y-88867578D01*
X131103027Y-88886460D01*
X131045663Y-88917121D01*
X130995384Y-88958384D01*
X130954121Y-89008663D01*
X130923460Y-89066027D01*
X130904578Y-89128270D01*
X130898203Y-89193000D01*
X130364632Y-89193000D01*
X130198856Y-89056952D01*
X129993828Y-88947362D01*
X129771360Y-88879877D01*
X129597975Y-88862800D01*
X129482025Y-88862800D01*
X129308640Y-88879877D01*
X129086172Y-88947362D01*
X128881144Y-89056952D01*
X128701435Y-89204435D01*
X128553952Y-89384144D01*
X128444362Y-89589172D01*
X128376877Y-89811640D01*
X128354090Y-90043000D01*
X124394950Y-90043000D01*
X124453570Y-89849756D01*
X124474426Y-89638000D01*
X124453570Y-89426244D01*
X124391803Y-89222625D01*
X124291499Y-89034970D01*
X124156512Y-88870488D01*
X124114741Y-88836207D01*
X135623300Y-88836207D01*
X135623300Y-88963793D01*
X135648191Y-89088927D01*
X135697016Y-89206801D01*
X135767899Y-89312885D01*
X135858115Y-89403101D01*
X135964199Y-89473984D01*
X136082073Y-89522809D01*
X136207207Y-89547700D01*
X136272123Y-89547700D01*
X137074829Y-90350407D01*
X137089147Y-90367853D01*
X137158764Y-90424987D01*
X137238191Y-90467441D01*
X137324373Y-90493585D01*
X137330170Y-90494156D01*
X137382115Y-90546101D01*
X137488199Y-90616984D01*
X137606073Y-90665809D01*
X137731207Y-90690700D01*
X137858793Y-90690700D01*
X137983927Y-90665809D01*
X138101801Y-90616984D01*
X138207885Y-90546101D01*
X138298101Y-90455885D01*
X138368984Y-90349801D01*
X138417809Y-90231927D01*
X138442700Y-90106793D01*
X138442700Y-89979207D01*
X138417809Y-89854073D01*
X138368984Y-89736199D01*
X138298101Y-89630115D01*
X138207885Y-89539899D01*
X138101801Y-89469016D01*
X137983927Y-89420191D01*
X137858793Y-89395300D01*
X137731207Y-89395300D01*
X137606073Y-89420191D01*
X137488199Y-89469016D01*
X137487237Y-89469659D01*
X136918700Y-88901123D01*
X136918700Y-88836207D01*
X136893809Y-88711073D01*
X136844984Y-88593199D01*
X136774101Y-88487115D01*
X136683885Y-88396899D01*
X136577801Y-88326016D01*
X136459927Y-88277191D01*
X136334793Y-88252300D01*
X136207207Y-88252300D01*
X136082073Y-88277191D01*
X135964199Y-88326016D01*
X135858115Y-88396899D01*
X135767899Y-88487115D01*
X135697016Y-88593199D01*
X135648191Y-88711073D01*
X135623300Y-88836207D01*
X124114741Y-88836207D01*
X123992030Y-88735501D01*
X123804375Y-88635197D01*
X123600756Y-88573430D01*
X123442061Y-88557800D01*
X122635939Y-88557800D01*
X122477244Y-88573430D01*
X122273625Y-88635197D01*
X122085970Y-88735501D01*
X121921488Y-88870488D01*
X121786501Y-89034970D01*
X121686197Y-89222625D01*
X121624430Y-89426244D01*
X121603574Y-89638000D01*
X121474426Y-89638000D01*
X121453570Y-89426244D01*
X121391803Y-89222625D01*
X121291499Y-89034970D01*
X121156512Y-88870488D01*
X120992030Y-88735501D01*
X120804375Y-88635197D01*
X120600756Y-88573430D01*
X120442061Y-88557800D01*
X119635939Y-88557800D01*
X119477244Y-88573430D01*
X119273625Y-88635197D01*
X119085970Y-88735501D01*
X118921488Y-88870488D01*
X118786501Y-89034970D01*
X118686197Y-89222625D01*
X118624430Y-89426244D01*
X118603574Y-89638000D01*
X113677700Y-89638000D01*
X113677700Y-86638000D01*
X118603574Y-86638000D01*
X118624430Y-86849756D01*
X118686197Y-87053375D01*
X118786501Y-87241030D01*
X118921488Y-87405512D01*
X119085970Y-87540499D01*
X119273625Y-87640803D01*
X119477244Y-87702570D01*
X119635939Y-87718200D01*
X120442061Y-87718200D01*
X120600756Y-87702570D01*
X120804375Y-87640803D01*
X120992030Y-87540499D01*
X121156512Y-87405512D01*
X121291499Y-87241030D01*
X121391803Y-87053375D01*
X121453570Y-86849756D01*
X121474426Y-86638000D01*
X121603574Y-86638000D01*
X121624430Y-86849756D01*
X121686197Y-87053375D01*
X121786501Y-87241030D01*
X121921488Y-87405512D01*
X122085970Y-87540499D01*
X122273625Y-87640803D01*
X122477244Y-87702570D01*
X122635939Y-87718200D01*
X123442061Y-87718200D01*
X123600756Y-87702570D01*
X123804375Y-87640803D01*
X123825134Y-87629707D01*
X139687300Y-87629707D01*
X139687300Y-87757293D01*
X139712191Y-87882427D01*
X139761016Y-88000301D01*
X139831899Y-88106385D01*
X139877800Y-88152286D01*
X139877801Y-89131540D01*
X139875589Y-89154000D01*
X139884416Y-89243626D01*
X139910560Y-89329809D01*
X139953013Y-89409235D01*
X139962005Y-89420191D01*
X140010148Y-89478853D01*
X140027593Y-89493170D01*
X142300358Y-91765935D01*
X142300220Y-91766627D01*
X142300220Y-91894213D01*
X142325111Y-92019347D01*
X142373936Y-92137221D01*
X142444819Y-92243305D01*
X142535035Y-92333521D01*
X142641119Y-92404404D01*
X142758993Y-92453229D01*
X142884127Y-92478120D01*
X143011713Y-92478120D01*
X143136847Y-92453229D01*
X143254721Y-92404404D01*
X143360805Y-92333521D01*
X143451021Y-92243305D01*
X143521904Y-92137221D01*
X143570729Y-92019347D01*
X143572348Y-92011207D01*
X147815300Y-92011207D01*
X147815300Y-92138793D01*
X147840191Y-92263927D01*
X147889016Y-92381801D01*
X147959899Y-92487885D01*
X148050115Y-92578101D01*
X148156199Y-92648984D01*
X148274073Y-92697809D01*
X148399207Y-92722700D01*
X148526793Y-92722700D01*
X148651927Y-92697809D01*
X148769801Y-92648984D01*
X148875885Y-92578101D01*
X148966101Y-92487885D01*
X149036984Y-92381801D01*
X149079897Y-92278200D01*
X154790550Y-92278200D01*
X154813000Y-92280411D01*
X154835450Y-92278200D01*
X154835460Y-92278200D01*
X154902627Y-92271585D01*
X154988809Y-92245441D01*
X155068236Y-92202987D01*
X155137853Y-92145853D01*
X155152174Y-92128403D01*
X156589879Y-90690700D01*
X156654793Y-90690700D01*
X156779927Y-90665809D01*
X156897801Y-90616984D01*
X157003885Y-90546101D01*
X157094101Y-90455885D01*
X157164984Y-90349801D01*
X157213809Y-90231927D01*
X157238700Y-90106793D01*
X157238700Y-89979207D01*
X157213809Y-89854073D01*
X157164984Y-89736199D01*
X157094101Y-89630115D01*
X157003885Y-89539899D01*
X156897801Y-89469016D01*
X156779927Y-89420191D01*
X156654793Y-89395300D01*
X156527207Y-89395300D01*
X156402073Y-89420191D01*
X156284199Y-89469016D01*
X156178115Y-89539899D01*
X156087899Y-89630115D01*
X156017016Y-89736199D01*
X155968191Y-89854073D01*
X155943300Y-89979207D01*
X155943300Y-90044121D01*
X154623623Y-91363800D01*
X148739449Y-91363800D01*
X148716999Y-91361589D01*
X148694549Y-91363800D01*
X148694540Y-91363800D01*
X148627373Y-91370415D01*
X148541191Y-91396559D01*
X148483678Y-91427300D01*
X148399207Y-91427300D01*
X148274073Y-91452191D01*
X148156199Y-91501016D01*
X148050115Y-91571899D01*
X147959899Y-91662115D01*
X147889016Y-91768199D01*
X147840191Y-91886073D01*
X147815300Y-92011207D01*
X143572348Y-92011207D01*
X143595620Y-91894213D01*
X143595620Y-91766627D01*
X143570729Y-91641493D01*
X143521904Y-91523619D01*
X143451021Y-91417535D01*
X143360805Y-91327319D01*
X143254721Y-91256436D01*
X143136847Y-91207611D01*
X143011713Y-91182720D01*
X143010298Y-91182720D01*
X140792200Y-88964623D01*
X140792200Y-88152286D01*
X140838101Y-88106385D01*
X140908984Y-88000301D01*
X140957809Y-87882427D01*
X140982700Y-87757293D01*
X140982700Y-87629707D01*
X140957809Y-87504573D01*
X140908984Y-87386699D01*
X140838101Y-87280615D01*
X140747885Y-87190399D01*
X140641801Y-87119516D01*
X140523927Y-87070691D01*
X140398793Y-87045800D01*
X140271207Y-87045800D01*
X140146073Y-87070691D01*
X140028199Y-87119516D01*
X139922115Y-87190399D01*
X139831899Y-87280615D01*
X139761016Y-87386699D01*
X139712191Y-87504573D01*
X139687300Y-87629707D01*
X123825134Y-87629707D01*
X123992030Y-87540499D01*
X124156512Y-87405512D01*
X124291499Y-87241030D01*
X124391803Y-87053375D01*
X124453570Y-86849756D01*
X124474426Y-86638000D01*
X124453570Y-86426244D01*
X124391803Y-86222625D01*
X124291499Y-86034970D01*
X124156512Y-85870488D01*
X123992030Y-85735501D01*
X123804375Y-85635197D01*
X123600756Y-85573430D01*
X123442061Y-85557800D01*
X122635939Y-85557800D01*
X122477244Y-85573430D01*
X122273625Y-85635197D01*
X122085970Y-85735501D01*
X121921488Y-85870488D01*
X121786501Y-86034970D01*
X121686197Y-86222625D01*
X121624430Y-86426244D01*
X121603574Y-86638000D01*
X121474426Y-86638000D01*
X121453570Y-86426244D01*
X121391803Y-86222625D01*
X121291499Y-86034970D01*
X121156512Y-85870488D01*
X120992030Y-85735501D01*
X120804375Y-85635197D01*
X120600756Y-85573430D01*
X120442061Y-85557800D01*
X119635939Y-85557800D01*
X119477244Y-85573430D01*
X119273625Y-85635197D01*
X119085970Y-85735501D01*
X118921488Y-85870488D01*
X118786501Y-86034970D01*
X118686197Y-86222625D01*
X118624430Y-86426244D01*
X118603574Y-86638000D01*
X113677700Y-86638000D01*
X113677700Y-85539557D01*
X113731008Y-85639289D01*
X113990959Y-85956041D01*
X114307711Y-86215992D01*
X114669090Y-86409153D01*
X115061210Y-86528101D01*
X115366809Y-86558200D01*
X116071191Y-86558200D01*
X116376790Y-86528101D01*
X116768910Y-86409153D01*
X117130289Y-86215992D01*
X117447041Y-85956041D01*
X117706992Y-85639289D01*
X117900153Y-85277910D01*
X118019101Y-84885790D01*
X118059265Y-84478000D01*
X118019101Y-84070210D01*
X117900153Y-83678090D01*
X117706992Y-83316711D01*
X117447041Y-82999959D01*
X117130289Y-82740008D01*
X116768910Y-82546847D01*
X116376790Y-82427899D01*
X116071191Y-82397800D01*
X115443000Y-82397800D01*
X115443000Y-82042000D01*
X123698000Y-82042000D01*
X123722776Y-82039560D01*
X123746601Y-82032333D01*
X123768557Y-82020597D01*
X123787803Y-82004803D01*
X123803597Y-81985557D01*
X123815333Y-81963601D01*
X123822560Y-81939776D01*
X123825000Y-81915000D01*
X123825000Y-80137000D01*
X125210423Y-80137000D01*
X131359830Y-86286408D01*
X131374147Y-86303853D01*
X131443764Y-86360987D01*
X131523191Y-86403441D01*
X131609373Y-86429585D01*
X131676540Y-86436200D01*
X131676550Y-86436200D01*
X131699000Y-86438411D01*
X131721450Y-86436200D01*
X133438203Y-86436200D01*
X133438203Y-86829000D01*
X133444578Y-86893730D01*
X133463460Y-86955973D01*
X133494121Y-87013337D01*
X133535384Y-87063616D01*
X133585663Y-87104879D01*
X133643027Y-87135540D01*
X133705270Y-87154422D01*
X133770000Y-87160797D01*
X135470000Y-87160797D01*
X135534730Y-87154422D01*
X135596973Y-87135540D01*
X135654337Y-87104879D01*
X135704616Y-87063616D01*
X135745879Y-87013337D01*
X135776540Y-86955973D01*
X135795422Y-86893730D01*
X135801797Y-86829000D01*
X135801797Y-85129000D01*
X135795422Y-85064270D01*
X135776540Y-85002027D01*
X135745879Y-84944663D01*
X135704616Y-84894384D01*
X135654337Y-84853121D01*
X135596973Y-84822460D01*
X135534730Y-84803578D01*
X135470000Y-84797203D01*
X133770000Y-84797203D01*
X133705270Y-84803578D01*
X133643027Y-84822460D01*
X133585663Y-84853121D01*
X133535384Y-84894384D01*
X133494121Y-84944663D01*
X133463460Y-85002027D01*
X133444578Y-85064270D01*
X133438203Y-85129000D01*
X133438203Y-85521800D01*
X131888378Y-85521800D01*
X130262778Y-83896200D01*
X130898203Y-83896200D01*
X130898203Y-84289000D01*
X130904578Y-84353730D01*
X130923460Y-84415973D01*
X130954121Y-84473337D01*
X130995384Y-84523616D01*
X131045663Y-84564879D01*
X131103027Y-84595540D01*
X131165270Y-84614422D01*
X131230000Y-84620797D01*
X132930000Y-84620797D01*
X132994730Y-84614422D01*
X133056973Y-84595540D01*
X133114337Y-84564879D01*
X133164616Y-84523616D01*
X133205879Y-84473337D01*
X133236540Y-84415973D01*
X133255422Y-84353730D01*
X133261797Y-84289000D01*
X133261797Y-83439000D01*
X133434090Y-83439000D01*
X133456877Y-83670360D01*
X133524362Y-83892828D01*
X133633952Y-84097856D01*
X133781435Y-84277565D01*
X133961144Y-84425048D01*
X134166172Y-84534638D01*
X134388640Y-84602123D01*
X134562025Y-84619200D01*
X134677975Y-84619200D01*
X134851360Y-84602123D01*
X135073828Y-84534638D01*
X135278856Y-84425048D01*
X135458565Y-84277565D01*
X135606048Y-84097856D01*
X135715638Y-83892828D01*
X135783123Y-83670360D01*
X135805910Y-83439000D01*
X135974090Y-83439000D01*
X135996877Y-83670360D01*
X136064362Y-83892828D01*
X136173952Y-84097856D01*
X136321435Y-84277565D01*
X136501144Y-84425048D01*
X136706172Y-84534638D01*
X136928640Y-84602123D01*
X137102025Y-84619200D01*
X137217975Y-84619200D01*
X137391360Y-84602123D01*
X137613828Y-84534638D01*
X137818856Y-84425048D01*
X137998565Y-84277565D01*
X138146048Y-84097856D01*
X138255638Y-83892828D01*
X138315941Y-83694033D01*
X138495705Y-83694033D01*
X138568600Y-83924079D01*
X138684974Y-84135484D01*
X138840355Y-84320123D01*
X139028771Y-84470901D01*
X139242982Y-84582024D01*
X139444967Y-84643292D01*
X139636500Y-84572973D01*
X139636500Y-83502500D01*
X139763500Y-83502500D01*
X139763500Y-84572973D01*
X139955033Y-84643292D01*
X140157018Y-84582024D01*
X140371229Y-84470901D01*
X140559645Y-84320123D01*
X140715026Y-84135484D01*
X140831400Y-83924079D01*
X140904295Y-83694033D01*
X140834114Y-83502500D01*
X139763500Y-83502500D01*
X139636500Y-83502500D01*
X138565886Y-83502500D01*
X138495705Y-83694033D01*
X138315941Y-83694033D01*
X138323123Y-83670360D01*
X138345910Y-83439000D01*
X138323123Y-83207640D01*
X138315942Y-83183967D01*
X138495705Y-83183967D01*
X138565886Y-83375500D01*
X139636500Y-83375500D01*
X139636500Y-82305027D01*
X139763500Y-82305027D01*
X139763500Y-83375500D01*
X140834114Y-83375500D01*
X140904295Y-83183967D01*
X140831400Y-82953921D01*
X140715026Y-82742516D01*
X140559645Y-82557877D01*
X140371229Y-82407099D01*
X140157018Y-82295976D01*
X139955033Y-82234708D01*
X139763500Y-82305027D01*
X139636500Y-82305027D01*
X139444967Y-82234708D01*
X139242982Y-82295976D01*
X139028771Y-82407099D01*
X138840355Y-82557877D01*
X138684974Y-82742516D01*
X138568600Y-82953921D01*
X138495705Y-83183967D01*
X138315942Y-83183967D01*
X138255638Y-82985172D01*
X138146048Y-82780144D01*
X137998565Y-82600435D01*
X137818856Y-82452952D01*
X137613828Y-82343362D01*
X137391360Y-82275877D01*
X137217975Y-82258800D01*
X137102025Y-82258800D01*
X136928640Y-82275877D01*
X136706172Y-82343362D01*
X136501144Y-82452952D01*
X136321435Y-82600435D01*
X136173952Y-82780144D01*
X136064362Y-82985172D01*
X135996877Y-83207640D01*
X135974090Y-83439000D01*
X135805910Y-83439000D01*
X135783123Y-83207640D01*
X135715638Y-82985172D01*
X135606048Y-82780144D01*
X135458565Y-82600435D01*
X135278856Y-82452952D01*
X135073828Y-82343362D01*
X134851360Y-82275877D01*
X134677975Y-82258800D01*
X134562025Y-82258800D01*
X134388640Y-82275877D01*
X134166172Y-82343362D01*
X133961144Y-82452952D01*
X133781435Y-82600435D01*
X133633952Y-82780144D01*
X133524362Y-82985172D01*
X133456877Y-83207640D01*
X133434090Y-83439000D01*
X133261797Y-83439000D01*
X133261797Y-82589000D01*
X133255422Y-82524270D01*
X133236540Y-82462027D01*
X133205879Y-82404663D01*
X133164616Y-82354384D01*
X133114337Y-82313121D01*
X133056973Y-82282460D01*
X132994730Y-82263578D01*
X132930000Y-82257203D01*
X131230000Y-82257203D01*
X131165270Y-82263578D01*
X131103027Y-82282460D01*
X131045663Y-82313121D01*
X130995384Y-82354384D01*
X130954121Y-82404663D01*
X130923460Y-82462027D01*
X130904578Y-82524270D01*
X130898203Y-82589000D01*
X130898203Y-82981800D01*
X130110379Y-82981800D01*
X127265578Y-80137000D01*
X128689996Y-80137000D01*
X128899676Y-80378763D01*
X128944319Y-80424149D01*
X129024624Y-80483042D01*
X129114876Y-80525137D01*
X129211605Y-80548815D01*
X129597711Y-80603973D01*
X129633541Y-80607801D01*
X130138988Y-80643722D01*
X130175000Y-80645000D01*
X157480000Y-80645000D01*
X157579106Y-80635239D01*
X157674403Y-80606331D01*
X157762230Y-80559387D01*
X157839210Y-80496210D01*
X157924500Y-80410920D01*
X158009790Y-80496210D01*
X158086770Y-80559387D01*
X158174597Y-80606331D01*
X158269894Y-80635239D01*
X158369000Y-80645000D01*
X159119421Y-80645000D01*
X154739764Y-85024659D01*
X154738801Y-85024016D01*
X154620927Y-84975191D01*
X154495793Y-84950300D01*
X154368207Y-84950300D01*
X154243073Y-84975191D01*
X154125199Y-85024016D01*
X154019115Y-85094899D01*
X153928899Y-85185115D01*
X153858016Y-85291199D01*
X153809191Y-85409073D01*
X153784300Y-85534207D01*
X153784300Y-85661793D01*
X153809191Y-85786927D01*
X153858016Y-85904801D01*
X153928899Y-86010885D01*
X154019115Y-86101101D01*
X154119880Y-86168430D01*
X154112016Y-86180199D01*
X154063191Y-86298073D01*
X154038300Y-86423207D01*
X154038300Y-86550793D01*
X154063191Y-86675927D01*
X154112016Y-86793801D01*
X154182899Y-86899885D01*
X154273115Y-86990101D01*
X154379199Y-87060984D01*
X154497073Y-87109809D01*
X154622207Y-87134700D01*
X154749793Y-87134700D01*
X154874927Y-87109809D01*
X154992801Y-87060984D01*
X155098885Y-86990101D01*
X155189101Y-86899885D01*
X155259984Y-86793801D01*
X155308809Y-86675927D01*
X155333700Y-86550793D01*
X155333700Y-86485877D01*
X157364577Y-84455000D01*
X162100589Y-84455000D01*
X162102801Y-84477460D01*
X162102800Y-91290550D01*
X162100589Y-91313000D01*
X162102800Y-91335450D01*
X162102800Y-91335459D01*
X162109415Y-91402626D01*
X162135559Y-91488808D01*
X162178013Y-91568235D01*
X162235147Y-91637853D01*
X162252597Y-91652174D01*
X164456300Y-93855878D01*
X164456300Y-93920793D01*
X164481191Y-94045927D01*
X164530016Y-94163801D01*
X164600899Y-94269885D01*
X164691115Y-94360101D01*
X164797199Y-94430984D01*
X164915073Y-94479809D01*
X165040207Y-94504700D01*
X165167793Y-94504700D01*
X165292927Y-94479809D01*
X165410801Y-94430984D01*
X165516885Y-94360101D01*
X165607101Y-94269885D01*
X165677984Y-94163801D01*
X165726809Y-94045927D01*
X165751700Y-93920793D01*
X165751700Y-93793207D01*
X165726809Y-93668073D01*
X165677984Y-93550199D01*
X165607101Y-93444115D01*
X165516885Y-93353899D01*
X165410801Y-93283016D01*
X165292927Y-93234191D01*
X165167793Y-93209300D01*
X165102878Y-93209300D01*
X163017200Y-91123623D01*
X163017200Y-90952610D01*
X169988800Y-90952610D01*
X169988800Y-91165390D01*
X170030311Y-91374083D01*
X170111739Y-91570667D01*
X170229954Y-91747588D01*
X170380412Y-91898046D01*
X170557333Y-92016261D01*
X170753917Y-92097689D01*
X170962610Y-92139200D01*
X171175390Y-92139200D01*
X171384083Y-92097689D01*
X171580667Y-92016261D01*
X171757588Y-91898046D01*
X171908046Y-91747588D01*
X172026261Y-91570667D01*
X172107689Y-91374083D01*
X172149200Y-91165390D01*
X172149200Y-90952610D01*
X172107689Y-90743917D01*
X172026261Y-90547333D01*
X171908046Y-90370412D01*
X171757588Y-90219954D01*
X171580667Y-90101739D01*
X171384083Y-90020311D01*
X171175390Y-89978800D01*
X170962610Y-89978800D01*
X170753917Y-90020311D01*
X170557333Y-90101739D01*
X170380412Y-90219954D01*
X170229954Y-90370412D01*
X170111739Y-90547333D01*
X170030311Y-90743917D01*
X169988800Y-90952610D01*
X163017200Y-90952610D01*
X163017200Y-86680813D01*
X163133073Y-86728809D01*
X163258207Y-86753700D01*
X163385793Y-86753700D01*
X163510927Y-86728809D01*
X163628801Y-86679984D01*
X163734885Y-86609101D01*
X163825101Y-86518885D01*
X163895984Y-86412801D01*
X163944809Y-86294927D01*
X163969700Y-86169793D01*
X163969700Y-86072610D01*
X169988800Y-86072610D01*
X169988800Y-86285390D01*
X170030311Y-86494083D01*
X170111739Y-86690667D01*
X170229954Y-86867588D01*
X170380412Y-87018046D01*
X170557333Y-87136261D01*
X170753917Y-87217689D01*
X170962610Y-87259200D01*
X171175390Y-87259200D01*
X171384083Y-87217689D01*
X171580667Y-87136261D01*
X171757588Y-87018046D01*
X171908046Y-86867588D01*
X172026261Y-86690667D01*
X172107689Y-86494083D01*
X172149200Y-86285390D01*
X172149200Y-86072610D01*
X172107689Y-85863917D01*
X172026261Y-85667333D01*
X171908046Y-85490412D01*
X171757588Y-85339954D01*
X171580667Y-85221739D01*
X171384083Y-85140311D01*
X171175390Y-85098800D01*
X170962610Y-85098800D01*
X170753917Y-85140311D01*
X170557333Y-85221739D01*
X170380412Y-85339954D01*
X170229954Y-85490412D01*
X170111739Y-85667333D01*
X170030311Y-85863917D01*
X169988800Y-86072610D01*
X163969700Y-86072610D01*
X163969700Y-86042207D01*
X163944809Y-85917073D01*
X163895984Y-85799199D01*
X163825101Y-85693115D01*
X163779200Y-85647214D01*
X163779200Y-84580877D01*
X165098878Y-83261200D01*
X167054214Y-83261200D01*
X167100115Y-83307101D01*
X167206199Y-83377984D01*
X167324073Y-83426809D01*
X167449207Y-83451700D01*
X167576793Y-83451700D01*
X167701927Y-83426809D01*
X167819801Y-83377984D01*
X167925885Y-83307101D01*
X168016101Y-83216885D01*
X168086984Y-83110801D01*
X168135809Y-82992927D01*
X168160700Y-82867793D01*
X168160700Y-82740207D01*
X168135809Y-82615073D01*
X168086984Y-82497199D01*
X168016101Y-82391115D01*
X167925885Y-82300899D01*
X167819801Y-82230016D01*
X167701927Y-82181191D01*
X167576793Y-82156300D01*
X167449207Y-82156300D01*
X167324073Y-82181191D01*
X167206199Y-82230016D01*
X167100115Y-82300899D01*
X167054214Y-82346800D01*
X164931949Y-82346800D01*
X164909499Y-82344589D01*
X164887049Y-82346800D01*
X164887040Y-82346800D01*
X164819873Y-82353415D01*
X164733691Y-82379559D01*
X164654264Y-82422013D01*
X164584647Y-82479147D01*
X164570330Y-82496592D01*
X164346721Y-82720202D01*
X164325809Y-82615073D01*
X164276984Y-82497199D01*
X164206101Y-82391115D01*
X164115885Y-82300899D01*
X164009801Y-82230016D01*
X163891927Y-82181191D01*
X163766793Y-82156300D01*
X163639207Y-82156300D01*
X163514073Y-82181191D01*
X163396199Y-82230016D01*
X163290115Y-82300899D01*
X163199899Y-82391115D01*
X163129016Y-82497199D01*
X163080191Y-82615073D01*
X163055300Y-82740207D01*
X163055300Y-82867793D01*
X163080191Y-82992927D01*
X163129016Y-83110801D01*
X163180528Y-83187894D01*
X162252593Y-84115830D01*
X162235148Y-84130147D01*
X162220831Y-84147592D01*
X162220830Y-84147593D01*
X162178013Y-84199765D01*
X162135560Y-84279191D01*
X162109416Y-84365374D01*
X162100589Y-84455000D01*
X157364577Y-84455000D01*
X160082378Y-81737200D01*
X173459550Y-81737200D01*
X173482000Y-81739411D01*
X173504450Y-81737200D01*
X173504460Y-81737200D01*
X173571627Y-81730585D01*
X173657809Y-81704441D01*
X173737236Y-81661987D01*
X173806853Y-81604853D01*
X173821174Y-81587403D01*
X174242878Y-81165700D01*
X174307793Y-81165700D01*
X174432927Y-81140809D01*
X174550801Y-81091984D01*
X174656885Y-81021101D01*
X174747101Y-80930885D01*
X174817984Y-80824801D01*
X174866809Y-80706927D01*
X174891700Y-80581793D01*
X174891700Y-80454207D01*
X174866809Y-80329073D01*
X174817984Y-80211199D01*
X174747101Y-80105115D01*
X174656885Y-80014899D01*
X174550801Y-79944016D01*
X174432927Y-79895191D01*
X174307793Y-79870300D01*
X174180207Y-79870300D01*
X174055073Y-79895191D01*
X173937199Y-79944016D01*
X173831115Y-80014899D01*
X173740899Y-80105115D01*
X173736000Y-80112447D01*
X173731101Y-80105115D01*
X173640885Y-80014899D01*
X173534801Y-79944016D01*
X173416927Y-79895191D01*
X173291793Y-79870300D01*
X173164207Y-79870300D01*
X173039073Y-79895191D01*
X172921199Y-79944016D01*
X172815115Y-80014899D01*
X172724899Y-80105115D01*
X172654016Y-80211199D01*
X172611103Y-80314800D01*
X167164620Y-80314800D01*
X167237210Y-80242210D01*
X167300387Y-80165230D01*
X167347331Y-80077403D01*
X167376239Y-79982106D01*
X167386000Y-79883000D01*
X167386000Y-79629000D01*
X168910000Y-79629000D01*
X169009106Y-79619239D01*
X169104403Y-79590331D01*
X169192230Y-79543387D01*
X169269210Y-79480210D01*
X169523210Y-79226210D01*
X169586387Y-79149230D01*
X169633331Y-79061403D01*
X169662239Y-78966106D01*
X169672000Y-78867000D01*
X169672000Y-78105000D01*
X169662239Y-78005894D01*
X169633331Y-77910597D01*
X169586387Y-77822770D01*
X169523210Y-77745790D01*
X169269210Y-77491790D01*
X169192230Y-77428613D01*
X169104403Y-77381669D01*
X169009106Y-77352761D01*
X168910000Y-77343000D01*
X160528000Y-77343000D01*
X160528000Y-75641200D01*
X171006623Y-75641200D01*
X171043550Y-75678127D01*
G36*
X159893000Y-77597000D02*
G01*
X159895440Y-77621776D01*
X159902667Y-77645601D01*
X159914403Y-77667557D01*
X159930197Y-77686803D01*
X160184197Y-77940803D01*
X160203443Y-77956597D01*
X160225399Y-77968333D01*
X160249224Y-77975560D01*
X160274000Y-77978000D01*
X167053257Y-77978000D01*
X167091901Y-78003821D01*
X167253688Y-78070836D01*
X167425441Y-78105000D01*
X167600559Y-78105000D01*
X167772312Y-78070836D01*
X167934099Y-78003821D01*
X167972743Y-77978000D01*
X168857394Y-77978000D01*
X169037000Y-78157606D01*
X169037000Y-78814394D01*
X168857394Y-78994000D01*
X167132000Y-78994000D01*
X167107224Y-78996440D01*
X167083399Y-79003667D01*
X167061443Y-79015403D01*
X167042197Y-79031197D01*
X166788197Y-79285197D01*
X166772403Y-79304443D01*
X166760667Y-79326399D01*
X166753440Y-79350224D01*
X166751000Y-79375000D01*
X166751000Y-79830394D01*
X166571394Y-80010000D01*
X158421606Y-80010000D01*
X158242000Y-79830394D01*
X158242000Y-75819000D01*
X159893000Y-75819000D01*
X159893000Y-77597000D01*
X159893000Y-77597000D01*
G37*
X159893000Y-77597000D02*
X159895440Y-77621776D01*
X159902667Y-77645601D01*
X159914403Y-77667557D01*
X159930197Y-77686803D01*
X160184197Y-77940803D01*
X160203443Y-77956597D01*
X160225399Y-77968333D01*
X160249224Y-77975560D01*
X160274000Y-77978000D01*
X167053257Y-77978000D01*
X167091901Y-78003821D01*
X167253688Y-78070836D01*
X167425441Y-78105000D01*
X167600559Y-78105000D01*
X167772312Y-78070836D01*
X167934099Y-78003821D01*
X167972743Y-77978000D01*
X168857394Y-77978000D01*
X169037000Y-78157606D01*
X169037000Y-78814394D01*
X168857394Y-78994000D01*
X167132000Y-78994000D01*
X167107224Y-78996440D01*
X167083399Y-79003667D01*
X167061443Y-79015403D01*
X167042197Y-79031197D01*
X166788197Y-79285197D01*
X166772403Y-79304443D01*
X166760667Y-79326399D01*
X166753440Y-79350224D01*
X166751000Y-79375000D01*
X166751000Y-79830394D01*
X166571394Y-80010000D01*
X158421606Y-80010000D01*
X158242000Y-79830394D01*
X158242000Y-75819000D01*
X159893000Y-75819000D01*
X159893000Y-77597000D01*
M02*
