M48
; DRILL file {KiCad (5.1.2)-2} date 4/25/2020 5:39:01 PM
; FORMAT={-:-/ absolute / inch / decimal}
; #@! TF.CreationDate,2020-04-25T17:39:01-07:00
; #@! TF.GenerationSoftware,Kicad,Pcbnew,(5.1.2)-2
; #@! TF.FileFunction,Plated,1,2,PTH
FMAT,2
INCH
T1C0.0100
T2C0.0150
T3C0.0315
T4C0.0394
T5C0.0433
T6C0.0945
%
G90
G05
T1
X5.775Y-3.8425
X5.8Y-3.8225
T2
X4.5825Y-3.75
X4.615Y-2.77
X4.66Y-2.77
X4.72Y-3.865
X4.725Y-3.94
X4.73Y-4.0975
X4.765Y-3.77
X4.87Y-3.015
X4.87Y-3.06
X4.89Y-3.165
X4.94Y-3.6
X4.965Y-4.125
X5.015Y-3.9
X5.0675Y-3.8325
X5.09Y-4.37
X5.09Y-4.41
X5.09Y-4.45
X5.14Y-3.07
X5.18Y-3.07
X5.22Y-3.07
X5.22Y-3.605
X5.26Y-3.07
X5.3Y-3.07
X5.32Y-2.7
X5.34Y-3.07
X5.36Y-2.7
X5.36Y-3.6925
X5.365Y-3.5
X5.38Y-3.07
X5.4Y-2.7
X5.425Y-3.545
X5.44Y-2.7
X5.445Y-3.68
X5.465Y-3.71
X5.48Y-2.7
X5.52Y-2.7
X5.525Y-3.4525
X5.56Y-2.7
X5.565Y-2.765
X5.5658Y-3.9395
X5.5659Y-3.8864
X5.59Y-2.99
X5.59Y-3.03
X5.59Y-3.07
X5.59Y-3.11
X5.6Y-2.7
X5.605Y-3.5
X5.6125Y-2.765
X5.6279Y-3.6154
X5.64Y-2.7
X5.6425Y-3.8025
X5.65Y-3.705
X5.66Y-2.83
X5.675Y-3.33
X5.675Y-3.41
X5.675Y-3.6775
X5.68Y-2.7
X5.6875Y-3.755
X5.7Y-2.83
X5.72Y-2.7
X5.725Y-3.33
X5.725Y-3.41
X5.74Y-2.83
X5.76Y-2.7
X5.765Y-3.715
X5.775Y-3.33
X5.775Y-3.41
X5.78Y-2.83
X5.82Y-2.83
X5.825Y-3.41
X5.845Y-3.625
X5.8731Y-2.9419
X5.8731Y-3.06
X5.925Y-3.73
X5.9391Y-3.0
X6.005Y-3.06
X6.08Y-3.37
X6.09Y-3.405
X6.1374Y-3.0749
X6.1375Y-3.0
X6.165Y-3.545
X6.1875Y-3.0
X6.225Y-3.725
X6.25Y-3.135
X6.28Y-2.9875
X6.28Y-3.0175
X6.3Y-3.135
X6.36Y-3.125
X6.43Y-3.39
X6.445Y-3.26
X6.5002Y-3.6952
X6.545Y-3.12
X6.545Y-3.145
X6.575Y-4.55
X6.575Y-4.6
X6.575Y-4.65
X6.595Y-3.04
X6.595Y-3.26
X6.64Y-3.085
X6.7595Y-2.9195
X6.7595Y-2.9805
X6.82Y-3.17
X6.84Y-3.11
X6.86Y-3.17
X6.985Y-3.51
T3
X5.7925Y-4.135
X5.9284Y-3.9991
X6.735Y-3.3929
X6.735Y-3.585
T4
X5.2Y-3.285
X5.3Y-3.285
X5.4Y-3.285
X5.5Y-3.285
X4.6238Y-4.33
X4.6238Y-4.4481
X4.7419Y-4.33
X4.7419Y-4.4481
X4.86Y-4.33
X4.86Y-4.4481
X5.3509Y-4.3309
X5.3509Y-4.4491
X5.4691Y-4.3309
X5.4691Y-4.4491
X5.3Y-3.385
X5.18Y-4.09
X5.28Y-4.09
X5.38Y-4.09
X7.0569Y-2.4657
X7.0569Y-2.4657
X7.0569Y-2.5838
X7.0569Y-2.7019
X7.0569Y-2.82
X7.0569Y-2.9381
X7.0569Y-3.0562
X7.0569Y-3.1743
X7.0569Y-3.2924
X7.175Y-2.4657
X7.175Y-2.5838
X7.175Y-2.7019
X7.175Y-2.82
X7.175Y-2.9381
X7.175Y-3.0562
X7.175Y-3.1743
X7.175Y-3.2924
X5.1Y-3.545
X5.2Y-3.545
X4.7259Y-3.4109
X4.7259Y-3.5291
X4.8441Y-3.4109
X4.8441Y-3.5291
T5
X6.7114Y-4.0124
X6.7114Y-4.0991
X6.7114Y-4.1857
X6.7114Y-4.2723
X6.7114Y-4.3589
X6.7114Y-4.4455
X6.7114Y-4.5321
X6.7114Y-4.6187
X6.8295Y-4.0124
X6.8295Y-4.0991
X6.8295Y-4.1857
X6.8295Y-4.2723
X6.8295Y-4.3589
X6.8295Y-4.4455
X6.8295Y-4.5321
X6.8295Y-4.6187
X4.8424Y-2.4119
X4.8424Y-2.53
X4.929Y-2.4119
X4.929Y-2.53
X5.0156Y-2.4119
X5.0156Y-2.53
X5.1022Y-2.4119
X5.1022Y-2.53
X5.1889Y-2.4119
X5.1889Y-2.53
X5.2755Y-2.4119
X5.2755Y-2.53
X5.3621Y-2.4119
X5.3621Y-2.53
X5.4487Y-2.4119
X5.4487Y-2.53
X5.5353Y-2.4119
X5.5353Y-2.53
X5.6219Y-2.4119
X5.6219Y-2.53
X5.7085Y-2.4119
X5.7085Y-2.53
X5.7952Y-2.4119
X5.7952Y-2.53
X5.8818Y-2.4119
X5.8818Y-2.53
X5.9684Y-2.4119
X5.9684Y-2.53
X6.055Y-2.4119
X6.055Y-2.53
X6.1416Y-2.4119
X6.1416Y-2.53
X6.2282Y-2.4119
X6.2282Y-2.53
X6.3148Y-2.4119
X6.3148Y-2.53
X6.4015Y-2.4119
X6.4015Y-2.53
X6.4881Y-2.4119
X6.4881Y-2.53
T6
X4.5387Y-4.6182
X4.945Y-4.6182
X5.2659Y-4.6191
X5.5541Y-4.6191
X7.3451Y-2.3806
X7.3451Y-3.3775
X4.5559Y-3.3259
X4.5559Y-3.6141
T0
M30
