G04 #@! TF.GenerationSoftware,KiCad,Pcbnew,(5.1.2)-2*
G04 #@! TF.CreationDate,2020-04-25T17:38:05-07:00*
G04 #@! TF.ProjectId,370Z_AC_Interface,3337305a-5f41-4435-9f49-6e7465726661,rev?*
G04 #@! TF.SameCoordinates,Original*
G04 #@! TF.FileFunction,Soldermask,Bot*
G04 #@! TF.FilePolarity,Negative*
%FSLAX46Y46*%
G04 Gerber Fmt 4.6, Leading zero omitted, Abs format (unit mm)*
G04 Created by KiCad (PCBNEW (5.1.2)-2) date 2020-04-25 17:38:05*
%MOMM*%
%LPD*%
G04 APERTURE LIST*
%ADD10O,1.801600X1.801600*%
%ADD11R,1.801600X1.801600*%
%ADD12O,4.101600X3.601600*%
%ADD13O,2.301600X1.601600*%
%ADD14C,1.601600*%
%ADD15O,2.301600X1.401600*%
%ADD16C,3.701600*%
%ADD17O,1.401600X2.301600*%
%ADD18O,1.601600X2.301600*%
%ADD19O,3.601600X4.101600*%
%ADD20C,3.276600*%
G04 APERTURE END LIST*
D10*
X129540000Y-90043000D03*
D11*
X132080000Y-90043000D03*
X134620000Y-85979000D03*
D12*
X115719000Y-91798000D03*
X115719000Y-84478000D03*
D13*
X120039000Y-89638000D03*
X120039000Y-86638000D03*
X123039000Y-86638000D03*
X123039000Y-89638000D03*
D14*
X171069000Y-91059000D03*
X171069000Y-86179000D03*
X150580181Y-101578319D03*
X147129500Y-105029000D03*
D10*
X139700000Y-83439000D03*
X137160000Y-83439000D03*
X134620000Y-83439000D03*
D11*
X132080000Y-83439000D03*
D10*
X131572000Y-103886000D03*
X134112000Y-103886000D03*
D11*
X136652000Y-103886000D03*
D15*
X170470000Y-108516000D03*
X170470000Y-101916000D03*
X173470000Y-117316000D03*
X170470000Y-117316000D03*
X173470000Y-115116000D03*
X170470000Y-115116000D03*
X173470000Y-112916000D03*
X170470000Y-112916000D03*
X173470000Y-110716000D03*
X170470000Y-110716000D03*
X173470000Y-108516000D03*
X173470000Y-106316000D03*
X170470000Y-106316000D03*
X173470000Y-104116000D03*
X170470000Y-104116000D03*
X173470000Y-101916000D03*
D16*
X179070000Y-102616000D03*
X178970000Y-116616000D03*
D17*
X142797000Y-64262000D03*
X122997000Y-64262000D03*
X122997000Y-61262000D03*
X125197000Y-64262000D03*
X125197000Y-61262000D03*
X127397000Y-64262000D03*
X127397000Y-61262000D03*
X129597000Y-64262000D03*
X129597000Y-61262000D03*
X131797000Y-64262000D03*
X131797000Y-61262000D03*
X133997000Y-64262000D03*
X133997000Y-61262000D03*
X136197000Y-64262000D03*
X136197000Y-61262000D03*
X138397000Y-64262000D03*
X138397000Y-61262000D03*
X140597000Y-64262000D03*
X140597000Y-61262000D03*
X142797000Y-61262000D03*
X144997000Y-64262000D03*
X144997000Y-61262000D03*
X147197000Y-64262000D03*
X147197000Y-61262000D03*
X149397000Y-64262000D03*
X149397000Y-61262000D03*
X151597000Y-64262000D03*
X151597000Y-61262000D03*
X153797000Y-64262000D03*
X153797000Y-61262000D03*
X155997000Y-64262000D03*
X155997000Y-61262000D03*
X158197000Y-64262000D03*
X158197000Y-61262000D03*
X160397000Y-64262000D03*
X160397000Y-61262000D03*
X162597000Y-64262000D03*
X162597000Y-61262000D03*
X164797000Y-64262000D03*
X164797000Y-61262000D03*
D16*
X129897000Y-69862000D03*
X157897000Y-69862000D03*
D18*
X138914000Y-110006000D03*
X135914000Y-110006000D03*
X135914000Y-113006000D03*
X138914000Y-113006000D03*
D19*
X133754000Y-117326000D03*
X141074000Y-117326000D03*
D18*
X120444000Y-109982000D03*
X123444000Y-109982000D03*
X117444000Y-109982000D03*
X117444000Y-112982000D03*
X120444000Y-112982000D03*
X123444000Y-112982000D03*
D19*
X115284000Y-117302000D03*
X125604000Y-117302000D03*
D13*
X179245000Y-62628000D03*
X179245000Y-68628000D03*
X179245000Y-62628000D03*
X179245000Y-83628000D03*
X182245000Y-83628000D03*
X182245000Y-68628000D03*
X182245000Y-62628000D03*
D12*
X186565000Y-85788000D03*
X186565000Y-60468000D03*
D13*
X179245000Y-65628000D03*
X182245000Y-65628000D03*
X179245000Y-71628000D03*
X182245000Y-71628000D03*
X179245000Y-74628000D03*
X182245000Y-74628000D03*
X179245000Y-77628000D03*
X182245000Y-77628000D03*
X179245000Y-80628000D03*
X182245000Y-80628000D03*
D20*
X115189000Y-64770000D03*
X172720000Y-64770000D03*
X187325000Y-92710000D03*
X149225000Y-115570000D03*
M02*
