G04 #@! TF.GenerationSoftware,KiCad,Pcbnew,(5.1.2)-2*
G04 #@! TF.CreationDate,2020-12-28T14:20:28-08:00*
G04 #@! TF.ProjectId,eZ_Navi-Delete,655a5f4e-6176-4692-9d44-656c6574652e,rev?*
G04 #@! TF.SameCoordinates,PX9347200PY548a170*
G04 #@! TF.FileFunction,Legend,Bot*
G04 #@! TF.FilePolarity,Positive*
%FSLAX46Y46*%
G04 Gerber Fmt 4.6, Leading zero omitted, Abs format (unit mm)*
G04 Created by KiCad (PCBNEW (5.1.2)-2) date 2020-12-28 14:20:28*
%MOMM*%
%LPD*%
G04 APERTURE LIST*
%ADD10C,0.150000*%
%ADD11C,0.101600*%
%ADD12C,0.100000*%
%ADD13C,0.158750*%
%ADD14C,0.200000*%
G04 APERTURE END LIST*
D10*
X-36564977Y28956000D02*
G75*
G03X-36564977Y28956000I-2932023J0D01*
G01*
X-2261257Y-26924000D02*
G75*
G03X-2261257Y-26924000I-2945743J0D01*
G01*
X35865994Y-4064000D02*
G75*
G03X35865994Y-4064000I-2972994J0D01*
G01*
X21306756Y23876000D02*
G75*
G03X21306756Y23876000I-3018756J0D01*
G01*
D11*
X10903857Y-25771928D02*
X10795000Y-25808214D01*
X10613571Y-25808214D01*
X10541000Y-25771928D01*
X10504714Y-25735642D01*
X10468428Y-25663071D01*
X10468428Y-25590500D01*
X10504714Y-25517928D01*
X10541000Y-25481642D01*
X10613571Y-25445357D01*
X10758714Y-25409071D01*
X10831285Y-25372785D01*
X10867571Y-25336500D01*
X10903857Y-25263928D01*
X10903857Y-25191357D01*
X10867571Y-25118785D01*
X10831285Y-25082500D01*
X10758714Y-25046214D01*
X10577285Y-25046214D01*
X10468428Y-25082500D01*
X10141857Y-25808214D02*
X10141857Y-25046214D01*
X9706428Y-25808214D01*
X9706428Y-25046214D01*
X9343571Y-25735642D02*
X9307285Y-25771928D01*
X9343571Y-25808214D01*
X9379857Y-25771928D01*
X9343571Y-25735642D01*
X9343571Y-25808214D01*
X9343571Y-25336500D02*
X9307285Y-25372785D01*
X9343571Y-25409071D01*
X9379857Y-25372785D01*
X9343571Y-25336500D01*
X9343571Y-25409071D01*
X8400142Y-25409071D02*
X8146142Y-25409071D01*
X8037285Y-25808214D02*
X8400142Y-25808214D01*
X8400142Y-25046214D01*
X8037285Y-25046214D01*
X7783285Y-25046214D02*
X7275285Y-25046214D01*
X7783285Y-25808214D01*
X7275285Y-25808214D01*
X6839857Y-25046214D02*
X6767285Y-25046214D01*
X6694714Y-25082500D01*
X6658428Y-25118785D01*
X6622142Y-25191357D01*
X6585857Y-25336500D01*
X6585857Y-25517928D01*
X6622142Y-25663071D01*
X6658428Y-25735642D01*
X6694714Y-25771928D01*
X6767285Y-25808214D01*
X6839857Y-25808214D01*
X6912428Y-25771928D01*
X6948714Y-25735642D01*
X6985000Y-25663071D01*
X7021285Y-25517928D01*
X7021285Y-25336500D01*
X6985000Y-25191357D01*
X6948714Y-25118785D01*
X6912428Y-25082500D01*
X6839857Y-25046214D01*
X5860142Y-25808214D02*
X6295571Y-25808214D01*
X6077857Y-25808214D02*
X6077857Y-25046214D01*
X6150428Y-25155071D01*
X6223000Y-25227642D01*
X6295571Y-25263928D01*
X5388428Y-25046214D02*
X5315857Y-25046214D01*
X5243285Y-25082500D01*
X5207000Y-25118785D01*
X5170714Y-25191357D01*
X5134428Y-25336500D01*
X5134428Y-25517928D01*
X5170714Y-25663071D01*
X5207000Y-25735642D01*
X5243285Y-25771928D01*
X5315857Y-25808214D01*
X5388428Y-25808214D01*
X5461000Y-25771928D01*
X5497285Y-25735642D01*
X5533571Y-25663071D01*
X5569857Y-25517928D01*
X5569857Y-25336500D01*
X5533571Y-25191357D01*
X5497285Y-25118785D01*
X5461000Y-25082500D01*
X5388428Y-25046214D01*
X4844142Y-25590500D02*
X4481285Y-25590500D01*
X4916714Y-25808214D02*
X4662714Y-25046214D01*
X4408714Y-25808214D01*
X3791857Y-25808214D02*
X4154714Y-25808214D01*
X4154714Y-25046214D01*
X3392714Y-25046214D02*
X3320142Y-25046214D01*
X3247571Y-25082500D01*
X3211285Y-25118785D01*
X3175000Y-25191357D01*
X3138714Y-25336500D01*
X3138714Y-25517928D01*
X3175000Y-25663071D01*
X3211285Y-25735642D01*
X3247571Y-25771928D01*
X3320142Y-25808214D01*
X3392714Y-25808214D01*
X3465285Y-25771928D01*
X3501571Y-25735642D01*
X3537857Y-25663071D01*
X3574142Y-25517928D01*
X3574142Y-25336500D01*
X3537857Y-25191357D01*
X3501571Y-25118785D01*
X3465285Y-25082500D01*
X3392714Y-25046214D01*
X2667000Y-25046214D02*
X2594428Y-25046214D01*
X2521857Y-25082500D01*
X2485571Y-25118785D01*
X2449285Y-25191357D01*
X2413000Y-25336500D01*
X2413000Y-25517928D01*
X2449285Y-25663071D01*
X2485571Y-25735642D01*
X2521857Y-25771928D01*
X2594428Y-25808214D01*
X2667000Y-25808214D01*
X2739571Y-25771928D01*
X2775857Y-25735642D01*
X2812142Y-25663071D01*
X2848428Y-25517928D01*
X2848428Y-25336500D01*
X2812142Y-25191357D01*
X2775857Y-25118785D01*
X2739571Y-25082500D01*
X2667000Y-25046214D01*
X1941285Y-25046214D02*
X1868714Y-25046214D01*
X1796142Y-25082500D01*
X1759857Y-25118785D01*
X1723571Y-25191357D01*
X1687285Y-25336500D01*
X1687285Y-25517928D01*
X1723571Y-25663071D01*
X1759857Y-25735642D01*
X1796142Y-25771928D01*
X1868714Y-25808214D01*
X1941285Y-25808214D01*
X2013857Y-25771928D01*
X2050142Y-25735642D01*
X2086428Y-25663071D01*
X2122714Y-25517928D01*
X2122714Y-25336500D01*
X2086428Y-25191357D01*
X2050142Y-25118785D01*
X2013857Y-25082500D01*
X1941285Y-25046214D01*
X961571Y-25808214D02*
X1397000Y-25808214D01*
X1179285Y-25808214D02*
X1179285Y-25046214D01*
X1251857Y-25155071D01*
X1324428Y-25227642D01*
X1397000Y-25263928D01*
X635000Y-25517928D02*
X54428Y-25517928D01*
D12*
G36*
X10922000Y-28702000D02*
G01*
X-1778000Y-28702000D01*
X-1778000Y-26162000D01*
X10922000Y-26162000D01*
X10922000Y-28702000D01*
G37*
X10922000Y-28702000D02*
X-1778000Y-28702000D01*
X-1778000Y-26162000D01*
X10922000Y-26162000D01*
X10922000Y-28702000D01*
D10*
X-3873500Y19431000D02*
X-15811500Y19431000D01*
X-3873500Y25273000D02*
X-3873500Y19431000D01*
X-15811500Y25273000D02*
X-3873500Y25273000D01*
X-15811500Y19431000D02*
X-15811500Y25273000D01*
D13*
X6477000Y26772810D02*
X6446761Y26833286D01*
X6446761Y26924000D01*
X6477000Y27014715D01*
X6537476Y27075191D01*
X6597952Y27105429D01*
X6718904Y27135667D01*
X6809619Y27135667D01*
X6930571Y27105429D01*
X6991047Y27075191D01*
X7051523Y27014715D01*
X7081761Y26924000D01*
X7081761Y26863524D01*
X7051523Y26772810D01*
X7021285Y26742572D01*
X6809619Y26742572D01*
X6809619Y26863524D01*
X7081761Y26470429D02*
X6446761Y26470429D01*
X7081761Y26107572D01*
X6446761Y26107572D01*
X7081761Y25805191D02*
X6446761Y25805191D01*
X6446761Y25654000D01*
X6477000Y25563286D01*
X6537476Y25502810D01*
X6597952Y25472572D01*
X6718904Y25442334D01*
X6809619Y25442334D01*
X6930571Y25472572D01*
X6991047Y25502810D01*
X7051523Y25563286D01*
X7081761Y25654000D01*
X7081761Y25805191D01*
X4033761Y29149524D02*
X3398761Y29149524D01*
X3852333Y28937858D01*
X3398761Y28726191D01*
X4033761Y28726191D01*
X4033761Y28423810D02*
X3610428Y28423810D01*
X3398761Y28423810D02*
X3429000Y28454048D01*
X3459238Y28423810D01*
X3429000Y28393572D01*
X3398761Y28423810D01*
X3459238Y28423810D01*
X4003523Y27849286D02*
X4033761Y27909762D01*
X4033761Y28030715D01*
X4003523Y28091191D01*
X3973285Y28121429D01*
X3912809Y28151667D01*
X3731380Y28151667D01*
X3670904Y28121429D01*
X3640666Y28091191D01*
X3610428Y28030715D01*
X3610428Y27909762D01*
X3640666Y27849286D01*
X3429000Y26760715D02*
X3398761Y26821191D01*
X3398761Y26911905D01*
X3429000Y27002620D01*
X3489476Y27063096D01*
X3549952Y27093334D01*
X3670904Y27123572D01*
X3761619Y27123572D01*
X3882571Y27093334D01*
X3943047Y27063096D01*
X4003523Y27002620D01*
X4033761Y26911905D01*
X4033761Y26851429D01*
X4003523Y26760715D01*
X3973285Y26730477D01*
X3761619Y26730477D01*
X3761619Y26851429D01*
X4033761Y26458334D02*
X3398761Y26458334D01*
X4033761Y26095477D01*
X3398761Y26095477D01*
X4033761Y25793096D02*
X3398761Y25793096D01*
X3398761Y25641905D01*
X3429000Y25551191D01*
X3489476Y25490715D01*
X3549952Y25460477D01*
X3670904Y25430239D01*
X3761619Y25430239D01*
X3882571Y25460477D01*
X3943047Y25490715D01*
X4003523Y25551191D01*
X4033761Y25641905D01*
X4033761Y25793096D01*
X985761Y30356024D02*
X350761Y30356024D01*
X350761Y30114120D01*
X381000Y30053643D01*
X411238Y30023405D01*
X471714Y29993167D01*
X562428Y29993167D01*
X622904Y30023405D01*
X653142Y30053643D01*
X683380Y30114120D01*
X683380Y30356024D01*
X985761Y29448881D02*
X653142Y29448881D01*
X592666Y29479120D01*
X562428Y29539596D01*
X562428Y29660548D01*
X592666Y29721024D01*
X955523Y29448881D02*
X985761Y29509358D01*
X985761Y29660548D01*
X955523Y29721024D01*
X895047Y29751262D01*
X834571Y29751262D01*
X774095Y29721024D01*
X743857Y29660548D01*
X743857Y29509358D01*
X713619Y29448881D01*
X985761Y29146500D02*
X562428Y29146500D01*
X683380Y29146500D02*
X622904Y29116262D01*
X592666Y29086024D01*
X562428Y29025548D01*
X562428Y28965072D01*
X985761Y28753405D02*
X350761Y28753405D01*
X743857Y28692929D02*
X985761Y28511500D01*
X562428Y28511500D02*
X804333Y28753405D01*
X653142Y27543881D02*
X683380Y27453167D01*
X713619Y27422929D01*
X774095Y27392691D01*
X864809Y27392691D01*
X925285Y27422929D01*
X955523Y27453167D01*
X985761Y27513643D01*
X985761Y27755548D01*
X350761Y27755548D01*
X350761Y27543881D01*
X381000Y27483405D01*
X411238Y27453167D01*
X471714Y27422929D01*
X532190Y27422929D01*
X592666Y27453167D01*
X622904Y27483405D01*
X653142Y27543881D01*
X653142Y27755548D01*
X985761Y27120548D02*
X562428Y27120548D01*
X683380Y27120548D02*
X622904Y27090310D01*
X592666Y27060072D01*
X562428Y26999596D01*
X562428Y26939120D01*
X955523Y26485548D02*
X985761Y26546024D01*
X985761Y26666977D01*
X955523Y26727453D01*
X895047Y26757691D01*
X653142Y26757691D01*
X592666Y26727453D01*
X562428Y26666977D01*
X562428Y26546024D01*
X592666Y26485548D01*
X653142Y26455310D01*
X713619Y26455310D01*
X774095Y26757691D01*
X985761Y25911024D02*
X653142Y25911024D01*
X592666Y25941262D01*
X562428Y26001739D01*
X562428Y26122691D01*
X592666Y26183167D01*
X955523Y25911024D02*
X985761Y25971500D01*
X985761Y26122691D01*
X955523Y26183167D01*
X895047Y26213405D01*
X834571Y26213405D01*
X774095Y26183167D01*
X743857Y26122691D01*
X743857Y25971500D01*
X713619Y25911024D01*
X985761Y25608643D02*
X350761Y25608643D01*
X743857Y25548167D02*
X985761Y25366739D01*
X562428Y25366739D02*
X804333Y25608643D01*
X-2059215Y27994429D02*
X-2028977Y28024667D01*
X-1998739Y28115381D01*
X-1998739Y28175858D01*
X-2028977Y28266572D01*
X-2089453Y28327048D01*
X-2149929Y28357286D01*
X-2270881Y28387524D01*
X-2361596Y28387524D01*
X-2482548Y28357286D01*
X-2543024Y28327048D01*
X-2603500Y28266572D01*
X-2633739Y28175858D01*
X-2633739Y28115381D01*
X-2603500Y28024667D01*
X-2573262Y27994429D01*
X-2180167Y27752524D02*
X-2180167Y27450143D01*
X-1998739Y27813000D02*
X-2633739Y27601334D01*
X-1998739Y27389667D01*
X-1998739Y27178000D02*
X-2633739Y27178000D01*
X-1998739Y26815143D01*
X-2633739Y26815143D01*
X-2240643Y26512762D02*
X-2240643Y26028953D01*
X-1998739Y25726572D02*
X-2633739Y25726572D01*
X-2331358Y25726572D02*
X-2331358Y25363715D01*
X-1998739Y25363715D02*
X-2633739Y25363715D01*
X13824857Y20604239D02*
X14036523Y20906620D01*
X14187714Y20604239D02*
X14187714Y21239239D01*
X13945809Y21239239D01*
X13885333Y21209000D01*
X13855095Y21178762D01*
X13824857Y21118286D01*
X13824857Y21027572D01*
X13855095Y20967096D01*
X13885333Y20936858D01*
X13945809Y20906620D01*
X14187714Y20906620D01*
X13310809Y20634477D02*
X13371285Y20604239D01*
X13492238Y20604239D01*
X13552714Y20634477D01*
X13582952Y20694953D01*
X13582952Y20936858D01*
X13552714Y20997334D01*
X13492238Y21027572D01*
X13371285Y21027572D01*
X13310809Y20997334D01*
X13280571Y20936858D01*
X13280571Y20876381D01*
X13582952Y20815905D01*
X13068904Y21027572D02*
X12917714Y20604239D01*
X12766523Y21027572D01*
X12282714Y20634477D02*
X12343190Y20604239D01*
X12464142Y20604239D01*
X12524619Y20634477D01*
X12554857Y20694953D01*
X12554857Y20936858D01*
X12524619Y20997334D01*
X12464142Y21027572D01*
X12343190Y21027572D01*
X12282714Y20997334D01*
X12252476Y20936858D01*
X12252476Y20876381D01*
X12554857Y20815905D01*
X11980333Y20604239D02*
X11980333Y21027572D01*
X11980333Y20906620D02*
X11950095Y20967096D01*
X11919857Y20997334D01*
X11859380Y21027572D01*
X11798904Y21027572D01*
X11617476Y20634477D02*
X11557000Y20604239D01*
X11436047Y20604239D01*
X11375571Y20634477D01*
X11345333Y20694953D01*
X11345333Y20725191D01*
X11375571Y20785667D01*
X11436047Y20815905D01*
X11526761Y20815905D01*
X11587238Y20846143D01*
X11617476Y20906620D01*
X11617476Y20936858D01*
X11587238Y20997334D01*
X11526761Y21027572D01*
X11436047Y21027572D01*
X11375571Y20997334D01*
X10831285Y20634477D02*
X10891761Y20604239D01*
X11012714Y20604239D01*
X11073190Y20634477D01*
X11103428Y20694953D01*
X11103428Y20936858D01*
X11073190Y20997334D01*
X11012714Y21027572D01*
X10891761Y21027572D01*
X10831285Y20997334D01*
X10801047Y20936858D01*
X10801047Y20876381D01*
X11103428Y20815905D01*
X8082642Y28366358D02*
X8112880Y28275643D01*
X8143119Y28245405D01*
X8203595Y28215167D01*
X8294309Y28215167D01*
X8354785Y28245405D01*
X8385023Y28275643D01*
X8415261Y28336120D01*
X8415261Y28578024D01*
X7780261Y28578024D01*
X7780261Y28366358D01*
X7810500Y28305881D01*
X7840738Y28275643D01*
X7901214Y28245405D01*
X7961690Y28245405D01*
X8022166Y28275643D01*
X8052404Y28305881D01*
X8082642Y28366358D01*
X8082642Y28578024D01*
X8415261Y27670881D02*
X8082642Y27670881D01*
X8022166Y27701120D01*
X7991928Y27761596D01*
X7991928Y27882548D01*
X8022166Y27943024D01*
X8385023Y27670881D02*
X8415261Y27731358D01*
X8415261Y27882548D01*
X8385023Y27943024D01*
X8324547Y27973262D01*
X8264071Y27973262D01*
X8203595Y27943024D01*
X8173357Y27882548D01*
X8173357Y27731358D01*
X8143119Y27670881D01*
X7991928Y27459215D02*
X7991928Y27217310D01*
X7780261Y27368500D02*
X8324547Y27368500D01*
X8385023Y27338262D01*
X8415261Y27277786D01*
X8415261Y27217310D01*
X7991928Y27096358D02*
X7991928Y26854453D01*
X7780261Y27005643D02*
X8324547Y27005643D01*
X8385023Y26975405D01*
X8415261Y26914929D01*
X8415261Y26854453D01*
X8385023Y26400881D02*
X8415261Y26461358D01*
X8415261Y26582310D01*
X8385023Y26642786D01*
X8324547Y26673024D01*
X8082642Y26673024D01*
X8022166Y26642786D01*
X7991928Y26582310D01*
X7991928Y26461358D01*
X8022166Y26400881D01*
X8082642Y26370643D01*
X8143119Y26370643D01*
X8203595Y26673024D01*
X8415261Y26098500D02*
X7991928Y26098500D01*
X8112880Y26098500D02*
X8052404Y26068262D01*
X8022166Y26038024D01*
X7991928Y25977548D01*
X7991928Y25917072D01*
X7991928Y25765881D02*
X8415261Y25614691D01*
X7991928Y25463500D02*
X8415261Y25614691D01*
X8566452Y25675167D01*
X8596690Y25705405D01*
X8626928Y25765881D01*
X14266333Y23588739D02*
X14266333Y24223739D01*
X14054666Y23770167D01*
X13843000Y24223739D01*
X13843000Y23588739D01*
X13540619Y23588739D02*
X13540619Y24012072D01*
X13540619Y24223739D02*
X13570857Y24193500D01*
X13540619Y24163262D01*
X13510380Y24193500D01*
X13540619Y24223739D01*
X13540619Y24163262D01*
X12966095Y23618977D02*
X13026571Y23588739D01*
X13147523Y23588739D01*
X13208000Y23618977D01*
X13238238Y23649215D01*
X13268476Y23709691D01*
X13268476Y23891120D01*
X13238238Y23951596D01*
X13208000Y23981834D01*
X13147523Y24012072D01*
X13026571Y24012072D01*
X12966095Y23981834D01*
X12300857Y24223739D02*
X12089190Y23588739D01*
X11877523Y24223739D01*
X11393714Y23618977D02*
X11454190Y23588739D01*
X11575142Y23588739D01*
X11635619Y23618977D01*
X11665857Y23649215D01*
X11696095Y23709691D01*
X11696095Y23891120D01*
X11665857Y23951596D01*
X11635619Y23981834D01*
X11575142Y24012072D01*
X11454190Y24012072D01*
X11393714Y23981834D01*
X10849428Y23618977D02*
X10909904Y23588739D01*
X11030857Y23588739D01*
X11091333Y23618977D01*
X11121571Y23649215D01*
X11151809Y23709691D01*
X11151809Y23891120D01*
X11121571Y23951596D01*
X11091333Y23981834D01*
X11030857Y24012072D01*
X10909904Y24012072D01*
X10849428Y23981834D01*
D14*
X7861300Y20828000D02*
X8242300Y21717000D01*
X8242300Y21717000D02*
X8242300Y24892000D01*
D13*
X5430761Y28668739D02*
X4795761Y28668739D01*
X5249333Y28457072D01*
X4795761Y28245405D01*
X5430761Y28245405D01*
X5430761Y27943024D02*
X5007428Y27943024D01*
X4795761Y27943024D02*
X4826000Y27973262D01*
X4856238Y27943024D01*
X4826000Y27912786D01*
X4795761Y27943024D01*
X4856238Y27943024D01*
X5400523Y27368500D02*
X5430761Y27428977D01*
X5430761Y27549929D01*
X5400523Y27610405D01*
X5370285Y27640643D01*
X5309809Y27670881D01*
X5128380Y27670881D01*
X5067904Y27640643D01*
X5037666Y27610405D01*
X5007428Y27549929D01*
X5007428Y27428977D01*
X5037666Y27368500D01*
X5400523Y26642786D02*
X5430761Y26552072D01*
X5430761Y26400881D01*
X5400523Y26340405D01*
X5370285Y26310167D01*
X5309809Y26279929D01*
X5249333Y26279929D01*
X5188857Y26310167D01*
X5158619Y26340405D01*
X5128380Y26400881D01*
X5098142Y26521834D01*
X5067904Y26582310D01*
X5037666Y26612548D01*
X4977190Y26642786D01*
X4916714Y26642786D01*
X4856238Y26612548D01*
X4826000Y26582310D01*
X4795761Y26521834D01*
X4795761Y26370643D01*
X4826000Y26279929D01*
X5430761Y26007786D02*
X5007428Y26007786D01*
X4795761Y26007786D02*
X4826000Y26038024D01*
X4856238Y26007786D01*
X4826000Y25977548D01*
X4795761Y26007786D01*
X4856238Y26007786D01*
X5007428Y25433262D02*
X5521476Y25433262D01*
X5581952Y25463500D01*
X5612190Y25493739D01*
X5642428Y25554215D01*
X5642428Y25644929D01*
X5612190Y25705405D01*
X5400523Y25433262D02*
X5430761Y25493739D01*
X5430761Y25614691D01*
X5400523Y25675167D01*
X5370285Y25705405D01*
X5309809Y25735643D01*
X5128380Y25735643D01*
X5067904Y25705405D01*
X5037666Y25675167D01*
X5007428Y25614691D01*
X5007428Y25493739D01*
X5037666Y25433262D01*
D14*
X5257800Y21717000D02*
X5257800Y24892000D01*
X4876800Y20828000D02*
X5257800Y21717000D01*
D13*
X2479523Y27970239D02*
X2509761Y27879524D01*
X2509761Y27728334D01*
X2479523Y27667858D01*
X2449285Y27637620D01*
X2388809Y27607381D01*
X2328333Y27607381D01*
X2267857Y27637620D01*
X2237619Y27667858D01*
X2207380Y27728334D01*
X2177142Y27849286D01*
X2146904Y27909762D01*
X2116666Y27940000D01*
X2056190Y27970239D01*
X1995714Y27970239D01*
X1935238Y27940000D01*
X1905000Y27909762D01*
X1874761Y27849286D01*
X1874761Y27698096D01*
X1905000Y27607381D01*
X2086428Y27335239D02*
X2721428Y27335239D01*
X2116666Y27335239D02*
X2086428Y27274762D01*
X2086428Y27153810D01*
X2116666Y27093334D01*
X2146904Y27063096D01*
X2207380Y27032858D01*
X2388809Y27032858D01*
X2449285Y27063096D01*
X2479523Y27093334D01*
X2509761Y27153810D01*
X2509761Y27274762D01*
X2479523Y27335239D01*
X2479523Y26518810D02*
X2509761Y26579286D01*
X2509761Y26700239D01*
X2479523Y26760715D01*
X2419047Y26790953D01*
X2177142Y26790953D01*
X2116666Y26760715D01*
X2086428Y26700239D01*
X2086428Y26579286D01*
X2116666Y26518810D01*
X2177142Y26488572D01*
X2237619Y26488572D01*
X2298095Y26790953D01*
X2479523Y25974524D02*
X2509761Y26035000D01*
X2509761Y26155953D01*
X2479523Y26216429D01*
X2419047Y26246667D01*
X2177142Y26246667D01*
X2116666Y26216429D01*
X2086428Y26155953D01*
X2086428Y26035000D01*
X2116666Y25974524D01*
X2177142Y25944286D01*
X2237619Y25944286D01*
X2298095Y26246667D01*
X2509761Y25400000D02*
X1874761Y25400000D01*
X2479523Y25400000D02*
X2509761Y25460477D01*
X2509761Y25581429D01*
X2479523Y25641905D01*
X2449285Y25672143D01*
X2388809Y25702381D01*
X2207380Y25702381D01*
X2146904Y25672143D01*
X2116666Y25641905D01*
X2086428Y25581429D01*
X2086428Y25460477D01*
X2116666Y25400000D01*
D14*
X1879600Y20828000D02*
X2260600Y21717000D01*
X2260600Y21717000D02*
X2260600Y24892000D01*
D13*
X-624115Y27918834D02*
X-593877Y27949072D01*
X-563639Y28039786D01*
X-563639Y28100262D01*
X-593877Y28190977D01*
X-654353Y28251453D01*
X-714829Y28281691D01*
X-835781Y28311929D01*
X-926496Y28311929D01*
X-1047448Y28281691D01*
X-1107924Y28251453D01*
X-1168400Y28190977D01*
X-1198639Y28100262D01*
X-1198639Y28039786D01*
X-1168400Y27949072D01*
X-1138162Y27918834D01*
X-745067Y27676929D02*
X-745067Y27374548D01*
X-563639Y27737405D02*
X-1198639Y27525739D01*
X-563639Y27314072D01*
X-563639Y27102405D02*
X-1198639Y27102405D01*
X-563639Y26739548D01*
X-1198639Y26739548D01*
X-805543Y26437167D02*
X-805543Y25953358D01*
X-563639Y25348596D02*
X-563639Y25650977D01*
X-1198639Y25650977D01*
D14*
X-1104900Y20828000D02*
X-723900Y21717000D01*
X-723900Y21717000D02*
X-723900Y24892000D01*
D13*
X-9358691Y22669500D02*
X-9298215Y22699739D01*
X-9207500Y22699739D01*
X-9116786Y22669500D01*
X-9056310Y22609024D01*
X-9026072Y22548548D01*
X-8995834Y22427596D01*
X-8995834Y22336881D01*
X-9026072Y22215929D01*
X-9056310Y22155453D01*
X-9116786Y22094977D01*
X-9207500Y22064739D01*
X-9267977Y22064739D01*
X-9358691Y22094977D01*
X-9388929Y22125215D01*
X-9388929Y22336881D01*
X-9267977Y22336881D01*
X-9661072Y22064739D02*
X-9661072Y22699739D01*
X-10023929Y22064739D01*
X-10023929Y22699739D01*
X-10326310Y22064739D02*
X-10326310Y22699739D01*
X-10477500Y22699739D01*
X-10568215Y22669500D01*
X-10628691Y22609024D01*
X-10658929Y22548548D01*
X-10689167Y22427596D01*
X-10689167Y22336881D01*
X-10658929Y22215929D01*
X-10628691Y22155453D01*
X-10568215Y22094977D01*
X-10477500Y22064739D01*
X-10326310Y22064739D01*
X-18560143Y23461739D02*
X-18560143Y24096739D01*
X-19134667Y23885072D02*
X-19134667Y23371024D01*
X-19104429Y23310548D01*
X-19074191Y23280310D01*
X-19013715Y23250072D01*
X-18923000Y23250072D01*
X-18862524Y23280310D01*
X-19134667Y23491977D02*
X-19074191Y23461739D01*
X-18953239Y23461739D01*
X-18892762Y23491977D01*
X-18862524Y23522215D01*
X-18832286Y23582691D01*
X-18832286Y23764120D01*
X-18862524Y23824596D01*
X-18892762Y23854834D01*
X-18953239Y23885072D01*
X-19074191Y23885072D01*
X-19134667Y23854834D01*
X-19437048Y23885072D02*
X-19437048Y23461739D01*
X-19437048Y23824596D02*
X-19467286Y23854834D01*
X-19527762Y23885072D01*
X-19618477Y23885072D01*
X-19678953Y23854834D01*
X-19709191Y23794358D01*
X-19709191Y23461739D01*
X-20011572Y23461739D02*
X-20011572Y23885072D01*
X-20011572Y24096739D02*
X-19981334Y24066500D01*
X-20011572Y24036262D01*
X-20041810Y24066500D01*
X-20011572Y24096739D01*
X-20011572Y24036262D01*
X-20223239Y23885072D02*
X-20465143Y23885072D01*
X-20313953Y24096739D02*
X-20313953Y23552453D01*
X-20344191Y23491977D01*
X-20404667Y23461739D01*
X-20465143Y23461739D01*
X-20676810Y23461739D02*
X-20676810Y23885072D01*
X-20676810Y24096739D02*
X-20646572Y24066500D01*
X-20676810Y24036262D01*
X-20707048Y24066500D01*
X-20676810Y24096739D01*
X-20676810Y24036262D01*
X-21069905Y23461739D02*
X-21009429Y23491977D01*
X-20979191Y23522215D01*
X-20948953Y23582691D01*
X-20948953Y23764120D01*
X-20979191Y23824596D01*
X-21009429Y23854834D01*
X-21069905Y23885072D01*
X-21160620Y23885072D01*
X-21221096Y23854834D01*
X-21251334Y23824596D01*
X-21281572Y23764120D01*
X-21281572Y23582691D01*
X-21251334Y23522215D01*
X-21221096Y23491977D01*
X-21160620Y23461739D01*
X-21069905Y23461739D01*
X-21553715Y23885072D02*
X-21553715Y23461739D01*
X-21553715Y23824596D02*
X-21583953Y23854834D01*
X-21644429Y23885072D01*
X-21735143Y23885072D01*
X-21795620Y23854834D01*
X-21825858Y23794358D01*
X-21825858Y23461739D01*
X-18750643Y20809858D02*
X-18841358Y20779620D01*
X-18871596Y20749381D01*
X-18901834Y20688905D01*
X-18901834Y20598191D01*
X-18871596Y20537715D01*
X-18841358Y20507477D01*
X-18780881Y20477239D01*
X-18538977Y20477239D01*
X-18538977Y21112239D01*
X-18750643Y21112239D01*
X-18811120Y21082000D01*
X-18841358Y21051762D01*
X-18871596Y20991286D01*
X-18871596Y20930810D01*
X-18841358Y20870334D01*
X-18811120Y20840096D01*
X-18750643Y20809858D01*
X-18538977Y20809858D01*
X-19446120Y20477239D02*
X-19446120Y20809858D01*
X-19415881Y20870334D01*
X-19355405Y20900572D01*
X-19234453Y20900572D01*
X-19173977Y20870334D01*
X-19446120Y20507477D02*
X-19385643Y20477239D01*
X-19234453Y20477239D01*
X-19173977Y20507477D01*
X-19143739Y20567953D01*
X-19143739Y20628429D01*
X-19173977Y20688905D01*
X-19234453Y20719143D01*
X-19385643Y20719143D01*
X-19446120Y20749381D01*
X-19657786Y20900572D02*
X-19899691Y20900572D01*
X-19748500Y21112239D02*
X-19748500Y20567953D01*
X-19778739Y20507477D01*
X-19839215Y20477239D01*
X-19899691Y20477239D01*
X-20020643Y20900572D02*
X-20262548Y20900572D01*
X-20111358Y21112239D02*
X-20111358Y20567953D01*
X-20141596Y20507477D01*
X-20202072Y20477239D01*
X-20262548Y20477239D01*
X-20716120Y20507477D02*
X-20655643Y20477239D01*
X-20534691Y20477239D01*
X-20474215Y20507477D01*
X-20443977Y20567953D01*
X-20443977Y20809858D01*
X-20474215Y20870334D01*
X-20534691Y20900572D01*
X-20655643Y20900572D01*
X-20716120Y20870334D01*
X-20746358Y20809858D01*
X-20746358Y20749381D01*
X-20443977Y20688905D01*
X-21018500Y20477239D02*
X-21018500Y20900572D01*
X-21018500Y20779620D02*
X-21048739Y20840096D01*
X-21078977Y20870334D01*
X-21139453Y20900572D01*
X-21199929Y20900572D01*
X-21351120Y20900572D02*
X-21502310Y20477239D01*
X-21653500Y20900572D02*
X-21502310Y20477239D01*
X-21441834Y20326048D01*
X-21411596Y20295810D01*
X-21351120Y20265572D01*
D10*
X27813000Y-27940000D02*
G75*
G03X27813000Y-27940000I-3302000J0D01*
G01*
X27949755Y-13970000D02*
G75*
G03X27949755Y-13970000I-3311755J0D01*
G01*
D14*
X25146000Y9017000D02*
X26035000Y9525000D01*
X26035000Y9525000D02*
X29210000Y9525000D01*
D13*
X33249809Y9212339D02*
X33249809Y9847339D01*
X32977666Y9786862D02*
X32947428Y9817100D01*
X32886952Y9847339D01*
X32735761Y9847339D01*
X32675285Y9817100D01*
X32645047Y9786862D01*
X32614809Y9726386D01*
X32614809Y9665910D01*
X32645047Y9575196D01*
X33007904Y9212339D01*
X32614809Y9212339D01*
X31979809Y9272815D02*
X32010047Y9242577D01*
X32100761Y9212339D01*
X32161238Y9212339D01*
X32251952Y9242577D01*
X32312428Y9303053D01*
X32342666Y9363529D01*
X32372904Y9484481D01*
X32372904Y9575196D01*
X32342666Y9696148D01*
X32312428Y9756624D01*
X32251952Y9817100D01*
X32161238Y9847339D01*
X32100761Y9847339D01*
X32010047Y9817100D01*
X31979809Y9786862D01*
X30861000Y9272815D02*
X30891238Y9242577D01*
X30981952Y9212339D01*
X31042428Y9212339D01*
X31133142Y9242577D01*
X31193619Y9303053D01*
X31223857Y9363529D01*
X31254095Y9484481D01*
X31254095Y9575196D01*
X31223857Y9696148D01*
X31193619Y9756624D01*
X31133142Y9817100D01*
X31042428Y9847339D01*
X30981952Y9847339D01*
X30891238Y9817100D01*
X30861000Y9786862D01*
X30286476Y9212339D02*
X30588857Y9212339D01*
X30588857Y9847339D01*
X30074809Y9212339D02*
X30074809Y9847339D01*
X29711952Y9212339D02*
X29984095Y9575196D01*
X29711952Y9847339D02*
X30074809Y9484481D01*
X33715476Y7713739D02*
X33715476Y8348739D01*
X33443333Y8288262D02*
X33413095Y8318500D01*
X33352619Y8348739D01*
X33201428Y8348739D01*
X33140952Y8318500D01*
X33110714Y8288262D01*
X33080476Y8227786D01*
X33080476Y8167310D01*
X33110714Y8076596D01*
X33473571Y7713739D01*
X33080476Y7713739D01*
X32445476Y7774215D02*
X32475714Y7743977D01*
X32566428Y7713739D01*
X32626904Y7713739D01*
X32717619Y7743977D01*
X32778095Y7804453D01*
X32808333Y7864929D01*
X32838571Y7985881D01*
X32838571Y8076596D01*
X32808333Y8197548D01*
X32778095Y8258024D01*
X32717619Y8318500D01*
X32626904Y8348739D01*
X32566428Y8348739D01*
X32475714Y8318500D01*
X32445476Y8288262D01*
X31689523Y7713739D02*
X31689523Y8348739D01*
X31538333Y8348739D01*
X31447619Y8318500D01*
X31387142Y8258024D01*
X31356904Y8197548D01*
X31326666Y8076596D01*
X31326666Y7985881D01*
X31356904Y7864929D01*
X31387142Y7804453D01*
X31447619Y7743977D01*
X31538333Y7713739D01*
X31689523Y7713739D01*
X31084761Y7895167D02*
X30782380Y7895167D01*
X31145238Y7713739D02*
X30933571Y8348739D01*
X30721904Y7713739D01*
X30600952Y8348739D02*
X30238095Y8348739D01*
X30419523Y7713739D02*
X30419523Y8348739D01*
X30056666Y7895167D02*
X29754285Y7895167D01*
X30117142Y7713739D02*
X29905476Y8348739D01*
X29693809Y7713739D01*
D14*
X-38602694Y-23287082D02*
X-38602694Y-20112082D01*
X-38094694Y-24176082D02*
X-38602694Y-23287082D01*
X-35554694Y-23287082D02*
X-35554694Y-20112082D01*
X-35046694Y-24176082D02*
X-35554694Y-23287082D01*
D13*
X-38320739Y-15893142D02*
X-38955739Y-15893142D01*
X-38744072Y-16467666D02*
X-38230024Y-16467666D01*
X-38169548Y-16437428D01*
X-38139310Y-16407190D01*
X-38109072Y-16346714D01*
X-38109072Y-16256000D01*
X-38139310Y-16195523D01*
X-38350977Y-16467666D02*
X-38320739Y-16407190D01*
X-38320739Y-16286238D01*
X-38350977Y-16225761D01*
X-38381215Y-16195523D01*
X-38441691Y-16165285D01*
X-38623120Y-16165285D01*
X-38683596Y-16195523D01*
X-38713834Y-16225761D01*
X-38744072Y-16286238D01*
X-38744072Y-16407190D01*
X-38713834Y-16467666D01*
X-38744072Y-16770047D02*
X-38320739Y-16770047D01*
X-38683596Y-16770047D02*
X-38713834Y-16800285D01*
X-38744072Y-16860761D01*
X-38744072Y-16951476D01*
X-38713834Y-17011952D01*
X-38653358Y-17042190D01*
X-38320739Y-17042190D01*
X-38320739Y-17344571D02*
X-38744072Y-17344571D01*
X-38955739Y-17344571D02*
X-38925500Y-17314333D01*
X-38895262Y-17344571D01*
X-38925500Y-17374809D01*
X-38955739Y-17344571D01*
X-38895262Y-17344571D01*
X-38744072Y-17556238D02*
X-38744072Y-17798142D01*
X-38955739Y-17646952D02*
X-38411453Y-17646952D01*
X-38350977Y-17677190D01*
X-38320739Y-17737666D01*
X-38320739Y-17798142D01*
X-38320739Y-18009809D02*
X-38744072Y-18009809D01*
X-38955739Y-18009809D02*
X-38925500Y-17979571D01*
X-38895262Y-18009809D01*
X-38925500Y-18040047D01*
X-38955739Y-18009809D01*
X-38895262Y-18009809D01*
X-38320739Y-18402904D02*
X-38350977Y-18342428D01*
X-38381215Y-18312190D01*
X-38441691Y-18281952D01*
X-38623120Y-18281952D01*
X-38683596Y-18312190D01*
X-38713834Y-18342428D01*
X-38744072Y-18402904D01*
X-38744072Y-18493619D01*
X-38713834Y-18554095D01*
X-38683596Y-18584333D01*
X-38623120Y-18614571D01*
X-38441691Y-18614571D01*
X-38381215Y-18584333D01*
X-38350977Y-18554095D01*
X-38320739Y-18493619D01*
X-38320739Y-18402904D01*
X-38744072Y-18886714D02*
X-38320739Y-18886714D01*
X-38683596Y-18886714D02*
X-38713834Y-18916952D01*
X-38744072Y-18977428D01*
X-38744072Y-19068142D01*
X-38713834Y-19128619D01*
X-38653358Y-19158857D01*
X-38320739Y-19158857D01*
X-36542739Y-16014095D02*
X-37177739Y-16014095D01*
X-37177739Y-16165285D01*
X-37147500Y-16256000D01*
X-37087024Y-16316476D01*
X-37026548Y-16346714D01*
X-36905596Y-16376952D01*
X-36814881Y-16376952D01*
X-36693929Y-16346714D01*
X-36633453Y-16316476D01*
X-36572977Y-16256000D01*
X-36542739Y-16165285D01*
X-36542739Y-16014095D01*
X-36542739Y-16649095D02*
X-36966072Y-16649095D01*
X-37177739Y-16649095D02*
X-37147500Y-16618857D01*
X-37117262Y-16649095D01*
X-37147500Y-16679333D01*
X-37177739Y-16649095D01*
X-37117262Y-16649095D01*
X-36542739Y-17223619D02*
X-36875358Y-17223619D01*
X-36935834Y-17193380D01*
X-36966072Y-17132904D01*
X-36966072Y-17011952D01*
X-36935834Y-16951476D01*
X-36572977Y-17223619D02*
X-36542739Y-17163142D01*
X-36542739Y-17011952D01*
X-36572977Y-16951476D01*
X-36633453Y-16921238D01*
X-36693929Y-16921238D01*
X-36754405Y-16951476D01*
X-36784643Y-17011952D01*
X-36784643Y-17163142D01*
X-36814881Y-17223619D01*
X-36542739Y-17616714D02*
X-36572977Y-17556238D01*
X-36633453Y-17526000D01*
X-37177739Y-17526000D01*
X-37177739Y-18251714D02*
X-37177739Y-18614571D01*
X-36542739Y-18433142D02*
X-37177739Y-18433142D01*
X-36542739Y-18765761D02*
X-36966072Y-19098380D01*
X-36966072Y-18765761D02*
X-36542739Y-19098380D01*
X-35877500Y-17804190D02*
X-35907739Y-17743714D01*
X-35907739Y-17653000D01*
X-35877500Y-17562285D01*
X-35817024Y-17501809D01*
X-35756548Y-17471571D01*
X-35635596Y-17441333D01*
X-35544881Y-17441333D01*
X-35423929Y-17471571D01*
X-35363453Y-17501809D01*
X-35302977Y-17562285D01*
X-35272739Y-17653000D01*
X-35272739Y-17713476D01*
X-35302977Y-17804190D01*
X-35333215Y-17834428D01*
X-35544881Y-17834428D01*
X-35544881Y-17713476D01*
X-35272739Y-18106571D02*
X-35907739Y-18106571D01*
X-35272739Y-18469428D01*
X-35907739Y-18469428D01*
X-35272739Y-18771809D02*
X-35907739Y-18771809D01*
X-35907739Y-18923000D01*
X-35877500Y-19013714D01*
X-35817024Y-19074190D01*
X-35756548Y-19104428D01*
X-35635596Y-19134666D01*
X-35544881Y-19134666D01*
X-35423929Y-19104428D01*
X-35363453Y-19074190D01*
X-35302977Y-19013714D01*
X-35272739Y-18923000D01*
X-35272739Y-18771809D01*
X-33748739Y-15893142D02*
X-34383739Y-15893142D01*
X-34383739Y-16044333D01*
X-34353500Y-16135047D01*
X-34293024Y-16195523D01*
X-34232548Y-16225761D01*
X-34111596Y-16256000D01*
X-34020881Y-16256000D01*
X-33899929Y-16225761D01*
X-33839453Y-16195523D01*
X-33778977Y-16135047D01*
X-33748739Y-16044333D01*
X-33748739Y-15893142D01*
X-33748739Y-16528142D02*
X-34172072Y-16528142D01*
X-34383739Y-16528142D02*
X-34353500Y-16497904D01*
X-34323262Y-16528142D01*
X-34353500Y-16558380D01*
X-34383739Y-16528142D01*
X-34323262Y-16528142D01*
X-33748739Y-17102666D02*
X-34081358Y-17102666D01*
X-34141834Y-17072428D01*
X-34172072Y-17011952D01*
X-34172072Y-16891000D01*
X-34141834Y-16830523D01*
X-33778977Y-17102666D02*
X-33748739Y-17042190D01*
X-33748739Y-16891000D01*
X-33778977Y-16830523D01*
X-33839453Y-16800285D01*
X-33899929Y-16800285D01*
X-33960405Y-16830523D01*
X-33990643Y-16891000D01*
X-33990643Y-17042190D01*
X-34020881Y-17102666D01*
X-33748739Y-17495761D02*
X-33778977Y-17435285D01*
X-33839453Y-17405047D01*
X-34383739Y-17405047D01*
X-33748739Y-18584333D02*
X-34051120Y-18372666D01*
X-33748739Y-18221476D02*
X-34383739Y-18221476D01*
X-34383739Y-18463380D01*
X-34353500Y-18523857D01*
X-34323262Y-18554095D01*
X-34262786Y-18584333D01*
X-34172072Y-18584333D01*
X-34111596Y-18554095D01*
X-34081358Y-18523857D01*
X-34051120Y-18463380D01*
X-34051120Y-18221476D01*
X-34383739Y-18796000D02*
X-33748739Y-19219333D01*
X-34383739Y-19219333D02*
X-33748739Y-18796000D01*
X-32224739Y-17380857D02*
X-32859739Y-17380857D01*
X-32224739Y-17985619D02*
X-32224739Y-17683238D01*
X-32859739Y-17683238D01*
X-32224739Y-18499666D02*
X-32224739Y-18197285D01*
X-32859739Y-18197285D01*
X-32466643Y-18711333D02*
X-32466643Y-19195142D01*
X-30700739Y-17380857D02*
X-31335739Y-17380857D01*
X-30700739Y-17985619D02*
X-30700739Y-17683238D01*
X-31335739Y-17683238D01*
X-30700739Y-18499666D02*
X-30700739Y-18197285D01*
X-31335739Y-18197285D01*
X-30942643Y-18711333D02*
X-30942643Y-19195142D01*
X-30700739Y-18953238D02*
X-31184548Y-18953238D01*
D14*
X-16510000Y-24384000D02*
X-17018000Y-23876000D01*
X-17018000Y-23876000D02*
X-17018000Y-20066000D01*
X-17526000Y-24384000D02*
X-17018000Y-23876000D01*
D13*
X-17335500Y-17804190D02*
X-17365739Y-17743714D01*
X-17365739Y-17653000D01*
X-17335500Y-17562285D01*
X-17275024Y-17501809D01*
X-17214548Y-17471571D01*
X-17093596Y-17441333D01*
X-17002881Y-17441333D01*
X-16881929Y-17471571D01*
X-16821453Y-17501809D01*
X-16760977Y-17562285D01*
X-16730739Y-17653000D01*
X-16730739Y-17713476D01*
X-16760977Y-17804190D01*
X-16791215Y-17834428D01*
X-17002881Y-17834428D01*
X-17002881Y-17713476D01*
X-16730739Y-18106571D02*
X-17365739Y-18106571D01*
X-16730739Y-18469428D01*
X-17365739Y-18469428D01*
X-16730739Y-18771809D02*
X-17365739Y-18771809D01*
X-17365739Y-18923000D01*
X-17335500Y-19013714D01*
X-17275024Y-19074190D01*
X-17214548Y-19104428D01*
X-17093596Y-19134666D01*
X-17002881Y-19134666D01*
X-16881929Y-19104428D01*
X-16821453Y-19074190D01*
X-16760977Y-19013714D01*
X-16730739Y-18923000D01*
X-16730739Y-18771809D01*
X-18284977Y-15757071D02*
X-18254739Y-15847785D01*
X-18254739Y-15998976D01*
X-18284977Y-16059452D01*
X-18315215Y-16089690D01*
X-18375691Y-16119928D01*
X-18436167Y-16119928D01*
X-18496643Y-16089690D01*
X-18526881Y-16059452D01*
X-18557120Y-15998976D01*
X-18587358Y-15878023D01*
X-18617596Y-15817547D01*
X-18647834Y-15787309D01*
X-18708310Y-15757071D01*
X-18768786Y-15757071D01*
X-18829262Y-15787309D01*
X-18859500Y-15817547D01*
X-18889739Y-15878023D01*
X-18889739Y-16029214D01*
X-18859500Y-16119928D01*
X-18889739Y-16301357D02*
X-18889739Y-16664214D01*
X-18254739Y-16482785D02*
X-18889739Y-16482785D01*
X-18254739Y-17238738D02*
X-18557120Y-17027071D01*
X-18254739Y-16875880D02*
X-18889739Y-16875880D01*
X-18889739Y-17117785D01*
X-18859500Y-17178261D01*
X-18829262Y-17208500D01*
X-18768786Y-17238738D01*
X-18678072Y-17238738D01*
X-18617596Y-17208500D01*
X-18587358Y-17178261D01*
X-18557120Y-17117785D01*
X-18557120Y-16875880D01*
X-18859500Y-17843500D02*
X-18889739Y-17783023D01*
X-18889739Y-17692309D01*
X-18859500Y-17601595D01*
X-18799024Y-17541119D01*
X-18738548Y-17510880D01*
X-18617596Y-17480642D01*
X-18526881Y-17480642D01*
X-18405929Y-17510880D01*
X-18345453Y-17541119D01*
X-18284977Y-17601595D01*
X-18254739Y-17692309D01*
X-18254739Y-17752785D01*
X-18284977Y-17843500D01*
X-18315215Y-17873738D01*
X-18526881Y-17873738D01*
X-18526881Y-17752785D01*
X-18496643Y-18145880D02*
X-18496643Y-18629690D01*
X-18587358Y-19143738D02*
X-18557120Y-19234452D01*
X-18526881Y-19264690D01*
X-18466405Y-19294928D01*
X-18375691Y-19294928D01*
X-18315215Y-19264690D01*
X-18284977Y-19234452D01*
X-18254739Y-19173976D01*
X-18254739Y-18932071D01*
X-18889739Y-18932071D01*
X-18889739Y-19143738D01*
X-18859500Y-19204214D01*
X-18829262Y-19234452D01*
X-18768786Y-19264690D01*
X-18708310Y-19264690D01*
X-18647834Y-19234452D01*
X-18617596Y-19204214D01*
X-18587358Y-19143738D01*
X-18587358Y-18932071D01*
D14*
X-32506694Y-23287082D02*
X-32506694Y-20112082D01*
D13*
X-15109977Y-15802428D02*
X-15079739Y-15893142D01*
X-15079739Y-16044333D01*
X-15109977Y-16104809D01*
X-15140215Y-16135047D01*
X-15200691Y-16165285D01*
X-15261167Y-16165285D01*
X-15321643Y-16135047D01*
X-15351881Y-16104809D01*
X-15382120Y-16044333D01*
X-15412358Y-15923380D01*
X-15442596Y-15862904D01*
X-15472834Y-15832666D01*
X-15533310Y-15802428D01*
X-15593786Y-15802428D01*
X-15654262Y-15832666D01*
X-15684500Y-15862904D01*
X-15714739Y-15923380D01*
X-15714739Y-16074571D01*
X-15684500Y-16165285D01*
X-15714739Y-16346714D02*
X-15714739Y-16709571D01*
X-15079739Y-16528142D02*
X-15714739Y-16528142D01*
X-15079739Y-17284095D02*
X-15382120Y-17072428D01*
X-15079739Y-16921238D02*
X-15714739Y-16921238D01*
X-15714739Y-17163142D01*
X-15684500Y-17223619D01*
X-15654262Y-17253857D01*
X-15593786Y-17284095D01*
X-15503072Y-17284095D01*
X-15442596Y-17253857D01*
X-15412358Y-17223619D01*
X-15382120Y-17163142D01*
X-15382120Y-16921238D01*
X-15684500Y-17888857D02*
X-15714739Y-17828380D01*
X-15714739Y-17737666D01*
X-15684500Y-17646952D01*
X-15624024Y-17586476D01*
X-15563548Y-17556238D01*
X-15442596Y-17526000D01*
X-15351881Y-17526000D01*
X-15230929Y-17556238D01*
X-15170453Y-17586476D01*
X-15109977Y-17646952D01*
X-15079739Y-17737666D01*
X-15079739Y-17798142D01*
X-15109977Y-17888857D01*
X-15140215Y-17919095D01*
X-15351881Y-17919095D01*
X-15351881Y-17798142D01*
X-15321643Y-18191238D02*
X-15321643Y-18675047D01*
X-15261167Y-18947190D02*
X-15261167Y-19249571D01*
X-15079739Y-18886714D02*
X-15714739Y-19098380D01*
X-15079739Y-19310047D01*
D14*
X-31998694Y-24176082D02*
X-32506694Y-23287082D01*
X26035000Y6604000D02*
X29210000Y6604000D01*
X25146000Y6096000D02*
X26035000Y6604000D01*
X26035000Y12522200D02*
X29210000Y12522200D01*
X25146000Y12065000D02*
X26035000Y12522200D01*
X26035000Y15519400D02*
X29210000Y15519400D01*
X25146000Y15113000D02*
X26035000Y15519400D01*
X25908000Y18516600D02*
X29083000Y18516600D01*
X25019000Y18084800D02*
X25908000Y18516600D01*
X25908000Y21488400D02*
X29083000Y21488400D01*
X25019000Y21082000D02*
X25908000Y21488400D01*
X25908000Y24511000D02*
X29083000Y24511000D01*
X25019000Y24130000D02*
X25908000Y24511000D01*
X27813000Y27178000D02*
X27813000Y27686000D01*
X24892000Y29718000D02*
X26670000Y29718000D01*
X24892000Y27178000D02*
X24892000Y29718000D01*
D13*
X31387142Y4919739D02*
X31387142Y5554739D01*
X30782380Y4919739D02*
X31084761Y4919739D01*
X31084761Y5554739D01*
X30268333Y4919739D02*
X30570714Y4919739D01*
X30570714Y5554739D01*
X30056666Y5161643D02*
X29572857Y5161643D01*
X31387142Y6316739D02*
X31387142Y6951739D01*
X30782380Y6316739D02*
X31084761Y6316739D01*
X31084761Y6951739D01*
X30268333Y6316739D02*
X30570714Y6316739D01*
X30570714Y6951739D01*
X30056666Y6558643D02*
X29572857Y6558643D01*
X29814761Y6316739D02*
X29814761Y6800548D01*
X30963809Y11366500D02*
X31024285Y11396739D01*
X31115000Y11396739D01*
X31205714Y11366500D01*
X31266190Y11306024D01*
X31296428Y11245548D01*
X31326666Y11124596D01*
X31326666Y11033881D01*
X31296428Y10912929D01*
X31266190Y10852453D01*
X31205714Y10791977D01*
X31115000Y10761739D01*
X31054523Y10761739D01*
X30963809Y10791977D01*
X30933571Y10822215D01*
X30933571Y11033881D01*
X31054523Y11033881D01*
X30661428Y10761739D02*
X30661428Y11396739D01*
X30298571Y10761739D01*
X30298571Y11396739D01*
X29996190Y10761739D02*
X29996190Y11396739D01*
X29845000Y11396739D01*
X29754285Y11366500D01*
X29693809Y11306024D01*
X29663571Y11245548D01*
X29633333Y11124596D01*
X29633333Y11033881D01*
X29663571Y10912929D01*
X29693809Y10852453D01*
X29754285Y10791977D01*
X29845000Y10761739D01*
X29996190Y10761739D01*
X32173333Y12320815D02*
X32203571Y12290577D01*
X32294285Y12260339D01*
X32354761Y12260339D01*
X32445476Y12290577D01*
X32505952Y12351053D01*
X32536190Y12411529D01*
X32566428Y12532481D01*
X32566428Y12623196D01*
X32536190Y12744148D01*
X32505952Y12804624D01*
X32445476Y12865100D01*
X32354761Y12895339D01*
X32294285Y12895339D01*
X32203571Y12865100D01*
X32173333Y12834862D01*
X31931428Y12441767D02*
X31629047Y12441767D01*
X31991904Y12260339D02*
X31780238Y12895339D01*
X31568571Y12260339D01*
X31356904Y12260339D02*
X31356904Y12895339D01*
X30994047Y12260339D01*
X30994047Y12895339D01*
X30691666Y12502243D02*
X30207857Y12502243D01*
X29603095Y12260339D02*
X29905476Y12260339D01*
X29905476Y12895339D01*
X32493857Y24287239D02*
X32705523Y24589620D01*
X32856714Y24287239D02*
X32856714Y24922239D01*
X32614809Y24922239D01*
X32554333Y24892000D01*
X32524095Y24861762D01*
X32493857Y24801286D01*
X32493857Y24710572D01*
X32524095Y24650096D01*
X32554333Y24619858D01*
X32614809Y24589620D01*
X32856714Y24589620D01*
X31979809Y24317477D02*
X32040285Y24287239D01*
X32161238Y24287239D01*
X32221714Y24317477D01*
X32251952Y24377953D01*
X32251952Y24619858D01*
X32221714Y24680334D01*
X32161238Y24710572D01*
X32040285Y24710572D01*
X31979809Y24680334D01*
X31949571Y24619858D01*
X31949571Y24559381D01*
X32251952Y24498905D01*
X31737904Y24710572D02*
X31586714Y24287239D01*
X31435523Y24710572D01*
X30951714Y24317477D02*
X31012190Y24287239D01*
X31133142Y24287239D01*
X31193619Y24317477D01*
X31223857Y24377953D01*
X31223857Y24619858D01*
X31193619Y24680334D01*
X31133142Y24710572D01*
X31012190Y24710572D01*
X30951714Y24680334D01*
X30921476Y24619858D01*
X30921476Y24559381D01*
X31223857Y24498905D01*
X30649333Y24287239D02*
X30649333Y24710572D01*
X30649333Y24589620D02*
X30619095Y24650096D01*
X30588857Y24680334D01*
X30528380Y24710572D01*
X30467904Y24710572D01*
X30286476Y24317477D02*
X30226000Y24287239D01*
X30105047Y24287239D01*
X30044571Y24317477D01*
X30014333Y24377953D01*
X30014333Y24408191D01*
X30044571Y24468667D01*
X30105047Y24498905D01*
X30195761Y24498905D01*
X30256238Y24529143D01*
X30286476Y24589620D01*
X30286476Y24619858D01*
X30256238Y24680334D01*
X30195761Y24710572D01*
X30105047Y24710572D01*
X30044571Y24680334D01*
X29500285Y24317477D02*
X29560761Y24287239D01*
X29681714Y24287239D01*
X29742190Y24317477D01*
X29772428Y24377953D01*
X29772428Y24619858D01*
X29742190Y24680334D01*
X29681714Y24710572D01*
X29560761Y24710572D01*
X29500285Y24680334D01*
X29470047Y24619858D01*
X29470047Y24559381D01*
X29772428Y24498905D01*
X32248928Y15267215D02*
X32279166Y15236977D01*
X32369880Y15206739D01*
X32430357Y15206739D01*
X32521071Y15236977D01*
X32581547Y15297453D01*
X32611785Y15357929D01*
X32642023Y15478881D01*
X32642023Y15569596D01*
X32611785Y15690548D01*
X32581547Y15751024D01*
X32521071Y15811500D01*
X32430357Y15841739D01*
X32369880Y15841739D01*
X32279166Y15811500D01*
X32248928Y15781262D01*
X32007023Y15388167D02*
X31704642Y15388167D01*
X32067500Y15206739D02*
X31855833Y15841739D01*
X31644166Y15206739D01*
X31432500Y15206739D02*
X31432500Y15841739D01*
X31069642Y15206739D01*
X31069642Y15841739D01*
X30767261Y15448643D02*
X30283452Y15448643D01*
X29981071Y15206739D02*
X29981071Y15841739D01*
X29981071Y15539358D02*
X29618214Y15539358D01*
X29618214Y15206739D02*
X29618214Y15841739D01*
X32161238Y13712977D02*
X32070523Y13682739D01*
X31919333Y13682739D01*
X31858857Y13712977D01*
X31828619Y13743215D01*
X31798380Y13803691D01*
X31798380Y13864167D01*
X31828619Y13924643D01*
X31858857Y13954881D01*
X31919333Y13985120D01*
X32040285Y14015358D01*
X32100761Y14045596D01*
X32131000Y14075834D01*
X32161238Y14136310D01*
X32161238Y14196786D01*
X32131000Y14257262D01*
X32100761Y14287500D01*
X32040285Y14317739D01*
X31889095Y14317739D01*
X31798380Y14287500D01*
X31526238Y14106072D02*
X31526238Y13471072D01*
X31526238Y14075834D02*
X31465761Y14106072D01*
X31344809Y14106072D01*
X31284333Y14075834D01*
X31254095Y14045596D01*
X31223857Y13985120D01*
X31223857Y13803691D01*
X31254095Y13743215D01*
X31284333Y13712977D01*
X31344809Y13682739D01*
X31465761Y13682739D01*
X31526238Y13712977D01*
X30709809Y13712977D02*
X30770285Y13682739D01*
X30891238Y13682739D01*
X30951714Y13712977D01*
X30981952Y13773453D01*
X30981952Y14015358D01*
X30951714Y14075834D01*
X30891238Y14106072D01*
X30770285Y14106072D01*
X30709809Y14075834D01*
X30679571Y14015358D01*
X30679571Y13954881D01*
X30981952Y13894405D01*
X30165523Y13712977D02*
X30226000Y13682739D01*
X30346952Y13682739D01*
X30407428Y13712977D01*
X30437666Y13773453D01*
X30437666Y14015358D01*
X30407428Y14075834D01*
X30346952Y14106072D01*
X30226000Y14106072D01*
X30165523Y14075834D01*
X30135285Y14015358D01*
X30135285Y13954881D01*
X30437666Y13894405D01*
X29591000Y13682739D02*
X29591000Y14317739D01*
X29591000Y13712977D02*
X29651476Y13682739D01*
X29772428Y13682739D01*
X29832904Y13712977D01*
X29863142Y13743215D01*
X29893380Y13803691D01*
X29893380Y13985120D01*
X29863142Y14045596D01*
X29832904Y14075834D01*
X29772428Y14106072D01*
X29651476Y14106072D01*
X29591000Y14075834D01*
X34547023Y16794239D02*
X34547023Y17429239D01*
X34305119Y17429239D01*
X34244642Y17399000D01*
X34214404Y17368762D01*
X34184166Y17308286D01*
X34184166Y17217572D01*
X34214404Y17157096D01*
X34244642Y17126858D01*
X34305119Y17096620D01*
X34547023Y17096620D01*
X33639880Y16794239D02*
X33639880Y17126858D01*
X33670119Y17187334D01*
X33730595Y17217572D01*
X33851547Y17217572D01*
X33912023Y17187334D01*
X33639880Y16824477D02*
X33700357Y16794239D01*
X33851547Y16794239D01*
X33912023Y16824477D01*
X33942261Y16884953D01*
X33942261Y16945429D01*
X33912023Y17005905D01*
X33851547Y17036143D01*
X33700357Y17036143D01*
X33639880Y17066381D01*
X33337500Y16794239D02*
X33337500Y17217572D01*
X33337500Y17096620D02*
X33307261Y17157096D01*
X33277023Y17187334D01*
X33216547Y17217572D01*
X33156071Y17217572D01*
X32944404Y16794239D02*
X32944404Y17429239D01*
X32883928Y17036143D02*
X32702500Y16794239D01*
X32702500Y17217572D02*
X32944404Y16975667D01*
X31734880Y17126858D02*
X31644166Y17096620D01*
X31613928Y17066381D01*
X31583690Y17005905D01*
X31583690Y16915191D01*
X31613928Y16854715D01*
X31644166Y16824477D01*
X31704642Y16794239D01*
X31946547Y16794239D01*
X31946547Y17429239D01*
X31734880Y17429239D01*
X31674404Y17399000D01*
X31644166Y17368762D01*
X31613928Y17308286D01*
X31613928Y17247810D01*
X31644166Y17187334D01*
X31674404Y17157096D01*
X31734880Y17126858D01*
X31946547Y17126858D01*
X31311547Y16794239D02*
X31311547Y17217572D01*
X31311547Y17096620D02*
X31281309Y17157096D01*
X31251071Y17187334D01*
X31190595Y17217572D01*
X31130119Y17217572D01*
X30646309Y16794239D02*
X30646309Y17126858D01*
X30676547Y17187334D01*
X30737023Y17217572D01*
X30857976Y17217572D01*
X30918452Y17187334D01*
X30646309Y16824477D02*
X30706785Y16794239D01*
X30857976Y16794239D01*
X30918452Y16824477D01*
X30948690Y16884953D01*
X30948690Y16945429D01*
X30918452Y17005905D01*
X30857976Y17036143D01*
X30706785Y17036143D01*
X30646309Y17066381D01*
X30343928Y16794239D02*
X30343928Y17429239D01*
X30283452Y17036143D02*
X30102023Y16794239D01*
X30102023Y17217572D02*
X30343928Y16975667D01*
X29587976Y16824477D02*
X29648452Y16794239D01*
X29769404Y16794239D01*
X29829880Y16824477D01*
X29860119Y16884953D01*
X29860119Y17126858D01*
X29829880Y17187334D01*
X29769404Y17217572D01*
X29648452Y17217572D01*
X29587976Y17187334D01*
X29557738Y17126858D01*
X29557738Y17066381D01*
X29860119Y17005905D01*
X32796238Y18292839D02*
X32796238Y18927839D01*
X32584571Y18474267D01*
X32372904Y18927839D01*
X32372904Y18292839D01*
X32070523Y18292839D02*
X32070523Y18716172D01*
X32070523Y18927839D02*
X32100761Y18897600D01*
X32070523Y18867362D01*
X32040285Y18897600D01*
X32070523Y18927839D01*
X32070523Y18867362D01*
X31496000Y18323077D02*
X31556476Y18292839D01*
X31677428Y18292839D01*
X31737904Y18323077D01*
X31768142Y18353315D01*
X31798380Y18413791D01*
X31798380Y18595220D01*
X31768142Y18655696D01*
X31737904Y18685934D01*
X31677428Y18716172D01*
X31556476Y18716172D01*
X31496000Y18685934D01*
X30770285Y18323077D02*
X30679571Y18292839D01*
X30528380Y18292839D01*
X30467904Y18323077D01*
X30437666Y18353315D01*
X30407428Y18413791D01*
X30407428Y18474267D01*
X30437666Y18534743D01*
X30467904Y18564981D01*
X30528380Y18595220D01*
X30649333Y18625458D01*
X30709809Y18655696D01*
X30740047Y18685934D01*
X30770285Y18746410D01*
X30770285Y18806886D01*
X30740047Y18867362D01*
X30709809Y18897600D01*
X30649333Y18927839D01*
X30498142Y18927839D01*
X30407428Y18897600D01*
X30135285Y18292839D02*
X30135285Y18716172D01*
X30135285Y18927839D02*
X30165523Y18897600D01*
X30135285Y18867362D01*
X30105047Y18897600D01*
X30135285Y18927839D01*
X30135285Y18867362D01*
X29560761Y18716172D02*
X29560761Y18202124D01*
X29591000Y18141648D01*
X29621238Y18111410D01*
X29681714Y18081172D01*
X29772428Y18081172D01*
X29832904Y18111410D01*
X29560761Y18323077D02*
X29621238Y18292839D01*
X29742190Y18292839D01*
X29802666Y18323077D01*
X29832904Y18353315D01*
X29863142Y18413791D01*
X29863142Y18595220D01*
X29832904Y18655696D01*
X29802666Y18685934D01*
X29742190Y18716172D01*
X29621238Y18716172D01*
X29560761Y18685934D01*
X33277023Y19651739D02*
X33277023Y20286739D01*
X33065357Y19833167D01*
X32853690Y20286739D01*
X32853690Y19651739D01*
X32551309Y19651739D02*
X32551309Y20075072D01*
X32551309Y20286739D02*
X32581547Y20256500D01*
X32551309Y20226262D01*
X32521071Y20256500D01*
X32551309Y20286739D01*
X32551309Y20226262D01*
X31976785Y19681977D02*
X32037261Y19651739D01*
X32158214Y19651739D01*
X32218690Y19681977D01*
X32248928Y19712215D01*
X32279166Y19772691D01*
X32279166Y19954120D01*
X32248928Y20014596D01*
X32218690Y20044834D01*
X32158214Y20075072D01*
X32037261Y20075072D01*
X31976785Y20044834D01*
X30888214Y20256500D02*
X30948690Y20286739D01*
X31039404Y20286739D01*
X31130119Y20256500D01*
X31190595Y20196024D01*
X31220833Y20135548D01*
X31251071Y20014596D01*
X31251071Y19923881D01*
X31220833Y19802929D01*
X31190595Y19742453D01*
X31130119Y19681977D01*
X31039404Y19651739D01*
X30978928Y19651739D01*
X30888214Y19681977D01*
X30857976Y19712215D01*
X30857976Y19923881D01*
X30978928Y19923881D01*
X30585833Y19651739D02*
X30585833Y20286739D01*
X30222976Y19651739D01*
X30222976Y20286739D01*
X29920595Y19651739D02*
X29920595Y20286739D01*
X29769404Y20286739D01*
X29678690Y20256500D01*
X29618214Y20196024D01*
X29587976Y20135548D01*
X29557738Y20014596D01*
X29557738Y19923881D01*
X29587976Y19802929D01*
X29618214Y19742453D01*
X29678690Y19681977D01*
X29769404Y19651739D01*
X29920595Y19651739D01*
X32935333Y22826739D02*
X32935333Y23461739D01*
X32723666Y23008167D01*
X32512000Y23461739D01*
X32512000Y22826739D01*
X32209619Y22826739D02*
X32209619Y23250072D01*
X32209619Y23461739D02*
X32239857Y23431500D01*
X32209619Y23401262D01*
X32179380Y23431500D01*
X32209619Y23461739D01*
X32209619Y23401262D01*
X31635095Y22856977D02*
X31695571Y22826739D01*
X31816523Y22826739D01*
X31877000Y22856977D01*
X31907238Y22887215D01*
X31937476Y22947691D01*
X31937476Y23129120D01*
X31907238Y23189596D01*
X31877000Y23219834D01*
X31816523Y23250072D01*
X31695571Y23250072D01*
X31635095Y23219834D01*
X30969857Y23461739D02*
X30758190Y22826739D01*
X30546523Y23461739D01*
X30062714Y22856977D02*
X30123190Y22826739D01*
X30244142Y22826739D01*
X30304619Y22856977D01*
X30334857Y22887215D01*
X30365095Y22947691D01*
X30365095Y23129120D01*
X30334857Y23189596D01*
X30304619Y23219834D01*
X30244142Y23250072D01*
X30123190Y23250072D01*
X30062714Y23219834D01*
X29518428Y22856977D02*
X29578904Y22826739D01*
X29699857Y22826739D01*
X29760333Y22856977D01*
X29790571Y22887215D01*
X29820809Y22947691D01*
X29820809Y23129120D01*
X29790571Y23189596D01*
X29760333Y23219834D01*
X29699857Y23250072D01*
X29578904Y23250072D01*
X29518428Y23219834D01*
X32430357Y21660758D02*
X32339642Y21630520D01*
X32309404Y21600281D01*
X32279166Y21539805D01*
X32279166Y21449091D01*
X32309404Y21388615D01*
X32339642Y21358377D01*
X32400119Y21328139D01*
X32642023Y21328139D01*
X32642023Y21963139D01*
X32430357Y21963139D01*
X32369880Y21932900D01*
X32339642Y21902662D01*
X32309404Y21842186D01*
X32309404Y21781710D01*
X32339642Y21721234D01*
X32369880Y21690996D01*
X32430357Y21660758D01*
X32642023Y21660758D01*
X31734880Y21328139D02*
X31734880Y21660758D01*
X31765119Y21721234D01*
X31825595Y21751472D01*
X31946547Y21751472D01*
X32007023Y21721234D01*
X31734880Y21358377D02*
X31795357Y21328139D01*
X31946547Y21328139D01*
X32007023Y21358377D01*
X32037261Y21418853D01*
X32037261Y21479329D01*
X32007023Y21539805D01*
X31946547Y21570043D01*
X31795357Y21570043D01*
X31734880Y21600281D01*
X31523214Y21751472D02*
X31281309Y21751472D01*
X31432500Y21963139D02*
X31432500Y21418853D01*
X31402261Y21358377D01*
X31341785Y21328139D01*
X31281309Y21328139D01*
X31160357Y21751472D02*
X30918452Y21751472D01*
X31069642Y21963139D02*
X31069642Y21418853D01*
X31039404Y21358377D01*
X30978928Y21328139D01*
X30918452Y21328139D01*
X30464880Y21358377D02*
X30525357Y21328139D01*
X30646309Y21328139D01*
X30706785Y21358377D01*
X30737023Y21418853D01*
X30737023Y21660758D01*
X30706785Y21721234D01*
X30646309Y21751472D01*
X30525357Y21751472D01*
X30464880Y21721234D01*
X30434642Y21660758D01*
X30434642Y21600281D01*
X30737023Y21539805D01*
X30162500Y21328139D02*
X30162500Y21751472D01*
X30162500Y21630520D02*
X30132261Y21690996D01*
X30102023Y21721234D01*
X30041547Y21751472D01*
X29981071Y21751472D01*
X29829880Y21751472D02*
X29678690Y21328139D01*
X29527500Y21751472D02*
X29678690Y21328139D01*
X29739166Y21176948D01*
X29769404Y21146710D01*
X29829880Y21116472D01*
X29445857Y27970239D02*
X29445857Y28605239D01*
X28871333Y28393572D02*
X28871333Y27879524D01*
X28901571Y27819048D01*
X28931809Y27788810D01*
X28992285Y27758572D01*
X29083000Y27758572D01*
X29143476Y27788810D01*
X28871333Y28000477D02*
X28931809Y27970239D01*
X29052761Y27970239D01*
X29113238Y28000477D01*
X29143476Y28030715D01*
X29173714Y28091191D01*
X29173714Y28272620D01*
X29143476Y28333096D01*
X29113238Y28363334D01*
X29052761Y28393572D01*
X28931809Y28393572D01*
X28871333Y28363334D01*
X28568952Y28393572D02*
X28568952Y27970239D01*
X28568952Y28333096D02*
X28538714Y28363334D01*
X28478238Y28393572D01*
X28387523Y28393572D01*
X28327047Y28363334D01*
X28296809Y28302858D01*
X28296809Y27970239D01*
X27994428Y27970239D02*
X27994428Y28393572D01*
X27994428Y28605239D02*
X28024666Y28575000D01*
X27994428Y28544762D01*
X27964190Y28575000D01*
X27994428Y28605239D01*
X27994428Y28544762D01*
X27782761Y28393572D02*
X27540857Y28393572D01*
X27692047Y28605239D02*
X27692047Y28060953D01*
X27661809Y28000477D01*
X27601333Y27970239D01*
X27540857Y27970239D01*
X27329190Y27970239D02*
X27329190Y28393572D01*
X27329190Y28605239D02*
X27359428Y28575000D01*
X27329190Y28544762D01*
X27298952Y28575000D01*
X27329190Y28605239D01*
X27329190Y28544762D01*
X26936095Y27970239D02*
X26996571Y28000477D01*
X27026809Y28030715D01*
X27057047Y28091191D01*
X27057047Y28272620D01*
X27026809Y28333096D01*
X26996571Y28363334D01*
X26936095Y28393572D01*
X26845380Y28393572D01*
X26784904Y28363334D01*
X26754666Y28333096D01*
X26724428Y28272620D01*
X26724428Y28091191D01*
X26754666Y28030715D01*
X26784904Y28000477D01*
X26845380Y27970239D01*
X26936095Y27970239D01*
X26452285Y28393572D02*
X26452285Y27970239D01*
X26452285Y28333096D02*
X26422047Y28363334D01*
X26361571Y28393572D01*
X26270857Y28393572D01*
X26210380Y28363334D01*
X26180142Y28302858D01*
X26180142Y27970239D01*
X28662690Y29612167D02*
X28360309Y29612167D01*
X28723166Y29430739D02*
X28511500Y30065739D01*
X28299833Y29430739D01*
X27725309Y29491215D02*
X27755547Y29460977D01*
X27846261Y29430739D01*
X27906738Y29430739D01*
X27997452Y29460977D01*
X28057928Y29521453D01*
X28088166Y29581929D01*
X28118404Y29702881D01*
X28118404Y29793596D01*
X28088166Y29914548D01*
X28057928Y29975024D01*
X27997452Y30035500D01*
X27906738Y30065739D01*
X27846261Y30065739D01*
X27755547Y30035500D01*
X27725309Y30005262D01*
X27090309Y29491215D02*
X27120547Y29460977D01*
X27211261Y29430739D01*
X27271738Y29430739D01*
X27362452Y29460977D01*
X27422928Y29521453D01*
X27453166Y29581929D01*
X27483404Y29702881D01*
X27483404Y29793596D01*
X27453166Y29914548D01*
X27422928Y29975024D01*
X27362452Y30035500D01*
X27271738Y30065739D01*
X27211261Y30065739D01*
X27120547Y30035500D01*
X27090309Y30005262D01*
M02*
