G04 #@! TF.GenerationSoftware,KiCad,Pcbnew,(5.1.2)-2*
G04 #@! TF.CreationDate,2021-02-22T11:23:01-08:00*
G04 #@! TF.ProjectId,eZ_Navi-Delete,655a5f4e-6176-4692-9d44-656c6574652e,rev?*
G04 #@! TF.SameCoordinates,PX9347200PY548a170*
G04 #@! TF.FileFunction,Soldermask,Bot*
G04 #@! TF.FilePolarity,Negative*
%FSLAX46Y46*%
G04 Gerber Fmt 4.6, Leading zero omitted, Abs format (unit mm)*
G04 Created by KiCad (PCBNEW (5.1.2)-2) date 2021-02-22 11:23:01*
%MOMM*%
%LPD*%
G04 APERTURE LIST*
%ADD10O,1.451600X1.451600*%
%ADD11R,1.451600X1.451600*%
%ADD12C,1.001600*%
%ADD13O,1.601600X2.301600*%
%ADD14O,3.601600X4.101600*%
%ADD15O,2.301600X1.601600*%
%ADD16O,4.101600X3.601600*%
%ADD17O,1.751600X1.201600*%
%ADD18O,2.801600X1.801600*%
%ADD19C,1.601600*%
%ADD20O,2.301600X1.401600*%
%ADD21C,3.701600*%
%ADD22C,3.276600*%
G04 APERTURE END LIST*
D10*
X-21209000Y-16636000D03*
X-21209000Y-14636000D03*
X-21209000Y-12636000D03*
X-21209000Y-10636000D03*
D11*
X-21209000Y-8636000D03*
D12*
X-33173800Y29591000D03*
X-30173800Y29591000D03*
D13*
X-2310000Y23852000D03*
X-2310000Y20852000D03*
X-5310000Y23852000D03*
X-5310000Y20852000D03*
X6690000Y23852000D03*
X6690000Y20852000D03*
X3690000Y23852000D03*
X3690000Y20852000D03*
X690000Y23852000D03*
X690000Y20852000D03*
X-8310000Y23852000D03*
X-8310000Y20852000D03*
X-14310000Y23852000D03*
X-14310000Y20852000D03*
D14*
X-19460000Y28172000D03*
X11840000Y28172000D03*
D13*
X-17310000Y23852000D03*
X-11310000Y23852000D03*
X9690000Y23852000D03*
X9690000Y20852000D03*
X-11310000Y20852000D03*
X-17310000Y20852000D03*
D15*
X27813000Y8018000D03*
X24813000Y8018000D03*
X27813000Y11018000D03*
X24813000Y11018000D03*
X27813000Y14018000D03*
X24813000Y14018000D03*
X27813000Y17018000D03*
X24813000Y17018000D03*
X27813000Y23018000D03*
X24813000Y23018000D03*
D16*
X32133000Y28178000D03*
X32133000Y2858000D03*
D15*
X27813000Y26018000D03*
X27813000Y20018000D03*
X27813000Y5018000D03*
X24813000Y5018000D03*
X24813000Y20018000D03*
X24813000Y26018000D03*
D14*
X-28828000Y-28656000D03*
X-39148000Y-28656000D03*
D13*
X-30988000Y-24336000D03*
X-33988000Y-24336000D03*
X-36988000Y-24336000D03*
X-36988000Y-21336000D03*
X-30988000Y-21336000D03*
X-33988000Y-21336000D03*
D14*
X-13358000Y-28680000D03*
X-20678000Y-28680000D03*
D13*
X-15518000Y-24360000D03*
X-18518000Y-24360000D03*
X-18518000Y-21360000D03*
X-15518000Y-21360000D03*
D17*
X-36232000Y1727000D03*
X-36232000Y-1473000D03*
X-36232000Y127000D03*
X-37982000Y927000D03*
X-37982000Y-673000D03*
D18*
X-41557000Y3777000D03*
X-41557000Y-3523000D03*
D19*
X16637000Y-2413000D03*
X16637000Y2467000D03*
X-3851819Y-12932319D03*
X-7302500Y-16383000D03*
D20*
X16038000Y-19870000D03*
X16038000Y-13270000D03*
X19038000Y-28670000D03*
X16038000Y-28670000D03*
X19038000Y-26470000D03*
X16038000Y-26470000D03*
X19038000Y-24270000D03*
X16038000Y-24270000D03*
X19038000Y-22070000D03*
X16038000Y-22070000D03*
X19038000Y-19870000D03*
X19038000Y-17670000D03*
X16038000Y-17670000D03*
X19038000Y-15470000D03*
X16038000Y-15470000D03*
X19038000Y-13270000D03*
D21*
X24638000Y-13970000D03*
X24538000Y-27970000D03*
D22*
X-39497000Y28956000D03*
X18288000Y23876000D03*
X32893000Y-4064000D03*
X-5207000Y-26924000D03*
M02*
