G04 #@! TF.GenerationSoftware,KiCad,Pcbnew,(5.1.2)-2*
G04 #@! TF.CreationDate,2021-02-22T11:23:01-08:00*
G04 #@! TF.ProjectId,eZ_Navi-Delete,655a5f4e-6176-4692-9d44-656c6574652e,rev?*
G04 #@! TF.SameCoordinates,PX9347200PY548a170*
G04 #@! TF.FileFunction,Copper,L2,Bot*
G04 #@! TF.FilePolarity,Positive*
%FSLAX46Y46*%
G04 Gerber Fmt 4.6, Leading zero omitted, Abs format (unit mm)*
G04 Created by KiCad (PCBNEW (5.1.2)-2) date 2021-02-22 11:23:01*
%MOMM*%
%LPD*%
G04 APERTURE LIST*
%ADD10C,0.152400*%
%ADD11O,1.350000X1.350000*%
%ADD12R,1.350000X1.350000*%
%ADD13O,1.500000X2.200000*%
%ADD14O,3.500000X4.000000*%
%ADD15O,2.200000X1.500000*%
%ADD16O,4.000000X3.500000*%
%ADD17O,1.650000X1.100000*%
%ADD18O,2.700000X1.700000*%
%ADD19C,1.500000*%
%ADD20O,2.200000X1.300000*%
%ADD21C,0.635000*%
%ADD22C,1.270000*%
%ADD23C,0.762000*%
%ADD24C,0.254000*%
%ADD25C,1.905000*%
%ADD26C,1.270000*%
%ADD27C,0.762000*%
%ADD28C,1.016000*%
G04 APERTURE END LIST*
D10*
X8037285Y-21619028D02*
X8109857Y-21655314D01*
X8255000Y-21655314D01*
X8327571Y-21619028D01*
X8363857Y-21546457D01*
X8363857Y-21256171D01*
X8327571Y-21183600D01*
X8255000Y-21147314D01*
X8109857Y-21147314D01*
X8037285Y-21183600D01*
X8001000Y-21256171D01*
X8001000Y-21328742D01*
X8363857Y-21401314D01*
X7747000Y-20893314D02*
X7239000Y-20893314D01*
X7747000Y-21655314D01*
X7239000Y-21655314D01*
X6368142Y-21655314D02*
X6368142Y-20893314D01*
X5932714Y-21655314D01*
X5932714Y-20893314D01*
X5243285Y-21655314D02*
X5243285Y-21256171D01*
X5279571Y-21183600D01*
X5352142Y-21147314D01*
X5497285Y-21147314D01*
X5569857Y-21183600D01*
X5243285Y-21619028D02*
X5315857Y-21655314D01*
X5497285Y-21655314D01*
X5569857Y-21619028D01*
X5606142Y-21546457D01*
X5606142Y-21473885D01*
X5569857Y-21401314D01*
X5497285Y-21365028D01*
X5315857Y-21365028D01*
X5243285Y-21328742D01*
X4953000Y-21147314D02*
X4771571Y-21655314D01*
X4590142Y-21147314D01*
X4299857Y-21655314D02*
X4299857Y-21147314D01*
X4299857Y-20893314D02*
X4336142Y-20929600D01*
X4299857Y-20965885D01*
X4263571Y-20929600D01*
X4299857Y-20893314D01*
X4299857Y-20965885D01*
X3937000Y-21365028D02*
X3356428Y-21365028D01*
X2993571Y-21655314D02*
X2993571Y-20893314D01*
X2812142Y-20893314D01*
X2703285Y-20929600D01*
X2630714Y-21002171D01*
X2594428Y-21074742D01*
X2558142Y-21219885D01*
X2558142Y-21328742D01*
X2594428Y-21473885D01*
X2630714Y-21546457D01*
X2703285Y-21619028D01*
X2812142Y-21655314D01*
X2993571Y-21655314D01*
X1941285Y-21619028D02*
X2013857Y-21655314D01*
X2159000Y-21655314D01*
X2231571Y-21619028D01*
X2267857Y-21546457D01*
X2267857Y-21256171D01*
X2231571Y-21183600D01*
X2159000Y-21147314D01*
X2013857Y-21147314D01*
X1941285Y-21183600D01*
X1905000Y-21256171D01*
X1905000Y-21328742D01*
X2267857Y-21401314D01*
X1469571Y-21655314D02*
X1542142Y-21619028D01*
X1578428Y-21546457D01*
X1578428Y-20893314D01*
X889000Y-21619028D02*
X961571Y-21655314D01*
X1106714Y-21655314D01*
X1179285Y-21619028D01*
X1215571Y-21546457D01*
X1215571Y-21256171D01*
X1179285Y-21183600D01*
X1106714Y-21147314D01*
X961571Y-21147314D01*
X889000Y-21183600D01*
X852714Y-21256171D01*
X852714Y-21328742D01*
X1215571Y-21401314D01*
X635000Y-21147314D02*
X344714Y-21147314D01*
X526142Y-20893314D02*
X526142Y-21546457D01*
X489857Y-21619028D01*
X417285Y-21655314D01*
X344714Y-21655314D01*
X-199572Y-21619028D02*
X-127000Y-21655314D01*
X18142Y-21655314D01*
X90714Y-21619028D01*
X127000Y-21546457D01*
X127000Y-21256171D01*
X90714Y-21183600D01*
X18142Y-21147314D01*
X-127000Y-21147314D01*
X-199572Y-21183600D01*
X-235858Y-21256171D01*
X-235858Y-21328742D01*
X127000Y-21401314D01*
X10940142Y-22950714D02*
X10940142Y-22188714D01*
X10504714Y-22950714D01*
X10504714Y-22188714D01*
X10141857Y-22950714D02*
X10141857Y-22442714D01*
X10141857Y-22188714D02*
X10178142Y-22225000D01*
X10141857Y-22261285D01*
X10105571Y-22225000D01*
X10141857Y-22188714D01*
X10141857Y-22261285D01*
X9815285Y-22914428D02*
X9742714Y-22950714D01*
X9597571Y-22950714D01*
X9525000Y-22914428D01*
X9488714Y-22841857D01*
X9488714Y-22805571D01*
X9525000Y-22733000D01*
X9597571Y-22696714D01*
X9706428Y-22696714D01*
X9779000Y-22660428D01*
X9815285Y-22587857D01*
X9815285Y-22551571D01*
X9779000Y-22479000D01*
X9706428Y-22442714D01*
X9597571Y-22442714D01*
X9525000Y-22479000D01*
X9198428Y-22914428D02*
X9125857Y-22950714D01*
X8980714Y-22950714D01*
X8908142Y-22914428D01*
X8871857Y-22841857D01*
X8871857Y-22805571D01*
X8908142Y-22733000D01*
X8980714Y-22696714D01*
X9089571Y-22696714D01*
X9162142Y-22660428D01*
X9198428Y-22587857D01*
X9198428Y-22551571D01*
X9162142Y-22479000D01*
X9089571Y-22442714D01*
X8980714Y-22442714D01*
X8908142Y-22479000D01*
X8218714Y-22950714D02*
X8218714Y-22551571D01*
X8255000Y-22479000D01*
X8327571Y-22442714D01*
X8472714Y-22442714D01*
X8545285Y-22479000D01*
X8218714Y-22914428D02*
X8291285Y-22950714D01*
X8472714Y-22950714D01*
X8545285Y-22914428D01*
X8581571Y-22841857D01*
X8581571Y-22769285D01*
X8545285Y-22696714D01*
X8472714Y-22660428D01*
X8291285Y-22660428D01*
X8218714Y-22624142D01*
X7855857Y-22442714D02*
X7855857Y-22950714D01*
X7855857Y-22515285D02*
X7819571Y-22479000D01*
X7747000Y-22442714D01*
X7638142Y-22442714D01*
X7565571Y-22479000D01*
X7529285Y-22551571D01*
X7529285Y-22950714D01*
X6658428Y-22188714D02*
X6186714Y-22188714D01*
X6440714Y-22479000D01*
X6331857Y-22479000D01*
X6259285Y-22515285D01*
X6223000Y-22551571D01*
X6186714Y-22624142D01*
X6186714Y-22805571D01*
X6223000Y-22878142D01*
X6259285Y-22914428D01*
X6331857Y-22950714D01*
X6549571Y-22950714D01*
X6622142Y-22914428D01*
X6658428Y-22878142D01*
X5932714Y-22188714D02*
X5424714Y-22188714D01*
X5751285Y-22950714D01*
X4989285Y-22188714D02*
X4916714Y-22188714D01*
X4844142Y-22225000D01*
X4807857Y-22261285D01*
X4771571Y-22333857D01*
X4735285Y-22479000D01*
X4735285Y-22660428D01*
X4771571Y-22805571D01*
X4807857Y-22878142D01*
X4844142Y-22914428D01*
X4916714Y-22950714D01*
X4989285Y-22950714D01*
X5061857Y-22914428D01*
X5098142Y-22878142D01*
X5134428Y-22805571D01*
X5170714Y-22660428D01*
X5170714Y-22479000D01*
X5134428Y-22333857D01*
X5098142Y-22261285D01*
X5061857Y-22225000D01*
X4989285Y-22188714D01*
X4481285Y-22188714D02*
X3973285Y-22188714D01*
X4481285Y-22950714D01*
X3973285Y-22950714D01*
X2884714Y-23241000D02*
X2921000Y-23204714D01*
X2993571Y-23095857D01*
X3029857Y-23023285D01*
X3066142Y-22914428D01*
X3102428Y-22733000D01*
X3102428Y-22587857D01*
X3066142Y-22406428D01*
X3029857Y-22297571D01*
X2993571Y-22225000D01*
X2921000Y-22116142D01*
X2884714Y-22079857D01*
X2594428Y-22188714D02*
X2594428Y-22805571D01*
X2558142Y-22878142D01*
X2521857Y-22914428D01*
X2449285Y-22950714D01*
X2304142Y-22950714D01*
X2231571Y-22914428D01*
X2195285Y-22878142D01*
X2159000Y-22805571D01*
X2159000Y-22188714D01*
X1796142Y-22442714D02*
X1796142Y-22950714D01*
X1796142Y-22515285D02*
X1759857Y-22479000D01*
X1687285Y-22442714D01*
X1578428Y-22442714D01*
X1505857Y-22479000D01*
X1469571Y-22551571D01*
X1469571Y-22950714D01*
X1106714Y-22950714D02*
X1106714Y-22442714D01*
X1106714Y-22188714D02*
X1143000Y-22225000D01*
X1106714Y-22261285D01*
X1070428Y-22225000D01*
X1106714Y-22188714D01*
X1106714Y-22261285D01*
X816428Y-22442714D02*
X635000Y-22950714D01*
X453571Y-22442714D01*
X-127000Y-22914428D02*
X-54429Y-22950714D01*
X90714Y-22950714D01*
X163285Y-22914428D01*
X199571Y-22841857D01*
X199571Y-22551571D01*
X163285Y-22479000D01*
X90714Y-22442714D01*
X-54429Y-22442714D01*
X-127000Y-22479000D01*
X-163286Y-22551571D01*
X-163286Y-22624142D01*
X199571Y-22696714D01*
X-489858Y-22950714D02*
X-489858Y-22442714D01*
X-489858Y-22587857D02*
X-526143Y-22515285D01*
X-562429Y-22479000D01*
X-635000Y-22442714D01*
X-707572Y-22442714D01*
X-925286Y-22914428D02*
X-997858Y-22950714D01*
X-1143000Y-22950714D01*
X-1215572Y-22914428D01*
X-1251858Y-22841857D01*
X-1251858Y-22805571D01*
X-1215572Y-22733000D01*
X-1143000Y-22696714D01*
X-1034143Y-22696714D01*
X-961572Y-22660428D01*
X-925286Y-22587857D01*
X-925286Y-22551571D01*
X-961572Y-22479000D01*
X-1034143Y-22442714D01*
X-1143000Y-22442714D01*
X-1215572Y-22479000D01*
X-1905000Y-22950714D02*
X-1905000Y-22551571D01*
X-1868715Y-22479000D01*
X-1796143Y-22442714D01*
X-1651000Y-22442714D01*
X-1578429Y-22479000D01*
X-1905000Y-22914428D02*
X-1832429Y-22950714D01*
X-1651000Y-22950714D01*
X-1578429Y-22914428D01*
X-1542143Y-22841857D01*
X-1542143Y-22769285D01*
X-1578429Y-22696714D01*
X-1651000Y-22660428D01*
X-1832429Y-22660428D01*
X-1905000Y-22624142D01*
X-2376715Y-22950714D02*
X-2304143Y-22914428D01*
X-2267858Y-22841857D01*
X-2267858Y-22188714D01*
X-2594429Y-23241000D02*
X-2630715Y-23204714D01*
X-2703286Y-23095857D01*
X-2739572Y-23023285D01*
X-2775858Y-22914428D01*
X-2812143Y-22733000D01*
X-2812143Y-22587857D01*
X-2775858Y-22406428D01*
X-2739572Y-22297571D01*
X-2703286Y-22225000D01*
X-2630715Y-22116142D01*
X-2594429Y-22079857D01*
X6549571Y-24246114D02*
X6549571Y-23484114D01*
X6549571Y-23846971D02*
X6114142Y-23846971D01*
X6114142Y-24246114D02*
X6114142Y-23484114D01*
X5823857Y-23484114D02*
X5642428Y-24246114D01*
X5497285Y-23701828D01*
X5352142Y-24246114D01*
X5170714Y-23484114D01*
X4372428Y-23738114D02*
X4191000Y-24246114D01*
X4009571Y-23738114D01*
X3320142Y-24246114D02*
X3755571Y-24246114D01*
X3537857Y-24246114D02*
X3537857Y-23484114D01*
X3610428Y-23592971D01*
X3683000Y-23665542D01*
X3755571Y-23701828D01*
X2993571Y-24173542D02*
X2957285Y-24209828D01*
X2993571Y-24246114D01*
X3029857Y-24209828D01*
X2993571Y-24173542D01*
X2993571Y-24246114D01*
X2485571Y-23484114D02*
X2413000Y-23484114D01*
X2340428Y-23520400D01*
X2304142Y-23556685D01*
X2267857Y-23629257D01*
X2231571Y-23774400D01*
X2231571Y-23955828D01*
X2267857Y-24100971D01*
X2304142Y-24173542D01*
X2340428Y-24209828D01*
X2413000Y-24246114D01*
X2485571Y-24246114D01*
X2558142Y-24209828D01*
X2594428Y-24173542D01*
X2630714Y-24100971D01*
X2667000Y-23955828D01*
X2667000Y-23774400D01*
X2630714Y-23629257D01*
X2594428Y-23556685D01*
X2558142Y-23520400D01*
X2485571Y-23484114D01*
X1905000Y-24246114D02*
X1905000Y-23484114D01*
X1905000Y-23774400D02*
X1832428Y-23738114D01*
X1687285Y-23738114D01*
X1614714Y-23774400D01*
X1578428Y-23810685D01*
X1542142Y-23883257D01*
X1542142Y-24100971D01*
X1578428Y-24173542D01*
X1614714Y-24209828D01*
X1687285Y-24246114D01*
X1832428Y-24246114D01*
X1905000Y-24209828D01*
D11*
X-21209000Y-16636000D03*
X-21209000Y-14636000D03*
X-21209000Y-12636000D03*
X-21209000Y-10636000D03*
D12*
X-21209000Y-8636000D03*
D13*
X-2310000Y23852000D03*
X-2310000Y20852000D03*
X-5310000Y23852000D03*
X-5310000Y20852000D03*
X6690000Y23852000D03*
X6690000Y20852000D03*
X3690000Y23852000D03*
X3690000Y20852000D03*
X690000Y23852000D03*
X690000Y20852000D03*
X-8310000Y23852000D03*
X-8310000Y20852000D03*
X-14310000Y23852000D03*
X-14310000Y20852000D03*
D14*
X-19460000Y28172000D03*
X11840000Y28172000D03*
D13*
X-17310000Y23852000D03*
X-11310000Y23852000D03*
X9690000Y23852000D03*
X9690000Y20852000D03*
X-11310000Y20852000D03*
X-17310000Y20852000D03*
D15*
X27813000Y8018000D03*
X24813000Y8018000D03*
X27813000Y11018000D03*
X24813000Y11018000D03*
X27813000Y14018000D03*
X24813000Y14018000D03*
X27813000Y17018000D03*
X24813000Y17018000D03*
X27813000Y23018000D03*
X24813000Y23018000D03*
D16*
X32133000Y28178000D03*
X32133000Y2858000D03*
D15*
X27813000Y26018000D03*
X27813000Y20018000D03*
X27813000Y5018000D03*
X24813000Y5018000D03*
X24813000Y20018000D03*
X24813000Y26018000D03*
D14*
X-28828000Y-28656000D03*
X-39148000Y-28656000D03*
D13*
X-30988000Y-24336000D03*
X-33988000Y-24336000D03*
X-36988000Y-24336000D03*
X-36988000Y-21336000D03*
X-30988000Y-21336000D03*
X-33988000Y-21336000D03*
D14*
X-13358000Y-28680000D03*
X-20678000Y-28680000D03*
D13*
X-15518000Y-24360000D03*
X-18518000Y-24360000D03*
X-18518000Y-21360000D03*
X-15518000Y-21360000D03*
D17*
X-36232000Y1727000D03*
X-36232000Y-1473000D03*
X-36232000Y127000D03*
X-37982000Y927000D03*
X-37982000Y-673000D03*
D18*
X-41557000Y3777000D03*
X-41557000Y-3523000D03*
D19*
X16637000Y-2413000D03*
X16637000Y2467000D03*
X-3851819Y-12932319D03*
X-7302500Y-16383000D03*
D20*
X16038000Y-19870000D03*
X16038000Y-13270000D03*
X19038000Y-28670000D03*
X16038000Y-28670000D03*
X19038000Y-26470000D03*
X16038000Y-26470000D03*
X19038000Y-24270000D03*
X16038000Y-24270000D03*
X19038000Y-22070000D03*
X16038000Y-22070000D03*
X19038000Y-19870000D03*
X19038000Y-17670000D03*
X16038000Y-17670000D03*
X19038000Y-15470000D03*
X16038000Y-15470000D03*
X19038000Y-13270000D03*
D21*
X-6159500Y14351000D03*
X-6159500Y13081000D03*
X-6159500Y11811000D03*
X-3619500Y11811000D03*
X-1079500Y11811000D03*
X-6159500Y10541000D03*
X-3619500Y10541000D03*
X-1079500Y10541000D03*
X-10668000Y28067000D03*
X-9398000Y28067000D03*
X-8128000Y28067000D03*
X-6858000Y28067000D03*
X-5588000Y28067000D03*
X-4318000Y28067000D03*
X-3048000Y28067000D03*
X-1778000Y28067000D03*
X-508000Y28067000D03*
X762000Y28067000D03*
X2032000Y28067000D03*
X3302000Y28067000D03*
X4572000Y28067000D03*
X5842000Y28067000D03*
X7112000Y28067000D03*
X8382000Y28067000D03*
X-11938000Y28067000D03*
X-7874000Y12446000D03*
X-8890000Y12446000D03*
X-10922000Y12446000D03*
X-9906000Y12446000D03*
X-3619500Y14351000D03*
X-1079500Y14351000D03*
X-1079500Y13081000D03*
X-3619500Y13081000D03*
X-20256500Y17208500D03*
X-21272500Y17208500D03*
X-22288500Y17208500D03*
X-20256500Y14922500D03*
X-21272500Y14922500D03*
X-22288500Y14922500D03*
X-24511000Y11112500D03*
X-21463000Y11112500D03*
X-22479000Y11112500D03*
X-23495000Y11112500D03*
X-13271500Y11112500D03*
X-14287500Y11112500D03*
X-16319500Y11112500D03*
X-15303500Y11112500D03*
X-17233900Y14516100D03*
X-18249900Y14516100D03*
X-19265900Y14516100D03*
X-28879800Y16129000D03*
X-28879800Y14859000D03*
X-28879800Y17399000D03*
X-28879800Y18669000D03*
X-27609800Y23495000D03*
X-28879800Y23495000D03*
X-30149800Y23495000D03*
X-26339800Y23495000D03*
X-31419800Y23495000D03*
X-28879800Y19685000D03*
X-28879800Y22225000D03*
X-28879800Y20955000D03*
X-25069800Y25298400D03*
X-26339800Y25298400D03*
X-28879800Y25298400D03*
X-27609800Y25298400D03*
X-23799800Y25298400D03*
X-24003000Y21653500D03*
X-22987000Y21653500D03*
X-21971000Y21653500D03*
X-19240500Y17208500D03*
X-18224500Y17208500D03*
X-17208500Y17208500D03*
X-12954000Y-8001000D03*
X-8001000Y-5715000D03*
X17259250Y14490750D03*
X17259250Y12941250D03*
X12573000Y-26924000D03*
X12573000Y-28194000D03*
X12573000Y-29464000D03*
X-25146000Y-22352000D03*
X-25146000Y-23368000D03*
X-25146000Y-24384000D03*
D22*
X20637500Y29273500D03*
X18351500Y29273500D03*
D21*
X9271000Y5842000D03*
X10672000Y-5211000D03*
X13081000Y5842000D03*
X8890000Y2540000D03*
X1460500Y12446000D03*
X2730500Y12446000D03*
X1397000Y10541000D03*
X-7810500Y14668500D03*
X-10668000Y-23495000D03*
X-7406640Y-8133080D03*
X-8255000Y-24257000D03*
X-8161020Y-8501380D03*
D23*
X-27051000Y-10414000D03*
X19304000Y9652000D03*
X-34417000Y-11430000D03*
X3683000Y-5969000D03*
D21*
X-9017000Y4064000D03*
X-10287000Y4064000D03*
X-7747000Y4064000D03*
D23*
X-3937000Y-6096000D03*
X13081000Y11430000D03*
X-9969500Y-6731000D03*
X-33401000Y-7112000D03*
X-38036500Y-6604000D03*
D21*
X-36068000Y18288000D03*
D23*
X22987000Y-508000D03*
X-12065000Y-254000D03*
D21*
X-10287000Y6096000D03*
X-9017000Y6096000D03*
X-7747000Y6096000D03*
D23*
X-9906000Y-21209000D03*
X-8255000Y-21209000D03*
X-33680500Y-2641500D03*
X-29654500Y8699500D03*
X-33147000Y21336000D03*
X-33147000Y19748500D03*
X-18415000Y-5207000D03*
X-13060680Y-11023600D03*
D21*
X-11484080Y-3184420D03*
X-14097000Y952500D03*
X-5969000Y-3429000D03*
X2159000Y-1397000D03*
X19812000Y8128000D03*
X254000Y2159000D03*
X18796000Y8128000D03*
X0Y3048000D03*
X-23241000Y2667000D03*
X-31178500Y11811000D03*
X-23114000Y3556000D03*
X-31093008Y10900000D03*
X-34544000Y-9525000D03*
X-10287000Y-4762500D03*
X-34290000Y-15430500D03*
X-10922000Y-5461000D03*
X-28321000Y-16129000D03*
X-25717500Y-8699500D03*
X14224000Y10287000D03*
X7112000Y9271000D03*
X11811000Y8763000D03*
X5588000Y9017000D03*
X4318000Y9017000D03*
X5080000Y12763500D03*
X5080000Y12001500D03*
X11811000Y9398000D03*
X-15397937Y-5999937D03*
X-22225000Y3683000D03*
X-37274500Y18732500D03*
X-19685000Y16129000D03*
X-25400000Y17208500D03*
X-28829000Y7302500D03*
X-21971000Y4572000D03*
D24*
X-12954000Y-8001000D02*
X-12509500Y-8001000D01*
X-12509500Y-8001000D02*
X-10223500Y-5715000D01*
X-10223500Y-5715000D02*
X-8001000Y-5715000D01*
X-21209000Y-14630400D02*
X-21209000Y-14636000D01*
X-19939000Y-13360400D02*
X-21209000Y-14630400D01*
X-19939000Y-9093200D02*
X-19939000Y-13360400D01*
X-12954000Y-8001000D02*
X-18846800Y-8001000D01*
X-18846800Y-8001000D02*
X-19939000Y-9093200D01*
D25*
X27813000Y26797000D02*
X27813000Y28956000D01*
D26*
X27813000Y26797000D02*
X27813000Y26018000D01*
D25*
X-11557000Y31432500D02*
X-17310000Y25679500D01*
X27813000Y28956000D02*
X25336500Y31432500D01*
X25336500Y31432500D02*
X-11557000Y31432500D01*
X-17310000Y25679500D02*
X-17310000Y23852000D01*
D26*
X-38989000Y-2667000D02*
X-40132000Y-1524000D01*
X-38989000Y-4445000D02*
X-38989000Y-2667000D01*
X-42037000Y-7493000D02*
X-38989000Y-4445000D01*
X-42037000Y-20510500D02*
X-42037000Y-7493000D01*
X-40132000Y-1524000D02*
X-40132000Y1778000D01*
X-36988000Y-24336000D02*
X-38211500Y-24336000D01*
X-38211500Y-24336000D02*
X-42037000Y-20510500D01*
X-40132000Y1778000D02*
X-37465000Y4445000D01*
X-37465000Y4445000D02*
X-37465000Y16065500D01*
X-37465000Y16065500D02*
X-38481000Y17081500D01*
X-38481000Y22479000D02*
X-33274000Y27686000D01*
X-38481000Y17081500D02*
X-38481000Y22479000D01*
X-33274000Y27686000D02*
X-23177500Y27686000D01*
X-23177500Y27686000D02*
X-19343500Y23852000D01*
X-19343500Y23852000D02*
X-17310000Y23852000D01*
D24*
X17272000Y14503500D02*
X17246500Y14478000D01*
X17272000Y14478000D02*
X17272000Y14503500D01*
X18923000Y12827000D02*
X17272000Y14478000D01*
X24511000Y12827000D02*
X18923000Y12827000D01*
X-1373000Y23852000D02*
X-2310000Y23852000D01*
X24813000Y14066000D02*
X24813000Y13129000D01*
X24813000Y13129000D02*
X24511000Y12827000D01*
X17246500Y14478000D02*
X3302000Y14478000D01*
X3302000Y14478000D02*
X-762000Y18542000D01*
X-762000Y18542000D02*
X-762000Y23241000D01*
X-762000Y23241000D02*
X-1373000Y23852000D01*
X17297500Y12928500D02*
X16256000Y13970000D01*
X18059500Y12928500D02*
X17297500Y12928500D01*
X18669000Y12319000D02*
X18059500Y12928500D01*
X24511000Y12319000D02*
X18669000Y12319000D01*
X24813000Y11066000D02*
X24813000Y12017000D01*
X24813000Y12017000D02*
X24511000Y12319000D01*
X16256000Y13970000D02*
X2921000Y13970000D01*
X2921000Y13970000D02*
X-2310000Y19201000D01*
X-2310000Y19201000D02*
X-2310000Y20852000D01*
D26*
X12573000Y-29464000D02*
X12573000Y-12319000D01*
X12573000Y-12319000D02*
X13970000Y-10922000D01*
X13970000Y-10922000D02*
X20574000Y-10922000D01*
X20574000Y-10922000D02*
X24813000Y-6683000D01*
X24813000Y-6683000D02*
X24813000Y5018000D01*
X13027000Y-26470000D02*
X16038000Y-26470000D01*
X-25146000Y-22352000D02*
X-25146000Y-23368000D01*
X-25146000Y-23368000D02*
X-25146000Y-24384000D01*
X-27178000Y-21336000D02*
X-26162000Y-21336000D01*
X-27178000Y-21336000D02*
X-30988000Y-21336000D01*
X-26162000Y-21336000D02*
X-25146000Y-22352000D01*
X19038000Y-24270000D02*
X19025000Y-24257000D01*
X19025000Y-24257000D02*
X21082000Y-24257000D01*
X21082000Y-24257000D02*
X22352000Y-22987000D01*
X22352000Y-22987000D02*
X29210000Y-22987000D01*
X29210000Y-22987000D02*
X29210000Y-30480000D01*
X-30988000Y-24336000D02*
X-28242000Y-24336000D01*
X-28242000Y-24336000D02*
X-25146000Y-27432000D01*
X-25146000Y-27432000D02*
X-25146000Y-30734000D01*
X-25146000Y-30734000D02*
X-23622000Y-32258000D01*
X-23622000Y-32258000D02*
X27432000Y-32258000D01*
X27432000Y-32258000D02*
X29210000Y-30480000D01*
X19051000Y-24257000D02*
X19038000Y-24270000D01*
X27813000Y-6604000D02*
X27813000Y5018000D01*
X29210000Y-22987000D02*
X29210000Y-8001000D01*
X29210000Y-8001000D02*
X27813000Y-6604000D01*
D24*
X24813000Y20066000D02*
X24511000Y20066000D01*
D26*
X22939000Y20018000D02*
X24813000Y20018000D01*
X21463000Y18542000D02*
X22939000Y20018000D01*
X6690000Y20852000D02*
X9000000Y18542000D01*
X9000000Y18542000D02*
X21463000Y18542000D01*
D25*
X23002500Y29273500D02*
X24813000Y27463000D01*
X24813000Y27463000D02*
X24813000Y26797000D01*
D26*
X24813000Y26018000D02*
X24813000Y27463000D01*
D25*
X23002500Y29273500D02*
X18351500Y29273500D01*
D27*
X12358500Y23852000D02*
X9690000Y23852000D01*
X27813000Y23368000D02*
X26670000Y24511000D01*
X26670000Y24511000D02*
X23622000Y24511000D01*
X23622000Y24511000D02*
X20764500Y27368500D01*
X27813000Y23018000D02*
X27813000Y23368000D01*
X20764500Y27368500D02*
X15875000Y27368500D01*
X15875000Y27368500D02*
X12358500Y23852000D01*
X23431500Y18478500D02*
X26273500Y18478500D01*
X3690000Y23852000D02*
X4723000Y23852000D01*
X5207000Y23368000D02*
X5207000Y19431000D01*
X26273500Y18478500D02*
X27813000Y20018000D01*
X5207000Y19431000D02*
X7366000Y17272000D01*
X4723000Y23852000D02*
X5207000Y23368000D01*
X7366000Y17272000D02*
X22225000Y17272000D01*
X22225000Y17272000D02*
X23431500Y18478500D01*
D24*
X23241000Y17018000D02*
X24813000Y17018000D01*
X22733000Y16510000D02*
X23241000Y17018000D01*
X6985000Y16510000D02*
X22733000Y16510000D01*
X4445000Y19050000D02*
X6985000Y16510000D01*
X3690000Y20852000D02*
X4445000Y20097000D01*
X4445000Y20097000D02*
X4445000Y19050000D01*
X1611500Y23852000D02*
X2159000Y23304500D01*
X690000Y23852000D02*
X1611500Y23852000D01*
X2159000Y23304500D02*
X2159000Y19240500D01*
X27813000Y16129000D02*
X27813000Y17018000D01*
X2159000Y19240500D02*
X5588000Y15811500D01*
X5588000Y15811500D02*
X27495500Y15811500D01*
X27495500Y15811500D02*
X27813000Y16129000D01*
D26*
X24813000Y23066000D02*
X24432000Y23066000D01*
X9777500Y20764500D02*
X9690000Y20852000D01*
X12573000Y20764500D02*
X9777500Y20764500D01*
X13208000Y20129500D02*
X12573000Y20764500D01*
X20574000Y20129500D02*
X13208000Y20129500D01*
X24813000Y23018000D02*
X23462500Y23018000D01*
X23462500Y23018000D02*
X20574000Y20129500D01*
D24*
X690000Y19249000D02*
X690000Y20852000D01*
X4699000Y15240000D02*
X690000Y19249000D01*
X27495500Y15240000D02*
X4699000Y15240000D01*
X27813000Y14018000D02*
X27813000Y14922500D01*
X27813000Y14922500D02*
X27495500Y15240000D01*
X9271000Y5334000D02*
X9271000Y5842000D01*
X8128000Y4191000D02*
X9271000Y5334000D01*
X10672000Y-5211000D02*
X8128000Y-2667000D01*
X8128000Y-2667000D02*
X8128000Y4191000D01*
X12446000Y5842000D02*
X13081000Y5842000D01*
X10477500Y5842000D02*
X12446000Y5842000D01*
X8890000Y2540000D02*
X8890000Y4254500D01*
X8890000Y4254500D02*
X10477500Y5842000D01*
X1460500Y12446000D02*
X1458000Y12443500D01*
D28*
X2730500Y12446000D02*
X1460500Y12446000D01*
D24*
X1460500Y10604500D02*
X1397000Y10541000D01*
X1460500Y12446000D02*
X1460500Y10604500D01*
D28*
X1460500Y13779500D02*
X1460500Y12446000D01*
X-762000Y16002000D02*
X1460500Y13779500D01*
X-6794500Y16002000D02*
X-762000Y16002000D01*
X-7810500Y14668500D02*
X-7810500Y14986000D01*
X-7810500Y14986000D02*
X-6794500Y16002000D01*
D24*
X-15034000Y-21844000D02*
X-15518000Y-21360000D01*
X-12803000Y-21360000D02*
X-15518000Y-21360000D01*
X-10668000Y-23495000D02*
X-12803000Y-21360000D01*
X-15518000Y-20090000D02*
X-15518000Y-21360000D01*
X-15518000Y-17994500D02*
X-15518000Y-20090000D01*
X-7366000Y-9842500D02*
X-15518000Y-17994500D01*
X-7406640Y-8133080D02*
X-7366000Y-8173720D01*
X-7366000Y-8173720D02*
X-7366000Y-9842500D01*
X-17613500Y-21360000D02*
X-18518000Y-21360000D01*
X-17018000Y-20764500D02*
X-17613500Y-21360000D01*
X-17018000Y-17907000D02*
X-17018000Y-20764500D01*
X-8161020Y-8501380D02*
X-8161020Y-9050020D01*
X-8161020Y-9050020D02*
X-17018000Y-17907000D01*
X-18518000Y-22630000D02*
X-18518000Y-21360000D01*
X-18288000Y-22860000D02*
X-18518000Y-22630000D01*
X-14478000Y-22860000D02*
X-18288000Y-22860000D01*
X-12319000Y-25019000D02*
X-14478000Y-22860000D01*
X-8255000Y-24257000D02*
X-9017000Y-25019000D01*
X-9017000Y-25019000D02*
X-12319000Y-25019000D01*
X-14097000Y952500D02*
X-14097000Y-508000D01*
X-14097000Y-508000D02*
X-11484080Y-3120920D01*
X-11484080Y-3120920D02*
X-11484080Y-3184420D01*
X381000Y-3175000D02*
X2159000Y-1397000D01*
X-5969000Y-3429000D02*
X-5715000Y-3175000D01*
X-5715000Y-3175000D02*
X381000Y-3175000D01*
X19050000Y7366000D02*
X19812000Y8128000D01*
X254000Y2159000D02*
X5461000Y7366000D01*
X5461000Y7366000D02*
X19050000Y7366000D01*
X18542000Y7874000D02*
X18796000Y8128000D01*
X5207000Y7874000D02*
X18542000Y7874000D01*
X0Y3048000D02*
X381000Y3048000D01*
X381000Y3048000D02*
X5207000Y7874000D01*
X-23876000Y3302000D02*
X-23241000Y2667000D01*
X-27241500Y3302000D02*
X-23876000Y3302000D01*
X-31750000Y7810500D02*
X-27241500Y3302000D01*
X-31750000Y11315710D02*
X-31750000Y7810500D01*
X-31178500Y11811000D02*
X-31254710Y11811000D01*
X-31254710Y11811000D02*
X-31750000Y11315710D01*
X-31093008Y7852008D02*
X-31093008Y10900000D01*
X-27051000Y3810000D02*
X-31093008Y7852008D01*
X-23495000Y3810000D02*
X-27051000Y3810000D01*
X-23114000Y3556000D02*
X-23241000Y3556000D01*
X-23241000Y3556000D02*
X-23495000Y3810000D01*
X-35369500Y-10350500D02*
X-34544000Y-9525000D01*
X-35369500Y-11874500D02*
X-35369500Y-10350500D01*
X-34290000Y-15430500D02*
X-34290000Y-12954000D01*
X-34290000Y-12954000D02*
X-35369500Y-11874500D01*
X-34539000Y-9530000D02*
X-34544000Y-9525000D01*
X-27945000Y-9530000D02*
X-34539000Y-9530000D01*
X-24511000Y-6096000D02*
X-27945000Y-9530000D01*
X-17526000Y-6096000D02*
X-24511000Y-6096000D01*
X-10287000Y-4762500D02*
X-16192500Y-4762500D01*
X-16192500Y-4762500D02*
X-17526000Y-6096000D01*
X-28321000Y-10668000D02*
X-28321000Y-16129000D01*
X-26352500Y-8699500D02*
X-28321000Y-10668000D01*
X-25717500Y-8699500D02*
X-26352500Y-8699500D01*
X-11049000Y-5334000D02*
X-10922000Y-5461000D01*
X-15875000Y-5334000D02*
X-11049000Y-5334000D01*
X-17145000Y-6604000D02*
X-15875000Y-5334000D01*
X-24193500Y-6604000D02*
X-17145000Y-6604000D01*
X-25717500Y-8699500D02*
X-25717500Y-8128000D01*
X-25717500Y-8128000D02*
X-24193500Y-6604000D01*
X-19888200Y-7315200D02*
X-21209000Y-8636000D01*
X-16687800Y-7315200D02*
X-19888200Y-7315200D01*
X-15397937Y-5999937D02*
X-16687800Y-7289800D01*
X-16687800Y-7289800D02*
X-16687800Y-7315200D01*
X-31686500Y13398500D02*
X-30416500Y12128500D01*
X-31686500Y16065500D02*
X-31686500Y13398500D01*
X-33147000Y17526000D02*
X-31686500Y16065500D01*
X-37274500Y18351500D02*
X-36449000Y17526000D01*
X-30416500Y12128500D02*
X-30416500Y7937500D01*
X-36449000Y17526000D02*
X-33147000Y17526000D01*
X-37274500Y18732500D02*
X-37274500Y18351500D01*
X-30416500Y7937500D02*
X-26797000Y4318000D01*
X-26797000Y4318000D02*
X-22796500Y4318000D01*
X-22796500Y4318000D02*
X-22225000Y3746500D01*
X-22225000Y3746500D02*
X-22225000Y3683000D01*
X-24320500Y16129000D02*
X-25400000Y17208500D01*
X-19685000Y16129000D02*
X-24320500Y16129000D01*
X-28829000Y7112000D02*
X-28829000Y7302500D01*
X-26543000Y4826000D02*
X-28829000Y7112000D01*
X-21971000Y4572000D02*
X-22225000Y4826000D01*
X-22225000Y4826000D02*
X-26543000Y4826000D01*
G36*
X-32448500Y21749684D02*
G01*
X-32448500Y19558000D01*
X-32441179Y19483671D01*
X-32419498Y19412198D01*
X-32384290Y19346328D01*
X-32336908Y19288592D01*
X-32082908Y19034592D01*
X-32025172Y18987210D01*
X-31959302Y18952002D01*
X-31887829Y18930321D01*
X-31813500Y18923000D01*
X-29558316Y18923000D01*
X-29538747Y18903431D01*
X-29551457Y18872745D01*
X-29578300Y18737796D01*
X-29578300Y18600204D01*
X-29551457Y18465255D01*
X-29527500Y18407417D01*
X-29527500Y17660583D01*
X-29551457Y17602745D01*
X-29578300Y17467796D01*
X-29578300Y17330204D01*
X-29551457Y17195255D01*
X-29527500Y17137417D01*
X-29527500Y16390583D01*
X-29551457Y16332745D01*
X-29578300Y16197796D01*
X-29578300Y16060204D01*
X-29551457Y15925255D01*
X-29527500Y15867417D01*
X-29527500Y15120583D01*
X-29551457Y15062745D01*
X-29578300Y14927796D01*
X-29578300Y14790204D01*
X-29551457Y14655255D01*
X-29527500Y14597417D01*
X-29527500Y14478000D01*
X-29518305Y14394802D01*
X-29494930Y14323865D01*
X-29306985Y13899006D01*
X-29264918Y13826640D01*
X-29214843Y13771224D01*
X-23304233Y8397942D01*
X-23252021Y8358123D01*
X-23185332Y8324492D01*
X-22743387Y8153633D01*
X-22680329Y8135321D01*
X-22606000Y8128000D01*
X3048000Y8128000D01*
X3122329Y8135321D01*
X3193802Y8157002D01*
X3259672Y8192210D01*
X3317408Y8239592D01*
X3402698Y8324882D01*
X3577790Y8149790D01*
X3654770Y8086613D01*
X3742597Y8039669D01*
X3837894Y8010761D01*
X3937000Y8001000D01*
X4615580Y8001000D01*
X296017Y3681437D01*
X203745Y3719657D01*
X68796Y3746500D01*
X-68796Y3746500D01*
X-203745Y3719657D01*
X-330864Y3667003D01*
X-445268Y3590561D01*
X-542561Y3493268D01*
X-619003Y3378864D01*
X-671657Y3251745D01*
X-698500Y3116796D01*
X-698500Y2979204D01*
X-671657Y2844255D01*
X-619003Y2717136D01*
X-542561Y2602732D01*
X-445268Y2505439D01*
X-377349Y2460057D01*
X-417657Y2362745D01*
X-444500Y2227796D01*
X-444500Y2090204D01*
X-417657Y1955255D01*
X-365003Y1828136D01*
X-288561Y1713732D01*
X-191268Y1616439D01*
X-76864Y1539997D01*
X50255Y1487343D01*
X185204Y1460500D01*
X322796Y1460500D01*
X457745Y1487343D01*
X584864Y1539997D01*
X699268Y1616439D01*
X796561Y1713732D01*
X873003Y1828136D01*
X925657Y1955255D01*
X952500Y2090204D01*
X952500Y2139080D01*
X3004420Y4191000D01*
X7617543Y4191000D01*
X7620001Y4166046D01*
X7620000Y-2642056D01*
X7617543Y-2667000D01*
X7620000Y-2691944D01*
X7620000Y-2691946D01*
X7627351Y-2766584D01*
X7656399Y-2862342D01*
X7703571Y-2950595D01*
X7767052Y-3027948D01*
X7786435Y-3043855D01*
X9973500Y-5230921D01*
X9973500Y-5279796D01*
X10000343Y-5414745D01*
X10052997Y-5541864D01*
X10129439Y-5656268D01*
X10226732Y-5753561D01*
X10341136Y-5830003D01*
X10468255Y-5882657D01*
X10603204Y-5909500D01*
X10740796Y-5909500D01*
X10875745Y-5882657D01*
X11002864Y-5830003D01*
X11117268Y-5753561D01*
X11214561Y-5656268D01*
X11291003Y-5541864D01*
X11343657Y-5414745D01*
X11370500Y-5279796D01*
X11370500Y-5142204D01*
X11343657Y-5007255D01*
X11291003Y-4880136D01*
X11214561Y-4765732D01*
X11117268Y-4668439D01*
X11002864Y-4591997D01*
X10875745Y-4539343D01*
X10740796Y-4512500D01*
X10691921Y-4512500D01*
X8636000Y-2456580D01*
X8636000Y-2301606D01*
X15506000Y-2301606D01*
X15506000Y-2524394D01*
X15549464Y-2742900D01*
X15634721Y-2948729D01*
X15758495Y-3133970D01*
X15916030Y-3291505D01*
X16101271Y-3415279D01*
X16307100Y-3500536D01*
X16525606Y-3544000D01*
X16748394Y-3544000D01*
X16966900Y-3500536D01*
X17172729Y-3415279D01*
X17357970Y-3291505D01*
X17515505Y-3133970D01*
X17639279Y-2948729D01*
X17724536Y-2742900D01*
X17768000Y-2524394D01*
X17768000Y-2301606D01*
X17724536Y-2083100D01*
X17639279Y-1877271D01*
X17515505Y-1692030D01*
X17357970Y-1534495D01*
X17172729Y-1410721D01*
X16966900Y-1325464D01*
X16748394Y-1282000D01*
X16525606Y-1282000D01*
X16307100Y-1325464D01*
X16101271Y-1410721D01*
X15916030Y-1534495D01*
X15758495Y-1692030D01*
X15634721Y-1877271D01*
X15549464Y-2083100D01*
X15506000Y-2301606D01*
X8636000Y-2301606D01*
X8636000Y1889159D01*
X8686255Y1868343D01*
X8821204Y1841500D01*
X8958796Y1841500D01*
X9093745Y1868343D01*
X9220864Y1920997D01*
X9335268Y1997439D01*
X9432561Y2094732D01*
X9509003Y2209136D01*
X9561657Y2336255D01*
X9588500Y2471204D01*
X9588500Y2578394D01*
X15506000Y2578394D01*
X15506000Y2355606D01*
X15549464Y2137100D01*
X15634721Y1931271D01*
X15758495Y1746030D01*
X15916030Y1588495D01*
X16101271Y1464721D01*
X16307100Y1379464D01*
X16525606Y1336000D01*
X16748394Y1336000D01*
X16966900Y1379464D01*
X17172729Y1464721D01*
X17357970Y1588495D01*
X17515505Y1746030D01*
X17639279Y1931271D01*
X17724536Y2137100D01*
X17768000Y2355606D01*
X17768000Y2578394D01*
X17724536Y2796900D01*
X17639279Y3002729D01*
X17515505Y3187970D01*
X17357970Y3345505D01*
X17172729Y3469279D01*
X16966900Y3554536D01*
X16748394Y3598000D01*
X16525606Y3598000D01*
X16307100Y3554536D01*
X16101271Y3469279D01*
X15916030Y3345505D01*
X15758495Y3187970D01*
X15634721Y3002729D01*
X15549464Y2796900D01*
X15506000Y2578394D01*
X9588500Y2578394D01*
X9588500Y2608796D01*
X9561657Y2743745D01*
X9509003Y2870864D01*
X9432561Y2985268D01*
X9398000Y3019829D01*
X9398000Y4044080D01*
X10687921Y5334000D01*
X12601171Y5334000D01*
X12635732Y5299439D01*
X12750136Y5222997D01*
X12877255Y5170343D01*
X13012204Y5143500D01*
X13149796Y5143500D01*
X13284745Y5170343D01*
X13411864Y5222997D01*
X13526268Y5299439D01*
X13623561Y5396732D01*
X13700003Y5511136D01*
X13752657Y5638255D01*
X13779500Y5773204D01*
X13779500Y5910796D01*
X13752657Y6045745D01*
X13700003Y6172864D01*
X13623561Y6287268D01*
X13526268Y6384561D01*
X13411864Y6461003D01*
X13284745Y6513657D01*
X13149796Y6540500D01*
X13012204Y6540500D01*
X12877255Y6513657D01*
X12750136Y6461003D01*
X12635732Y6384561D01*
X12601171Y6350000D01*
X10502443Y6350000D01*
X10477499Y6352457D01*
X10452555Y6350000D01*
X10452553Y6350000D01*
X10377915Y6342649D01*
X10282157Y6313601D01*
X10248033Y6295361D01*
X10193904Y6266429D01*
X10144243Y6225673D01*
X10116552Y6202948D01*
X10100650Y6183571D01*
X9946003Y6028924D01*
X9942657Y6045745D01*
X9890003Y6172864D01*
X9813561Y6287268D01*
X9716268Y6384561D01*
X9601864Y6461003D01*
X9474745Y6513657D01*
X9339796Y6540500D01*
X9202204Y6540500D01*
X9067255Y6513657D01*
X8940136Y6461003D01*
X8825732Y6384561D01*
X8728439Y6287268D01*
X8651997Y6172864D01*
X8599343Y6045745D01*
X8572500Y5910796D01*
X8572500Y5773204D01*
X8599343Y5638255D01*
X8651997Y5511136D01*
X8683126Y5464547D01*
X7786430Y4567850D01*
X7767053Y4551948D01*
X7751151Y4532571D01*
X7751150Y4532570D01*
X7703571Y4474595D01*
X7661080Y4395099D01*
X7656400Y4386343D01*
X7633439Y4310649D01*
X7627352Y4290584D01*
X7617543Y4191000D01*
X3004420Y4191000D01*
X5671421Y6858000D01*
X19025056Y6858000D01*
X19050000Y6855543D01*
X19074944Y6858000D01*
X19074947Y6858000D01*
X19149585Y6865351D01*
X19245343Y6894399D01*
X19333595Y6941571D01*
X19410948Y7005052D01*
X19426855Y7024435D01*
X19831920Y7429500D01*
X19880796Y7429500D01*
X20015745Y7456343D01*
X20142864Y7508997D01*
X20257268Y7585439D01*
X20354561Y7682732D01*
X20431003Y7797136D01*
X20483657Y7924255D01*
X20510500Y8059204D01*
X20510500Y8196796D01*
X20483657Y8331745D01*
X20431003Y8458864D01*
X20354561Y8573268D01*
X20257268Y8670561D01*
X20142864Y8747003D01*
X20015745Y8799657D01*
X19880796Y8826500D01*
X19743204Y8826500D01*
X19608255Y8799657D01*
X19481136Y8747003D01*
X19366732Y8670561D01*
X19304000Y8607829D01*
X19241268Y8670561D01*
X19126864Y8747003D01*
X18999745Y8799657D01*
X18864796Y8826500D01*
X18727204Y8826500D01*
X18592255Y8799657D01*
X18465136Y8747003D01*
X18350732Y8670561D01*
X18253439Y8573268D01*
X18176997Y8458864D01*
X18145159Y8382000D01*
X12783420Y8382000D01*
X12805210Y8403790D01*
X12868387Y8480770D01*
X12915331Y8568597D01*
X12944239Y8663894D01*
X12954000Y8763000D01*
X12954000Y9017000D01*
X14478000Y9017000D01*
X14577106Y9026761D01*
X14672403Y9055669D01*
X14760230Y9102613D01*
X14837210Y9165790D01*
X15091210Y9419790D01*
X15154387Y9496770D01*
X15201331Y9584597D01*
X15230239Y9679894D01*
X15240000Y9779000D01*
X15240000Y10541000D01*
X15230239Y10640106D01*
X15201331Y10735403D01*
X15154387Y10823230D01*
X15091210Y10900210D01*
X14837210Y11154210D01*
X14760230Y11217387D01*
X14672403Y11264331D01*
X14577106Y11293239D01*
X14478000Y11303000D01*
X6096000Y11303000D01*
X6096000Y13335000D01*
X6086239Y13434106D01*
X6077777Y13462000D01*
X16045580Y13462000D01*
X16560750Y12946829D01*
X16560750Y12872454D01*
X16587593Y12737505D01*
X16640247Y12610386D01*
X16716689Y12495982D01*
X16813982Y12398689D01*
X16928386Y12322247D01*
X17055505Y12269593D01*
X17190454Y12242750D01*
X17328046Y12242750D01*
X17462995Y12269593D01*
X17590114Y12322247D01*
X17704518Y12398689D01*
X17726329Y12420500D01*
X17849080Y12420500D01*
X18292149Y11977430D01*
X18308052Y11958052D01*
X18327429Y11942150D01*
X18385404Y11894571D01*
X18473655Y11847400D01*
X18473657Y11847399D01*
X18569415Y11818351D01*
X18644053Y11811000D01*
X18644055Y11811000D01*
X18668999Y11808543D01*
X18693943Y11811000D01*
X23114000Y11811000D01*
X23114000Y4445000D01*
X23114907Y4429850D01*
X23120285Y4405541D01*
X23130303Y4382749D01*
X23144574Y4362349D01*
X23797001Y3601184D01*
X23797000Y-6262159D01*
X20153160Y-9906000D01*
X14019893Y-9906000D01*
X13969999Y-9901086D01*
X13920105Y-9906000D01*
X13920098Y-9906000D01*
X13790177Y-9918796D01*
X13770828Y-9920702D01*
X13712732Y-9938326D01*
X13579313Y-9978798D01*
X13402810Y-10073140D01*
X13248104Y-10200104D01*
X13216293Y-10238866D01*
X11889868Y-11565292D01*
X11851105Y-11597104D01*
X11724141Y-11751810D01*
X11652585Y-11885683D01*
X11629799Y-11928313D01*
X11571702Y-12119830D01*
X11552085Y-12319000D01*
X11557001Y-12368912D01*
X11557001Y-19558000D01*
X-6985000Y-19558000D01*
X-7009776Y-19560440D01*
X-7033601Y-19567667D01*
X-7055557Y-19579403D01*
X-7074803Y-19595197D01*
X-7328803Y-19849197D01*
X-7344597Y-19868443D01*
X-7356333Y-19890399D01*
X-7363560Y-19914224D01*
X-7366000Y-19939000D01*
X-7366000Y-21971000D01*
X-10795000Y-21971000D01*
X-10795000Y-19939000D01*
X-10797440Y-19914224D01*
X-10804667Y-19890399D01*
X-10816403Y-19868443D01*
X-10832197Y-19849197D01*
X-11086197Y-19595197D01*
X-11105443Y-19579403D01*
X-11127399Y-19567667D01*
X-11151224Y-19560440D01*
X-11176000Y-19558000D01*
X-15010000Y-19558000D01*
X-15010000Y-18204920D01*
X-13076686Y-16271606D01*
X-8433500Y-16271606D01*
X-8433500Y-16494394D01*
X-8390036Y-16712900D01*
X-8304779Y-16918729D01*
X-8181005Y-17103970D01*
X-8023470Y-17261505D01*
X-7838229Y-17385279D01*
X-7632400Y-17470536D01*
X-7413894Y-17514000D01*
X-7191106Y-17514000D01*
X-6972600Y-17470536D01*
X-6766771Y-17385279D01*
X-6581530Y-17261505D01*
X-6423995Y-17103970D01*
X-6300221Y-16918729D01*
X-6214964Y-16712900D01*
X-6171500Y-16494394D01*
X-6171500Y-16271606D01*
X-6214964Y-16053100D01*
X-6300221Y-15847271D01*
X-6423995Y-15662030D01*
X-6581530Y-15504495D01*
X-6766771Y-15380721D01*
X-6972600Y-15295464D01*
X-7191106Y-15252000D01*
X-7413894Y-15252000D01*
X-7632400Y-15295464D01*
X-7838229Y-15380721D01*
X-8023470Y-15504495D01*
X-8181005Y-15662030D01*
X-8304779Y-15847271D01*
X-8390036Y-16053100D01*
X-8433500Y-16271606D01*
X-13076686Y-16271606D01*
X-9626005Y-12820925D01*
X-4982819Y-12820925D01*
X-4982819Y-13043713D01*
X-4939355Y-13262219D01*
X-4854098Y-13468048D01*
X-4730324Y-13653289D01*
X-4572789Y-13810824D01*
X-4387548Y-13934598D01*
X-4181719Y-14019855D01*
X-3963213Y-14063319D01*
X-3740425Y-14063319D01*
X-3521919Y-14019855D01*
X-3316090Y-13934598D01*
X-3130849Y-13810824D01*
X-2973314Y-13653289D01*
X-2849540Y-13468048D01*
X-2764283Y-13262219D01*
X-2720819Y-13043713D01*
X-2720819Y-12820925D01*
X-2764283Y-12602419D01*
X-2849540Y-12396590D01*
X-2973314Y-12211349D01*
X-3130849Y-12053814D01*
X-3316090Y-11930040D01*
X-3521919Y-11844783D01*
X-3740425Y-11801319D01*
X-3963213Y-11801319D01*
X-4181719Y-11844783D01*
X-4387548Y-11930040D01*
X-4572789Y-12053814D01*
X-4730324Y-12211349D01*
X-4854098Y-12396590D01*
X-4939355Y-12602419D01*
X-4982819Y-12820925D01*
X-9626005Y-12820925D01*
X-7024429Y-10219350D01*
X-7005052Y-10203448D01*
X-6971398Y-10162440D01*
X-6941571Y-10126096D01*
X-6899015Y-10046479D01*
X-6894399Y-10037843D01*
X-6865351Y-9942085D01*
X-6858000Y-9867447D01*
X-6858000Y-9867444D01*
X-6855543Y-9842500D01*
X-6858000Y-9817556D01*
X-6858000Y-8569250D01*
X-6787637Y-8463944D01*
X-6734983Y-8336825D01*
X-6708140Y-8201876D01*
X-6708140Y-8064284D01*
X-6734983Y-7929335D01*
X-6787637Y-7802216D01*
X-6864079Y-7687812D01*
X-6961372Y-7590519D01*
X-7075776Y-7514077D01*
X-7202895Y-7461423D01*
X-7337844Y-7434580D01*
X-7475436Y-7434580D01*
X-7610385Y-7461423D01*
X-7737504Y-7514077D01*
X-7851908Y-7590519D01*
X-7949201Y-7687812D01*
X-8025643Y-7802216D01*
X-8030965Y-7815065D01*
X-8092224Y-7802880D01*
X-8229816Y-7802880D01*
X-8364765Y-7829723D01*
X-8491884Y-7882377D01*
X-8606288Y-7958819D01*
X-8703581Y-8056112D01*
X-8780023Y-8170516D01*
X-8832677Y-8297635D01*
X-8859520Y-8432584D01*
X-8859520Y-8570176D01*
X-8832677Y-8705125D01*
X-8780023Y-8832244D01*
X-8732616Y-8903195D01*
X-17359565Y-17530145D01*
X-17378948Y-17546052D01*
X-17442429Y-17623405D01*
X-17489601Y-17711658D01*
X-17518649Y-17807416D01*
X-17526000Y-17882053D01*
X-17528457Y-17907000D01*
X-17526000Y-17931944D01*
X-17525999Y-19558000D01*
X-41021000Y-19558000D01*
X-41021000Y-10350500D01*
X-35879957Y-10350500D01*
X-35877499Y-10375454D01*
X-35877500Y-11849555D01*
X-35879957Y-11874500D01*
X-35877500Y-11899444D01*
X-35877500Y-11899446D01*
X-35870149Y-11974084D01*
X-35841101Y-12069842D01*
X-35793929Y-12158095D01*
X-35730448Y-12235448D01*
X-35711065Y-12251355D01*
X-34797999Y-13164421D01*
X-34798000Y-14950671D01*
X-34832561Y-14985232D01*
X-34909003Y-15099636D01*
X-34961657Y-15226755D01*
X-34988500Y-15361704D01*
X-34988500Y-15499296D01*
X-34961657Y-15634245D01*
X-34909003Y-15761364D01*
X-34832561Y-15875768D01*
X-34735268Y-15973061D01*
X-34620864Y-16049503D01*
X-34493745Y-16102157D01*
X-34358796Y-16129000D01*
X-34221204Y-16129000D01*
X-34086255Y-16102157D01*
X-33959136Y-16049503D01*
X-33844732Y-15973061D01*
X-33747439Y-15875768D01*
X-33670997Y-15761364D01*
X-33618343Y-15634245D01*
X-33591500Y-15499296D01*
X-33591500Y-15361704D01*
X-33618343Y-15226755D01*
X-33670997Y-15099636D01*
X-33747439Y-14985232D01*
X-33782000Y-14950671D01*
X-33782000Y-12978944D01*
X-33779543Y-12954000D01*
X-33782000Y-12929053D01*
X-33789351Y-12854415D01*
X-33818399Y-12758657D01*
X-33865571Y-12670405D01*
X-33929052Y-12593052D01*
X-33948435Y-12577145D01*
X-34861500Y-11664080D01*
X-34861500Y-10560920D01*
X-34524079Y-10223500D01*
X-34475204Y-10223500D01*
X-34340255Y-10196657D01*
X-34213136Y-10144003D01*
X-34098732Y-10067561D01*
X-34069171Y-10038000D01*
X-28409420Y-10038000D01*
X-28662565Y-10291145D01*
X-28681948Y-10307052D01*
X-28745429Y-10384405D01*
X-28792601Y-10472658D01*
X-28821649Y-10568416D01*
X-28828305Y-10636000D01*
X-28831457Y-10668000D01*
X-28829000Y-10692944D01*
X-28828999Y-15649170D01*
X-28863561Y-15683732D01*
X-28940003Y-15798136D01*
X-28992657Y-15925255D01*
X-29019500Y-16060204D01*
X-29019500Y-16197796D01*
X-28992657Y-16332745D01*
X-28940003Y-16459864D01*
X-28863561Y-16574268D01*
X-28766268Y-16671561D01*
X-28651864Y-16748003D01*
X-28524745Y-16800657D01*
X-28389796Y-16827500D01*
X-28252204Y-16827500D01*
X-28117255Y-16800657D01*
X-27990136Y-16748003D01*
X-27875732Y-16671561D01*
X-27778439Y-16574268D01*
X-27701997Y-16459864D01*
X-27649343Y-16332745D01*
X-27622500Y-16197796D01*
X-27622500Y-16060204D01*
X-27649343Y-15925255D01*
X-27701997Y-15798136D01*
X-27778439Y-15683732D01*
X-27813000Y-15649171D01*
X-27813000Y-10878420D01*
X-26169704Y-9235125D01*
X-26162768Y-9242061D01*
X-26048364Y-9318503D01*
X-25921245Y-9371157D01*
X-25786296Y-9398000D01*
X-25648704Y-9398000D01*
X-25513755Y-9371157D01*
X-25386636Y-9318503D01*
X-25272232Y-9242061D01*
X-25174939Y-9144768D01*
X-25098497Y-9030364D01*
X-25045843Y-8903245D01*
X-25019000Y-8768296D01*
X-25019000Y-8630704D01*
X-25045843Y-8495755D01*
X-25098497Y-8368636D01*
X-25155061Y-8283981D01*
X-23983079Y-7112000D01*
X-20403421Y-7112000D01*
X-20869578Y-7578157D01*
X-21884000Y-7578157D01*
X-21958689Y-7585513D01*
X-22030508Y-7607299D01*
X-22096696Y-7642678D01*
X-22154711Y-7690289D01*
X-22202322Y-7748304D01*
X-22237701Y-7814492D01*
X-22259487Y-7886311D01*
X-22266843Y-7961000D01*
X-22266843Y-9311000D01*
X-22259487Y-9385689D01*
X-22237701Y-9457508D01*
X-22202322Y-9523696D01*
X-22154711Y-9581711D01*
X-22096696Y-9629322D01*
X-22030508Y-9664701D01*
X-21958689Y-9686487D01*
X-21884000Y-9693843D01*
X-21686499Y-9693843D01*
X-21798521Y-9753720D01*
X-21959317Y-9885683D01*
X-22091280Y-10046479D01*
X-22189337Y-10229931D01*
X-22249720Y-10428988D01*
X-22270109Y-10636000D01*
X-22249720Y-10843012D01*
X-22189337Y-11042069D01*
X-22091280Y-11225521D01*
X-21959317Y-11386317D01*
X-21798521Y-11518280D01*
X-21615069Y-11616337D01*
X-21550248Y-11636000D01*
X-21615069Y-11655663D01*
X-21798521Y-11753720D01*
X-21959317Y-11885683D01*
X-22091280Y-12046479D01*
X-22189337Y-12229931D01*
X-22249720Y-12428988D01*
X-22270109Y-12636000D01*
X-22249720Y-12843012D01*
X-22189337Y-13042069D01*
X-22091280Y-13225521D01*
X-21959317Y-13386317D01*
X-21798521Y-13518280D01*
X-21615069Y-13616337D01*
X-21550248Y-13636000D01*
X-21615069Y-13655663D01*
X-21798521Y-13753720D01*
X-21959317Y-13885683D01*
X-22091280Y-14046479D01*
X-22189337Y-14229931D01*
X-22249720Y-14428988D01*
X-22270109Y-14636000D01*
X-22249720Y-14843012D01*
X-22189337Y-15042069D01*
X-22091280Y-15225521D01*
X-21959317Y-15386317D01*
X-21798521Y-15518280D01*
X-21615069Y-15616337D01*
X-21416012Y-15676720D01*
X-21260872Y-15692000D01*
X-21157128Y-15692000D01*
X-21001988Y-15676720D01*
X-20802931Y-15616337D01*
X-20619479Y-15518280D01*
X-20458683Y-15386317D01*
X-20326720Y-15225521D01*
X-20228663Y-15042069D01*
X-20168280Y-14843012D01*
X-20147891Y-14636000D01*
X-20168280Y-14428988D01*
X-20196416Y-14336236D01*
X-19597429Y-13737250D01*
X-19578052Y-13721348D01*
X-19533003Y-13666455D01*
X-19514571Y-13643996D01*
X-19467400Y-13555745D01*
X-19456035Y-13518280D01*
X-19438351Y-13459985D01*
X-19431000Y-13385347D01*
X-19431000Y-13385345D01*
X-19428543Y-13360401D01*
X-19431000Y-13335457D01*
X-19431000Y-9303620D01*
X-18636379Y-8509000D01*
X-13433829Y-8509000D01*
X-13399268Y-8543561D01*
X-13284864Y-8620003D01*
X-13157745Y-8672657D01*
X-13022796Y-8699500D01*
X-12885204Y-8699500D01*
X-12750255Y-8672657D01*
X-12623136Y-8620003D01*
X-12508732Y-8543561D01*
X-12473037Y-8507866D01*
X-12409915Y-8501649D01*
X-12314157Y-8472601D01*
X-12225905Y-8425429D01*
X-12148552Y-8361948D01*
X-12132645Y-8342565D01*
X-10013079Y-6223000D01*
X-8480829Y-6223000D01*
X-8446268Y-6257561D01*
X-8331864Y-6334003D01*
X-8204745Y-6386657D01*
X-8069796Y-6413500D01*
X-7932204Y-6413500D01*
X-7797255Y-6386657D01*
X-7670136Y-6334003D01*
X-7555732Y-6257561D01*
X-7458439Y-6160268D01*
X-7381997Y-6045864D01*
X-7329343Y-5918745D01*
X-7302500Y-5783796D01*
X-7302500Y-5646204D01*
X-7329343Y-5511255D01*
X-7381997Y-5384136D01*
X-7458439Y-5269732D01*
X-7555732Y-5172439D01*
X-7670136Y-5095997D01*
X-7797255Y-5043343D01*
X-7932204Y-5016500D01*
X-8069796Y-5016500D01*
X-8204745Y-5043343D01*
X-8331864Y-5095997D01*
X-8446268Y-5172439D01*
X-8480829Y-5207000D01*
X-9743926Y-5207000D01*
X-9667997Y-5093364D01*
X-9615343Y-4966245D01*
X-9588500Y-4831296D01*
X-9588500Y-4693704D01*
X-9615343Y-4558755D01*
X-9667997Y-4431636D01*
X-9744439Y-4317232D01*
X-9841732Y-4219939D01*
X-9956136Y-4143497D01*
X-10083255Y-4090843D01*
X-10218204Y-4064000D01*
X-10355796Y-4064000D01*
X-10490745Y-4090843D01*
X-10617864Y-4143497D01*
X-10732268Y-4219939D01*
X-10766829Y-4254500D01*
X-16167556Y-4254500D01*
X-16192500Y-4252043D01*
X-16217444Y-4254500D01*
X-16217447Y-4254500D01*
X-16292085Y-4261851D01*
X-16387843Y-4290899D01*
X-16476095Y-4338071D01*
X-16553448Y-4401552D01*
X-16569355Y-4420935D01*
X-17736420Y-5588000D01*
X-24486057Y-5588000D01*
X-24511001Y-5585543D01*
X-24535945Y-5588000D01*
X-24535947Y-5588000D01*
X-24610585Y-5595351D01*
X-24706343Y-5624399D01*
X-24706345Y-5624400D01*
X-24794596Y-5671571D01*
X-24843430Y-5711648D01*
X-24871948Y-5735052D01*
X-24887850Y-5754429D01*
X-28155420Y-9022000D01*
X-34059171Y-9022000D01*
X-34098732Y-8982439D01*
X-34213136Y-8905997D01*
X-34340255Y-8853343D01*
X-34475204Y-8826500D01*
X-34612796Y-8826500D01*
X-34747745Y-8853343D01*
X-34874864Y-8905997D01*
X-34989268Y-8982439D01*
X-35086561Y-9079732D01*
X-35163003Y-9194136D01*
X-35215657Y-9321255D01*
X-35242500Y-9456204D01*
X-35242500Y-9505079D01*
X-35711070Y-9973650D01*
X-35730447Y-9989552D01*
X-35746349Y-10008929D01*
X-35746350Y-10008930D01*
X-35793929Y-10066905D01*
X-35835138Y-10144003D01*
X-35841100Y-10155157D01*
X-35863782Y-10229931D01*
X-35870148Y-10250916D01*
X-35879957Y-10350500D01*
X-41021000Y-10350500D01*
X-41021000Y-7913840D01*
X-38305867Y-5198708D01*
X-38267104Y-5166896D01*
X-38140140Y-5012190D01*
X-38060076Y-4862400D01*
X-38045798Y-4835688D01*
X-37987702Y-4644171D01*
X-37968085Y-4445000D01*
X-37973000Y-4395098D01*
X-37973000Y-2716901D01*
X-37968085Y-2666999D01*
X-37987702Y-2467829D01*
X-37987892Y-2467202D01*
X-38045798Y-2276313D01*
X-38140140Y-2099810D01*
X-38267104Y-1945104D01*
X-38305867Y-1913292D01*
X-38758646Y-1460513D01*
X-38615002Y-1537293D01*
X-38439508Y-1590529D01*
X-38302731Y-1604000D01*
X-37661269Y-1604000D01*
X-37524492Y-1590529D01*
X-37433643Y-1562970D01*
X-37424529Y-1655508D01*
X-37371293Y-1831002D01*
X-37284843Y-1992738D01*
X-37168501Y-2134501D01*
X-37026738Y-2250843D01*
X-36865002Y-2337293D01*
X-36689508Y-2390529D01*
X-36552731Y-2404000D01*
X-35911269Y-2404000D01*
X-35774492Y-2390529D01*
X-35598998Y-2337293D01*
X-35437262Y-2250843D01*
X-35295499Y-2134501D01*
X-35179157Y-1992738D01*
X-35092707Y-1831002D01*
X-35039471Y-1655508D01*
X-35021496Y-1473000D01*
X-35039471Y-1290492D01*
X-35092707Y-1114998D01*
X-35179157Y-953262D01*
X-35295499Y-811499D01*
X-35437262Y-695157D01*
X-35478715Y-673000D01*
X-35437262Y-650843D01*
X-35295499Y-534501D01*
X-35179157Y-392738D01*
X-35092707Y-231002D01*
X-35039471Y-55508D01*
X-35021496Y127000D01*
X-35039471Y309508D01*
X-35092707Y485002D01*
X-35179157Y646738D01*
X-35295499Y788501D01*
X-35437262Y904843D01*
X-35478715Y927000D01*
X-35437262Y949157D01*
X-35349361Y1021296D01*
X-14795500Y1021296D01*
X-14795500Y883704D01*
X-14768657Y748755D01*
X-14716003Y621636D01*
X-14639561Y507232D01*
X-14605000Y472671D01*
X-14604999Y-483046D01*
X-14607457Y-508000D01*
X-14602781Y-555471D01*
X-14597648Y-607585D01*
X-14584526Y-650843D01*
X-14568600Y-703343D01*
X-14521429Y-791595D01*
X-14473850Y-849570D01*
X-14457947Y-868948D01*
X-14438570Y-884850D01*
X-12182580Y-3140840D01*
X-12182580Y-3253216D01*
X-12155737Y-3388165D01*
X-12103083Y-3515284D01*
X-12026641Y-3629688D01*
X-11929348Y-3726981D01*
X-11814944Y-3803423D01*
X-11687825Y-3856077D01*
X-11552876Y-3882920D01*
X-11415284Y-3882920D01*
X-11280335Y-3856077D01*
X-11153216Y-3803423D01*
X-11038812Y-3726981D01*
X-10941519Y-3629688D01*
X-10865077Y-3515284D01*
X-10812423Y-3388165D01*
X-10806862Y-3360204D01*
X-6667500Y-3360204D01*
X-6667500Y-3497796D01*
X-6640657Y-3632745D01*
X-6588003Y-3759864D01*
X-6511561Y-3874268D01*
X-6414268Y-3971561D01*
X-6299864Y-4048003D01*
X-6172745Y-4100657D01*
X-6037796Y-4127500D01*
X-5900204Y-4127500D01*
X-5765255Y-4100657D01*
X-5638136Y-4048003D01*
X-5523732Y-3971561D01*
X-5426439Y-3874268D01*
X-5349997Y-3759864D01*
X-5318159Y-3683000D01*
X356056Y-3683000D01*
X381000Y-3685457D01*
X405944Y-3683000D01*
X405947Y-3683000D01*
X480585Y-3675649D01*
X576343Y-3646601D01*
X664595Y-3599429D01*
X741948Y-3535948D01*
X757855Y-3516565D01*
X2178920Y-2095500D01*
X2227796Y-2095500D01*
X2362745Y-2068657D01*
X2489864Y-2016003D01*
X2604268Y-1939561D01*
X2701561Y-1842268D01*
X2778003Y-1727864D01*
X2830657Y-1600745D01*
X2857500Y-1465796D01*
X2857500Y-1328204D01*
X2830657Y-1193255D01*
X2778003Y-1066136D01*
X2701561Y-951732D01*
X2604268Y-854439D01*
X2489864Y-777997D01*
X2362745Y-725343D01*
X2227796Y-698500D01*
X2090204Y-698500D01*
X1955255Y-725343D01*
X1828136Y-777997D01*
X1713732Y-854439D01*
X1616439Y-951732D01*
X1539997Y-1066136D01*
X1487343Y-1193255D01*
X1460500Y-1328204D01*
X1460500Y-1377080D01*
X170580Y-2667000D01*
X-5690057Y-2667000D01*
X-5715001Y-2664543D01*
X-5739945Y-2667000D01*
X-5739947Y-2667000D01*
X-5814585Y-2674351D01*
X-5910343Y-2703399D01*
X-5961045Y-2730500D01*
X-6037796Y-2730500D01*
X-6172745Y-2757343D01*
X-6299864Y-2809997D01*
X-6414268Y-2886439D01*
X-6511561Y-2983732D01*
X-6588003Y-3098136D01*
X-6640657Y-3225255D01*
X-6667500Y-3360204D01*
X-10806862Y-3360204D01*
X-10785580Y-3253216D01*
X-10785580Y-3115624D01*
X-10812423Y-2980675D01*
X-10865077Y-2853556D01*
X-10941519Y-2739152D01*
X-11038812Y-2641859D01*
X-11153216Y-2565417D01*
X-11280335Y-2512763D01*
X-11397029Y-2489551D01*
X-13589000Y-297580D01*
X-13589000Y472671D01*
X-13554439Y507232D01*
X-13477997Y621636D01*
X-13425343Y748755D01*
X-13398500Y883704D01*
X-13398500Y1021296D01*
X-13425343Y1156245D01*
X-13477997Y1283364D01*
X-13554439Y1397768D01*
X-13651732Y1495061D01*
X-13766136Y1571503D01*
X-13893255Y1624157D01*
X-14028204Y1651000D01*
X-14165796Y1651000D01*
X-14300745Y1624157D01*
X-14427864Y1571503D01*
X-14542268Y1495061D01*
X-14639561Y1397768D01*
X-14716003Y1283364D01*
X-14768657Y1156245D01*
X-14795500Y1021296D01*
X-35349361Y1021296D01*
X-35295499Y1065499D01*
X-35179157Y1207262D01*
X-35092707Y1368998D01*
X-35039471Y1544492D01*
X-35021496Y1727000D01*
X-35039471Y1909508D01*
X-35092707Y2085002D01*
X-35179157Y2246738D01*
X-35295499Y2388501D01*
X-35437262Y2504843D01*
X-35598998Y2591293D01*
X-35774492Y2644529D01*
X-35911269Y2658000D01*
X-36552731Y2658000D01*
X-36689508Y2644529D01*
X-36865002Y2591293D01*
X-37026738Y2504843D01*
X-37168501Y2388501D01*
X-37284843Y2246738D01*
X-37371293Y2085002D01*
X-37424529Y1909508D01*
X-37433643Y1816970D01*
X-37524492Y1844529D01*
X-37661269Y1858000D01*
X-38302731Y1858000D01*
X-38439508Y1844529D01*
X-38615002Y1791293D01*
X-38758647Y1714513D01*
X-36781867Y3691292D01*
X-36743104Y3723104D01*
X-36616140Y3877810D01*
X-36521798Y4054313D01*
X-36463702Y4245829D01*
X-36449000Y4395098D01*
X-36449000Y4395099D01*
X-36444085Y4445000D01*
X-36449000Y4494902D01*
X-36449000Y6604000D01*
X-31261920Y6604000D01*
X-27618355Y2960435D01*
X-27602448Y2941052D01*
X-27525095Y2877571D01*
X-27436843Y2830399D01*
X-27341085Y2801351D01*
X-27266447Y2794000D01*
X-27266444Y2794000D01*
X-27241500Y2791543D01*
X-27216556Y2794000D01*
X-24086420Y2794000D01*
X-23939500Y2647080D01*
X-23939500Y2598204D01*
X-23912657Y2463255D01*
X-23860003Y2336136D01*
X-23783561Y2221732D01*
X-23686268Y2124439D01*
X-23571864Y2047997D01*
X-23444745Y1995343D01*
X-23309796Y1968500D01*
X-23172204Y1968500D01*
X-23037255Y1995343D01*
X-22910136Y2047997D01*
X-22795732Y2124439D01*
X-22698439Y2221732D01*
X-22621997Y2336136D01*
X-22569343Y2463255D01*
X-22542500Y2598204D01*
X-22542500Y2735796D01*
X-22569343Y2870745D01*
X-22621997Y2997864D01*
X-22646955Y3035216D01*
X-22593216Y3088955D01*
X-22555864Y3063997D01*
X-22428745Y3011343D01*
X-22293796Y2984500D01*
X-22156204Y2984500D01*
X-22021255Y3011343D01*
X-21894136Y3063997D01*
X-21779732Y3140439D01*
X-21682439Y3237732D01*
X-21605997Y3352136D01*
X-21553343Y3479255D01*
X-21526500Y3614204D01*
X-21526500Y3751796D01*
X-21553343Y3886745D01*
X-21593651Y3984057D01*
X-21525732Y4029439D01*
X-21428439Y4126732D01*
X-21351997Y4241136D01*
X-21299343Y4368255D01*
X-21272500Y4503204D01*
X-21272500Y4640796D01*
X-21299343Y4775745D01*
X-21351997Y4902864D01*
X-21428439Y5017268D01*
X-21525732Y5114561D01*
X-21640136Y5191003D01*
X-21767255Y5243657D01*
X-21902204Y5270500D01*
X-21978955Y5270500D01*
X-22029657Y5297601D01*
X-22125415Y5326649D01*
X-22200053Y5334000D01*
X-22200056Y5334000D01*
X-22225000Y5336457D01*
X-22249944Y5334000D01*
X-26332579Y5334000D01*
X-28147387Y7148807D01*
X-28130500Y7233704D01*
X-28130500Y7371296D01*
X-28157343Y7506245D01*
X-28209997Y7633364D01*
X-28286439Y7747768D01*
X-28383732Y7845061D01*
X-28498136Y7921503D01*
X-28625255Y7974157D01*
X-28760204Y8001000D01*
X-28897796Y8001000D01*
X-29032745Y7974157D01*
X-29159864Y7921503D01*
X-29274268Y7845061D01*
X-29371561Y7747768D01*
X-29426350Y7665770D01*
X-29908500Y8147920D01*
X-29908500Y12103557D01*
X-29906043Y12128501D01*
X-29909136Y12159905D01*
X-29915851Y12228085D01*
X-29944899Y12323843D01*
X-29944900Y12323845D01*
X-29992071Y12412096D01*
X-30039650Y12470071D01*
X-30055552Y12489448D01*
X-30074929Y12505350D01*
X-31178500Y13608920D01*
X-31178500Y16040556D01*
X-31176043Y16065500D01*
X-31179840Y16104053D01*
X-31185851Y16165085D01*
X-31214899Y16260843D01*
X-31246252Y16319500D01*
X-31262071Y16349096D01*
X-31285146Y16377212D01*
X-31325552Y16426448D01*
X-31344935Y16442355D01*
X-32770145Y17867565D01*
X-32786052Y17886948D01*
X-32863405Y17950429D01*
X-32951657Y17997601D01*
X-33047415Y18026649D01*
X-33122053Y18034000D01*
X-33122056Y18034000D01*
X-33147000Y18036457D01*
X-33171944Y18034000D01*
X-36238579Y18034000D01*
X-36512500Y18307920D01*
X-36512500Y18897600D01*
X-36514940Y18922376D01*
X-36515129Y18923000D01*
X-34544000Y18923000D01*
X-34469671Y18930321D01*
X-34398198Y18952002D01*
X-34332328Y18987210D01*
X-34274592Y19034592D01*
X-34020592Y19288592D01*
X-33973210Y19346328D01*
X-33938002Y19412198D01*
X-33916321Y19483671D01*
X-33909000Y19558000D01*
X-33909000Y21749684D01*
X-33878184Y21780500D01*
X-32479316Y21780500D01*
X-32448500Y21749684D01*
X-32448500Y21749684D01*
G37*
X-32448500Y21749684D02*
X-32448500Y19558000D01*
X-32441179Y19483671D01*
X-32419498Y19412198D01*
X-32384290Y19346328D01*
X-32336908Y19288592D01*
X-32082908Y19034592D01*
X-32025172Y18987210D01*
X-31959302Y18952002D01*
X-31887829Y18930321D01*
X-31813500Y18923000D01*
X-29558316Y18923000D01*
X-29538747Y18903431D01*
X-29551457Y18872745D01*
X-29578300Y18737796D01*
X-29578300Y18600204D01*
X-29551457Y18465255D01*
X-29527500Y18407417D01*
X-29527500Y17660583D01*
X-29551457Y17602745D01*
X-29578300Y17467796D01*
X-29578300Y17330204D01*
X-29551457Y17195255D01*
X-29527500Y17137417D01*
X-29527500Y16390583D01*
X-29551457Y16332745D01*
X-29578300Y16197796D01*
X-29578300Y16060204D01*
X-29551457Y15925255D01*
X-29527500Y15867417D01*
X-29527500Y15120583D01*
X-29551457Y15062745D01*
X-29578300Y14927796D01*
X-29578300Y14790204D01*
X-29551457Y14655255D01*
X-29527500Y14597417D01*
X-29527500Y14478000D01*
X-29518305Y14394802D01*
X-29494930Y14323865D01*
X-29306985Y13899006D01*
X-29264918Y13826640D01*
X-29214843Y13771224D01*
X-23304233Y8397942D01*
X-23252021Y8358123D01*
X-23185332Y8324492D01*
X-22743387Y8153633D01*
X-22680329Y8135321D01*
X-22606000Y8128000D01*
X3048000Y8128000D01*
X3122329Y8135321D01*
X3193802Y8157002D01*
X3259672Y8192210D01*
X3317408Y8239592D01*
X3402698Y8324882D01*
X3577790Y8149790D01*
X3654770Y8086613D01*
X3742597Y8039669D01*
X3837894Y8010761D01*
X3937000Y8001000D01*
X4615580Y8001000D01*
X296017Y3681437D01*
X203745Y3719657D01*
X68796Y3746500D01*
X-68796Y3746500D01*
X-203745Y3719657D01*
X-330864Y3667003D01*
X-445268Y3590561D01*
X-542561Y3493268D01*
X-619003Y3378864D01*
X-671657Y3251745D01*
X-698500Y3116796D01*
X-698500Y2979204D01*
X-671657Y2844255D01*
X-619003Y2717136D01*
X-542561Y2602732D01*
X-445268Y2505439D01*
X-377349Y2460057D01*
X-417657Y2362745D01*
X-444500Y2227796D01*
X-444500Y2090204D01*
X-417657Y1955255D01*
X-365003Y1828136D01*
X-288561Y1713732D01*
X-191268Y1616439D01*
X-76864Y1539997D01*
X50255Y1487343D01*
X185204Y1460500D01*
X322796Y1460500D01*
X457745Y1487343D01*
X584864Y1539997D01*
X699268Y1616439D01*
X796561Y1713732D01*
X873003Y1828136D01*
X925657Y1955255D01*
X952500Y2090204D01*
X952500Y2139080D01*
X3004420Y4191000D01*
X7617543Y4191000D01*
X7620001Y4166046D01*
X7620000Y-2642056D01*
X7617543Y-2667000D01*
X7620000Y-2691944D01*
X7620000Y-2691946D01*
X7627351Y-2766584D01*
X7656399Y-2862342D01*
X7703571Y-2950595D01*
X7767052Y-3027948D01*
X7786435Y-3043855D01*
X9973500Y-5230921D01*
X9973500Y-5279796D01*
X10000343Y-5414745D01*
X10052997Y-5541864D01*
X10129439Y-5656268D01*
X10226732Y-5753561D01*
X10341136Y-5830003D01*
X10468255Y-5882657D01*
X10603204Y-5909500D01*
X10740796Y-5909500D01*
X10875745Y-5882657D01*
X11002864Y-5830003D01*
X11117268Y-5753561D01*
X11214561Y-5656268D01*
X11291003Y-5541864D01*
X11343657Y-5414745D01*
X11370500Y-5279796D01*
X11370500Y-5142204D01*
X11343657Y-5007255D01*
X11291003Y-4880136D01*
X11214561Y-4765732D01*
X11117268Y-4668439D01*
X11002864Y-4591997D01*
X10875745Y-4539343D01*
X10740796Y-4512500D01*
X10691921Y-4512500D01*
X8636000Y-2456580D01*
X8636000Y-2301606D01*
X15506000Y-2301606D01*
X15506000Y-2524394D01*
X15549464Y-2742900D01*
X15634721Y-2948729D01*
X15758495Y-3133970D01*
X15916030Y-3291505D01*
X16101271Y-3415279D01*
X16307100Y-3500536D01*
X16525606Y-3544000D01*
X16748394Y-3544000D01*
X16966900Y-3500536D01*
X17172729Y-3415279D01*
X17357970Y-3291505D01*
X17515505Y-3133970D01*
X17639279Y-2948729D01*
X17724536Y-2742900D01*
X17768000Y-2524394D01*
X17768000Y-2301606D01*
X17724536Y-2083100D01*
X17639279Y-1877271D01*
X17515505Y-1692030D01*
X17357970Y-1534495D01*
X17172729Y-1410721D01*
X16966900Y-1325464D01*
X16748394Y-1282000D01*
X16525606Y-1282000D01*
X16307100Y-1325464D01*
X16101271Y-1410721D01*
X15916030Y-1534495D01*
X15758495Y-1692030D01*
X15634721Y-1877271D01*
X15549464Y-2083100D01*
X15506000Y-2301606D01*
X8636000Y-2301606D01*
X8636000Y1889159D01*
X8686255Y1868343D01*
X8821204Y1841500D01*
X8958796Y1841500D01*
X9093745Y1868343D01*
X9220864Y1920997D01*
X9335268Y1997439D01*
X9432561Y2094732D01*
X9509003Y2209136D01*
X9561657Y2336255D01*
X9588500Y2471204D01*
X9588500Y2578394D01*
X15506000Y2578394D01*
X15506000Y2355606D01*
X15549464Y2137100D01*
X15634721Y1931271D01*
X15758495Y1746030D01*
X15916030Y1588495D01*
X16101271Y1464721D01*
X16307100Y1379464D01*
X16525606Y1336000D01*
X16748394Y1336000D01*
X16966900Y1379464D01*
X17172729Y1464721D01*
X17357970Y1588495D01*
X17515505Y1746030D01*
X17639279Y1931271D01*
X17724536Y2137100D01*
X17768000Y2355606D01*
X17768000Y2578394D01*
X17724536Y2796900D01*
X17639279Y3002729D01*
X17515505Y3187970D01*
X17357970Y3345505D01*
X17172729Y3469279D01*
X16966900Y3554536D01*
X16748394Y3598000D01*
X16525606Y3598000D01*
X16307100Y3554536D01*
X16101271Y3469279D01*
X15916030Y3345505D01*
X15758495Y3187970D01*
X15634721Y3002729D01*
X15549464Y2796900D01*
X15506000Y2578394D01*
X9588500Y2578394D01*
X9588500Y2608796D01*
X9561657Y2743745D01*
X9509003Y2870864D01*
X9432561Y2985268D01*
X9398000Y3019829D01*
X9398000Y4044080D01*
X10687921Y5334000D01*
X12601171Y5334000D01*
X12635732Y5299439D01*
X12750136Y5222997D01*
X12877255Y5170343D01*
X13012204Y5143500D01*
X13149796Y5143500D01*
X13284745Y5170343D01*
X13411864Y5222997D01*
X13526268Y5299439D01*
X13623561Y5396732D01*
X13700003Y5511136D01*
X13752657Y5638255D01*
X13779500Y5773204D01*
X13779500Y5910796D01*
X13752657Y6045745D01*
X13700003Y6172864D01*
X13623561Y6287268D01*
X13526268Y6384561D01*
X13411864Y6461003D01*
X13284745Y6513657D01*
X13149796Y6540500D01*
X13012204Y6540500D01*
X12877255Y6513657D01*
X12750136Y6461003D01*
X12635732Y6384561D01*
X12601171Y6350000D01*
X10502443Y6350000D01*
X10477499Y6352457D01*
X10452555Y6350000D01*
X10452553Y6350000D01*
X10377915Y6342649D01*
X10282157Y6313601D01*
X10248033Y6295361D01*
X10193904Y6266429D01*
X10144243Y6225673D01*
X10116552Y6202948D01*
X10100650Y6183571D01*
X9946003Y6028924D01*
X9942657Y6045745D01*
X9890003Y6172864D01*
X9813561Y6287268D01*
X9716268Y6384561D01*
X9601864Y6461003D01*
X9474745Y6513657D01*
X9339796Y6540500D01*
X9202204Y6540500D01*
X9067255Y6513657D01*
X8940136Y6461003D01*
X8825732Y6384561D01*
X8728439Y6287268D01*
X8651997Y6172864D01*
X8599343Y6045745D01*
X8572500Y5910796D01*
X8572500Y5773204D01*
X8599343Y5638255D01*
X8651997Y5511136D01*
X8683126Y5464547D01*
X7786430Y4567850D01*
X7767053Y4551948D01*
X7751151Y4532571D01*
X7751150Y4532570D01*
X7703571Y4474595D01*
X7661080Y4395099D01*
X7656400Y4386343D01*
X7633439Y4310649D01*
X7627352Y4290584D01*
X7617543Y4191000D01*
X3004420Y4191000D01*
X5671421Y6858000D01*
X19025056Y6858000D01*
X19050000Y6855543D01*
X19074944Y6858000D01*
X19074947Y6858000D01*
X19149585Y6865351D01*
X19245343Y6894399D01*
X19333595Y6941571D01*
X19410948Y7005052D01*
X19426855Y7024435D01*
X19831920Y7429500D01*
X19880796Y7429500D01*
X20015745Y7456343D01*
X20142864Y7508997D01*
X20257268Y7585439D01*
X20354561Y7682732D01*
X20431003Y7797136D01*
X20483657Y7924255D01*
X20510500Y8059204D01*
X20510500Y8196796D01*
X20483657Y8331745D01*
X20431003Y8458864D01*
X20354561Y8573268D01*
X20257268Y8670561D01*
X20142864Y8747003D01*
X20015745Y8799657D01*
X19880796Y8826500D01*
X19743204Y8826500D01*
X19608255Y8799657D01*
X19481136Y8747003D01*
X19366732Y8670561D01*
X19304000Y8607829D01*
X19241268Y8670561D01*
X19126864Y8747003D01*
X18999745Y8799657D01*
X18864796Y8826500D01*
X18727204Y8826500D01*
X18592255Y8799657D01*
X18465136Y8747003D01*
X18350732Y8670561D01*
X18253439Y8573268D01*
X18176997Y8458864D01*
X18145159Y8382000D01*
X12783420Y8382000D01*
X12805210Y8403790D01*
X12868387Y8480770D01*
X12915331Y8568597D01*
X12944239Y8663894D01*
X12954000Y8763000D01*
X12954000Y9017000D01*
X14478000Y9017000D01*
X14577106Y9026761D01*
X14672403Y9055669D01*
X14760230Y9102613D01*
X14837210Y9165790D01*
X15091210Y9419790D01*
X15154387Y9496770D01*
X15201331Y9584597D01*
X15230239Y9679894D01*
X15240000Y9779000D01*
X15240000Y10541000D01*
X15230239Y10640106D01*
X15201331Y10735403D01*
X15154387Y10823230D01*
X15091210Y10900210D01*
X14837210Y11154210D01*
X14760230Y11217387D01*
X14672403Y11264331D01*
X14577106Y11293239D01*
X14478000Y11303000D01*
X6096000Y11303000D01*
X6096000Y13335000D01*
X6086239Y13434106D01*
X6077777Y13462000D01*
X16045580Y13462000D01*
X16560750Y12946829D01*
X16560750Y12872454D01*
X16587593Y12737505D01*
X16640247Y12610386D01*
X16716689Y12495982D01*
X16813982Y12398689D01*
X16928386Y12322247D01*
X17055505Y12269593D01*
X17190454Y12242750D01*
X17328046Y12242750D01*
X17462995Y12269593D01*
X17590114Y12322247D01*
X17704518Y12398689D01*
X17726329Y12420500D01*
X17849080Y12420500D01*
X18292149Y11977430D01*
X18308052Y11958052D01*
X18327429Y11942150D01*
X18385404Y11894571D01*
X18473655Y11847400D01*
X18473657Y11847399D01*
X18569415Y11818351D01*
X18644053Y11811000D01*
X18644055Y11811000D01*
X18668999Y11808543D01*
X18693943Y11811000D01*
X23114000Y11811000D01*
X23114000Y4445000D01*
X23114907Y4429850D01*
X23120285Y4405541D01*
X23130303Y4382749D01*
X23144574Y4362349D01*
X23797001Y3601184D01*
X23797000Y-6262159D01*
X20153160Y-9906000D01*
X14019893Y-9906000D01*
X13969999Y-9901086D01*
X13920105Y-9906000D01*
X13920098Y-9906000D01*
X13790177Y-9918796D01*
X13770828Y-9920702D01*
X13712732Y-9938326D01*
X13579313Y-9978798D01*
X13402810Y-10073140D01*
X13248104Y-10200104D01*
X13216293Y-10238866D01*
X11889868Y-11565292D01*
X11851105Y-11597104D01*
X11724141Y-11751810D01*
X11652585Y-11885683D01*
X11629799Y-11928313D01*
X11571702Y-12119830D01*
X11552085Y-12319000D01*
X11557001Y-12368912D01*
X11557001Y-19558000D01*
X-6985000Y-19558000D01*
X-7009776Y-19560440D01*
X-7033601Y-19567667D01*
X-7055557Y-19579403D01*
X-7074803Y-19595197D01*
X-7328803Y-19849197D01*
X-7344597Y-19868443D01*
X-7356333Y-19890399D01*
X-7363560Y-19914224D01*
X-7366000Y-19939000D01*
X-7366000Y-21971000D01*
X-10795000Y-21971000D01*
X-10795000Y-19939000D01*
X-10797440Y-19914224D01*
X-10804667Y-19890399D01*
X-10816403Y-19868443D01*
X-10832197Y-19849197D01*
X-11086197Y-19595197D01*
X-11105443Y-19579403D01*
X-11127399Y-19567667D01*
X-11151224Y-19560440D01*
X-11176000Y-19558000D01*
X-15010000Y-19558000D01*
X-15010000Y-18204920D01*
X-13076686Y-16271606D01*
X-8433500Y-16271606D01*
X-8433500Y-16494394D01*
X-8390036Y-16712900D01*
X-8304779Y-16918729D01*
X-8181005Y-17103970D01*
X-8023470Y-17261505D01*
X-7838229Y-17385279D01*
X-7632400Y-17470536D01*
X-7413894Y-17514000D01*
X-7191106Y-17514000D01*
X-6972600Y-17470536D01*
X-6766771Y-17385279D01*
X-6581530Y-17261505D01*
X-6423995Y-17103970D01*
X-6300221Y-16918729D01*
X-6214964Y-16712900D01*
X-6171500Y-16494394D01*
X-6171500Y-16271606D01*
X-6214964Y-16053100D01*
X-6300221Y-15847271D01*
X-6423995Y-15662030D01*
X-6581530Y-15504495D01*
X-6766771Y-15380721D01*
X-6972600Y-15295464D01*
X-7191106Y-15252000D01*
X-7413894Y-15252000D01*
X-7632400Y-15295464D01*
X-7838229Y-15380721D01*
X-8023470Y-15504495D01*
X-8181005Y-15662030D01*
X-8304779Y-15847271D01*
X-8390036Y-16053100D01*
X-8433500Y-16271606D01*
X-13076686Y-16271606D01*
X-9626005Y-12820925D01*
X-4982819Y-12820925D01*
X-4982819Y-13043713D01*
X-4939355Y-13262219D01*
X-4854098Y-13468048D01*
X-4730324Y-13653289D01*
X-4572789Y-13810824D01*
X-4387548Y-13934598D01*
X-4181719Y-14019855D01*
X-3963213Y-14063319D01*
X-3740425Y-14063319D01*
X-3521919Y-14019855D01*
X-3316090Y-13934598D01*
X-3130849Y-13810824D01*
X-2973314Y-13653289D01*
X-2849540Y-13468048D01*
X-2764283Y-13262219D01*
X-2720819Y-13043713D01*
X-2720819Y-12820925D01*
X-2764283Y-12602419D01*
X-2849540Y-12396590D01*
X-2973314Y-12211349D01*
X-3130849Y-12053814D01*
X-3316090Y-11930040D01*
X-3521919Y-11844783D01*
X-3740425Y-11801319D01*
X-3963213Y-11801319D01*
X-4181719Y-11844783D01*
X-4387548Y-11930040D01*
X-4572789Y-12053814D01*
X-4730324Y-12211349D01*
X-4854098Y-12396590D01*
X-4939355Y-12602419D01*
X-4982819Y-12820925D01*
X-9626005Y-12820925D01*
X-7024429Y-10219350D01*
X-7005052Y-10203448D01*
X-6971398Y-10162440D01*
X-6941571Y-10126096D01*
X-6899015Y-10046479D01*
X-6894399Y-10037843D01*
X-6865351Y-9942085D01*
X-6858000Y-9867447D01*
X-6858000Y-9867444D01*
X-6855543Y-9842500D01*
X-6858000Y-9817556D01*
X-6858000Y-8569250D01*
X-6787637Y-8463944D01*
X-6734983Y-8336825D01*
X-6708140Y-8201876D01*
X-6708140Y-8064284D01*
X-6734983Y-7929335D01*
X-6787637Y-7802216D01*
X-6864079Y-7687812D01*
X-6961372Y-7590519D01*
X-7075776Y-7514077D01*
X-7202895Y-7461423D01*
X-7337844Y-7434580D01*
X-7475436Y-7434580D01*
X-7610385Y-7461423D01*
X-7737504Y-7514077D01*
X-7851908Y-7590519D01*
X-7949201Y-7687812D01*
X-8025643Y-7802216D01*
X-8030965Y-7815065D01*
X-8092224Y-7802880D01*
X-8229816Y-7802880D01*
X-8364765Y-7829723D01*
X-8491884Y-7882377D01*
X-8606288Y-7958819D01*
X-8703581Y-8056112D01*
X-8780023Y-8170516D01*
X-8832677Y-8297635D01*
X-8859520Y-8432584D01*
X-8859520Y-8570176D01*
X-8832677Y-8705125D01*
X-8780023Y-8832244D01*
X-8732616Y-8903195D01*
X-17359565Y-17530145D01*
X-17378948Y-17546052D01*
X-17442429Y-17623405D01*
X-17489601Y-17711658D01*
X-17518649Y-17807416D01*
X-17526000Y-17882053D01*
X-17528457Y-17907000D01*
X-17526000Y-17931944D01*
X-17525999Y-19558000D01*
X-41021000Y-19558000D01*
X-41021000Y-10350500D01*
X-35879957Y-10350500D01*
X-35877499Y-10375454D01*
X-35877500Y-11849555D01*
X-35879957Y-11874500D01*
X-35877500Y-11899444D01*
X-35877500Y-11899446D01*
X-35870149Y-11974084D01*
X-35841101Y-12069842D01*
X-35793929Y-12158095D01*
X-35730448Y-12235448D01*
X-35711065Y-12251355D01*
X-34797999Y-13164421D01*
X-34798000Y-14950671D01*
X-34832561Y-14985232D01*
X-34909003Y-15099636D01*
X-34961657Y-15226755D01*
X-34988500Y-15361704D01*
X-34988500Y-15499296D01*
X-34961657Y-15634245D01*
X-34909003Y-15761364D01*
X-34832561Y-15875768D01*
X-34735268Y-15973061D01*
X-34620864Y-16049503D01*
X-34493745Y-16102157D01*
X-34358796Y-16129000D01*
X-34221204Y-16129000D01*
X-34086255Y-16102157D01*
X-33959136Y-16049503D01*
X-33844732Y-15973061D01*
X-33747439Y-15875768D01*
X-33670997Y-15761364D01*
X-33618343Y-15634245D01*
X-33591500Y-15499296D01*
X-33591500Y-15361704D01*
X-33618343Y-15226755D01*
X-33670997Y-15099636D01*
X-33747439Y-14985232D01*
X-33782000Y-14950671D01*
X-33782000Y-12978944D01*
X-33779543Y-12954000D01*
X-33782000Y-12929053D01*
X-33789351Y-12854415D01*
X-33818399Y-12758657D01*
X-33865571Y-12670405D01*
X-33929052Y-12593052D01*
X-33948435Y-12577145D01*
X-34861500Y-11664080D01*
X-34861500Y-10560920D01*
X-34524079Y-10223500D01*
X-34475204Y-10223500D01*
X-34340255Y-10196657D01*
X-34213136Y-10144003D01*
X-34098732Y-10067561D01*
X-34069171Y-10038000D01*
X-28409420Y-10038000D01*
X-28662565Y-10291145D01*
X-28681948Y-10307052D01*
X-28745429Y-10384405D01*
X-28792601Y-10472658D01*
X-28821649Y-10568416D01*
X-28828305Y-10636000D01*
X-28831457Y-10668000D01*
X-28829000Y-10692944D01*
X-28828999Y-15649170D01*
X-28863561Y-15683732D01*
X-28940003Y-15798136D01*
X-28992657Y-15925255D01*
X-29019500Y-16060204D01*
X-29019500Y-16197796D01*
X-28992657Y-16332745D01*
X-28940003Y-16459864D01*
X-28863561Y-16574268D01*
X-28766268Y-16671561D01*
X-28651864Y-16748003D01*
X-28524745Y-16800657D01*
X-28389796Y-16827500D01*
X-28252204Y-16827500D01*
X-28117255Y-16800657D01*
X-27990136Y-16748003D01*
X-27875732Y-16671561D01*
X-27778439Y-16574268D01*
X-27701997Y-16459864D01*
X-27649343Y-16332745D01*
X-27622500Y-16197796D01*
X-27622500Y-16060204D01*
X-27649343Y-15925255D01*
X-27701997Y-15798136D01*
X-27778439Y-15683732D01*
X-27813000Y-15649171D01*
X-27813000Y-10878420D01*
X-26169704Y-9235125D01*
X-26162768Y-9242061D01*
X-26048364Y-9318503D01*
X-25921245Y-9371157D01*
X-25786296Y-9398000D01*
X-25648704Y-9398000D01*
X-25513755Y-9371157D01*
X-25386636Y-9318503D01*
X-25272232Y-9242061D01*
X-25174939Y-9144768D01*
X-25098497Y-9030364D01*
X-25045843Y-8903245D01*
X-25019000Y-8768296D01*
X-25019000Y-8630704D01*
X-25045843Y-8495755D01*
X-25098497Y-8368636D01*
X-25155061Y-8283981D01*
X-23983079Y-7112000D01*
X-20403421Y-7112000D01*
X-20869578Y-7578157D01*
X-21884000Y-7578157D01*
X-21958689Y-7585513D01*
X-22030508Y-7607299D01*
X-22096696Y-7642678D01*
X-22154711Y-7690289D01*
X-22202322Y-7748304D01*
X-22237701Y-7814492D01*
X-22259487Y-7886311D01*
X-22266843Y-7961000D01*
X-22266843Y-9311000D01*
X-22259487Y-9385689D01*
X-22237701Y-9457508D01*
X-22202322Y-9523696D01*
X-22154711Y-9581711D01*
X-22096696Y-9629322D01*
X-22030508Y-9664701D01*
X-21958689Y-9686487D01*
X-21884000Y-9693843D01*
X-21686499Y-9693843D01*
X-21798521Y-9753720D01*
X-21959317Y-9885683D01*
X-22091280Y-10046479D01*
X-22189337Y-10229931D01*
X-22249720Y-10428988D01*
X-22270109Y-10636000D01*
X-22249720Y-10843012D01*
X-22189337Y-11042069D01*
X-22091280Y-11225521D01*
X-21959317Y-11386317D01*
X-21798521Y-11518280D01*
X-21615069Y-11616337D01*
X-21550248Y-11636000D01*
X-21615069Y-11655663D01*
X-21798521Y-11753720D01*
X-21959317Y-11885683D01*
X-22091280Y-12046479D01*
X-22189337Y-12229931D01*
X-22249720Y-12428988D01*
X-22270109Y-12636000D01*
X-22249720Y-12843012D01*
X-22189337Y-13042069D01*
X-22091280Y-13225521D01*
X-21959317Y-13386317D01*
X-21798521Y-13518280D01*
X-21615069Y-13616337D01*
X-21550248Y-13636000D01*
X-21615069Y-13655663D01*
X-21798521Y-13753720D01*
X-21959317Y-13885683D01*
X-22091280Y-14046479D01*
X-22189337Y-14229931D01*
X-22249720Y-14428988D01*
X-22270109Y-14636000D01*
X-22249720Y-14843012D01*
X-22189337Y-15042069D01*
X-22091280Y-15225521D01*
X-21959317Y-15386317D01*
X-21798521Y-15518280D01*
X-21615069Y-15616337D01*
X-21416012Y-15676720D01*
X-21260872Y-15692000D01*
X-21157128Y-15692000D01*
X-21001988Y-15676720D01*
X-20802931Y-15616337D01*
X-20619479Y-15518280D01*
X-20458683Y-15386317D01*
X-20326720Y-15225521D01*
X-20228663Y-15042069D01*
X-20168280Y-14843012D01*
X-20147891Y-14636000D01*
X-20168280Y-14428988D01*
X-20196416Y-14336236D01*
X-19597429Y-13737250D01*
X-19578052Y-13721348D01*
X-19533003Y-13666455D01*
X-19514571Y-13643996D01*
X-19467400Y-13555745D01*
X-19456035Y-13518280D01*
X-19438351Y-13459985D01*
X-19431000Y-13385347D01*
X-19431000Y-13385345D01*
X-19428543Y-13360401D01*
X-19431000Y-13335457D01*
X-19431000Y-9303620D01*
X-18636379Y-8509000D01*
X-13433829Y-8509000D01*
X-13399268Y-8543561D01*
X-13284864Y-8620003D01*
X-13157745Y-8672657D01*
X-13022796Y-8699500D01*
X-12885204Y-8699500D01*
X-12750255Y-8672657D01*
X-12623136Y-8620003D01*
X-12508732Y-8543561D01*
X-12473037Y-8507866D01*
X-12409915Y-8501649D01*
X-12314157Y-8472601D01*
X-12225905Y-8425429D01*
X-12148552Y-8361948D01*
X-12132645Y-8342565D01*
X-10013079Y-6223000D01*
X-8480829Y-6223000D01*
X-8446268Y-6257561D01*
X-8331864Y-6334003D01*
X-8204745Y-6386657D01*
X-8069796Y-6413500D01*
X-7932204Y-6413500D01*
X-7797255Y-6386657D01*
X-7670136Y-6334003D01*
X-7555732Y-6257561D01*
X-7458439Y-6160268D01*
X-7381997Y-6045864D01*
X-7329343Y-5918745D01*
X-7302500Y-5783796D01*
X-7302500Y-5646204D01*
X-7329343Y-5511255D01*
X-7381997Y-5384136D01*
X-7458439Y-5269732D01*
X-7555732Y-5172439D01*
X-7670136Y-5095997D01*
X-7797255Y-5043343D01*
X-7932204Y-5016500D01*
X-8069796Y-5016500D01*
X-8204745Y-5043343D01*
X-8331864Y-5095997D01*
X-8446268Y-5172439D01*
X-8480829Y-5207000D01*
X-9743926Y-5207000D01*
X-9667997Y-5093364D01*
X-9615343Y-4966245D01*
X-9588500Y-4831296D01*
X-9588500Y-4693704D01*
X-9615343Y-4558755D01*
X-9667997Y-4431636D01*
X-9744439Y-4317232D01*
X-9841732Y-4219939D01*
X-9956136Y-4143497D01*
X-10083255Y-4090843D01*
X-10218204Y-4064000D01*
X-10355796Y-4064000D01*
X-10490745Y-4090843D01*
X-10617864Y-4143497D01*
X-10732268Y-4219939D01*
X-10766829Y-4254500D01*
X-16167556Y-4254500D01*
X-16192500Y-4252043D01*
X-16217444Y-4254500D01*
X-16217447Y-4254500D01*
X-16292085Y-4261851D01*
X-16387843Y-4290899D01*
X-16476095Y-4338071D01*
X-16553448Y-4401552D01*
X-16569355Y-4420935D01*
X-17736420Y-5588000D01*
X-24486057Y-5588000D01*
X-24511001Y-5585543D01*
X-24535945Y-5588000D01*
X-24535947Y-5588000D01*
X-24610585Y-5595351D01*
X-24706343Y-5624399D01*
X-24706345Y-5624400D01*
X-24794596Y-5671571D01*
X-24843430Y-5711648D01*
X-24871948Y-5735052D01*
X-24887850Y-5754429D01*
X-28155420Y-9022000D01*
X-34059171Y-9022000D01*
X-34098732Y-8982439D01*
X-34213136Y-8905997D01*
X-34340255Y-8853343D01*
X-34475204Y-8826500D01*
X-34612796Y-8826500D01*
X-34747745Y-8853343D01*
X-34874864Y-8905997D01*
X-34989268Y-8982439D01*
X-35086561Y-9079732D01*
X-35163003Y-9194136D01*
X-35215657Y-9321255D01*
X-35242500Y-9456204D01*
X-35242500Y-9505079D01*
X-35711070Y-9973650D01*
X-35730447Y-9989552D01*
X-35746349Y-10008929D01*
X-35746350Y-10008930D01*
X-35793929Y-10066905D01*
X-35835138Y-10144003D01*
X-35841100Y-10155157D01*
X-35863782Y-10229931D01*
X-35870148Y-10250916D01*
X-35879957Y-10350500D01*
X-41021000Y-10350500D01*
X-41021000Y-7913840D01*
X-38305867Y-5198708D01*
X-38267104Y-5166896D01*
X-38140140Y-5012190D01*
X-38060076Y-4862400D01*
X-38045798Y-4835688D01*
X-37987702Y-4644171D01*
X-37968085Y-4445000D01*
X-37973000Y-4395098D01*
X-37973000Y-2716901D01*
X-37968085Y-2666999D01*
X-37987702Y-2467829D01*
X-37987892Y-2467202D01*
X-38045798Y-2276313D01*
X-38140140Y-2099810D01*
X-38267104Y-1945104D01*
X-38305867Y-1913292D01*
X-38758646Y-1460513D01*
X-38615002Y-1537293D01*
X-38439508Y-1590529D01*
X-38302731Y-1604000D01*
X-37661269Y-1604000D01*
X-37524492Y-1590529D01*
X-37433643Y-1562970D01*
X-37424529Y-1655508D01*
X-37371293Y-1831002D01*
X-37284843Y-1992738D01*
X-37168501Y-2134501D01*
X-37026738Y-2250843D01*
X-36865002Y-2337293D01*
X-36689508Y-2390529D01*
X-36552731Y-2404000D01*
X-35911269Y-2404000D01*
X-35774492Y-2390529D01*
X-35598998Y-2337293D01*
X-35437262Y-2250843D01*
X-35295499Y-2134501D01*
X-35179157Y-1992738D01*
X-35092707Y-1831002D01*
X-35039471Y-1655508D01*
X-35021496Y-1473000D01*
X-35039471Y-1290492D01*
X-35092707Y-1114998D01*
X-35179157Y-953262D01*
X-35295499Y-811499D01*
X-35437262Y-695157D01*
X-35478715Y-673000D01*
X-35437262Y-650843D01*
X-35295499Y-534501D01*
X-35179157Y-392738D01*
X-35092707Y-231002D01*
X-35039471Y-55508D01*
X-35021496Y127000D01*
X-35039471Y309508D01*
X-35092707Y485002D01*
X-35179157Y646738D01*
X-35295499Y788501D01*
X-35437262Y904843D01*
X-35478715Y927000D01*
X-35437262Y949157D01*
X-35349361Y1021296D01*
X-14795500Y1021296D01*
X-14795500Y883704D01*
X-14768657Y748755D01*
X-14716003Y621636D01*
X-14639561Y507232D01*
X-14605000Y472671D01*
X-14604999Y-483046D01*
X-14607457Y-508000D01*
X-14602781Y-555471D01*
X-14597648Y-607585D01*
X-14584526Y-650843D01*
X-14568600Y-703343D01*
X-14521429Y-791595D01*
X-14473850Y-849570D01*
X-14457947Y-868948D01*
X-14438570Y-884850D01*
X-12182580Y-3140840D01*
X-12182580Y-3253216D01*
X-12155737Y-3388165D01*
X-12103083Y-3515284D01*
X-12026641Y-3629688D01*
X-11929348Y-3726981D01*
X-11814944Y-3803423D01*
X-11687825Y-3856077D01*
X-11552876Y-3882920D01*
X-11415284Y-3882920D01*
X-11280335Y-3856077D01*
X-11153216Y-3803423D01*
X-11038812Y-3726981D01*
X-10941519Y-3629688D01*
X-10865077Y-3515284D01*
X-10812423Y-3388165D01*
X-10806862Y-3360204D01*
X-6667500Y-3360204D01*
X-6667500Y-3497796D01*
X-6640657Y-3632745D01*
X-6588003Y-3759864D01*
X-6511561Y-3874268D01*
X-6414268Y-3971561D01*
X-6299864Y-4048003D01*
X-6172745Y-4100657D01*
X-6037796Y-4127500D01*
X-5900204Y-4127500D01*
X-5765255Y-4100657D01*
X-5638136Y-4048003D01*
X-5523732Y-3971561D01*
X-5426439Y-3874268D01*
X-5349997Y-3759864D01*
X-5318159Y-3683000D01*
X356056Y-3683000D01*
X381000Y-3685457D01*
X405944Y-3683000D01*
X405947Y-3683000D01*
X480585Y-3675649D01*
X576343Y-3646601D01*
X664595Y-3599429D01*
X741948Y-3535948D01*
X757855Y-3516565D01*
X2178920Y-2095500D01*
X2227796Y-2095500D01*
X2362745Y-2068657D01*
X2489864Y-2016003D01*
X2604268Y-1939561D01*
X2701561Y-1842268D01*
X2778003Y-1727864D01*
X2830657Y-1600745D01*
X2857500Y-1465796D01*
X2857500Y-1328204D01*
X2830657Y-1193255D01*
X2778003Y-1066136D01*
X2701561Y-951732D01*
X2604268Y-854439D01*
X2489864Y-777997D01*
X2362745Y-725343D01*
X2227796Y-698500D01*
X2090204Y-698500D01*
X1955255Y-725343D01*
X1828136Y-777997D01*
X1713732Y-854439D01*
X1616439Y-951732D01*
X1539997Y-1066136D01*
X1487343Y-1193255D01*
X1460500Y-1328204D01*
X1460500Y-1377080D01*
X170580Y-2667000D01*
X-5690057Y-2667000D01*
X-5715001Y-2664543D01*
X-5739945Y-2667000D01*
X-5739947Y-2667000D01*
X-5814585Y-2674351D01*
X-5910343Y-2703399D01*
X-5961045Y-2730500D01*
X-6037796Y-2730500D01*
X-6172745Y-2757343D01*
X-6299864Y-2809997D01*
X-6414268Y-2886439D01*
X-6511561Y-2983732D01*
X-6588003Y-3098136D01*
X-6640657Y-3225255D01*
X-6667500Y-3360204D01*
X-10806862Y-3360204D01*
X-10785580Y-3253216D01*
X-10785580Y-3115624D01*
X-10812423Y-2980675D01*
X-10865077Y-2853556D01*
X-10941519Y-2739152D01*
X-11038812Y-2641859D01*
X-11153216Y-2565417D01*
X-11280335Y-2512763D01*
X-11397029Y-2489551D01*
X-13589000Y-297580D01*
X-13589000Y472671D01*
X-13554439Y507232D01*
X-13477997Y621636D01*
X-13425343Y748755D01*
X-13398500Y883704D01*
X-13398500Y1021296D01*
X-13425343Y1156245D01*
X-13477997Y1283364D01*
X-13554439Y1397768D01*
X-13651732Y1495061D01*
X-13766136Y1571503D01*
X-13893255Y1624157D01*
X-14028204Y1651000D01*
X-14165796Y1651000D01*
X-14300745Y1624157D01*
X-14427864Y1571503D01*
X-14542268Y1495061D01*
X-14639561Y1397768D01*
X-14716003Y1283364D01*
X-14768657Y1156245D01*
X-14795500Y1021296D01*
X-35349361Y1021296D01*
X-35295499Y1065499D01*
X-35179157Y1207262D01*
X-35092707Y1368998D01*
X-35039471Y1544492D01*
X-35021496Y1727000D01*
X-35039471Y1909508D01*
X-35092707Y2085002D01*
X-35179157Y2246738D01*
X-35295499Y2388501D01*
X-35437262Y2504843D01*
X-35598998Y2591293D01*
X-35774492Y2644529D01*
X-35911269Y2658000D01*
X-36552731Y2658000D01*
X-36689508Y2644529D01*
X-36865002Y2591293D01*
X-37026738Y2504843D01*
X-37168501Y2388501D01*
X-37284843Y2246738D01*
X-37371293Y2085002D01*
X-37424529Y1909508D01*
X-37433643Y1816970D01*
X-37524492Y1844529D01*
X-37661269Y1858000D01*
X-38302731Y1858000D01*
X-38439508Y1844529D01*
X-38615002Y1791293D01*
X-38758647Y1714513D01*
X-36781867Y3691292D01*
X-36743104Y3723104D01*
X-36616140Y3877810D01*
X-36521798Y4054313D01*
X-36463702Y4245829D01*
X-36449000Y4395098D01*
X-36449000Y4395099D01*
X-36444085Y4445000D01*
X-36449000Y4494902D01*
X-36449000Y6604000D01*
X-31261920Y6604000D01*
X-27618355Y2960435D01*
X-27602448Y2941052D01*
X-27525095Y2877571D01*
X-27436843Y2830399D01*
X-27341085Y2801351D01*
X-27266447Y2794000D01*
X-27266444Y2794000D01*
X-27241500Y2791543D01*
X-27216556Y2794000D01*
X-24086420Y2794000D01*
X-23939500Y2647080D01*
X-23939500Y2598204D01*
X-23912657Y2463255D01*
X-23860003Y2336136D01*
X-23783561Y2221732D01*
X-23686268Y2124439D01*
X-23571864Y2047997D01*
X-23444745Y1995343D01*
X-23309796Y1968500D01*
X-23172204Y1968500D01*
X-23037255Y1995343D01*
X-22910136Y2047997D01*
X-22795732Y2124439D01*
X-22698439Y2221732D01*
X-22621997Y2336136D01*
X-22569343Y2463255D01*
X-22542500Y2598204D01*
X-22542500Y2735796D01*
X-22569343Y2870745D01*
X-22621997Y2997864D01*
X-22646955Y3035216D01*
X-22593216Y3088955D01*
X-22555864Y3063997D01*
X-22428745Y3011343D01*
X-22293796Y2984500D01*
X-22156204Y2984500D01*
X-22021255Y3011343D01*
X-21894136Y3063997D01*
X-21779732Y3140439D01*
X-21682439Y3237732D01*
X-21605997Y3352136D01*
X-21553343Y3479255D01*
X-21526500Y3614204D01*
X-21526500Y3751796D01*
X-21553343Y3886745D01*
X-21593651Y3984057D01*
X-21525732Y4029439D01*
X-21428439Y4126732D01*
X-21351997Y4241136D01*
X-21299343Y4368255D01*
X-21272500Y4503204D01*
X-21272500Y4640796D01*
X-21299343Y4775745D01*
X-21351997Y4902864D01*
X-21428439Y5017268D01*
X-21525732Y5114561D01*
X-21640136Y5191003D01*
X-21767255Y5243657D01*
X-21902204Y5270500D01*
X-21978955Y5270500D01*
X-22029657Y5297601D01*
X-22125415Y5326649D01*
X-22200053Y5334000D01*
X-22200056Y5334000D01*
X-22225000Y5336457D01*
X-22249944Y5334000D01*
X-26332579Y5334000D01*
X-28147387Y7148807D01*
X-28130500Y7233704D01*
X-28130500Y7371296D01*
X-28157343Y7506245D01*
X-28209997Y7633364D01*
X-28286439Y7747768D01*
X-28383732Y7845061D01*
X-28498136Y7921503D01*
X-28625255Y7974157D01*
X-28760204Y8001000D01*
X-28897796Y8001000D01*
X-29032745Y7974157D01*
X-29159864Y7921503D01*
X-29274268Y7845061D01*
X-29371561Y7747768D01*
X-29426350Y7665770D01*
X-29908500Y8147920D01*
X-29908500Y12103557D01*
X-29906043Y12128501D01*
X-29909136Y12159905D01*
X-29915851Y12228085D01*
X-29944899Y12323843D01*
X-29944900Y12323845D01*
X-29992071Y12412096D01*
X-30039650Y12470071D01*
X-30055552Y12489448D01*
X-30074929Y12505350D01*
X-31178500Y13608920D01*
X-31178500Y16040556D01*
X-31176043Y16065500D01*
X-31179840Y16104053D01*
X-31185851Y16165085D01*
X-31214899Y16260843D01*
X-31246252Y16319500D01*
X-31262071Y16349096D01*
X-31285146Y16377212D01*
X-31325552Y16426448D01*
X-31344935Y16442355D01*
X-32770145Y17867565D01*
X-32786052Y17886948D01*
X-32863405Y17950429D01*
X-32951657Y17997601D01*
X-33047415Y18026649D01*
X-33122053Y18034000D01*
X-33122056Y18034000D01*
X-33147000Y18036457D01*
X-33171944Y18034000D01*
X-36238579Y18034000D01*
X-36512500Y18307920D01*
X-36512500Y18897600D01*
X-36514940Y18922376D01*
X-36515129Y18923000D01*
X-34544000Y18923000D01*
X-34469671Y18930321D01*
X-34398198Y18952002D01*
X-34332328Y18987210D01*
X-34274592Y19034592D01*
X-34020592Y19288592D01*
X-33973210Y19346328D01*
X-33938002Y19412198D01*
X-33916321Y19483671D01*
X-33909000Y19558000D01*
X-33909000Y21749684D01*
X-33878184Y21780500D01*
X-32479316Y21780500D01*
X-32448500Y21749684D01*
G36*
X5461000Y13282394D02*
G01*
X5461000Y11049000D01*
X5463440Y11024224D01*
X5470667Y11000399D01*
X5482403Y10978443D01*
X5498197Y10959197D01*
X5752197Y10705197D01*
X5771443Y10689403D01*
X5793399Y10677667D01*
X5817224Y10670440D01*
X5842000Y10668000D01*
X12621257Y10668000D01*
X12659901Y10642179D01*
X12821688Y10575164D01*
X12993441Y10541000D01*
X13168559Y10541000D01*
X13340312Y10575164D01*
X13502099Y10642179D01*
X13540743Y10668000D01*
X14425394Y10668000D01*
X14605000Y10488394D01*
X14605000Y9831606D01*
X14425394Y9652000D01*
X12700000Y9652000D01*
X12675224Y9649560D01*
X12651399Y9642333D01*
X12629443Y9630597D01*
X12610197Y9614803D01*
X12356197Y9360803D01*
X12340403Y9341557D01*
X12328667Y9319601D01*
X12321440Y9295776D01*
X12319000Y9271000D01*
X12319000Y8815606D01*
X12139394Y8636000D01*
X3989606Y8636000D01*
X3810000Y8815606D01*
X3810000Y13282394D01*
X3862606Y13335000D01*
X5408394Y13335000D01*
X5461000Y13282394D01*
X5461000Y13282394D01*
G37*
X5461000Y13282394D02*
X5461000Y11049000D01*
X5463440Y11024224D01*
X5470667Y11000399D01*
X5482403Y10978443D01*
X5498197Y10959197D01*
X5752197Y10705197D01*
X5771443Y10689403D01*
X5793399Y10677667D01*
X5817224Y10670440D01*
X5842000Y10668000D01*
X12621257Y10668000D01*
X12659901Y10642179D01*
X12821688Y10575164D01*
X12993441Y10541000D01*
X13168559Y10541000D01*
X13340312Y10575164D01*
X13502099Y10642179D01*
X13540743Y10668000D01*
X14425394Y10668000D01*
X14605000Y10488394D01*
X14605000Y9831606D01*
X14425394Y9652000D01*
X12700000Y9652000D01*
X12675224Y9649560D01*
X12651399Y9642333D01*
X12629443Y9630597D01*
X12610197Y9614803D01*
X12356197Y9360803D01*
X12340403Y9341557D01*
X12328667Y9319601D01*
X12321440Y9295776D01*
X12319000Y9271000D01*
X12319000Y8815606D01*
X12139394Y8636000D01*
X3989606Y8636000D01*
X3810000Y8815606D01*
X3810000Y13282394D01*
X3862606Y13335000D01*
X5408394Y13335000D01*
X5461000Y13282394D01*
G36*
X9461500Y29919394D02*
G01*
X9461500Y26214606D01*
X9281894Y26035000D01*
X-3492500Y26035000D01*
X-3517276Y26032560D01*
X-3541101Y26025333D01*
X-3563057Y26013597D01*
X-3582303Y25997803D01*
X-3836303Y25743803D01*
X-3852097Y25724557D01*
X-3863833Y25702601D01*
X-3871060Y25678776D01*
X-3873500Y25654000D01*
X-3873500Y19875500D01*
X-3871060Y19850724D01*
X-3863541Y19826202D01*
X-3681811Y19394748D01*
X-3669945Y19372861D01*
X-3653497Y19353181D01*
X-1131986Y16891000D01*
X-6750840Y16891000D01*
X-6794500Y16895300D01*
X-6838160Y16891000D01*
X-6838167Y16891000D01*
X-6952175Y16879771D01*
X-6968775Y16878136D01*
X-7005716Y16866930D01*
X-7136351Y16827303D01*
X-7290791Y16744753D01*
X-7290793Y16744752D01*
X-7290792Y16744752D01*
X-7379975Y16671561D01*
X-7426159Y16633659D01*
X-7453995Y16599741D01*
X-8408238Y15645497D01*
X-8442159Y15617659D01*
X-8553253Y15482291D01*
X-8635803Y15327851D01*
X-8686636Y15160274D01*
X-8699500Y15029667D01*
X-8699500Y15029660D01*
X-8703800Y14986000D01*
X-8699500Y14942340D01*
X-8699500Y14624834D01*
X-8686636Y14494227D01*
X-8635803Y14326650D01*
X-8553253Y14172210D01*
X-8442159Y14036841D01*
X-8306791Y13925747D01*
X-8152351Y13843197D01*
X-7984774Y13792364D01*
X-7810500Y13775199D01*
X-7636227Y13792364D01*
X-7468650Y13843197D01*
X-7314210Y13925747D01*
X-7178841Y14036841D01*
X-7067747Y14172209D01*
X-6985197Y14326649D01*
X-6934364Y14494226D01*
X-6922272Y14616992D01*
X-6426264Y15113000D01*
X-1130235Y15113000D01*
X571500Y13411264D01*
X571501Y12489677D01*
X567199Y12446000D01*
X584364Y12271726D01*
X635197Y12104149D01*
X717747Y11949709D01*
X828841Y11814341D01*
X952500Y11712856D01*
X952501Y11084075D01*
X951732Y11083561D01*
X854439Y10986268D01*
X777997Y10871864D01*
X725343Y10744745D01*
X698500Y10609796D01*
X698500Y10472204D01*
X725343Y10337255D01*
X777997Y10210136D01*
X854439Y10095732D01*
X951732Y9998439D01*
X1066136Y9921997D01*
X1193255Y9869343D01*
X1328204Y9842500D01*
X1465796Y9842500D01*
X1600745Y9869343D01*
X1727864Y9921997D01*
X1842268Y9998439D01*
X1939561Y10095732D01*
X2016003Y10210136D01*
X2068657Y10337255D01*
X2095500Y10472204D01*
X2095500Y10609796D01*
X2068657Y10744745D01*
X2016003Y10871864D01*
X1968500Y10942958D01*
X1968500Y11557000D01*
X2774167Y11557000D01*
X2904774Y11569864D01*
X3072351Y11620697D01*
X3175000Y11675564D01*
X3175000Y8815606D01*
X2995394Y8636000D01*
X-22582304Y8636000D01*
X-22980051Y8789772D01*
X-28853269Y14129061D01*
X-29019500Y14504835D01*
X-29019500Y17277296D01*
X-26098500Y17277296D01*
X-26098500Y17139704D01*
X-26071657Y17004755D01*
X-26019003Y16877636D01*
X-25942561Y16763232D01*
X-25845268Y16665939D01*
X-25730864Y16589497D01*
X-25603745Y16536843D01*
X-25468796Y16510000D01*
X-25419920Y16510000D01*
X-24697355Y15787435D01*
X-24681448Y15768052D01*
X-24604095Y15704571D01*
X-24515843Y15657399D01*
X-24420085Y15628351D01*
X-24345447Y15621000D01*
X-24345444Y15621000D01*
X-24320500Y15618543D01*
X-24295556Y15621000D01*
X-20164829Y15621000D01*
X-20130268Y15586439D01*
X-20015864Y15509997D01*
X-19888745Y15457343D01*
X-19753796Y15430500D01*
X-19616204Y15430500D01*
X-19481255Y15457343D01*
X-19354136Y15509997D01*
X-19239732Y15586439D01*
X-19142439Y15683732D01*
X-19065997Y15798136D01*
X-19013343Y15925255D01*
X-18986500Y16060204D01*
X-18986500Y16197796D01*
X-19013343Y16332745D01*
X-19065997Y16459864D01*
X-19142439Y16574268D01*
X-19239732Y16671561D01*
X-19354136Y16748003D01*
X-19481255Y16800657D01*
X-19616204Y16827500D01*
X-19753796Y16827500D01*
X-19888745Y16800657D01*
X-20015864Y16748003D01*
X-20130268Y16671561D01*
X-20164829Y16637000D01*
X-24110080Y16637000D01*
X-24701500Y17228420D01*
X-24701500Y17277296D01*
X-24728343Y17412245D01*
X-24780997Y17539364D01*
X-24857439Y17653768D01*
X-24954732Y17751061D01*
X-25069136Y17827503D01*
X-25196255Y17880157D01*
X-25331204Y17907000D01*
X-25468796Y17907000D01*
X-25603745Y17880157D01*
X-25730864Y17827503D01*
X-25845268Y17751061D01*
X-25942561Y17653768D01*
X-26019003Y17539364D01*
X-26071657Y17412245D01*
X-26098500Y17277296D01*
X-29019500Y17277296D01*
X-29019500Y19050000D01*
X-29021940Y19074776D01*
X-29029167Y19098601D01*
X-29040903Y19120557D01*
X-29056697Y19139803D01*
X-29310697Y19393803D01*
X-29329943Y19409597D01*
X-29351899Y19421333D01*
X-29375724Y19428560D01*
X-29400500Y19431000D01*
X-31760894Y19431000D01*
X-31940500Y19610606D01*
X-31940500Y21907500D01*
X-31942940Y21932276D01*
X-31950167Y21956101D01*
X-31961903Y21978057D01*
X-31977697Y21997303D01*
X-32231697Y22251303D01*
X-32250943Y22267097D01*
X-32272899Y22278833D01*
X-32296724Y22286060D01*
X-32321500Y22288500D01*
X-34036000Y22288500D01*
X-34060776Y22286060D01*
X-34084601Y22278833D01*
X-34106557Y22267097D01*
X-34125803Y22251303D01*
X-34379803Y21997303D01*
X-34395597Y21978057D01*
X-34407333Y21956101D01*
X-34414560Y21932276D01*
X-34417000Y21907500D01*
X-34417000Y19610606D01*
X-34596606Y19431000D01*
X-37221894Y19431000D01*
X-37401500Y19610606D01*
X-37401500Y22121660D01*
X-32853159Y26670000D01*
X-23598340Y26670000D01*
X-20097208Y23168867D01*
X-20065396Y23130104D01*
X-19910690Y23003140D01*
X-19769457Y22927650D01*
X-19734187Y22908798D01*
X-19542671Y22850702D01*
X-19343500Y22831085D01*
X-19293598Y22836000D01*
X-19113500Y22836000D01*
X-19113500Y19558000D01*
X-19111060Y19533224D01*
X-19103833Y19509399D01*
X-19092097Y19487443D01*
X-19076303Y19468197D01*
X-18822303Y19214197D01*
X-18803057Y19198403D01*
X-18781101Y19186667D01*
X-18757276Y19179440D01*
X-18732500Y19177000D01*
X-16129000Y19177000D01*
X-16104224Y19179440D01*
X-16080399Y19186667D01*
X-16058443Y19198403D01*
X-16039197Y19214197D01*
X-15785197Y19468197D01*
X-15769403Y19487443D01*
X-15757667Y19509399D01*
X-15750440Y19533224D01*
X-15748000Y19558000D01*
X-15748000Y20725000D01*
X-15441000Y20725000D01*
X-15441000Y20375000D01*
X-15394492Y20156793D01*
X-15306307Y19951852D01*
X-15179835Y19768053D01*
X-15019935Y19612459D01*
X-14832753Y19491050D01*
X-14611245Y19411857D01*
X-14437000Y19474066D01*
X-14437000Y20725000D01*
X-14183000Y20725000D01*
X-14183000Y19474066D01*
X-14008755Y19411857D01*
X-13787247Y19491050D01*
X-13600065Y19612459D01*
X-13440165Y19768053D01*
X-13313693Y19951852D01*
X-13225508Y20156793D01*
X-13179000Y20375000D01*
X-13179000Y20725000D01*
X-12441000Y20725000D01*
X-12441000Y20375000D01*
X-12394492Y20156793D01*
X-12306307Y19951852D01*
X-12179835Y19768053D01*
X-12019935Y19612459D01*
X-11832753Y19491050D01*
X-11611245Y19411857D01*
X-11437000Y19474066D01*
X-11437000Y20725000D01*
X-11183000Y20725000D01*
X-11183000Y19474066D01*
X-11008755Y19411857D01*
X-10787247Y19491050D01*
X-10600065Y19612459D01*
X-10440165Y19768053D01*
X-10313693Y19951852D01*
X-10225508Y20156793D01*
X-10179000Y20375000D01*
X-10179000Y20725000D01*
X-9441000Y20725000D01*
X-9441000Y20375000D01*
X-9394492Y20156793D01*
X-9306307Y19951852D01*
X-9179835Y19768053D01*
X-9019935Y19612459D01*
X-8832753Y19491050D01*
X-8611245Y19411857D01*
X-8437000Y19474066D01*
X-8437000Y20725000D01*
X-8183000Y20725000D01*
X-8183000Y19474066D01*
X-8008755Y19411857D01*
X-7787247Y19491050D01*
X-7600065Y19612459D01*
X-7440165Y19768053D01*
X-7313693Y19951852D01*
X-7225508Y20156793D01*
X-7179000Y20375000D01*
X-7179000Y20725000D01*
X-6441000Y20725000D01*
X-6441000Y20375000D01*
X-6394492Y20156793D01*
X-6306307Y19951852D01*
X-6179835Y19768053D01*
X-6019935Y19612459D01*
X-5832753Y19491050D01*
X-5611245Y19411857D01*
X-5437000Y19474066D01*
X-5437000Y20725000D01*
X-5183000Y20725000D01*
X-5183000Y19474066D01*
X-5008755Y19411857D01*
X-4787247Y19491050D01*
X-4600065Y19612459D01*
X-4440165Y19768053D01*
X-4313693Y19951852D01*
X-4225508Y20156793D01*
X-4179000Y20375000D01*
X-4179000Y20725000D01*
X-5183000Y20725000D01*
X-5437000Y20725000D01*
X-6441000Y20725000D01*
X-7179000Y20725000D01*
X-8183000Y20725000D01*
X-8437000Y20725000D01*
X-9441000Y20725000D01*
X-10179000Y20725000D01*
X-11183000Y20725000D01*
X-11437000Y20725000D01*
X-12441000Y20725000D01*
X-13179000Y20725000D01*
X-14183000Y20725000D01*
X-14437000Y20725000D01*
X-15441000Y20725000D01*
X-15748000Y20725000D01*
X-15748000Y21329000D01*
X-15441000Y21329000D01*
X-15441000Y20979000D01*
X-14437000Y20979000D01*
X-14437000Y22229934D01*
X-14183000Y22229934D01*
X-14183000Y20979000D01*
X-13179000Y20979000D01*
X-13179000Y21329000D01*
X-12441000Y21329000D01*
X-12441000Y20979000D01*
X-11437000Y20979000D01*
X-11437000Y22229934D01*
X-11183000Y22229934D01*
X-11183000Y20979000D01*
X-10179000Y20979000D01*
X-10179000Y21329000D01*
X-9441000Y21329000D01*
X-9441000Y20979000D01*
X-8437000Y20979000D01*
X-8437000Y22229934D01*
X-8183000Y22229934D01*
X-8183000Y20979000D01*
X-7179000Y20979000D01*
X-7179000Y21329000D01*
X-6441000Y21329000D01*
X-6441000Y20979000D01*
X-5437000Y20979000D01*
X-5437000Y22229934D01*
X-5183000Y22229934D01*
X-5183000Y20979000D01*
X-4179000Y20979000D01*
X-4179000Y21329000D01*
X-4225508Y21547207D01*
X-4313693Y21752148D01*
X-4440165Y21935947D01*
X-4600065Y22091541D01*
X-4787247Y22212950D01*
X-5008755Y22292143D01*
X-5183000Y22229934D01*
X-5437000Y22229934D01*
X-5611245Y22292143D01*
X-5832753Y22212950D01*
X-6019935Y22091541D01*
X-6179835Y21935947D01*
X-6306307Y21752148D01*
X-6394492Y21547207D01*
X-6441000Y21329000D01*
X-7179000Y21329000D01*
X-7225508Y21547207D01*
X-7313693Y21752148D01*
X-7440165Y21935947D01*
X-7600065Y22091541D01*
X-7787247Y22212950D01*
X-8008755Y22292143D01*
X-8183000Y22229934D01*
X-8437000Y22229934D01*
X-8611245Y22292143D01*
X-8832753Y22212950D01*
X-9019935Y22091541D01*
X-9179835Y21935947D01*
X-9306307Y21752148D01*
X-9394492Y21547207D01*
X-9441000Y21329000D01*
X-10179000Y21329000D01*
X-10225508Y21547207D01*
X-10313693Y21752148D01*
X-10440165Y21935947D01*
X-10600065Y22091541D01*
X-10787247Y22212950D01*
X-11008755Y22292143D01*
X-11183000Y22229934D01*
X-11437000Y22229934D01*
X-11611245Y22292143D01*
X-11832753Y22212950D01*
X-12019935Y22091541D01*
X-12179835Y21935947D01*
X-12306307Y21752148D01*
X-12394492Y21547207D01*
X-12441000Y21329000D01*
X-13179000Y21329000D01*
X-13225508Y21547207D01*
X-13313693Y21752148D01*
X-13440165Y21935947D01*
X-13600065Y22091541D01*
X-13787247Y22212950D01*
X-14008755Y22292143D01*
X-14183000Y22229934D01*
X-14437000Y22229934D01*
X-14611245Y22292143D01*
X-14832753Y22212950D01*
X-15019935Y22091541D01*
X-15179835Y21935947D01*
X-15306307Y21752148D01*
X-15394492Y21547207D01*
X-15441000Y21329000D01*
X-15748000Y21329000D01*
X-15748000Y23725000D01*
X-15441000Y23725000D01*
X-15441000Y23375000D01*
X-15394492Y23156793D01*
X-15306307Y22951852D01*
X-15179835Y22768053D01*
X-15019935Y22612459D01*
X-14832753Y22491050D01*
X-14611245Y22411857D01*
X-14437000Y22474066D01*
X-14437000Y23725000D01*
X-14183000Y23725000D01*
X-14183000Y22474066D01*
X-14008755Y22411857D01*
X-13787247Y22491050D01*
X-13600065Y22612459D01*
X-13440165Y22768053D01*
X-13313693Y22951852D01*
X-13225508Y23156793D01*
X-13179000Y23375000D01*
X-13179000Y23725000D01*
X-12441000Y23725000D01*
X-12441000Y23375000D01*
X-12394492Y23156793D01*
X-12306307Y22951852D01*
X-12179835Y22768053D01*
X-12019935Y22612459D01*
X-11832753Y22491050D01*
X-11611245Y22411857D01*
X-11437000Y22474066D01*
X-11437000Y23725000D01*
X-11183000Y23725000D01*
X-11183000Y22474066D01*
X-11008755Y22411857D01*
X-10787247Y22491050D01*
X-10600065Y22612459D01*
X-10440165Y22768053D01*
X-10313693Y22951852D01*
X-10225508Y23156793D01*
X-10179000Y23375000D01*
X-10179000Y23725000D01*
X-9441000Y23725000D01*
X-9441000Y23375000D01*
X-9394492Y23156793D01*
X-9306307Y22951852D01*
X-9179835Y22768053D01*
X-9019935Y22612459D01*
X-8832753Y22491050D01*
X-8611245Y22411857D01*
X-8437000Y22474066D01*
X-8437000Y23725000D01*
X-8183000Y23725000D01*
X-8183000Y22474066D01*
X-8008755Y22411857D01*
X-7787247Y22491050D01*
X-7600065Y22612459D01*
X-7440165Y22768053D01*
X-7313693Y22951852D01*
X-7225508Y23156793D01*
X-7179000Y23375000D01*
X-7179000Y23725000D01*
X-6441000Y23725000D01*
X-6441000Y23375000D01*
X-6394492Y23156793D01*
X-6306307Y22951852D01*
X-6179835Y22768053D01*
X-6019935Y22612459D01*
X-5832753Y22491050D01*
X-5611245Y22411857D01*
X-5437000Y22474066D01*
X-5437000Y23725000D01*
X-5183000Y23725000D01*
X-5183000Y22474066D01*
X-5008755Y22411857D01*
X-4787247Y22491050D01*
X-4600065Y22612459D01*
X-4440165Y22768053D01*
X-4313693Y22951852D01*
X-4225508Y23156793D01*
X-4179000Y23375000D01*
X-4179000Y23725000D01*
X-5183000Y23725000D01*
X-5437000Y23725000D01*
X-6441000Y23725000D01*
X-7179000Y23725000D01*
X-8183000Y23725000D01*
X-8437000Y23725000D01*
X-9441000Y23725000D01*
X-10179000Y23725000D01*
X-11183000Y23725000D01*
X-11437000Y23725000D01*
X-12441000Y23725000D01*
X-13179000Y23725000D01*
X-14183000Y23725000D01*
X-14437000Y23725000D01*
X-15441000Y23725000D01*
X-15748000Y23725000D01*
X-15748000Y24329000D01*
X-15441000Y24329000D01*
X-15441000Y23979000D01*
X-14437000Y23979000D01*
X-14437000Y25229934D01*
X-14183000Y25229934D01*
X-14183000Y23979000D01*
X-13179000Y23979000D01*
X-13179000Y24329000D01*
X-12441000Y24329000D01*
X-12441000Y23979000D01*
X-11437000Y23979000D01*
X-11437000Y25229934D01*
X-11183000Y25229934D01*
X-11183000Y23979000D01*
X-10179000Y23979000D01*
X-10179000Y24329000D01*
X-9441000Y24329000D01*
X-9441000Y23979000D01*
X-8437000Y23979000D01*
X-8437000Y25229934D01*
X-8183000Y25229934D01*
X-8183000Y23979000D01*
X-7179000Y23979000D01*
X-7179000Y24329000D01*
X-6441000Y24329000D01*
X-6441000Y23979000D01*
X-5437000Y23979000D01*
X-5437000Y25229934D01*
X-5183000Y25229934D01*
X-5183000Y23979000D01*
X-4179000Y23979000D01*
X-4179000Y24329000D01*
X-4225508Y24547207D01*
X-4313693Y24752148D01*
X-4440165Y24935947D01*
X-4600065Y25091541D01*
X-4787247Y25212950D01*
X-5008755Y25292143D01*
X-5183000Y25229934D01*
X-5437000Y25229934D01*
X-5611245Y25292143D01*
X-5832753Y25212950D01*
X-6019935Y25091541D01*
X-6179835Y24935947D01*
X-6306307Y24752148D01*
X-6394492Y24547207D01*
X-6441000Y24329000D01*
X-7179000Y24329000D01*
X-7225508Y24547207D01*
X-7313693Y24752148D01*
X-7440165Y24935947D01*
X-7600065Y25091541D01*
X-7787247Y25212950D01*
X-8008755Y25292143D01*
X-8183000Y25229934D01*
X-8437000Y25229934D01*
X-8611245Y25292143D01*
X-8832753Y25212950D01*
X-9019935Y25091541D01*
X-9179835Y24935947D01*
X-9306307Y24752148D01*
X-9394492Y24547207D01*
X-9441000Y24329000D01*
X-10179000Y24329000D01*
X-10225508Y24547207D01*
X-10313693Y24752148D01*
X-10440165Y24935947D01*
X-10600065Y25091541D01*
X-10787247Y25212950D01*
X-11008755Y25292143D01*
X-11183000Y25229934D01*
X-11437000Y25229934D01*
X-11611245Y25292143D01*
X-11832753Y25212950D01*
X-12019935Y25091541D01*
X-12179835Y24935947D01*
X-12306307Y24752148D01*
X-12394492Y24547207D01*
X-12441000Y24329000D01*
X-13179000Y24329000D01*
X-13225508Y24547207D01*
X-13313693Y24752148D01*
X-13440165Y24935947D01*
X-13600065Y25091541D01*
X-13787247Y25212950D01*
X-14008755Y25292143D01*
X-14183000Y25229934D01*
X-14437000Y25229934D01*
X-14611245Y25292143D01*
X-14832753Y25212950D01*
X-15019935Y25091541D01*
X-15179835Y24935947D01*
X-15306307Y24752148D01*
X-15394492Y24547207D01*
X-15441000Y24329000D01*
X-15748000Y24329000D01*
X-15748000Y25355647D01*
X-11004646Y30099000D01*
X9281894Y30099000D01*
X9461500Y29919394D01*
X9461500Y29919394D01*
G37*
X9461500Y29919394D02*
X9461500Y26214606D01*
X9281894Y26035000D01*
X-3492500Y26035000D01*
X-3517276Y26032560D01*
X-3541101Y26025333D01*
X-3563057Y26013597D01*
X-3582303Y25997803D01*
X-3836303Y25743803D01*
X-3852097Y25724557D01*
X-3863833Y25702601D01*
X-3871060Y25678776D01*
X-3873500Y25654000D01*
X-3873500Y19875500D01*
X-3871060Y19850724D01*
X-3863541Y19826202D01*
X-3681811Y19394748D01*
X-3669945Y19372861D01*
X-3653497Y19353181D01*
X-1131986Y16891000D01*
X-6750840Y16891000D01*
X-6794500Y16895300D01*
X-6838160Y16891000D01*
X-6838167Y16891000D01*
X-6952175Y16879771D01*
X-6968775Y16878136D01*
X-7005716Y16866930D01*
X-7136351Y16827303D01*
X-7290791Y16744753D01*
X-7290793Y16744752D01*
X-7290792Y16744752D01*
X-7379975Y16671561D01*
X-7426159Y16633659D01*
X-7453995Y16599741D01*
X-8408238Y15645497D01*
X-8442159Y15617659D01*
X-8553253Y15482291D01*
X-8635803Y15327851D01*
X-8686636Y15160274D01*
X-8699500Y15029667D01*
X-8699500Y15029660D01*
X-8703800Y14986000D01*
X-8699500Y14942340D01*
X-8699500Y14624834D01*
X-8686636Y14494227D01*
X-8635803Y14326650D01*
X-8553253Y14172210D01*
X-8442159Y14036841D01*
X-8306791Y13925747D01*
X-8152351Y13843197D01*
X-7984774Y13792364D01*
X-7810500Y13775199D01*
X-7636227Y13792364D01*
X-7468650Y13843197D01*
X-7314210Y13925747D01*
X-7178841Y14036841D01*
X-7067747Y14172209D01*
X-6985197Y14326649D01*
X-6934364Y14494226D01*
X-6922272Y14616992D01*
X-6426264Y15113000D01*
X-1130235Y15113000D01*
X571500Y13411264D01*
X571501Y12489677D01*
X567199Y12446000D01*
X584364Y12271726D01*
X635197Y12104149D01*
X717747Y11949709D01*
X828841Y11814341D01*
X952500Y11712856D01*
X952501Y11084075D01*
X951732Y11083561D01*
X854439Y10986268D01*
X777997Y10871864D01*
X725343Y10744745D01*
X698500Y10609796D01*
X698500Y10472204D01*
X725343Y10337255D01*
X777997Y10210136D01*
X854439Y10095732D01*
X951732Y9998439D01*
X1066136Y9921997D01*
X1193255Y9869343D01*
X1328204Y9842500D01*
X1465796Y9842500D01*
X1600745Y9869343D01*
X1727864Y9921997D01*
X1842268Y9998439D01*
X1939561Y10095732D01*
X2016003Y10210136D01*
X2068657Y10337255D01*
X2095500Y10472204D01*
X2095500Y10609796D01*
X2068657Y10744745D01*
X2016003Y10871864D01*
X1968500Y10942958D01*
X1968500Y11557000D01*
X2774167Y11557000D01*
X2904774Y11569864D01*
X3072351Y11620697D01*
X3175000Y11675564D01*
X3175000Y8815606D01*
X2995394Y8636000D01*
X-22582304Y8636000D01*
X-22980051Y8789772D01*
X-28853269Y14129061D01*
X-29019500Y14504835D01*
X-29019500Y17277296D01*
X-26098500Y17277296D01*
X-26098500Y17139704D01*
X-26071657Y17004755D01*
X-26019003Y16877636D01*
X-25942561Y16763232D01*
X-25845268Y16665939D01*
X-25730864Y16589497D01*
X-25603745Y16536843D01*
X-25468796Y16510000D01*
X-25419920Y16510000D01*
X-24697355Y15787435D01*
X-24681448Y15768052D01*
X-24604095Y15704571D01*
X-24515843Y15657399D01*
X-24420085Y15628351D01*
X-24345447Y15621000D01*
X-24345444Y15621000D01*
X-24320500Y15618543D01*
X-24295556Y15621000D01*
X-20164829Y15621000D01*
X-20130268Y15586439D01*
X-20015864Y15509997D01*
X-19888745Y15457343D01*
X-19753796Y15430500D01*
X-19616204Y15430500D01*
X-19481255Y15457343D01*
X-19354136Y15509997D01*
X-19239732Y15586439D01*
X-19142439Y15683732D01*
X-19065997Y15798136D01*
X-19013343Y15925255D01*
X-18986500Y16060204D01*
X-18986500Y16197796D01*
X-19013343Y16332745D01*
X-19065997Y16459864D01*
X-19142439Y16574268D01*
X-19239732Y16671561D01*
X-19354136Y16748003D01*
X-19481255Y16800657D01*
X-19616204Y16827500D01*
X-19753796Y16827500D01*
X-19888745Y16800657D01*
X-20015864Y16748003D01*
X-20130268Y16671561D01*
X-20164829Y16637000D01*
X-24110080Y16637000D01*
X-24701500Y17228420D01*
X-24701500Y17277296D01*
X-24728343Y17412245D01*
X-24780997Y17539364D01*
X-24857439Y17653768D01*
X-24954732Y17751061D01*
X-25069136Y17827503D01*
X-25196255Y17880157D01*
X-25331204Y17907000D01*
X-25468796Y17907000D01*
X-25603745Y17880157D01*
X-25730864Y17827503D01*
X-25845268Y17751061D01*
X-25942561Y17653768D01*
X-26019003Y17539364D01*
X-26071657Y17412245D01*
X-26098500Y17277296D01*
X-29019500Y17277296D01*
X-29019500Y19050000D01*
X-29021940Y19074776D01*
X-29029167Y19098601D01*
X-29040903Y19120557D01*
X-29056697Y19139803D01*
X-29310697Y19393803D01*
X-29329943Y19409597D01*
X-29351899Y19421333D01*
X-29375724Y19428560D01*
X-29400500Y19431000D01*
X-31760894Y19431000D01*
X-31940500Y19610606D01*
X-31940500Y21907500D01*
X-31942940Y21932276D01*
X-31950167Y21956101D01*
X-31961903Y21978057D01*
X-31977697Y21997303D01*
X-32231697Y22251303D01*
X-32250943Y22267097D01*
X-32272899Y22278833D01*
X-32296724Y22286060D01*
X-32321500Y22288500D01*
X-34036000Y22288500D01*
X-34060776Y22286060D01*
X-34084601Y22278833D01*
X-34106557Y22267097D01*
X-34125803Y22251303D01*
X-34379803Y21997303D01*
X-34395597Y21978057D01*
X-34407333Y21956101D01*
X-34414560Y21932276D01*
X-34417000Y21907500D01*
X-34417000Y19610606D01*
X-34596606Y19431000D01*
X-37221894Y19431000D01*
X-37401500Y19610606D01*
X-37401500Y22121660D01*
X-32853159Y26670000D01*
X-23598340Y26670000D01*
X-20097208Y23168867D01*
X-20065396Y23130104D01*
X-19910690Y23003140D01*
X-19769457Y22927650D01*
X-19734187Y22908798D01*
X-19542671Y22850702D01*
X-19343500Y22831085D01*
X-19293598Y22836000D01*
X-19113500Y22836000D01*
X-19113500Y19558000D01*
X-19111060Y19533224D01*
X-19103833Y19509399D01*
X-19092097Y19487443D01*
X-19076303Y19468197D01*
X-18822303Y19214197D01*
X-18803057Y19198403D01*
X-18781101Y19186667D01*
X-18757276Y19179440D01*
X-18732500Y19177000D01*
X-16129000Y19177000D01*
X-16104224Y19179440D01*
X-16080399Y19186667D01*
X-16058443Y19198403D01*
X-16039197Y19214197D01*
X-15785197Y19468197D01*
X-15769403Y19487443D01*
X-15757667Y19509399D01*
X-15750440Y19533224D01*
X-15748000Y19558000D01*
X-15748000Y20725000D01*
X-15441000Y20725000D01*
X-15441000Y20375000D01*
X-15394492Y20156793D01*
X-15306307Y19951852D01*
X-15179835Y19768053D01*
X-15019935Y19612459D01*
X-14832753Y19491050D01*
X-14611245Y19411857D01*
X-14437000Y19474066D01*
X-14437000Y20725000D01*
X-14183000Y20725000D01*
X-14183000Y19474066D01*
X-14008755Y19411857D01*
X-13787247Y19491050D01*
X-13600065Y19612459D01*
X-13440165Y19768053D01*
X-13313693Y19951852D01*
X-13225508Y20156793D01*
X-13179000Y20375000D01*
X-13179000Y20725000D01*
X-12441000Y20725000D01*
X-12441000Y20375000D01*
X-12394492Y20156793D01*
X-12306307Y19951852D01*
X-12179835Y19768053D01*
X-12019935Y19612459D01*
X-11832753Y19491050D01*
X-11611245Y19411857D01*
X-11437000Y19474066D01*
X-11437000Y20725000D01*
X-11183000Y20725000D01*
X-11183000Y19474066D01*
X-11008755Y19411857D01*
X-10787247Y19491050D01*
X-10600065Y19612459D01*
X-10440165Y19768053D01*
X-10313693Y19951852D01*
X-10225508Y20156793D01*
X-10179000Y20375000D01*
X-10179000Y20725000D01*
X-9441000Y20725000D01*
X-9441000Y20375000D01*
X-9394492Y20156793D01*
X-9306307Y19951852D01*
X-9179835Y19768053D01*
X-9019935Y19612459D01*
X-8832753Y19491050D01*
X-8611245Y19411857D01*
X-8437000Y19474066D01*
X-8437000Y20725000D01*
X-8183000Y20725000D01*
X-8183000Y19474066D01*
X-8008755Y19411857D01*
X-7787247Y19491050D01*
X-7600065Y19612459D01*
X-7440165Y19768053D01*
X-7313693Y19951852D01*
X-7225508Y20156793D01*
X-7179000Y20375000D01*
X-7179000Y20725000D01*
X-6441000Y20725000D01*
X-6441000Y20375000D01*
X-6394492Y20156793D01*
X-6306307Y19951852D01*
X-6179835Y19768053D01*
X-6019935Y19612459D01*
X-5832753Y19491050D01*
X-5611245Y19411857D01*
X-5437000Y19474066D01*
X-5437000Y20725000D01*
X-5183000Y20725000D01*
X-5183000Y19474066D01*
X-5008755Y19411857D01*
X-4787247Y19491050D01*
X-4600065Y19612459D01*
X-4440165Y19768053D01*
X-4313693Y19951852D01*
X-4225508Y20156793D01*
X-4179000Y20375000D01*
X-4179000Y20725000D01*
X-5183000Y20725000D01*
X-5437000Y20725000D01*
X-6441000Y20725000D01*
X-7179000Y20725000D01*
X-8183000Y20725000D01*
X-8437000Y20725000D01*
X-9441000Y20725000D01*
X-10179000Y20725000D01*
X-11183000Y20725000D01*
X-11437000Y20725000D01*
X-12441000Y20725000D01*
X-13179000Y20725000D01*
X-14183000Y20725000D01*
X-14437000Y20725000D01*
X-15441000Y20725000D01*
X-15748000Y20725000D01*
X-15748000Y21329000D01*
X-15441000Y21329000D01*
X-15441000Y20979000D01*
X-14437000Y20979000D01*
X-14437000Y22229934D01*
X-14183000Y22229934D01*
X-14183000Y20979000D01*
X-13179000Y20979000D01*
X-13179000Y21329000D01*
X-12441000Y21329000D01*
X-12441000Y20979000D01*
X-11437000Y20979000D01*
X-11437000Y22229934D01*
X-11183000Y22229934D01*
X-11183000Y20979000D01*
X-10179000Y20979000D01*
X-10179000Y21329000D01*
X-9441000Y21329000D01*
X-9441000Y20979000D01*
X-8437000Y20979000D01*
X-8437000Y22229934D01*
X-8183000Y22229934D01*
X-8183000Y20979000D01*
X-7179000Y20979000D01*
X-7179000Y21329000D01*
X-6441000Y21329000D01*
X-6441000Y20979000D01*
X-5437000Y20979000D01*
X-5437000Y22229934D01*
X-5183000Y22229934D01*
X-5183000Y20979000D01*
X-4179000Y20979000D01*
X-4179000Y21329000D01*
X-4225508Y21547207D01*
X-4313693Y21752148D01*
X-4440165Y21935947D01*
X-4600065Y22091541D01*
X-4787247Y22212950D01*
X-5008755Y22292143D01*
X-5183000Y22229934D01*
X-5437000Y22229934D01*
X-5611245Y22292143D01*
X-5832753Y22212950D01*
X-6019935Y22091541D01*
X-6179835Y21935947D01*
X-6306307Y21752148D01*
X-6394492Y21547207D01*
X-6441000Y21329000D01*
X-7179000Y21329000D01*
X-7225508Y21547207D01*
X-7313693Y21752148D01*
X-7440165Y21935947D01*
X-7600065Y22091541D01*
X-7787247Y22212950D01*
X-8008755Y22292143D01*
X-8183000Y22229934D01*
X-8437000Y22229934D01*
X-8611245Y22292143D01*
X-8832753Y22212950D01*
X-9019935Y22091541D01*
X-9179835Y21935947D01*
X-9306307Y21752148D01*
X-9394492Y21547207D01*
X-9441000Y21329000D01*
X-10179000Y21329000D01*
X-10225508Y21547207D01*
X-10313693Y21752148D01*
X-10440165Y21935947D01*
X-10600065Y22091541D01*
X-10787247Y22212950D01*
X-11008755Y22292143D01*
X-11183000Y22229934D01*
X-11437000Y22229934D01*
X-11611245Y22292143D01*
X-11832753Y22212950D01*
X-12019935Y22091541D01*
X-12179835Y21935947D01*
X-12306307Y21752148D01*
X-12394492Y21547207D01*
X-12441000Y21329000D01*
X-13179000Y21329000D01*
X-13225508Y21547207D01*
X-13313693Y21752148D01*
X-13440165Y21935947D01*
X-13600065Y22091541D01*
X-13787247Y22212950D01*
X-14008755Y22292143D01*
X-14183000Y22229934D01*
X-14437000Y22229934D01*
X-14611245Y22292143D01*
X-14832753Y22212950D01*
X-15019935Y22091541D01*
X-15179835Y21935947D01*
X-15306307Y21752148D01*
X-15394492Y21547207D01*
X-15441000Y21329000D01*
X-15748000Y21329000D01*
X-15748000Y23725000D01*
X-15441000Y23725000D01*
X-15441000Y23375000D01*
X-15394492Y23156793D01*
X-15306307Y22951852D01*
X-15179835Y22768053D01*
X-15019935Y22612459D01*
X-14832753Y22491050D01*
X-14611245Y22411857D01*
X-14437000Y22474066D01*
X-14437000Y23725000D01*
X-14183000Y23725000D01*
X-14183000Y22474066D01*
X-14008755Y22411857D01*
X-13787247Y22491050D01*
X-13600065Y22612459D01*
X-13440165Y22768053D01*
X-13313693Y22951852D01*
X-13225508Y23156793D01*
X-13179000Y23375000D01*
X-13179000Y23725000D01*
X-12441000Y23725000D01*
X-12441000Y23375000D01*
X-12394492Y23156793D01*
X-12306307Y22951852D01*
X-12179835Y22768053D01*
X-12019935Y22612459D01*
X-11832753Y22491050D01*
X-11611245Y22411857D01*
X-11437000Y22474066D01*
X-11437000Y23725000D01*
X-11183000Y23725000D01*
X-11183000Y22474066D01*
X-11008755Y22411857D01*
X-10787247Y22491050D01*
X-10600065Y22612459D01*
X-10440165Y22768053D01*
X-10313693Y22951852D01*
X-10225508Y23156793D01*
X-10179000Y23375000D01*
X-10179000Y23725000D01*
X-9441000Y23725000D01*
X-9441000Y23375000D01*
X-9394492Y23156793D01*
X-9306307Y22951852D01*
X-9179835Y22768053D01*
X-9019935Y22612459D01*
X-8832753Y22491050D01*
X-8611245Y22411857D01*
X-8437000Y22474066D01*
X-8437000Y23725000D01*
X-8183000Y23725000D01*
X-8183000Y22474066D01*
X-8008755Y22411857D01*
X-7787247Y22491050D01*
X-7600065Y22612459D01*
X-7440165Y22768053D01*
X-7313693Y22951852D01*
X-7225508Y23156793D01*
X-7179000Y23375000D01*
X-7179000Y23725000D01*
X-6441000Y23725000D01*
X-6441000Y23375000D01*
X-6394492Y23156793D01*
X-6306307Y22951852D01*
X-6179835Y22768053D01*
X-6019935Y22612459D01*
X-5832753Y22491050D01*
X-5611245Y22411857D01*
X-5437000Y22474066D01*
X-5437000Y23725000D01*
X-5183000Y23725000D01*
X-5183000Y22474066D01*
X-5008755Y22411857D01*
X-4787247Y22491050D01*
X-4600065Y22612459D01*
X-4440165Y22768053D01*
X-4313693Y22951852D01*
X-4225508Y23156793D01*
X-4179000Y23375000D01*
X-4179000Y23725000D01*
X-5183000Y23725000D01*
X-5437000Y23725000D01*
X-6441000Y23725000D01*
X-7179000Y23725000D01*
X-8183000Y23725000D01*
X-8437000Y23725000D01*
X-9441000Y23725000D01*
X-10179000Y23725000D01*
X-11183000Y23725000D01*
X-11437000Y23725000D01*
X-12441000Y23725000D01*
X-13179000Y23725000D01*
X-14183000Y23725000D01*
X-14437000Y23725000D01*
X-15441000Y23725000D01*
X-15748000Y23725000D01*
X-15748000Y24329000D01*
X-15441000Y24329000D01*
X-15441000Y23979000D01*
X-14437000Y23979000D01*
X-14437000Y25229934D01*
X-14183000Y25229934D01*
X-14183000Y23979000D01*
X-13179000Y23979000D01*
X-13179000Y24329000D01*
X-12441000Y24329000D01*
X-12441000Y23979000D01*
X-11437000Y23979000D01*
X-11437000Y25229934D01*
X-11183000Y25229934D01*
X-11183000Y23979000D01*
X-10179000Y23979000D01*
X-10179000Y24329000D01*
X-9441000Y24329000D01*
X-9441000Y23979000D01*
X-8437000Y23979000D01*
X-8437000Y25229934D01*
X-8183000Y25229934D01*
X-8183000Y23979000D01*
X-7179000Y23979000D01*
X-7179000Y24329000D01*
X-6441000Y24329000D01*
X-6441000Y23979000D01*
X-5437000Y23979000D01*
X-5437000Y25229934D01*
X-5183000Y25229934D01*
X-5183000Y23979000D01*
X-4179000Y23979000D01*
X-4179000Y24329000D01*
X-4225508Y24547207D01*
X-4313693Y24752148D01*
X-4440165Y24935947D01*
X-4600065Y25091541D01*
X-4787247Y25212950D01*
X-5008755Y25292143D01*
X-5183000Y25229934D01*
X-5437000Y25229934D01*
X-5611245Y25292143D01*
X-5832753Y25212950D01*
X-6019935Y25091541D01*
X-6179835Y24935947D01*
X-6306307Y24752148D01*
X-6394492Y24547207D01*
X-6441000Y24329000D01*
X-7179000Y24329000D01*
X-7225508Y24547207D01*
X-7313693Y24752148D01*
X-7440165Y24935947D01*
X-7600065Y25091541D01*
X-7787247Y25212950D01*
X-8008755Y25292143D01*
X-8183000Y25229934D01*
X-8437000Y25229934D01*
X-8611245Y25292143D01*
X-8832753Y25212950D01*
X-9019935Y25091541D01*
X-9179835Y24935947D01*
X-9306307Y24752148D01*
X-9394492Y24547207D01*
X-9441000Y24329000D01*
X-10179000Y24329000D01*
X-10225508Y24547207D01*
X-10313693Y24752148D01*
X-10440165Y24935947D01*
X-10600065Y25091541D01*
X-10787247Y25212950D01*
X-11008755Y25292143D01*
X-11183000Y25229934D01*
X-11437000Y25229934D01*
X-11611245Y25292143D01*
X-11832753Y25212950D01*
X-12019935Y25091541D01*
X-12179835Y24935947D01*
X-12306307Y24752148D01*
X-12394492Y24547207D01*
X-12441000Y24329000D01*
X-13179000Y24329000D01*
X-13225508Y24547207D01*
X-13313693Y24752148D01*
X-13440165Y24935947D01*
X-13600065Y25091541D01*
X-13787247Y25212950D01*
X-14008755Y25292143D01*
X-14183000Y25229934D01*
X-14437000Y25229934D01*
X-14611245Y25292143D01*
X-14832753Y25212950D01*
X-15019935Y25091541D01*
X-15179835Y24935947D01*
X-15306307Y24752148D01*
X-15394492Y24547207D01*
X-15441000Y24329000D01*
X-15748000Y24329000D01*
X-15748000Y25355647D01*
X-11004646Y30099000D01*
X9281894Y30099000D01*
X9461500Y29919394D01*
M02*
