M48
; DRILL file {KiCad (5.1.2)-2} date 12/28/2020 2:20:30 PM
; FORMAT={-:-/ absolute / inch / decimal}
; #@! TF.CreationDate,2020-12-28T14:20:30-08:00
; #@! TF.GenerationSoftware,Kicad,Pcbnew,(5.1.2)-2
FMAT,2
INCH
T1C0.0150
T2C0.0250
T3C0.0276
T4C0.0315
T5C0.0394
T6C0.0433
T7C0.0945
T8C0.0354
T9C0.1250
T10C0.1417
%
G90
G05
T1
X-1.4975Y-0.26
X-1.4675Y0.7375
X-1.42Y0.72
X-1.36Y-0.375
X-1.355Y-0.45
X-1.35Y-0.6075
X-1.326Y-0.104
X-1.315Y-0.28
X-1.305Y0.84
X-1.305Y0.7775
X-1.237Y0.925
X-1.2275Y0.465
X-1.2241Y0.4291
X-1.187Y0.925
X-1.1675Y0.3425
X-1.137Y0.996
X-1.137Y0.925
X-1.137Y0.875
X-1.137Y0.825
X-1.137Y0.775
X-1.137Y0.735
X-1.137Y0.685
X-1.137Y0.635
X-1.137Y0.585
X-1.135Y0.2875
X-1.115Y-0.635
X-1.087Y0.996
X-1.087Y0.925
X-1.065Y-0.41
X-1.037Y0.996
X-1.037Y0.925
X-1.0125Y-0.3425
X-1.0Y0.6775
X-0.99Y-0.88
X-0.99Y-0.92
X-0.99Y-0.96
X-0.987Y0.996
X-0.965Y0.4375
X-0.945Y0.8525
X-0.937Y0.996
X-0.925Y0.4375
X-0.915Y0.105
X-0.91Y0.14
X-0.905Y0.8525
X-0.885Y0.4375
X-0.8775Y0.6775
X-0.8775Y0.5875
X-0.875Y0.145
X-0.865Y0.8525
X-0.865Y0.18
X-0.845Y0.4375
X-0.8375Y0.6775
X-0.8375Y0.5875
X-0.7975Y0.6775
X-0.7975Y0.5875
X-0.775Y0.635
X-0.7585Y0.5715
X-0.7575Y0.6775
X-0.725Y-0.205
X-0.7185Y0.5715
X-0.7175Y0.6775
X-0.6785Y0.5715
X-0.6775Y0.6775
X-0.6425Y0.4375
X-0.6062Y-0.2362
X-0.6025Y0.4375
X-0.5625Y0.4375
X-0.555Y0.0375
X-0.5225Y0.4375
X-0.5142Y-0.434
X-0.5141Y-0.3964
X-0.51Y-0.315
X-0.475Y-0.01
X-0.47Y1.105
X-0.4521Y-0.1254
X-0.43Y0.49
X-0.43Y-0.215
X-0.42Y1.105
X-0.42Y-0.925
X-0.405Y0.24
X-0.405Y0.16
X-0.405Y-0.1875
X-0.3925Y-0.265
X-0.39Y0.49
X-0.39Y-0.835
X-0.37Y1.105
X-0.355Y0.24
X-0.355Y0.16
X-0.35Y0.49
X-0.325Y-0.835
X-0.325Y-0.955
X-0.3213Y-0.3347
X-0.32Y1.105
X-0.315Y-0.225
X-0.31Y0.49
X-0.3075Y0.5775
X-0.305Y0.24
X-0.305Y0.16
X-0.2916Y-0.3202
X-0.27Y1.105
X-0.2425Y0.565
X-0.2425Y0.515
X-0.2425Y0.465
X-0.2425Y0.415
X-0.235Y-0.135
X-0.22Y1.105
X-0.17Y1.105
X-0.155Y-0.24
X-0.1425Y0.565
X-0.1425Y0.515
X-0.1425Y0.465
X-0.1425Y0.415
X-0.12Y1.105
X-0.07Y1.105
X-0.0425Y0.565
X-0.0425Y0.515
X-0.0425Y0.465
X-0.0425Y0.415
X-0.02Y1.105
X0.0Y0.12
X0.01Y0.085
X0.03Y1.105
X0.055Y0.415
X0.0575Y0.49
X0.08Y1.105
X0.085Y-0.055
X0.1075Y0.49
X0.13Y1.105
X0.145Y-0.235
X0.17Y0.355
X0.18Y1.105
X0.2Y0.5025
X0.2Y0.4725
X0.22Y0.355
X0.23Y1.105
X0.28Y1.105
X0.28Y0.365
X0.33Y1.105
X0.35Y0.1
X0.365Y0.23
X0.4202Y-0.2052
X0.465Y0.37
X0.465Y0.345
X0.495Y-1.06
X0.495Y-1.11
X0.495Y-1.16
X0.515Y0.45
X0.515Y0.23
X0.56Y0.405
X0.6795Y0.5705
X0.6795Y0.5095
X0.74Y0.32
X0.76Y0.38
X0.78Y0.32
X0.905Y-0.02
T2
X0.7225Y1.1525
X0.8125Y1.1525
T3
X-1.4845Y0.0365
X-1.4845Y-0.0265
X-1.4373Y0.068
X-1.4373Y0.005
X-1.4373Y-0.058
T4
X-0.835Y-0.34
X-0.835Y-0.4187
X-0.835Y-0.4975
X-0.835Y-0.5762
X-0.835Y-0.655
X-0.2875Y-0.645
X-0.1516Y-0.5091
X0.655Y0.0971
X0.655Y-0.095
T5
X-0.7291Y-0.8409
X-0.7291Y-0.9591
X-0.6109Y-0.8409
X-0.6109Y-0.9591
X-0.6815Y0.9391
X-0.6815Y0.8209
X-0.5634Y0.9391
X-0.5634Y0.8209
X-0.4453Y0.9391
X-0.4453Y0.8209
X-0.3272Y0.9391
X-0.3272Y0.8209
X-0.2091Y0.9391
X-0.2091Y0.8209
X-0.0909Y0.9391
X-0.0909Y0.8209
X0.0272Y0.9391
X0.0272Y0.8209
X0.1453Y0.9391
X0.1453Y0.8209
X0.2634Y0.9391
X0.2634Y0.8209
X0.3815Y0.9391
X0.3815Y0.8209
X-1.4562Y-0.84
X-1.4562Y-0.9581
X-1.3381Y-0.84
X-1.3381Y-0.9581
X-1.22Y-0.84
X-1.22Y-0.9581
X0.9769Y1.0243
X0.9769Y0.9062
X0.9769Y0.7881
X0.9769Y0.67
X0.9769Y0.5519
X0.9769Y0.4338
X0.9769Y0.3157
X0.9769Y0.1976
X1.095Y1.0243
X1.095Y0.9062
X1.095Y0.7881
X1.095Y0.67
X1.095Y0.5519
X1.095Y0.4338
X1.095Y0.3157
X1.095Y0.1976
T6
X0.6314Y-0.5224
X0.6314Y-0.6091
X0.6314Y-0.6957
X0.6314Y-0.7823
X0.6314Y-0.8689
X0.6314Y-0.9555
X0.6314Y-1.0421
X0.6314Y-1.1287
X0.7495Y-0.5224
X0.7495Y-0.6091
X0.7495Y-0.6957
X0.7495Y-0.7823
X0.7495Y-0.8689
X0.7495Y-0.9555
X0.7495Y-1.0421
X0.7495Y-1.1287
T7
X-1.5413Y-1.1282
X-1.135Y-1.1282
X1.2651Y1.1094
X1.2651Y0.1125
X-0.8141Y-1.1291
X-0.5259Y-1.1291
X-0.7661Y1.1091
X0.4661Y1.1091
T8
X-1.3061Y1.165
X-1.1879Y1.165
T9
X-1.555Y1.14
X0.72Y0.94
X1.295Y-0.16
X-0.205Y-1.06
T10
X0.9661Y-1.1012
X0.97Y-0.55
T3
G00X-1.6125Y0.1487
M15
G01X-1.6597Y0.1487
M16
G05
G00X-1.6125Y-0.1387
M15
G01X-1.6597Y-0.1387
M16
G05
T0
M30
